<?xml version="1.0" encoding="utf-8" standalone="no"?>
<!DOCTYPE svg PUBLIC "-//W3C//DTD SVG 1.1//EN"
  "http://www.w3.org/Graphics/SVG/1.1/DTD/svg11.dtd">
<svg xmlns:xlink="http://www.w3.org/1999/xlink" width="413.302812pt" height="310.86825pt" viewBox="0 0 413.302812 310.86825" xmlns="http://www.w3.org/2000/svg" version="1.1">
 <metadata>
  <rdf:RDF xmlns:dc="http://purl.org/dc/elements/1.1/" xmlns:cc="http://creativecommons.org/ns#" xmlns:rdf="http://www.w3.org/1999/02/22-rdf-syntax-ns#">
   <cc:Work>
    <dc:type rdf:resource="http://purl.org/dc/dcmitype/StillImage"/>
    <dc:date>2024-10-02T20:17:43.887950</dc:date>
    <dc:format>image/svg+xml</dc:format>
    <dc:creator>
     <cc:Agent>
      <dc:title>Matplotlib v3.8.4, https://matplotlib.org/</dc:title>
     </cc:Agent>
    </dc:creator>
   </cc:Work>
  </rdf:RDF>
 </metadata>
 <defs>
  <style type="text/css">*{stroke-linejoin: round; stroke-linecap: butt}</style>
 </defs>
 <g id="figure_1">
  <g id="patch_1">
   <path d="M 0 310.86825 
L 413.302812 310.86825 
L 413.302812 0 
L 0 0 
z
" style="fill: #ffffff"/>
  </g>
  <g id="axes_1">
   <g id="patch_2">
    <path d="M 48.982813 273.312 
L 406.102813 273.312 
L 406.102813 7.2 
L 48.982813 7.2 
z
" style="fill: #ffffff"/>
   </g>
   <g id="matplotlib.axis_1">
    <g id="xtick_1">
     <g id="line2d_1">
      <defs>
       <path id="mbd172e6ada" d="M 0 0 
L 0 3.5 
" style="stroke: #000000; stroke-width: 0.8"/>
      </defs>
      <g>
       <use xlink:href="#mbd172e6ada" x="61.936201" y="273.312" style="stroke: #000000; stroke-width: 0.8"/>
      </g>
     </g>
     <g id="text_1">
      <!-- 0 -->
      <g transform="translate(58.754951 287.910437) scale(0.1 -0.1)">
       <defs>
        <path id="DejaVuSans-30" d="M 2034 4250 
Q 1547 4250 1301 3770 
Q 1056 3291 1056 2328 
Q 1056 1369 1301 889 
Q 1547 409 2034 409 
Q 2525 409 2770 889 
Q 3016 1369 3016 2328 
Q 3016 3291 2770 3770 
Q 2525 4250 2034 4250 
z
M 2034 4750 
Q 2819 4750 3233 4129 
Q 3647 3509 3647 2328 
Q 3647 1150 3233 529 
Q 2819 -91 2034 -91 
Q 1250 -91 836 529 
Q 422 1150 422 2328 
Q 422 3509 836 4129 
Q 1250 4750 2034 4750 
z
" transform="scale(0.015625)"/>
       </defs>
       <use xlink:href="#DejaVuSans-30"/>
      </g>
     </g>
    </g>
    <g id="xtick_2">
     <g id="line2d_2">
      <g>
       <use xlink:href="#mbd172e6ada" x="127.522978" y="273.312" style="stroke: #000000; stroke-width: 0.8"/>
      </g>
     </g>
     <g id="text_2">
      <!-- 20 -->
      <g transform="translate(121.160478 287.910437) scale(0.1 -0.1)">
       <defs>
        <path id="DejaVuSans-32" d="M 1228 531 
L 3431 531 
L 3431 0 
L 469 0 
L 469 531 
Q 828 903 1448 1529 
Q 2069 2156 2228 2338 
Q 2531 2678 2651 2914 
Q 2772 3150 2772 3378 
Q 2772 3750 2511 3984 
Q 2250 4219 1831 4219 
Q 1534 4219 1204 4116 
Q 875 4013 500 3803 
L 500 4441 
Q 881 4594 1212 4672 
Q 1544 4750 1819 4750 
Q 2544 4750 2975 4387 
Q 3406 4025 3406 3419 
Q 3406 3131 3298 2873 
Q 3191 2616 2906 2266 
Q 2828 2175 2409 1742 
Q 1991 1309 1228 531 
z
" transform="scale(0.015625)"/>
       </defs>
       <use xlink:href="#DejaVuSans-32"/>
       <use xlink:href="#DejaVuSans-30" x="63.623047"/>
      </g>
     </g>
    </g>
    <g id="xtick_3">
     <g id="line2d_3">
      <g>
       <use xlink:href="#mbd172e6ada" x="193.109755" y="273.312" style="stroke: #000000; stroke-width: 0.8"/>
      </g>
     </g>
     <g id="text_3">
      <!-- 40 -->
      <g transform="translate(186.747255 287.910437) scale(0.1 -0.1)">
       <defs>
        <path id="DejaVuSans-34" d="M 2419 4116 
L 825 1625 
L 2419 1625 
L 2419 4116 
z
M 2253 4666 
L 3047 4666 
L 3047 1625 
L 3713 1625 
L 3713 1100 
L 3047 1100 
L 3047 0 
L 2419 0 
L 2419 1100 
L 313 1100 
L 313 1709 
L 2253 4666 
z
" transform="scale(0.015625)"/>
       </defs>
       <use xlink:href="#DejaVuSans-34"/>
       <use xlink:href="#DejaVuSans-30" x="63.623047"/>
      </g>
     </g>
    </g>
    <g id="xtick_4">
     <g id="line2d_4">
      <g>
       <use xlink:href="#mbd172e6ada" x="258.696532" y="273.312" style="stroke: #000000; stroke-width: 0.8"/>
      </g>
     </g>
     <g id="text_4">
      <!-- 60 -->
      <g transform="translate(252.334032 287.910437) scale(0.1 -0.1)">
       <defs>
        <path id="DejaVuSans-36" d="M 2113 2584 
Q 1688 2584 1439 2293 
Q 1191 2003 1191 1497 
Q 1191 994 1439 701 
Q 1688 409 2113 409 
Q 2538 409 2786 701 
Q 3034 994 3034 1497 
Q 3034 2003 2786 2293 
Q 2538 2584 2113 2584 
z
M 3366 4563 
L 3366 3988 
Q 3128 4100 2886 4159 
Q 2644 4219 2406 4219 
Q 1781 4219 1451 3797 
Q 1122 3375 1075 2522 
Q 1259 2794 1537 2939 
Q 1816 3084 2150 3084 
Q 2853 3084 3261 2657 
Q 3669 2231 3669 1497 
Q 3669 778 3244 343 
Q 2819 -91 2113 -91 
Q 1303 -91 875 529 
Q 447 1150 447 2328 
Q 447 3434 972 4092 
Q 1497 4750 2381 4750 
Q 2619 4750 2861 4703 
Q 3103 4656 3366 4563 
z
" transform="scale(0.015625)"/>
       </defs>
       <use xlink:href="#DejaVuSans-36"/>
       <use xlink:href="#DejaVuSans-30" x="63.623047"/>
      </g>
     </g>
    </g>
    <g id="xtick_5">
     <g id="line2d_5">
      <g>
       <use xlink:href="#mbd172e6ada" x="324.283308" y="273.312" style="stroke: #000000; stroke-width: 0.8"/>
      </g>
     </g>
     <g id="text_5">
      <!-- 80 -->
      <g transform="translate(317.920808 287.910437) scale(0.1 -0.1)">
       <defs>
        <path id="DejaVuSans-38" d="M 2034 2216 
Q 1584 2216 1326 1975 
Q 1069 1734 1069 1313 
Q 1069 891 1326 650 
Q 1584 409 2034 409 
Q 2484 409 2743 651 
Q 3003 894 3003 1313 
Q 3003 1734 2745 1975 
Q 2488 2216 2034 2216 
z
M 1403 2484 
Q 997 2584 770 2862 
Q 544 3141 544 3541 
Q 544 4100 942 4425 
Q 1341 4750 2034 4750 
Q 2731 4750 3128 4425 
Q 3525 4100 3525 3541 
Q 3525 3141 3298 2862 
Q 3072 2584 2669 2484 
Q 3125 2378 3379 2068 
Q 3634 1759 3634 1313 
Q 3634 634 3220 271 
Q 2806 -91 2034 -91 
Q 1263 -91 848 271 
Q 434 634 434 1313 
Q 434 1759 690 2068 
Q 947 2378 1403 2484 
z
M 1172 3481 
Q 1172 3119 1398 2916 
Q 1625 2713 2034 2713 
Q 2441 2713 2670 2916 
Q 2900 3119 2900 3481 
Q 2900 3844 2670 4047 
Q 2441 4250 2034 4250 
Q 1625 4250 1398 4047 
Q 1172 3844 1172 3481 
z
" transform="scale(0.015625)"/>
       </defs>
       <use xlink:href="#DejaVuSans-38"/>
       <use xlink:href="#DejaVuSans-30" x="63.623047"/>
      </g>
     </g>
    </g>
    <g id="xtick_6">
     <g id="line2d_6">
      <g>
       <use xlink:href="#mbd172e6ada" x="389.870085" y="273.312" style="stroke: #000000; stroke-width: 0.8"/>
      </g>
     </g>
     <g id="text_6">
      <!-- 100 -->
      <g transform="translate(380.326335 287.910437) scale(0.1 -0.1)">
       <defs>
        <path id="DejaVuSans-31" d="M 794 531 
L 1825 531 
L 1825 4091 
L 703 3866 
L 703 4441 
L 1819 4666 
L 2450 4666 
L 2450 531 
L 3481 531 
L 3481 0 
L 794 0 
L 794 531 
z
" transform="scale(0.015625)"/>
       </defs>
       <use xlink:href="#DejaVuSans-31"/>
       <use xlink:href="#DejaVuSans-30" x="63.623047"/>
       <use xlink:href="#DejaVuSans-30" x="127.246094"/>
      </g>
     </g>
    </g>
    <g id="text_7">
     <!-- Number of Perturbations -->
     <g transform="translate(165.888906 301.588562) scale(0.1 -0.1)">
      <defs>
       <path id="DejaVuSans-4e" d="M 628 4666 
L 1478 4666 
L 3547 763 
L 3547 4666 
L 4159 4666 
L 4159 0 
L 3309 0 
L 1241 3903 
L 1241 0 
L 628 0 
L 628 4666 
z
" transform="scale(0.015625)"/>
       <path id="DejaVuSans-75" d="M 544 1381 
L 544 3500 
L 1119 3500 
L 1119 1403 
Q 1119 906 1312 657 
Q 1506 409 1894 409 
Q 2359 409 2629 706 
Q 2900 1003 2900 1516 
L 2900 3500 
L 3475 3500 
L 3475 0 
L 2900 0 
L 2900 538 
Q 2691 219 2414 64 
Q 2138 -91 1772 -91 
Q 1169 -91 856 284 
Q 544 659 544 1381 
z
M 1991 3584 
L 1991 3584 
z
" transform="scale(0.015625)"/>
       <path id="DejaVuSans-6d" d="M 3328 2828 
Q 3544 3216 3844 3400 
Q 4144 3584 4550 3584 
Q 5097 3584 5394 3201 
Q 5691 2819 5691 2113 
L 5691 0 
L 5113 0 
L 5113 2094 
Q 5113 2597 4934 2840 
Q 4756 3084 4391 3084 
Q 3944 3084 3684 2787 
Q 3425 2491 3425 1978 
L 3425 0 
L 2847 0 
L 2847 2094 
Q 2847 2600 2669 2842 
Q 2491 3084 2119 3084 
Q 1678 3084 1418 2786 
Q 1159 2488 1159 1978 
L 1159 0 
L 581 0 
L 581 3500 
L 1159 3500 
L 1159 2956 
Q 1356 3278 1631 3431 
Q 1906 3584 2284 3584 
Q 2666 3584 2933 3390 
Q 3200 3197 3328 2828 
z
" transform="scale(0.015625)"/>
       <path id="DejaVuSans-62" d="M 3116 1747 
Q 3116 2381 2855 2742 
Q 2594 3103 2138 3103 
Q 1681 3103 1420 2742 
Q 1159 2381 1159 1747 
Q 1159 1113 1420 752 
Q 1681 391 2138 391 
Q 2594 391 2855 752 
Q 3116 1113 3116 1747 
z
M 1159 2969 
Q 1341 3281 1617 3432 
Q 1894 3584 2278 3584 
Q 2916 3584 3314 3078 
Q 3713 2572 3713 1747 
Q 3713 922 3314 415 
Q 2916 -91 2278 -91 
Q 1894 -91 1617 61 
Q 1341 213 1159 525 
L 1159 0 
L 581 0 
L 581 4863 
L 1159 4863 
L 1159 2969 
z
" transform="scale(0.015625)"/>
       <path id="DejaVuSans-65" d="M 3597 1894 
L 3597 1613 
L 953 1613 
Q 991 1019 1311 708 
Q 1631 397 2203 397 
Q 2534 397 2845 478 
Q 3156 559 3463 722 
L 3463 178 
Q 3153 47 2828 -22 
Q 2503 -91 2169 -91 
Q 1331 -91 842 396 
Q 353 884 353 1716 
Q 353 2575 817 3079 
Q 1281 3584 2069 3584 
Q 2775 3584 3186 3129 
Q 3597 2675 3597 1894 
z
M 3022 2063 
Q 3016 2534 2758 2815 
Q 2500 3097 2075 3097 
Q 1594 3097 1305 2825 
Q 1016 2553 972 2059 
L 3022 2063 
z
" transform="scale(0.015625)"/>
       <path id="DejaVuSans-72" d="M 2631 2963 
Q 2534 3019 2420 3045 
Q 2306 3072 2169 3072 
Q 1681 3072 1420 2755 
Q 1159 2438 1159 1844 
L 1159 0 
L 581 0 
L 581 3500 
L 1159 3500 
L 1159 2956 
Q 1341 3275 1631 3429 
Q 1922 3584 2338 3584 
Q 2397 3584 2469 3576 
Q 2541 3569 2628 3553 
L 2631 2963 
z
" transform="scale(0.015625)"/>
       <path id="DejaVuSans-20" transform="scale(0.015625)"/>
       <path id="DejaVuSans-6f" d="M 1959 3097 
Q 1497 3097 1228 2736 
Q 959 2375 959 1747 
Q 959 1119 1226 758 
Q 1494 397 1959 397 
Q 2419 397 2687 759 
Q 2956 1122 2956 1747 
Q 2956 2369 2687 2733 
Q 2419 3097 1959 3097 
z
M 1959 3584 
Q 2709 3584 3137 3096 
Q 3566 2609 3566 1747 
Q 3566 888 3137 398 
Q 2709 -91 1959 -91 
Q 1206 -91 779 398 
Q 353 888 353 1747 
Q 353 2609 779 3096 
Q 1206 3584 1959 3584 
z
" transform="scale(0.015625)"/>
       <path id="DejaVuSans-66" d="M 2375 4863 
L 2375 4384 
L 1825 4384 
Q 1516 4384 1395 4259 
Q 1275 4134 1275 3809 
L 1275 3500 
L 2222 3500 
L 2222 3053 
L 1275 3053 
L 1275 0 
L 697 0 
L 697 3053 
L 147 3053 
L 147 3500 
L 697 3500 
L 697 3744 
Q 697 4328 969 4595 
Q 1241 4863 1831 4863 
L 2375 4863 
z
" transform="scale(0.015625)"/>
       <path id="DejaVuSans-50" d="M 1259 4147 
L 1259 2394 
L 2053 2394 
Q 2494 2394 2734 2622 
Q 2975 2850 2975 3272 
Q 2975 3691 2734 3919 
Q 2494 4147 2053 4147 
L 1259 4147 
z
M 628 4666 
L 2053 4666 
Q 2838 4666 3239 4311 
Q 3641 3956 3641 3272 
Q 3641 2581 3239 2228 
Q 2838 1875 2053 1875 
L 1259 1875 
L 1259 0 
L 628 0 
L 628 4666 
z
" transform="scale(0.015625)"/>
       <path id="DejaVuSans-74" d="M 1172 4494 
L 1172 3500 
L 2356 3500 
L 2356 3053 
L 1172 3053 
L 1172 1153 
Q 1172 725 1289 603 
Q 1406 481 1766 481 
L 2356 481 
L 2356 0 
L 1766 0 
Q 1100 0 847 248 
Q 594 497 594 1153 
L 594 3053 
L 172 3053 
L 172 3500 
L 594 3500 
L 594 4494 
L 1172 4494 
z
" transform="scale(0.015625)"/>
       <path id="DejaVuSans-61" d="M 2194 1759 
Q 1497 1759 1228 1600 
Q 959 1441 959 1056 
Q 959 750 1161 570 
Q 1363 391 1709 391 
Q 2188 391 2477 730 
Q 2766 1069 2766 1631 
L 2766 1759 
L 2194 1759 
z
M 3341 1997 
L 3341 0 
L 2766 0 
L 2766 531 
Q 2569 213 2275 61 
Q 1981 -91 1556 -91 
Q 1019 -91 701 211 
Q 384 513 384 1019 
Q 384 1609 779 1909 
Q 1175 2209 1959 2209 
L 2766 2209 
L 2766 2266 
Q 2766 2663 2505 2880 
Q 2244 3097 1772 3097 
Q 1472 3097 1187 3025 
Q 903 2953 641 2809 
L 641 3341 
Q 956 3463 1253 3523 
Q 1550 3584 1831 3584 
Q 2591 3584 2966 3190 
Q 3341 2797 3341 1997 
z
" transform="scale(0.015625)"/>
       <path id="DejaVuSans-69" d="M 603 3500 
L 1178 3500 
L 1178 0 
L 603 0 
L 603 3500 
z
M 603 4863 
L 1178 4863 
L 1178 4134 
L 603 4134 
L 603 4863 
z
" transform="scale(0.015625)"/>
       <path id="DejaVuSans-6e" d="M 3513 2113 
L 3513 0 
L 2938 0 
L 2938 2094 
Q 2938 2591 2744 2837 
Q 2550 3084 2163 3084 
Q 1697 3084 1428 2787 
Q 1159 2491 1159 1978 
L 1159 0 
L 581 0 
L 581 3500 
L 1159 3500 
L 1159 2956 
Q 1366 3272 1645 3428 
Q 1925 3584 2291 3584 
Q 2894 3584 3203 3211 
Q 3513 2838 3513 2113 
z
" transform="scale(0.015625)"/>
       <path id="DejaVuSans-73" d="M 2834 3397 
L 2834 2853 
Q 2591 2978 2328 3040 
Q 2066 3103 1784 3103 
Q 1356 3103 1142 2972 
Q 928 2841 928 2578 
Q 928 2378 1081 2264 
Q 1234 2150 1697 2047 
L 1894 2003 
Q 2506 1872 2764 1633 
Q 3022 1394 3022 966 
Q 3022 478 2636 193 
Q 2250 -91 1575 -91 
Q 1294 -91 989 -36 
Q 684 19 347 128 
L 347 722 
Q 666 556 975 473 
Q 1284 391 1588 391 
Q 1994 391 2212 530 
Q 2431 669 2431 922 
Q 2431 1156 2273 1281 
Q 2116 1406 1581 1522 
L 1381 1569 
Q 847 1681 609 1914 
Q 372 2147 372 2553 
Q 372 3047 722 3315 
Q 1072 3584 1716 3584 
Q 2034 3584 2315 3537 
Q 2597 3491 2834 3397 
z
" transform="scale(0.015625)"/>
      </defs>
      <use xlink:href="#DejaVuSans-4e"/>
      <use xlink:href="#DejaVuSans-75" x="74.804688"/>
      <use xlink:href="#DejaVuSans-6d" x="138.183594"/>
      <use xlink:href="#DejaVuSans-62" x="235.595703"/>
      <use xlink:href="#DejaVuSans-65" x="299.072266"/>
      <use xlink:href="#DejaVuSans-72" x="360.595703"/>
      <use xlink:href="#DejaVuSans-20" x="401.708984"/>
      <use xlink:href="#DejaVuSans-6f" x="433.496094"/>
      <use xlink:href="#DejaVuSans-66" x="494.677734"/>
      <use xlink:href="#DejaVuSans-20" x="529.882812"/>
      <use xlink:href="#DejaVuSans-50" x="561.669922"/>
      <use xlink:href="#DejaVuSans-65" x="618.347656"/>
      <use xlink:href="#DejaVuSans-72" x="679.871094"/>
      <use xlink:href="#DejaVuSans-74" x="720.984375"/>
      <use xlink:href="#DejaVuSans-75" x="760.193359"/>
      <use xlink:href="#DejaVuSans-72" x="823.572266"/>
      <use xlink:href="#DejaVuSans-62" x="864.685547"/>
      <use xlink:href="#DejaVuSans-61" x="928.162109"/>
      <use xlink:href="#DejaVuSans-74" x="989.441406"/>
      <use xlink:href="#DejaVuSans-69" x="1028.650391"/>
      <use xlink:href="#DejaVuSans-6f" x="1056.433594"/>
      <use xlink:href="#DejaVuSans-6e" x="1117.615234"/>
      <use xlink:href="#DejaVuSans-73" x="1180.994141"/>
     </g>
    </g>
   </g>
   <g id="matplotlib.axis_2">
    <g id="ytick_1">
     <g id="line2d_7">
      <defs>
       <path id="m0633e79455" d="M 0 0 
L -3.5 0 
" style="stroke: #000000; stroke-width: 0.8"/>
      </defs>
      <g>
       <use xlink:href="#m0633e79455" x="48.982813" y="239.223273" style="stroke: #000000; stroke-width: 0.8"/>
      </g>
     </g>
     <g id="text_8">
      <!-- −50 -->
      <g transform="translate(20.878125 243.022491) scale(0.1 -0.1)">
       <defs>
        <path id="DejaVuSans-2212" d="M 678 2272 
L 4684 2272 
L 4684 1741 
L 678 1741 
L 678 2272 
z
" transform="scale(0.015625)"/>
        <path id="DejaVuSans-35" d="M 691 4666 
L 3169 4666 
L 3169 4134 
L 1269 4134 
L 1269 2991 
Q 1406 3038 1543 3061 
Q 1681 3084 1819 3084 
Q 2600 3084 3056 2656 
Q 3513 2228 3513 1497 
Q 3513 744 3044 326 
Q 2575 -91 1722 -91 
Q 1428 -91 1123 -41 
Q 819 9 494 109 
L 494 744 
Q 775 591 1075 516 
Q 1375 441 1709 441 
Q 2250 441 2565 725 
Q 2881 1009 2881 1497 
Q 2881 1984 2565 2268 
Q 2250 2553 1709 2553 
Q 1456 2553 1204 2497 
Q 953 2441 691 2322 
L 691 4666 
z
" transform="scale(0.015625)"/>
       </defs>
       <use xlink:href="#DejaVuSans-2212"/>
       <use xlink:href="#DejaVuSans-35" x="83.789062"/>
       <use xlink:href="#DejaVuSans-30" x="147.412109"/>
      </g>
     </g>
    </g>
    <g id="ytick_2">
     <g id="line2d_8">
      <g>
       <use xlink:href="#m0633e79455" x="48.982813" y="195.237818" style="stroke: #000000; stroke-width: 0.8"/>
      </g>
     </g>
     <g id="text_9">
      <!-- 0 -->
      <g transform="translate(35.620313 199.037037) scale(0.1 -0.1)">
       <use xlink:href="#DejaVuSans-30"/>
      </g>
     </g>
    </g>
    <g id="ytick_3">
     <g id="line2d_9">
      <g>
       <use xlink:href="#m0633e79455" x="48.982813" y="151.252364" style="stroke: #000000; stroke-width: 0.8"/>
      </g>
     </g>
     <g id="text_10">
      <!-- 50 -->
      <g transform="translate(29.257813 155.051582) scale(0.1 -0.1)">
       <use xlink:href="#DejaVuSans-35"/>
       <use xlink:href="#DejaVuSans-30" x="63.623047"/>
      </g>
     </g>
    </g>
    <g id="ytick_4">
     <g id="line2d_10">
      <g>
       <use xlink:href="#m0633e79455" x="48.982813" y="107.266909" style="stroke: #000000; stroke-width: 0.8"/>
      </g>
     </g>
     <g id="text_11">
      <!-- 100 -->
      <g transform="translate(22.895313 111.066128) scale(0.1 -0.1)">
       <use xlink:href="#DejaVuSans-31"/>
       <use xlink:href="#DejaVuSans-30" x="63.623047"/>
       <use xlink:href="#DejaVuSans-30" x="127.246094"/>
      </g>
     </g>
    </g>
    <g id="ytick_5">
     <g id="line2d_11">
      <g>
       <use xlink:href="#m0633e79455" x="48.982813" y="63.281455" style="stroke: #000000; stroke-width: 0.8"/>
      </g>
     </g>
     <g id="text_12">
      <!-- 150 -->
      <g transform="translate(22.895313 67.080673) scale(0.1 -0.1)">
       <use xlink:href="#DejaVuSans-31"/>
       <use xlink:href="#DejaVuSans-35" x="63.623047"/>
       <use xlink:href="#DejaVuSans-30" x="127.246094"/>
      </g>
     </g>
    </g>
    <g id="ytick_6">
     <g id="line2d_12">
      <g>
       <use xlink:href="#m0633e79455" x="48.982813" y="19.296" style="stroke: #000000; stroke-width: 0.8"/>
      </g>
     </g>
     <g id="text_13">
      <!-- 200 -->
      <g transform="translate(22.895313 23.095219) scale(0.1 -0.1)">
       <use xlink:href="#DejaVuSans-32"/>
       <use xlink:href="#DejaVuSans-30" x="63.623047"/>
       <use xlink:href="#DejaVuSans-30" x="127.246094"/>
      </g>
     </g>
    </g>
    <g id="text_14">
     <!-- % of Algebraic Relationships correctly identified -->
     <g transform="translate(14.798438 259.973187) rotate(-90) scale(0.1 -0.1)">
      <defs>
       <path id="DejaVuSans-25" d="M 4653 2053 
Q 4381 2053 4226 1822 
Q 4072 1591 4072 1178 
Q 4072 772 4226 539 
Q 4381 306 4653 306 
Q 4919 306 5073 539 
Q 5228 772 5228 1178 
Q 5228 1588 5073 1820 
Q 4919 2053 4653 2053 
z
M 4653 2450 
Q 5147 2450 5437 2106 
Q 5728 1763 5728 1178 
Q 5728 594 5436 251 
Q 5144 -91 4653 -91 
Q 4153 -91 3862 251 
Q 3572 594 3572 1178 
Q 3572 1766 3864 2108 
Q 4156 2450 4653 2450 
z
M 1428 4353 
Q 1159 4353 1004 4120 
Q 850 3888 850 3481 
Q 850 3069 1003 2837 
Q 1156 2606 1428 2606 
Q 1700 2606 1854 2837 
Q 2009 3069 2009 3481 
Q 2009 3884 1853 4118 
Q 1697 4353 1428 4353 
z
M 4250 4750 
L 4750 4750 
L 1831 -91 
L 1331 -91 
L 4250 4750 
z
M 1428 4750 
Q 1922 4750 2215 4408 
Q 2509 4066 2509 3481 
Q 2509 2891 2217 2550 
Q 1925 2209 1428 2209 
Q 931 2209 642 2551 
Q 353 2894 353 3481 
Q 353 4063 643 4406 
Q 934 4750 1428 4750 
z
" transform="scale(0.015625)"/>
       <path id="DejaVuSans-41" d="M 2188 4044 
L 1331 1722 
L 3047 1722 
L 2188 4044 
z
M 1831 4666 
L 2547 4666 
L 4325 0 
L 3669 0 
L 3244 1197 
L 1141 1197 
L 716 0 
L 50 0 
L 1831 4666 
z
" transform="scale(0.015625)"/>
       <path id="DejaVuSans-6c" d="M 603 4863 
L 1178 4863 
L 1178 0 
L 603 0 
L 603 4863 
z
" transform="scale(0.015625)"/>
       <path id="DejaVuSans-67" d="M 2906 1791 
Q 2906 2416 2648 2759 
Q 2391 3103 1925 3103 
Q 1463 3103 1205 2759 
Q 947 2416 947 1791 
Q 947 1169 1205 825 
Q 1463 481 1925 481 
Q 2391 481 2648 825 
Q 2906 1169 2906 1791 
z
M 3481 434 
Q 3481 -459 3084 -895 
Q 2688 -1331 1869 -1331 
Q 1566 -1331 1297 -1286 
Q 1028 -1241 775 -1147 
L 775 -588 
Q 1028 -725 1275 -790 
Q 1522 -856 1778 -856 
Q 2344 -856 2625 -561 
Q 2906 -266 2906 331 
L 2906 616 
Q 2728 306 2450 153 
Q 2172 0 1784 0 
Q 1141 0 747 490 
Q 353 981 353 1791 
Q 353 2603 747 3093 
Q 1141 3584 1784 3584 
Q 2172 3584 2450 3431 
Q 2728 3278 2906 2969 
L 2906 3500 
L 3481 3500 
L 3481 434 
z
" transform="scale(0.015625)"/>
       <path id="DejaVuSans-63" d="M 3122 3366 
L 3122 2828 
Q 2878 2963 2633 3030 
Q 2388 3097 2138 3097 
Q 1578 3097 1268 2742 
Q 959 2388 959 1747 
Q 959 1106 1268 751 
Q 1578 397 2138 397 
Q 2388 397 2633 464 
Q 2878 531 3122 666 
L 3122 134 
Q 2881 22 2623 -34 
Q 2366 -91 2075 -91 
Q 1284 -91 818 406 
Q 353 903 353 1747 
Q 353 2603 823 3093 
Q 1294 3584 2113 3584 
Q 2378 3584 2631 3529 
Q 2884 3475 3122 3366 
z
" transform="scale(0.015625)"/>
       <path id="DejaVuSans-52" d="M 2841 2188 
Q 3044 2119 3236 1894 
Q 3428 1669 3622 1275 
L 4263 0 
L 3584 0 
L 2988 1197 
Q 2756 1666 2539 1819 
Q 2322 1972 1947 1972 
L 1259 1972 
L 1259 0 
L 628 0 
L 628 4666 
L 2053 4666 
Q 2853 4666 3247 4331 
Q 3641 3997 3641 3322 
Q 3641 2881 3436 2590 
Q 3231 2300 2841 2188 
z
M 1259 4147 
L 1259 2491 
L 2053 2491 
Q 2509 2491 2742 2702 
Q 2975 2913 2975 3322 
Q 2975 3731 2742 3939 
Q 2509 4147 2053 4147 
L 1259 4147 
z
" transform="scale(0.015625)"/>
       <path id="DejaVuSans-68" d="M 3513 2113 
L 3513 0 
L 2938 0 
L 2938 2094 
Q 2938 2591 2744 2837 
Q 2550 3084 2163 3084 
Q 1697 3084 1428 2787 
Q 1159 2491 1159 1978 
L 1159 0 
L 581 0 
L 581 4863 
L 1159 4863 
L 1159 2956 
Q 1366 3272 1645 3428 
Q 1925 3584 2291 3584 
Q 2894 3584 3203 3211 
Q 3513 2838 3513 2113 
z
" transform="scale(0.015625)"/>
       <path id="DejaVuSans-70" d="M 1159 525 
L 1159 -1331 
L 581 -1331 
L 581 3500 
L 1159 3500 
L 1159 2969 
Q 1341 3281 1617 3432 
Q 1894 3584 2278 3584 
Q 2916 3584 3314 3078 
Q 3713 2572 3713 1747 
Q 3713 922 3314 415 
Q 2916 -91 2278 -91 
Q 1894 -91 1617 61 
Q 1341 213 1159 525 
z
M 3116 1747 
Q 3116 2381 2855 2742 
Q 2594 3103 2138 3103 
Q 1681 3103 1420 2742 
Q 1159 2381 1159 1747 
Q 1159 1113 1420 752 
Q 1681 391 2138 391 
Q 2594 391 2855 752 
Q 3116 1113 3116 1747 
z
" transform="scale(0.015625)"/>
       <path id="DejaVuSans-79" d="M 2059 -325 
Q 1816 -950 1584 -1140 
Q 1353 -1331 966 -1331 
L 506 -1331 
L 506 -850 
L 844 -850 
Q 1081 -850 1212 -737 
Q 1344 -625 1503 -206 
L 1606 56 
L 191 3500 
L 800 3500 
L 1894 763 
L 2988 3500 
L 3597 3500 
L 2059 -325 
z
" transform="scale(0.015625)"/>
       <path id="DejaVuSans-64" d="M 2906 2969 
L 2906 4863 
L 3481 4863 
L 3481 0 
L 2906 0 
L 2906 525 
Q 2725 213 2448 61 
Q 2172 -91 1784 -91 
Q 1150 -91 751 415 
Q 353 922 353 1747 
Q 353 2572 751 3078 
Q 1150 3584 1784 3584 
Q 2172 3584 2448 3432 
Q 2725 3281 2906 2969 
z
M 947 1747 
Q 947 1113 1208 752 
Q 1469 391 1925 391 
Q 2381 391 2643 752 
Q 2906 1113 2906 1747 
Q 2906 2381 2643 2742 
Q 2381 3103 1925 3103 
Q 1469 3103 1208 2742 
Q 947 2381 947 1747 
z
" transform="scale(0.015625)"/>
      </defs>
      <use xlink:href="#DejaVuSans-25"/>
      <use xlink:href="#DejaVuSans-20" x="95.019531"/>
      <use xlink:href="#DejaVuSans-6f" x="126.806641"/>
      <use xlink:href="#DejaVuSans-66" x="187.988281"/>
      <use xlink:href="#DejaVuSans-20" x="223.193359"/>
      <use xlink:href="#DejaVuSans-41" x="254.980469"/>
      <use xlink:href="#DejaVuSans-6c" x="323.388672"/>
      <use xlink:href="#DejaVuSans-67" x="351.171875"/>
      <use xlink:href="#DejaVuSans-65" x="414.648438"/>
      <use xlink:href="#DejaVuSans-62" x="476.171875"/>
      <use xlink:href="#DejaVuSans-72" x="539.648438"/>
      <use xlink:href="#DejaVuSans-61" x="580.761719"/>
      <use xlink:href="#DejaVuSans-69" x="642.041016"/>
      <use xlink:href="#DejaVuSans-63" x="669.824219"/>
      <use xlink:href="#DejaVuSans-20" x="724.804688"/>
      <use xlink:href="#DejaVuSans-52" x="756.591797"/>
      <use xlink:href="#DejaVuSans-65" x="821.574219"/>
      <use xlink:href="#DejaVuSans-6c" x="883.097656"/>
      <use xlink:href="#DejaVuSans-61" x="910.880859"/>
      <use xlink:href="#DejaVuSans-74" x="972.160156"/>
      <use xlink:href="#DejaVuSans-69" x="1011.369141"/>
      <use xlink:href="#DejaVuSans-6f" x="1039.152344"/>
      <use xlink:href="#DejaVuSans-6e" x="1100.333984"/>
      <use xlink:href="#DejaVuSans-73" x="1163.712891"/>
      <use xlink:href="#DejaVuSans-68" x="1215.8125"/>
      <use xlink:href="#DejaVuSans-69" x="1279.191406"/>
      <use xlink:href="#DejaVuSans-70" x="1306.974609"/>
      <use xlink:href="#DejaVuSans-73" x="1370.451172"/>
      <use xlink:href="#DejaVuSans-20" x="1422.550781"/>
      <use xlink:href="#DejaVuSans-63" x="1454.337891"/>
      <use xlink:href="#DejaVuSans-6f" x="1509.318359"/>
      <use xlink:href="#DejaVuSans-72" x="1570.5"/>
      <use xlink:href="#DejaVuSans-72" x="1609.863281"/>
      <use xlink:href="#DejaVuSans-65" x="1648.726562"/>
      <use xlink:href="#DejaVuSans-63" x="1710.25"/>
      <use xlink:href="#DejaVuSans-74" x="1765.230469"/>
      <use xlink:href="#DejaVuSans-6c" x="1804.439453"/>
      <use xlink:href="#DejaVuSans-79" x="1832.222656"/>
      <use xlink:href="#DejaVuSans-20" x="1891.402344"/>
      <use xlink:href="#DejaVuSans-69" x="1923.189453"/>
      <use xlink:href="#DejaVuSans-64" x="1950.972656"/>
      <use xlink:href="#DejaVuSans-65" x="2014.449219"/>
      <use xlink:href="#DejaVuSans-6e" x="2075.972656"/>
      <use xlink:href="#DejaVuSans-74" x="2139.351562"/>
      <use xlink:href="#DejaVuSans-69" x="2178.560547"/>
      <use xlink:href="#DejaVuSans-66" x="2206.34375"/>
      <use xlink:href="#DejaVuSans-69" x="2241.548828"/>
      <use xlink:href="#DejaVuSans-65" x="2269.332031"/>
      <use xlink:href="#DejaVuSans-64" x="2330.855469"/>
     </g>
    </g>
   </g>
   <g id="LineCollection_1">
    <path d="M 65.21554 224.561455 
L 65.21554 48.619636 
" clip-path="url(#p1187b046c2)" style="fill: none; stroke: #1f77b4; stroke-width: 1.5"/>
    <path d="M 81.612234 195.237818 
L 81.612234 19.296 
" clip-path="url(#p1187b046c2)" style="fill: none; stroke: #1f77b4; stroke-width: 1.5"/>
    <path d="M 98.008928 195.237818 
L 98.008928 19.296 
" clip-path="url(#p1187b046c2)" style="fill: none; stroke: #1f77b4; stroke-width: 1.5"/>
    <path d="M 114.405622 195.237818 
L 114.405622 19.296 
" clip-path="url(#p1187b046c2)" style="fill: none; stroke: #1f77b4; stroke-width: 1.5"/>
    <path d="M 130.802317 195.237818 
L 130.802317 19.296 
" clip-path="url(#p1187b046c2)" style="fill: none; stroke: #1f77b4; stroke-width: 1.5"/>
    <path d="M 147.199011 195.237818 
L 147.199011 19.296 
" clip-path="url(#p1187b046c2)" style="fill: none; stroke: #1f77b4; stroke-width: 1.5"/>
    <path d="M 163.595705 195.237818 
L 163.595705 19.296 
" clip-path="url(#p1187b046c2)" style="fill: none; stroke: #1f77b4; stroke-width: 1.5"/>
    <path d="M 179.992399 195.237818 
L 179.992399 19.296 
" clip-path="url(#p1187b046c2)" style="fill: none; stroke: #1f77b4; stroke-width: 1.5"/>
    <path d="M 196.389093 195.237818 
L 196.389093 19.296 
" clip-path="url(#p1187b046c2)" style="fill: none; stroke: #1f77b4; stroke-width: 1.5"/>
    <path d="M 212.785788 195.237818 
L 212.785788 19.296 
" clip-path="url(#p1187b046c2)" style="fill: none; stroke: #1f77b4; stroke-width: 1.5"/>
    <path d="M 229.182482 195.237818 
L 229.182482 19.296 
" clip-path="url(#p1187b046c2)" style="fill: none; stroke: #1f77b4; stroke-width: 1.5"/>
    <path d="M 245.579176 195.237818 
L 245.579176 19.296 
" clip-path="url(#p1187b046c2)" style="fill: none; stroke: #1f77b4; stroke-width: 1.5"/>
    <path d="M 261.97587 195.237818 
L 261.97587 19.296 
" clip-path="url(#p1187b046c2)" style="fill: none; stroke: #1f77b4; stroke-width: 1.5"/>
    <path d="M 278.372565 195.237818 
L 278.372565 19.296 
" clip-path="url(#p1187b046c2)" style="fill: none; stroke: #1f77b4; stroke-width: 1.5"/>
    <path d="M 294.769259 195.237818 
L 294.769259 19.296 
" clip-path="url(#p1187b046c2)" style="fill: none; stroke: #1f77b4; stroke-width: 1.5"/>
    <path d="M 311.165953 195.237818 
L 311.165953 19.296 
" clip-path="url(#p1187b046c2)" style="fill: none; stroke: #1f77b4; stroke-width: 1.5"/>
    <path d="M 327.562647 195.237818 
L 327.562647 19.296 
" clip-path="url(#p1187b046c2)" style="fill: none; stroke: #1f77b4; stroke-width: 1.5"/>
    <path d="M 343.959341 195.237818 
L 343.959341 19.296 
" clip-path="url(#p1187b046c2)" style="fill: none; stroke: #1f77b4; stroke-width: 1.5"/>
    <path d="M 360.356036 195.237818 
L 360.356036 19.296 
" clip-path="url(#p1187b046c2)" style="fill: none; stroke: #1f77b4; stroke-width: 1.5"/>
    <path d="M 376.75273 195.237818 
L 376.75273 19.296 
" clip-path="url(#p1187b046c2)" style="fill: none; stroke: #1f77b4; stroke-width: 1.5"/>
    <path d="M 389.870085 195.237818 
L 389.870085 19.296 
" clip-path="url(#p1187b046c2)" style="fill: none; stroke: #1f77b4; stroke-width: 1.5"/>
   </g>
   <g id="line2d_13">
    <defs>
     <path id="m726e5f71c7" d="M 5 0 
L -5 -0 
" style="stroke: #1f77b4"/>
    </defs>
    <g clip-path="url(#p1187b046c2)">
     <use xlink:href="#m726e5f71c7" x="65.21554" y="224.561455" style="fill: #1f77b4; stroke: #1f77b4"/>
     <use xlink:href="#m726e5f71c7" x="81.612234" y="195.237818" style="fill: #1f77b4; stroke: #1f77b4"/>
     <use xlink:href="#m726e5f71c7" x="98.008928" y="195.237818" style="fill: #1f77b4; stroke: #1f77b4"/>
     <use xlink:href="#m726e5f71c7" x="114.405622" y="195.237818" style="fill: #1f77b4; stroke: #1f77b4"/>
     <use xlink:href="#m726e5f71c7" x="130.802317" y="195.237818" style="fill: #1f77b4; stroke: #1f77b4"/>
     <use xlink:href="#m726e5f71c7" x="147.199011" y="195.237818" style="fill: #1f77b4; stroke: #1f77b4"/>
     <use xlink:href="#m726e5f71c7" x="163.595705" y="195.237818" style="fill: #1f77b4; stroke: #1f77b4"/>
     <use xlink:href="#m726e5f71c7" x="179.992399" y="195.237818" style="fill: #1f77b4; stroke: #1f77b4"/>
     <use xlink:href="#m726e5f71c7" x="196.389093" y="195.237818" style="fill: #1f77b4; stroke: #1f77b4"/>
     <use xlink:href="#m726e5f71c7" x="212.785788" y="195.237818" style="fill: #1f77b4; stroke: #1f77b4"/>
     <use xlink:href="#m726e5f71c7" x="229.182482" y="195.237818" style="fill: #1f77b4; stroke: #1f77b4"/>
     <use xlink:href="#m726e5f71c7" x="245.579176" y="195.237818" style="fill: #1f77b4; stroke: #1f77b4"/>
     <use xlink:href="#m726e5f71c7" x="261.97587" y="195.237818" style="fill: #1f77b4; stroke: #1f77b4"/>
     <use xlink:href="#m726e5f71c7" x="278.372565" y="195.237818" style="fill: #1f77b4; stroke: #1f77b4"/>
     <use xlink:href="#m726e5f71c7" x="294.769259" y="195.237818" style="fill: #1f77b4; stroke: #1f77b4"/>
     <use xlink:href="#m726e5f71c7" x="311.165953" y="195.237818" style="fill: #1f77b4; stroke: #1f77b4"/>
     <use xlink:href="#m726e5f71c7" x="327.562647" y="195.237818" style="fill: #1f77b4; stroke: #1f77b4"/>
     <use xlink:href="#m726e5f71c7" x="343.959341" y="195.237818" style="fill: #1f77b4; stroke: #1f77b4"/>
     <use xlink:href="#m726e5f71c7" x="360.356036" y="195.237818" style="fill: #1f77b4; stroke: #1f77b4"/>
     <use xlink:href="#m726e5f71c7" x="376.75273" y="195.237818" style="fill: #1f77b4; stroke: #1f77b4"/>
     <use xlink:href="#m726e5f71c7" x="389.870085" y="195.237818" style="fill: #1f77b4; stroke: #1f77b4"/>
    </g>
   </g>
   <g id="line2d_14">
    <g clip-path="url(#p1187b046c2)">
     <use xlink:href="#m726e5f71c7" x="65.21554" y="48.619636" style="fill: #1f77b4; stroke: #1f77b4"/>
     <use xlink:href="#m726e5f71c7" x="81.612234" y="19.296" style="fill: #1f77b4; stroke: #1f77b4"/>
     <use xlink:href="#m726e5f71c7" x="98.008928" y="19.296" style="fill: #1f77b4; stroke: #1f77b4"/>
     <use xlink:href="#m726e5f71c7" x="114.405622" y="19.296" style="fill: #1f77b4; stroke: #1f77b4"/>
     <use xlink:href="#m726e5f71c7" x="130.802317" y="19.296" style="fill: #1f77b4; stroke: #1f77b4"/>
     <use xlink:href="#m726e5f71c7" x="147.199011" y="19.296" style="fill: #1f77b4; stroke: #1f77b4"/>
     <use xlink:href="#m726e5f71c7" x="163.595705" y="19.296" style="fill: #1f77b4; stroke: #1f77b4"/>
     <use xlink:href="#m726e5f71c7" x="179.992399" y="19.296" style="fill: #1f77b4; stroke: #1f77b4"/>
     <use xlink:href="#m726e5f71c7" x="196.389093" y="19.296" style="fill: #1f77b4; stroke: #1f77b4"/>
     <use xlink:href="#m726e5f71c7" x="212.785788" y="19.296" style="fill: #1f77b4; stroke: #1f77b4"/>
     <use xlink:href="#m726e5f71c7" x="229.182482" y="19.296" style="fill: #1f77b4; stroke: #1f77b4"/>
     <use xlink:href="#m726e5f71c7" x="245.579176" y="19.296" style="fill: #1f77b4; stroke: #1f77b4"/>
     <use xlink:href="#m726e5f71c7" x="261.97587" y="19.296" style="fill: #1f77b4; stroke: #1f77b4"/>
     <use xlink:href="#m726e5f71c7" x="278.372565" y="19.296" style="fill: #1f77b4; stroke: #1f77b4"/>
     <use xlink:href="#m726e5f71c7" x="294.769259" y="19.296" style="fill: #1f77b4; stroke: #1f77b4"/>
     <use xlink:href="#m726e5f71c7" x="311.165953" y="19.296" style="fill: #1f77b4; stroke: #1f77b4"/>
     <use xlink:href="#m726e5f71c7" x="327.562647" y="19.296" style="fill: #1f77b4; stroke: #1f77b4"/>
     <use xlink:href="#m726e5f71c7" x="343.959341" y="19.296" style="fill: #1f77b4; stroke: #1f77b4"/>
     <use xlink:href="#m726e5f71c7" x="360.356036" y="19.296" style="fill: #1f77b4; stroke: #1f77b4"/>
     <use xlink:href="#m726e5f71c7" x="376.75273" y="19.296" style="fill: #1f77b4; stroke: #1f77b4"/>
     <use xlink:href="#m726e5f71c7" x="389.870085" y="19.296" style="fill: #1f77b4; stroke: #1f77b4"/>
    </g>
   </g>
   <g id="LineCollection_2">
    <path d="M 65.21554 253.885091 
L 65.21554 77.943273 
" clip-path="url(#p1187b046c2)" style="fill: none; stroke: #ff7f0e; stroke-width: 1.5"/>
    <path d="M 81.612234 195.237818 
L 81.612234 19.296 
" clip-path="url(#p1187b046c2)" style="fill: none; stroke: #ff7f0e; stroke-width: 1.5"/>
    <path d="M 98.008928 195.237818 
L 98.008928 19.296 
" clip-path="url(#p1187b046c2)" style="fill: none; stroke: #ff7f0e; stroke-width: 1.5"/>
    <path d="M 114.405622 195.237818 
L 114.405622 19.296 
" clip-path="url(#p1187b046c2)" style="fill: none; stroke: #ff7f0e; stroke-width: 1.5"/>
    <path d="M 130.802317 195.237818 
L 130.802317 19.296 
" clip-path="url(#p1187b046c2)" style="fill: none; stroke: #ff7f0e; stroke-width: 1.5"/>
    <path d="M 147.199011 195.237818 
L 147.199011 19.296 
" clip-path="url(#p1187b046c2)" style="fill: none; stroke: #ff7f0e; stroke-width: 1.5"/>
    <path d="M 163.595705 195.237818 
L 163.595705 19.296 
" clip-path="url(#p1187b046c2)" style="fill: none; stroke: #ff7f0e; stroke-width: 1.5"/>
    <path d="M 179.992399 195.237818 
L 179.992399 19.296 
" clip-path="url(#p1187b046c2)" style="fill: none; stroke: #ff7f0e; stroke-width: 1.5"/>
    <path d="M 196.389093 195.237818 
L 196.389093 19.296 
" clip-path="url(#p1187b046c2)" style="fill: none; stroke: #ff7f0e; stroke-width: 1.5"/>
    <path d="M 212.785788 195.237818 
L 212.785788 19.296 
" clip-path="url(#p1187b046c2)" style="fill: none; stroke: #ff7f0e; stroke-width: 1.5"/>
    <path d="M 229.182482 195.237818 
L 229.182482 19.296 
" clip-path="url(#p1187b046c2)" style="fill: none; stroke: #ff7f0e; stroke-width: 1.5"/>
    <path d="M 245.579176 195.237818 
L 245.579176 19.296 
" clip-path="url(#p1187b046c2)" style="fill: none; stroke: #ff7f0e; stroke-width: 1.5"/>
    <path d="M 261.97587 195.237818 
L 261.97587 19.296 
" clip-path="url(#p1187b046c2)" style="fill: none; stroke: #ff7f0e; stroke-width: 1.5"/>
    <path d="M 278.372565 195.237818 
L 278.372565 19.296 
" clip-path="url(#p1187b046c2)" style="fill: none; stroke: #ff7f0e; stroke-width: 1.5"/>
    <path d="M 294.769259 195.237818 
L 294.769259 19.296 
" clip-path="url(#p1187b046c2)" style="fill: none; stroke: #ff7f0e; stroke-width: 1.5"/>
    <path d="M 311.165953 195.237818 
L 311.165953 19.296 
" clip-path="url(#p1187b046c2)" style="fill: none; stroke: #ff7f0e; stroke-width: 1.5"/>
    <path d="M 327.562647 195.237818 
L 327.562647 19.296 
" clip-path="url(#p1187b046c2)" style="fill: none; stroke: #ff7f0e; stroke-width: 1.5"/>
    <path d="M 343.959341 195.237818 
L 343.959341 19.296 
" clip-path="url(#p1187b046c2)" style="fill: none; stroke: #ff7f0e; stroke-width: 1.5"/>
    <path d="M 360.356036 195.237818 
L 360.356036 19.296 
" clip-path="url(#p1187b046c2)" style="fill: none; stroke: #ff7f0e; stroke-width: 1.5"/>
    <path d="M 376.75273 195.237818 
L 376.75273 19.296 
" clip-path="url(#p1187b046c2)" style="fill: none; stroke: #ff7f0e; stroke-width: 1.5"/>
    <path d="M 389.870085 195.237818 
L 389.870085 19.296 
" clip-path="url(#p1187b046c2)" style="fill: none; stroke: #ff7f0e; stroke-width: 1.5"/>
   </g>
   <g id="line2d_15">
    <defs>
     <path id="m1220964255" d="M 5 0 
L -5 -0 
" style="stroke: #ff7f0e"/>
    </defs>
    <g clip-path="url(#p1187b046c2)">
     <use xlink:href="#m1220964255" x="65.21554" y="253.885091" style="fill: #ff7f0e; stroke: #ff7f0e"/>
     <use xlink:href="#m1220964255" x="81.612234" y="195.237818" style="fill: #ff7f0e; stroke: #ff7f0e"/>
     <use xlink:href="#m1220964255" x="98.008928" y="195.237818" style="fill: #ff7f0e; stroke: #ff7f0e"/>
     <use xlink:href="#m1220964255" x="114.405622" y="195.237818" style="fill: #ff7f0e; stroke: #ff7f0e"/>
     <use xlink:href="#m1220964255" x="130.802317" y="195.237818" style="fill: #ff7f0e; stroke: #ff7f0e"/>
     <use xlink:href="#m1220964255" x="147.199011" y="195.237818" style="fill: #ff7f0e; stroke: #ff7f0e"/>
     <use xlink:href="#m1220964255" x="163.595705" y="195.237818" style="fill: #ff7f0e; stroke: #ff7f0e"/>
     <use xlink:href="#m1220964255" x="179.992399" y="195.237818" style="fill: #ff7f0e; stroke: #ff7f0e"/>
     <use xlink:href="#m1220964255" x="196.389093" y="195.237818" style="fill: #ff7f0e; stroke: #ff7f0e"/>
     <use xlink:href="#m1220964255" x="212.785788" y="195.237818" style="fill: #ff7f0e; stroke: #ff7f0e"/>
     <use xlink:href="#m1220964255" x="229.182482" y="195.237818" style="fill: #ff7f0e; stroke: #ff7f0e"/>
     <use xlink:href="#m1220964255" x="245.579176" y="195.237818" style="fill: #ff7f0e; stroke: #ff7f0e"/>
     <use xlink:href="#m1220964255" x="261.97587" y="195.237818" style="fill: #ff7f0e; stroke: #ff7f0e"/>
     <use xlink:href="#m1220964255" x="278.372565" y="195.237818" style="fill: #ff7f0e; stroke: #ff7f0e"/>
     <use xlink:href="#m1220964255" x="294.769259" y="195.237818" style="fill: #ff7f0e; stroke: #ff7f0e"/>
     <use xlink:href="#m1220964255" x="311.165953" y="195.237818" style="fill: #ff7f0e; stroke: #ff7f0e"/>
     <use xlink:href="#m1220964255" x="327.562647" y="195.237818" style="fill: #ff7f0e; stroke: #ff7f0e"/>
     <use xlink:href="#m1220964255" x="343.959341" y="195.237818" style="fill: #ff7f0e; stroke: #ff7f0e"/>
     <use xlink:href="#m1220964255" x="360.356036" y="195.237818" style="fill: #ff7f0e; stroke: #ff7f0e"/>
     <use xlink:href="#m1220964255" x="376.75273" y="195.237818" style="fill: #ff7f0e; stroke: #ff7f0e"/>
     <use xlink:href="#m1220964255" x="389.870085" y="195.237818" style="fill: #ff7f0e; stroke: #ff7f0e"/>
    </g>
   </g>
   <g id="line2d_16">
    <g clip-path="url(#p1187b046c2)">
     <use xlink:href="#m1220964255" x="65.21554" y="77.943273" style="fill: #ff7f0e; stroke: #ff7f0e"/>
     <use xlink:href="#m1220964255" x="81.612234" y="19.296" style="fill: #ff7f0e; stroke: #ff7f0e"/>
     <use xlink:href="#m1220964255" x="98.008928" y="19.296" style="fill: #ff7f0e; stroke: #ff7f0e"/>
     <use xlink:href="#m1220964255" x="114.405622" y="19.296" style="fill: #ff7f0e; stroke: #ff7f0e"/>
     <use xlink:href="#m1220964255" x="130.802317" y="19.296" style="fill: #ff7f0e; stroke: #ff7f0e"/>
     <use xlink:href="#m1220964255" x="147.199011" y="19.296" style="fill: #ff7f0e; stroke: #ff7f0e"/>
     <use xlink:href="#m1220964255" x="163.595705" y="19.296" style="fill: #ff7f0e; stroke: #ff7f0e"/>
     <use xlink:href="#m1220964255" x="179.992399" y="19.296" style="fill: #ff7f0e; stroke: #ff7f0e"/>
     <use xlink:href="#m1220964255" x="196.389093" y="19.296" style="fill: #ff7f0e; stroke: #ff7f0e"/>
     <use xlink:href="#m1220964255" x="212.785788" y="19.296" style="fill: #ff7f0e; stroke: #ff7f0e"/>
     <use xlink:href="#m1220964255" x="229.182482" y="19.296" style="fill: #ff7f0e; stroke: #ff7f0e"/>
     <use xlink:href="#m1220964255" x="245.579176" y="19.296" style="fill: #ff7f0e; stroke: #ff7f0e"/>
     <use xlink:href="#m1220964255" x="261.97587" y="19.296" style="fill: #ff7f0e; stroke: #ff7f0e"/>
     <use xlink:href="#m1220964255" x="278.372565" y="19.296" style="fill: #ff7f0e; stroke: #ff7f0e"/>
     <use xlink:href="#m1220964255" x="294.769259" y="19.296" style="fill: #ff7f0e; stroke: #ff7f0e"/>
     <use xlink:href="#m1220964255" x="311.165953" y="19.296" style="fill: #ff7f0e; stroke: #ff7f0e"/>
     <use xlink:href="#m1220964255" x="327.562647" y="19.296" style="fill: #ff7f0e; stroke: #ff7f0e"/>
     <use xlink:href="#m1220964255" x="343.959341" y="19.296" style="fill: #ff7f0e; stroke: #ff7f0e"/>
     <use xlink:href="#m1220964255" x="360.356036" y="19.296" style="fill: #ff7f0e; stroke: #ff7f0e"/>
     <use xlink:href="#m1220964255" x="376.75273" y="19.296" style="fill: #ff7f0e; stroke: #ff7f0e"/>
     <use xlink:href="#m1220964255" x="389.870085" y="19.296" style="fill: #ff7f0e; stroke: #ff7f0e"/>
    </g>
   </g>
   <g id="LineCollection_3">
    <path d="M 65.21554 261.216 
L 65.21554 85.274182 
" clip-path="url(#p1187b046c2)" style="fill: none; stroke: #2ca02c; stroke-width: 1.5"/>
    <path d="M 81.612234 195.237818 
L 81.612234 19.296 
" clip-path="url(#p1187b046c2)" style="fill: none; stroke: #2ca02c; stroke-width: 1.5"/>
    <path d="M 98.008928 195.237818 
L 98.008928 19.296 
" clip-path="url(#p1187b046c2)" style="fill: none; stroke: #2ca02c; stroke-width: 1.5"/>
    <path d="M 114.405622 195.237818 
L 114.405622 19.296 
" clip-path="url(#p1187b046c2)" style="fill: none; stroke: #2ca02c; stroke-width: 1.5"/>
    <path d="M 130.802317 195.237818 
L 130.802317 19.296 
" clip-path="url(#p1187b046c2)" style="fill: none; stroke: #2ca02c; stroke-width: 1.5"/>
    <path d="M 147.199011 195.237818 
L 147.199011 19.296 
" clip-path="url(#p1187b046c2)" style="fill: none; stroke: #2ca02c; stroke-width: 1.5"/>
    <path d="M 163.595705 195.237818 
L 163.595705 19.296 
" clip-path="url(#p1187b046c2)" style="fill: none; stroke: #2ca02c; stroke-width: 1.5"/>
    <path d="M 179.992399 195.237818 
L 179.992399 19.296 
" clip-path="url(#p1187b046c2)" style="fill: none; stroke: #2ca02c; stroke-width: 1.5"/>
    <path d="M 196.389093 195.237818 
L 196.389093 19.296 
" clip-path="url(#p1187b046c2)" style="fill: none; stroke: #2ca02c; stroke-width: 1.5"/>
    <path d="M 212.785788 195.237818 
L 212.785788 19.296 
" clip-path="url(#p1187b046c2)" style="fill: none; stroke: #2ca02c; stroke-width: 1.5"/>
    <path d="M 229.182482 195.237818 
L 229.182482 19.296 
" clip-path="url(#p1187b046c2)" style="fill: none; stroke: #2ca02c; stroke-width: 1.5"/>
    <path d="M 245.579176 195.237818 
L 245.579176 19.296 
" clip-path="url(#p1187b046c2)" style="fill: none; stroke: #2ca02c; stroke-width: 1.5"/>
    <path d="M 261.97587 195.237818 
L 261.97587 19.296 
" clip-path="url(#p1187b046c2)" style="fill: none; stroke: #2ca02c; stroke-width: 1.5"/>
    <path d="M 278.372565 195.237818 
L 278.372565 19.296 
" clip-path="url(#p1187b046c2)" style="fill: none; stroke: #2ca02c; stroke-width: 1.5"/>
    <path d="M 294.769259 195.237818 
L 294.769259 19.296 
" clip-path="url(#p1187b046c2)" style="fill: none; stroke: #2ca02c; stroke-width: 1.5"/>
    <path d="M 311.165953 195.237818 
L 311.165953 19.296 
" clip-path="url(#p1187b046c2)" style="fill: none; stroke: #2ca02c; stroke-width: 1.5"/>
    <path d="M 327.562647 195.237818 
L 327.562647 19.296 
" clip-path="url(#p1187b046c2)" style="fill: none; stroke: #2ca02c; stroke-width: 1.5"/>
    <path d="M 343.959341 195.237818 
L 343.959341 19.296 
" clip-path="url(#p1187b046c2)" style="fill: none; stroke: #2ca02c; stroke-width: 1.5"/>
    <path d="M 360.356036 195.237818 
L 360.356036 19.296 
" clip-path="url(#p1187b046c2)" style="fill: none; stroke: #2ca02c; stroke-width: 1.5"/>
    <path d="M 376.75273 195.237818 
L 376.75273 19.296 
" clip-path="url(#p1187b046c2)" style="fill: none; stroke: #2ca02c; stroke-width: 1.5"/>
    <path d="M 389.870085 195.237818 
L 389.870085 19.296 
" clip-path="url(#p1187b046c2)" style="fill: none; stroke: #2ca02c; stroke-width: 1.5"/>
   </g>
   <g id="line2d_17">
    <defs>
     <path id="m7f814dfa31" d="M 5 0 
L -5 -0 
" style="stroke: #2ca02c"/>
    </defs>
    <g clip-path="url(#p1187b046c2)">
     <use xlink:href="#m7f814dfa31" x="65.21554" y="261.216" style="fill: #2ca02c; stroke: #2ca02c"/>
     <use xlink:href="#m7f814dfa31" x="81.612234" y="195.237818" style="fill: #2ca02c; stroke: #2ca02c"/>
     <use xlink:href="#m7f814dfa31" x="98.008928" y="195.237818" style="fill: #2ca02c; stroke: #2ca02c"/>
     <use xlink:href="#m7f814dfa31" x="114.405622" y="195.237818" style="fill: #2ca02c; stroke: #2ca02c"/>
     <use xlink:href="#m7f814dfa31" x="130.802317" y="195.237818" style="fill: #2ca02c; stroke: #2ca02c"/>
     <use xlink:href="#m7f814dfa31" x="147.199011" y="195.237818" style="fill: #2ca02c; stroke: #2ca02c"/>
     <use xlink:href="#m7f814dfa31" x="163.595705" y="195.237818" style="fill: #2ca02c; stroke: #2ca02c"/>
     <use xlink:href="#m7f814dfa31" x="179.992399" y="195.237818" style="fill: #2ca02c; stroke: #2ca02c"/>
     <use xlink:href="#m7f814dfa31" x="196.389093" y="195.237818" style="fill: #2ca02c; stroke: #2ca02c"/>
     <use xlink:href="#m7f814dfa31" x="212.785788" y="195.237818" style="fill: #2ca02c; stroke: #2ca02c"/>
     <use xlink:href="#m7f814dfa31" x="229.182482" y="195.237818" style="fill: #2ca02c; stroke: #2ca02c"/>
     <use xlink:href="#m7f814dfa31" x="245.579176" y="195.237818" style="fill: #2ca02c; stroke: #2ca02c"/>
     <use xlink:href="#m7f814dfa31" x="261.97587" y="195.237818" style="fill: #2ca02c; stroke: #2ca02c"/>
     <use xlink:href="#m7f814dfa31" x="278.372565" y="195.237818" style="fill: #2ca02c; stroke: #2ca02c"/>
     <use xlink:href="#m7f814dfa31" x="294.769259" y="195.237818" style="fill: #2ca02c; stroke: #2ca02c"/>
     <use xlink:href="#m7f814dfa31" x="311.165953" y="195.237818" style="fill: #2ca02c; stroke: #2ca02c"/>
     <use xlink:href="#m7f814dfa31" x="327.562647" y="195.237818" style="fill: #2ca02c; stroke: #2ca02c"/>
     <use xlink:href="#m7f814dfa31" x="343.959341" y="195.237818" style="fill: #2ca02c; stroke: #2ca02c"/>
     <use xlink:href="#m7f814dfa31" x="360.356036" y="195.237818" style="fill: #2ca02c; stroke: #2ca02c"/>
     <use xlink:href="#m7f814dfa31" x="376.75273" y="195.237818" style="fill: #2ca02c; stroke: #2ca02c"/>
     <use xlink:href="#m7f814dfa31" x="389.870085" y="195.237818" style="fill: #2ca02c; stroke: #2ca02c"/>
    </g>
   </g>
   <g id="line2d_18">
    <g clip-path="url(#p1187b046c2)">
     <use xlink:href="#m7f814dfa31" x="65.21554" y="85.274182" style="fill: #2ca02c; stroke: #2ca02c"/>
     <use xlink:href="#m7f814dfa31" x="81.612234" y="19.296" style="fill: #2ca02c; stroke: #2ca02c"/>
     <use xlink:href="#m7f814dfa31" x="98.008928" y="19.296" style="fill: #2ca02c; stroke: #2ca02c"/>
     <use xlink:href="#m7f814dfa31" x="114.405622" y="19.296" style="fill: #2ca02c; stroke: #2ca02c"/>
     <use xlink:href="#m7f814dfa31" x="130.802317" y="19.296" style="fill: #2ca02c; stroke: #2ca02c"/>
     <use xlink:href="#m7f814dfa31" x="147.199011" y="19.296" style="fill: #2ca02c; stroke: #2ca02c"/>
     <use xlink:href="#m7f814dfa31" x="163.595705" y="19.296" style="fill: #2ca02c; stroke: #2ca02c"/>
     <use xlink:href="#m7f814dfa31" x="179.992399" y="19.296" style="fill: #2ca02c; stroke: #2ca02c"/>
     <use xlink:href="#m7f814dfa31" x="196.389093" y="19.296" style="fill: #2ca02c; stroke: #2ca02c"/>
     <use xlink:href="#m7f814dfa31" x="212.785788" y="19.296" style="fill: #2ca02c; stroke: #2ca02c"/>
     <use xlink:href="#m7f814dfa31" x="229.182482" y="19.296" style="fill: #2ca02c; stroke: #2ca02c"/>
     <use xlink:href="#m7f814dfa31" x="245.579176" y="19.296" style="fill: #2ca02c; stroke: #2ca02c"/>
     <use xlink:href="#m7f814dfa31" x="261.97587" y="19.296" style="fill: #2ca02c; stroke: #2ca02c"/>
     <use xlink:href="#m7f814dfa31" x="278.372565" y="19.296" style="fill: #2ca02c; stroke: #2ca02c"/>
     <use xlink:href="#m7f814dfa31" x="294.769259" y="19.296" style="fill: #2ca02c; stroke: #2ca02c"/>
     <use xlink:href="#m7f814dfa31" x="311.165953" y="19.296" style="fill: #2ca02c; stroke: #2ca02c"/>
     <use xlink:href="#m7f814dfa31" x="327.562647" y="19.296" style="fill: #2ca02c; stroke: #2ca02c"/>
     <use xlink:href="#m7f814dfa31" x="343.959341" y="19.296" style="fill: #2ca02c; stroke: #2ca02c"/>
     <use xlink:href="#m7f814dfa31" x="360.356036" y="19.296" style="fill: #2ca02c; stroke: #2ca02c"/>
     <use xlink:href="#m7f814dfa31" x="376.75273" y="19.296" style="fill: #2ca02c; stroke: #2ca02c"/>
     <use xlink:href="#m7f814dfa31" x="389.870085" y="19.296" style="fill: #2ca02c; stroke: #2ca02c"/>
    </g>
   </g>
   <g id="LineCollection_4">
    <path d="M 65.21554 261.216 
L 65.21554 85.274182 
" clip-path="url(#p1187b046c2)" style="fill: none; stroke: #d62728; stroke-width: 1.5"/>
    <path d="M 81.612234 195.237818 
L 81.612234 19.296 
" clip-path="url(#p1187b046c2)" style="fill: none; stroke: #d62728; stroke-width: 1.5"/>
    <path d="M 98.008928 195.237818 
L 98.008928 19.296 
" clip-path="url(#p1187b046c2)" style="fill: none; stroke: #d62728; stroke-width: 1.5"/>
    <path d="M 114.405622 195.237818 
L 114.405622 19.296 
" clip-path="url(#p1187b046c2)" style="fill: none; stroke: #d62728; stroke-width: 1.5"/>
    <path d="M 130.802317 195.237818 
L 130.802317 19.296 
" clip-path="url(#p1187b046c2)" style="fill: none; stroke: #d62728; stroke-width: 1.5"/>
    <path d="M 147.199011 195.237818 
L 147.199011 19.296 
" clip-path="url(#p1187b046c2)" style="fill: none; stroke: #d62728; stroke-width: 1.5"/>
    <path d="M 163.595705 195.237818 
L 163.595705 19.296 
" clip-path="url(#p1187b046c2)" style="fill: none; stroke: #d62728; stroke-width: 1.5"/>
    <path d="M 179.992399 195.237818 
L 179.992399 19.296 
" clip-path="url(#p1187b046c2)" style="fill: none; stroke: #d62728; stroke-width: 1.5"/>
    <path d="M 196.389093 195.237818 
L 196.389093 19.296 
" clip-path="url(#p1187b046c2)" style="fill: none; stroke: #d62728; stroke-width: 1.5"/>
    <path d="M 212.785788 195.237818 
L 212.785788 19.296 
" clip-path="url(#p1187b046c2)" style="fill: none; stroke: #d62728; stroke-width: 1.5"/>
    <path d="M 229.182482 195.237818 
L 229.182482 19.296 
" clip-path="url(#p1187b046c2)" style="fill: none; stroke: #d62728; stroke-width: 1.5"/>
    <path d="M 245.579176 195.237818 
L 245.579176 19.296 
" clip-path="url(#p1187b046c2)" style="fill: none; stroke: #d62728; stroke-width: 1.5"/>
    <path d="M 261.97587 195.237818 
L 261.97587 19.296 
" clip-path="url(#p1187b046c2)" style="fill: none; stroke: #d62728; stroke-width: 1.5"/>
    <path d="M 278.372565 195.237818 
L 278.372565 19.296 
" clip-path="url(#p1187b046c2)" style="fill: none; stroke: #d62728; stroke-width: 1.5"/>
    <path d="M 294.769259 195.237818 
L 294.769259 19.296 
" clip-path="url(#p1187b046c2)" style="fill: none; stroke: #d62728; stroke-width: 1.5"/>
    <path d="M 311.165953 195.237818 
L 311.165953 19.296 
" clip-path="url(#p1187b046c2)" style="fill: none; stroke: #d62728; stroke-width: 1.5"/>
    <path d="M 327.562647 195.237818 
L 327.562647 19.296 
" clip-path="url(#p1187b046c2)" style="fill: none; stroke: #d62728; stroke-width: 1.5"/>
    <path d="M 343.959341 195.237818 
L 343.959341 19.296 
" clip-path="url(#p1187b046c2)" style="fill: none; stroke: #d62728; stroke-width: 1.5"/>
    <path d="M 360.356036 195.237818 
L 360.356036 19.296 
" clip-path="url(#p1187b046c2)" style="fill: none; stroke: #d62728; stroke-width: 1.5"/>
    <path d="M 376.75273 195.237818 
L 376.75273 19.296 
" clip-path="url(#p1187b046c2)" style="fill: none; stroke: #d62728; stroke-width: 1.5"/>
    <path d="M 389.870085 195.237818 
L 389.870085 19.296 
" clip-path="url(#p1187b046c2)" style="fill: none; stroke: #d62728; stroke-width: 1.5"/>
   </g>
   <g id="line2d_19">
    <defs>
     <path id="m757cee35f6" d="M 5 0 
L -5 -0 
" style="stroke: #d62728"/>
    </defs>
    <g clip-path="url(#p1187b046c2)">
     <use xlink:href="#m757cee35f6" x="65.21554" y="261.216" style="fill: #d62728; stroke: #d62728"/>
     <use xlink:href="#m757cee35f6" x="81.612234" y="195.237818" style="fill: #d62728; stroke: #d62728"/>
     <use xlink:href="#m757cee35f6" x="98.008928" y="195.237818" style="fill: #d62728; stroke: #d62728"/>
     <use xlink:href="#m757cee35f6" x="114.405622" y="195.237818" style="fill: #d62728; stroke: #d62728"/>
     <use xlink:href="#m757cee35f6" x="130.802317" y="195.237818" style="fill: #d62728; stroke: #d62728"/>
     <use xlink:href="#m757cee35f6" x="147.199011" y="195.237818" style="fill: #d62728; stroke: #d62728"/>
     <use xlink:href="#m757cee35f6" x="163.595705" y="195.237818" style="fill: #d62728; stroke: #d62728"/>
     <use xlink:href="#m757cee35f6" x="179.992399" y="195.237818" style="fill: #d62728; stroke: #d62728"/>
     <use xlink:href="#m757cee35f6" x="196.389093" y="195.237818" style="fill: #d62728; stroke: #d62728"/>
     <use xlink:href="#m757cee35f6" x="212.785788" y="195.237818" style="fill: #d62728; stroke: #d62728"/>
     <use xlink:href="#m757cee35f6" x="229.182482" y="195.237818" style="fill: #d62728; stroke: #d62728"/>
     <use xlink:href="#m757cee35f6" x="245.579176" y="195.237818" style="fill: #d62728; stroke: #d62728"/>
     <use xlink:href="#m757cee35f6" x="261.97587" y="195.237818" style="fill: #d62728; stroke: #d62728"/>
     <use xlink:href="#m757cee35f6" x="278.372565" y="195.237818" style="fill: #d62728; stroke: #d62728"/>
     <use xlink:href="#m757cee35f6" x="294.769259" y="195.237818" style="fill: #d62728; stroke: #d62728"/>
     <use xlink:href="#m757cee35f6" x="311.165953" y="195.237818" style="fill: #d62728; stroke: #d62728"/>
     <use xlink:href="#m757cee35f6" x="327.562647" y="195.237818" style="fill: #d62728; stroke: #d62728"/>
     <use xlink:href="#m757cee35f6" x="343.959341" y="195.237818" style="fill: #d62728; stroke: #d62728"/>
     <use xlink:href="#m757cee35f6" x="360.356036" y="195.237818" style="fill: #d62728; stroke: #d62728"/>
     <use xlink:href="#m757cee35f6" x="376.75273" y="195.237818" style="fill: #d62728; stroke: #d62728"/>
     <use xlink:href="#m757cee35f6" x="389.870085" y="195.237818" style="fill: #d62728; stroke: #d62728"/>
    </g>
   </g>
   <g id="line2d_20">
    <g clip-path="url(#p1187b046c2)">
     <use xlink:href="#m757cee35f6" x="65.21554" y="85.274182" style="fill: #d62728; stroke: #d62728"/>
     <use xlink:href="#m757cee35f6" x="81.612234" y="19.296" style="fill: #d62728; stroke: #d62728"/>
     <use xlink:href="#m757cee35f6" x="98.008928" y="19.296" style="fill: #d62728; stroke: #d62728"/>
     <use xlink:href="#m757cee35f6" x="114.405622" y="19.296" style="fill: #d62728; stroke: #d62728"/>
     <use xlink:href="#m757cee35f6" x="130.802317" y="19.296" style="fill: #d62728; stroke: #d62728"/>
     <use xlink:href="#m757cee35f6" x="147.199011" y="19.296" style="fill: #d62728; stroke: #d62728"/>
     <use xlink:href="#m757cee35f6" x="163.595705" y="19.296" style="fill: #d62728; stroke: #d62728"/>
     <use xlink:href="#m757cee35f6" x="179.992399" y="19.296" style="fill: #d62728; stroke: #d62728"/>
     <use xlink:href="#m757cee35f6" x="196.389093" y="19.296" style="fill: #d62728; stroke: #d62728"/>
     <use xlink:href="#m757cee35f6" x="212.785788" y="19.296" style="fill: #d62728; stroke: #d62728"/>
     <use xlink:href="#m757cee35f6" x="229.182482" y="19.296" style="fill: #d62728; stroke: #d62728"/>
     <use xlink:href="#m757cee35f6" x="245.579176" y="19.296" style="fill: #d62728; stroke: #d62728"/>
     <use xlink:href="#m757cee35f6" x="261.97587" y="19.296" style="fill: #d62728; stroke: #d62728"/>
     <use xlink:href="#m757cee35f6" x="278.372565" y="19.296" style="fill: #d62728; stroke: #d62728"/>
     <use xlink:href="#m757cee35f6" x="294.769259" y="19.296" style="fill: #d62728; stroke: #d62728"/>
     <use xlink:href="#m757cee35f6" x="311.165953" y="19.296" style="fill: #d62728; stroke: #d62728"/>
     <use xlink:href="#m757cee35f6" x="327.562647" y="19.296" style="fill: #d62728; stroke: #d62728"/>
     <use xlink:href="#m757cee35f6" x="343.959341" y="19.296" style="fill: #d62728; stroke: #d62728"/>
     <use xlink:href="#m757cee35f6" x="360.356036" y="19.296" style="fill: #d62728; stroke: #d62728"/>
     <use xlink:href="#m757cee35f6" x="376.75273" y="19.296" style="fill: #d62728; stroke: #d62728"/>
     <use xlink:href="#m757cee35f6" x="389.870085" y="19.296" style="fill: #d62728; stroke: #d62728"/>
    </g>
   </g>
   <g id="line2d_21">
    <path d="M 48.982813 124.861091 
L 406.102813 124.861091 
" clip-path="url(#p1187b046c2)" style="fill: none; stroke-dasharray: 3.7,1.6; stroke-dashoffset: 0; stroke: #ff0000"/>
   </g>
   <g id="line2d_22">
    <path d="M 65.21554 136.590545 
L 81.612234 107.266909 
L 98.008928 107.266909 
L 114.405622 107.266909 
L 130.802317 107.266909 
L 147.199011 107.266909 
L 163.595705 107.266909 
L 179.992399 107.266909 
L 196.389093 107.266909 
L 212.785788 107.266909 
L 229.182482 107.266909 
L 245.579176 107.266909 
L 261.97587 107.266909 
L 278.372565 107.266909 
L 294.769259 107.266909 
L 311.165953 107.266909 
L 327.562647 107.266909 
L 343.959341 107.266909 
L 360.356036 107.266909 
L 376.75273 107.266909 
L 389.870085 107.266909 
" clip-path="url(#p1187b046c2)" style="fill: none; stroke: #1f77b4; stroke-width: 1.5; stroke-linecap: square"/>
    <defs>
     <path id="m9eac3d8cab" d="M 0 3 
C 0.795609 3 1.55874 2.683901 2.12132 2.12132 
C 2.683901 1.55874 3 0.795609 3 0 
C 3 -0.795609 2.683901 -1.55874 2.12132 -2.12132 
C 1.55874 -2.683901 0.795609 -3 0 -3 
C -0.795609 -3 -1.55874 -2.683901 -2.12132 -2.12132 
C -2.683901 -1.55874 -3 -0.795609 -3 0 
C -3 0.795609 -2.683901 1.55874 -2.12132 2.12132 
C -1.55874 2.683901 -0.795609 3 0 3 
z
" style="stroke: #1f77b4"/>
    </defs>
    <g clip-path="url(#p1187b046c2)">
     <use xlink:href="#m9eac3d8cab" x="65.21554" y="136.590545" style="fill: #1f77b4; stroke: #1f77b4"/>
     <use xlink:href="#m9eac3d8cab" x="81.612234" y="107.266909" style="fill: #1f77b4; stroke: #1f77b4"/>
     <use xlink:href="#m9eac3d8cab" x="98.008928" y="107.266909" style="fill: #1f77b4; stroke: #1f77b4"/>
     <use xlink:href="#m9eac3d8cab" x="114.405622" y="107.266909" style="fill: #1f77b4; stroke: #1f77b4"/>
     <use xlink:href="#m9eac3d8cab" x="130.802317" y="107.266909" style="fill: #1f77b4; stroke: #1f77b4"/>
     <use xlink:href="#m9eac3d8cab" x="147.199011" y="107.266909" style="fill: #1f77b4; stroke: #1f77b4"/>
     <use xlink:href="#m9eac3d8cab" x="163.595705" y="107.266909" style="fill: #1f77b4; stroke: #1f77b4"/>
     <use xlink:href="#m9eac3d8cab" x="179.992399" y="107.266909" style="fill: #1f77b4; stroke: #1f77b4"/>
     <use xlink:href="#m9eac3d8cab" x="196.389093" y="107.266909" style="fill: #1f77b4; stroke: #1f77b4"/>
     <use xlink:href="#m9eac3d8cab" x="212.785788" y="107.266909" style="fill: #1f77b4; stroke: #1f77b4"/>
     <use xlink:href="#m9eac3d8cab" x="229.182482" y="107.266909" style="fill: #1f77b4; stroke: #1f77b4"/>
     <use xlink:href="#m9eac3d8cab" x="245.579176" y="107.266909" style="fill: #1f77b4; stroke: #1f77b4"/>
     <use xlink:href="#m9eac3d8cab" x="261.97587" y="107.266909" style="fill: #1f77b4; stroke: #1f77b4"/>
     <use xlink:href="#m9eac3d8cab" x="278.372565" y="107.266909" style="fill: #1f77b4; stroke: #1f77b4"/>
     <use xlink:href="#m9eac3d8cab" x="294.769259" y="107.266909" style="fill: #1f77b4; stroke: #1f77b4"/>
     <use xlink:href="#m9eac3d8cab" x="311.165953" y="107.266909" style="fill: #1f77b4; stroke: #1f77b4"/>
     <use xlink:href="#m9eac3d8cab" x="327.562647" y="107.266909" style="fill: #1f77b4; stroke: #1f77b4"/>
     <use xlink:href="#m9eac3d8cab" x="343.959341" y="107.266909" style="fill: #1f77b4; stroke: #1f77b4"/>
     <use xlink:href="#m9eac3d8cab" x="360.356036" y="107.266909" style="fill: #1f77b4; stroke: #1f77b4"/>
     <use xlink:href="#m9eac3d8cab" x="376.75273" y="107.266909" style="fill: #1f77b4; stroke: #1f77b4"/>
     <use xlink:href="#m9eac3d8cab" x="389.870085" y="107.266909" style="fill: #1f77b4; stroke: #1f77b4"/>
    </g>
   </g>
   <g id="line2d_23">
    <path d="M 65.21554 165.914182 
L 81.612234 107.266909 
L 98.008928 107.266909 
L 114.405622 107.266909 
L 130.802317 107.266909 
L 147.199011 107.266909 
L 163.595705 107.266909 
L 179.992399 107.266909 
L 196.389093 107.266909 
L 212.785788 107.266909 
L 229.182482 107.266909 
L 245.579176 107.266909 
L 261.97587 107.266909 
L 278.372565 107.266909 
L 294.769259 107.266909 
L 311.165953 107.266909 
L 327.562647 107.266909 
L 343.959341 107.266909 
L 360.356036 107.266909 
L 376.75273 107.266909 
L 389.870085 107.266909 
" clip-path="url(#p1187b046c2)" style="fill: none; stroke: #ff7f0e; stroke-width: 1.5; stroke-linecap: square"/>
    <defs>
     <path id="m372bb21398" d="M 0 3 
C 0.795609 3 1.55874 2.683901 2.12132 2.12132 
C 2.683901 1.55874 3 0.795609 3 0 
C 3 -0.795609 2.683901 -1.55874 2.12132 -2.12132 
C 1.55874 -2.683901 0.795609 -3 0 -3 
C -0.795609 -3 -1.55874 -2.683901 -2.12132 -2.12132 
C -2.683901 -1.55874 -3 -0.795609 -3 0 
C -3 0.795609 -2.683901 1.55874 -2.12132 2.12132 
C -1.55874 2.683901 -0.795609 3 0 3 
z
" style="stroke: #ff7f0e"/>
    </defs>
    <g clip-path="url(#p1187b046c2)">
     <use xlink:href="#m372bb21398" x="65.21554" y="165.914182" style="fill: #ff7f0e; stroke: #ff7f0e"/>
     <use xlink:href="#m372bb21398" x="81.612234" y="107.266909" style="fill: #ff7f0e; stroke: #ff7f0e"/>
     <use xlink:href="#m372bb21398" x="98.008928" y="107.266909" style="fill: #ff7f0e; stroke: #ff7f0e"/>
     <use xlink:href="#m372bb21398" x="114.405622" y="107.266909" style="fill: #ff7f0e; stroke: #ff7f0e"/>
     <use xlink:href="#m372bb21398" x="130.802317" y="107.266909" style="fill: #ff7f0e; stroke: #ff7f0e"/>
     <use xlink:href="#m372bb21398" x="147.199011" y="107.266909" style="fill: #ff7f0e; stroke: #ff7f0e"/>
     <use xlink:href="#m372bb21398" x="163.595705" y="107.266909" style="fill: #ff7f0e; stroke: #ff7f0e"/>
     <use xlink:href="#m372bb21398" x="179.992399" y="107.266909" style="fill: #ff7f0e; stroke: #ff7f0e"/>
     <use xlink:href="#m372bb21398" x="196.389093" y="107.266909" style="fill: #ff7f0e; stroke: #ff7f0e"/>
     <use xlink:href="#m372bb21398" x="212.785788" y="107.266909" style="fill: #ff7f0e; stroke: #ff7f0e"/>
     <use xlink:href="#m372bb21398" x="229.182482" y="107.266909" style="fill: #ff7f0e; stroke: #ff7f0e"/>
     <use xlink:href="#m372bb21398" x="245.579176" y="107.266909" style="fill: #ff7f0e; stroke: #ff7f0e"/>
     <use xlink:href="#m372bb21398" x="261.97587" y="107.266909" style="fill: #ff7f0e; stroke: #ff7f0e"/>
     <use xlink:href="#m372bb21398" x="278.372565" y="107.266909" style="fill: #ff7f0e; stroke: #ff7f0e"/>
     <use xlink:href="#m372bb21398" x="294.769259" y="107.266909" style="fill: #ff7f0e; stroke: #ff7f0e"/>
     <use xlink:href="#m372bb21398" x="311.165953" y="107.266909" style="fill: #ff7f0e; stroke: #ff7f0e"/>
     <use xlink:href="#m372bb21398" x="327.562647" y="107.266909" style="fill: #ff7f0e; stroke: #ff7f0e"/>
     <use xlink:href="#m372bb21398" x="343.959341" y="107.266909" style="fill: #ff7f0e; stroke: #ff7f0e"/>
     <use xlink:href="#m372bb21398" x="360.356036" y="107.266909" style="fill: #ff7f0e; stroke: #ff7f0e"/>
     <use xlink:href="#m372bb21398" x="376.75273" y="107.266909" style="fill: #ff7f0e; stroke: #ff7f0e"/>
     <use xlink:href="#m372bb21398" x="389.870085" y="107.266909" style="fill: #ff7f0e; stroke: #ff7f0e"/>
    </g>
   </g>
   <g id="line2d_24">
    <path d="M 65.21554 173.245091 
L 81.612234 107.266909 
L 98.008928 107.266909 
L 114.405622 107.266909 
L 130.802317 107.266909 
L 147.199011 107.266909 
L 163.595705 107.266909 
L 179.992399 107.266909 
L 196.389093 107.266909 
L 212.785788 107.266909 
L 229.182482 107.266909 
L 245.579176 107.266909 
L 261.97587 107.266909 
L 278.372565 107.266909 
L 294.769259 107.266909 
L 311.165953 107.266909 
L 327.562647 107.266909 
L 343.959341 107.266909 
L 360.356036 107.266909 
L 376.75273 107.266909 
L 389.870085 107.266909 
" clip-path="url(#p1187b046c2)" style="fill: none; stroke: #2ca02c; stroke-width: 1.5; stroke-linecap: square"/>
    <defs>
     <path id="mfd15289757" d="M 0 3 
C 0.795609 3 1.55874 2.683901 2.12132 2.12132 
C 2.683901 1.55874 3 0.795609 3 0 
C 3 -0.795609 2.683901 -1.55874 2.12132 -2.12132 
C 1.55874 -2.683901 0.795609 -3 0 -3 
C -0.795609 -3 -1.55874 -2.683901 -2.12132 -2.12132 
C -2.683901 -1.55874 -3 -0.795609 -3 0 
C -3 0.795609 -2.683901 1.55874 -2.12132 2.12132 
C -1.55874 2.683901 -0.795609 3 0 3 
z
" style="stroke: #2ca02c"/>
    </defs>
    <g clip-path="url(#p1187b046c2)">
     <use xlink:href="#mfd15289757" x="65.21554" y="173.245091" style="fill: #2ca02c; stroke: #2ca02c"/>
     <use xlink:href="#mfd15289757" x="81.612234" y="107.266909" style="fill: #2ca02c; stroke: #2ca02c"/>
     <use xlink:href="#mfd15289757" x="98.008928" y="107.266909" style="fill: #2ca02c; stroke: #2ca02c"/>
     <use xlink:href="#mfd15289757" x="114.405622" y="107.266909" style="fill: #2ca02c; stroke: #2ca02c"/>
     <use xlink:href="#mfd15289757" x="130.802317" y="107.266909" style="fill: #2ca02c; stroke: #2ca02c"/>
     <use xlink:href="#mfd15289757" x="147.199011" y="107.266909" style="fill: #2ca02c; stroke: #2ca02c"/>
     <use xlink:href="#mfd15289757" x="163.595705" y="107.266909" style="fill: #2ca02c; stroke: #2ca02c"/>
     <use xlink:href="#mfd15289757" x="179.992399" y="107.266909" style="fill: #2ca02c; stroke: #2ca02c"/>
     <use xlink:href="#mfd15289757" x="196.389093" y="107.266909" style="fill: #2ca02c; stroke: #2ca02c"/>
     <use xlink:href="#mfd15289757" x="212.785788" y="107.266909" style="fill: #2ca02c; stroke: #2ca02c"/>
     <use xlink:href="#mfd15289757" x="229.182482" y="107.266909" style="fill: #2ca02c; stroke: #2ca02c"/>
     <use xlink:href="#mfd15289757" x="245.579176" y="107.266909" style="fill: #2ca02c; stroke: #2ca02c"/>
     <use xlink:href="#mfd15289757" x="261.97587" y="107.266909" style="fill: #2ca02c; stroke: #2ca02c"/>
     <use xlink:href="#mfd15289757" x="278.372565" y="107.266909" style="fill: #2ca02c; stroke: #2ca02c"/>
     <use xlink:href="#mfd15289757" x="294.769259" y="107.266909" style="fill: #2ca02c; stroke: #2ca02c"/>
     <use xlink:href="#mfd15289757" x="311.165953" y="107.266909" style="fill: #2ca02c; stroke: #2ca02c"/>
     <use xlink:href="#mfd15289757" x="327.562647" y="107.266909" style="fill: #2ca02c; stroke: #2ca02c"/>
     <use xlink:href="#mfd15289757" x="343.959341" y="107.266909" style="fill: #2ca02c; stroke: #2ca02c"/>
     <use xlink:href="#mfd15289757" x="360.356036" y="107.266909" style="fill: #2ca02c; stroke: #2ca02c"/>
     <use xlink:href="#mfd15289757" x="376.75273" y="107.266909" style="fill: #2ca02c; stroke: #2ca02c"/>
     <use xlink:href="#mfd15289757" x="389.870085" y="107.266909" style="fill: #2ca02c; stroke: #2ca02c"/>
    </g>
   </g>
   <g id="line2d_25">
    <path d="M 65.21554 173.245091 
L 81.612234 107.266909 
L 98.008928 107.266909 
L 114.405622 107.266909 
L 130.802317 107.266909 
L 147.199011 107.266909 
L 163.595705 107.266909 
L 179.992399 107.266909 
L 196.389093 107.266909 
L 212.785788 107.266909 
L 229.182482 107.266909 
L 245.579176 107.266909 
L 261.97587 107.266909 
L 278.372565 107.266909 
L 294.769259 107.266909 
L 311.165953 107.266909 
L 327.562647 107.266909 
L 343.959341 107.266909 
L 360.356036 107.266909 
L 376.75273 107.266909 
L 389.870085 107.266909 
" clip-path="url(#p1187b046c2)" style="fill: none; stroke: #d62728; stroke-width: 1.5; stroke-linecap: square"/>
    <defs>
     <path id="m1ae64bba06" d="M 0 3 
C 0.795609 3 1.55874 2.683901 2.12132 2.12132 
C 2.683901 1.55874 3 0.795609 3 0 
C 3 -0.795609 2.683901 -1.55874 2.12132 -2.12132 
C 1.55874 -2.683901 0.795609 -3 0 -3 
C -0.795609 -3 -1.55874 -2.683901 -2.12132 -2.12132 
C -2.683901 -1.55874 -3 -0.795609 -3 0 
C -3 0.795609 -2.683901 1.55874 -2.12132 2.12132 
C -1.55874 2.683901 -0.795609 3 0 3 
z
" style="stroke: #d62728"/>
    </defs>
    <g clip-path="url(#p1187b046c2)">
     <use xlink:href="#m1ae64bba06" x="65.21554" y="173.245091" style="fill: #d62728; stroke: #d62728"/>
     <use xlink:href="#m1ae64bba06" x="81.612234" y="107.266909" style="fill: #d62728; stroke: #d62728"/>
     <use xlink:href="#m1ae64bba06" x="98.008928" y="107.266909" style="fill: #d62728; stroke: #d62728"/>
     <use xlink:href="#m1ae64bba06" x="114.405622" y="107.266909" style="fill: #d62728; stroke: #d62728"/>
     <use xlink:href="#m1ae64bba06" x="130.802317" y="107.266909" style="fill: #d62728; stroke: #d62728"/>
     <use xlink:href="#m1ae64bba06" x="147.199011" y="107.266909" style="fill: #d62728; stroke: #d62728"/>
     <use xlink:href="#m1ae64bba06" x="163.595705" y="107.266909" style="fill: #d62728; stroke: #d62728"/>
     <use xlink:href="#m1ae64bba06" x="179.992399" y="107.266909" style="fill: #d62728; stroke: #d62728"/>
     <use xlink:href="#m1ae64bba06" x="196.389093" y="107.266909" style="fill: #d62728; stroke: #d62728"/>
     <use xlink:href="#m1ae64bba06" x="212.785788" y="107.266909" style="fill: #d62728; stroke: #d62728"/>
     <use xlink:href="#m1ae64bba06" x="229.182482" y="107.266909" style="fill: #d62728; stroke: #d62728"/>
     <use xlink:href="#m1ae64bba06" x="245.579176" y="107.266909" style="fill: #d62728; stroke: #d62728"/>
     <use xlink:href="#m1ae64bba06" x="261.97587" y="107.266909" style="fill: #d62728; stroke: #d62728"/>
     <use xlink:href="#m1ae64bba06" x="278.372565" y="107.266909" style="fill: #d62728; stroke: #d62728"/>
     <use xlink:href="#m1ae64bba06" x="294.769259" y="107.266909" style="fill: #d62728; stroke: #d62728"/>
     <use xlink:href="#m1ae64bba06" x="311.165953" y="107.266909" style="fill: #d62728; stroke: #d62728"/>
     <use xlink:href="#m1ae64bba06" x="327.562647" y="107.266909" style="fill: #d62728; stroke: #d62728"/>
     <use xlink:href="#m1ae64bba06" x="343.959341" y="107.266909" style="fill: #d62728; stroke: #d62728"/>
     <use xlink:href="#m1ae64bba06" x="360.356036" y="107.266909" style="fill: #d62728; stroke: #d62728"/>
     <use xlink:href="#m1ae64bba06" x="376.75273" y="107.266909" style="fill: #d62728; stroke: #d62728"/>
     <use xlink:href="#m1ae64bba06" x="389.870085" y="107.266909" style="fill: #d62728; stroke: #d62728"/>
    </g>
   </g>
   <g id="patch_3">
    <path d="M 48.982813 273.312 
L 48.982813 7.2 
" style="fill: none; stroke: #000000; stroke-width: 0.8; stroke-linejoin: miter; stroke-linecap: square"/>
   </g>
   <g id="patch_4">
    <path d="M 406.102813 273.312 
L 406.102813 7.2 
" style="fill: none; stroke: #000000; stroke-width: 0.8; stroke-linejoin: miter; stroke-linecap: square"/>
   </g>
   <g id="patch_5">
    <path d="M 48.982813 273.312 
L 406.102813 273.312 
" style="fill: none; stroke: #000000; stroke-width: 0.8; stroke-linejoin: miter; stroke-linecap: square"/>
   </g>
   <g id="patch_6">
    <path d="M 48.982813 7.2 
L 406.102813 7.2 
" style="fill: none; stroke: #000000; stroke-width: 0.8; stroke-linejoin: miter; stroke-linecap: square"/>
   </g>
   <g id="legend_1">
    <g id="patch_7">
     <path d="M 309.281563 265.312 
L 396.502813 265.312 
Q 398.102813 265.312 398.102813 263.712 
L 398.102813 198.1395 
Q 398.102813 196.5395 396.502813 196.5395 
L 309.281563 196.5395 
Q 307.681563 196.5395 307.681563 198.1395 
L 307.681563 263.712 
Q 307.681563 265.312 309.281563 265.312 
z
" style="fill: #ffffff; opacity: 0.8; stroke: #000000; stroke-linejoin: miter"/>
    </g>
    <g id="line2d_26">
     <path d="M 315.681563 207.56325 
L 323.681563 207.56325 
L 331.681563 207.56325 
" style="fill: none; stroke-dasharray: 3.7,1.6; stroke-dashoffset: 0; stroke: #ff0000"/>
    </g>
    <g id="text_15">
     <!-- 80% Recovery -->
     <g transform="translate(338.081563 210.36325) scale(0.08 -0.08)">
      <defs>
       <path id="ArialMT-38" d="M 1131 2484 
Q 781 2613 612 2850 
Q 444 3088 444 3419 
Q 444 3919 803 4259 
Q 1163 4600 1759 4600 
Q 2359 4600 2725 4251 
Q 3091 3903 3091 3403 
Q 3091 3084 2923 2848 
Q 2756 2613 2416 2484 
Q 2838 2347 3058 2040 
Q 3278 1734 3278 1309 
Q 3278 722 2862 322 
Q 2447 -78 1769 -78 
Q 1091 -78 675 323 
Q 259 725 259 1325 
Q 259 1772 486 2073 
Q 713 2375 1131 2484 
z
M 1019 3438 
Q 1019 3113 1228 2906 
Q 1438 2700 1772 2700 
Q 2097 2700 2305 2904 
Q 2513 3109 2513 3406 
Q 2513 3716 2298 3927 
Q 2084 4138 1766 4138 
Q 1444 4138 1231 3931 
Q 1019 3725 1019 3438 
z
M 838 1322 
Q 838 1081 952 856 
Q 1066 631 1291 507 
Q 1516 384 1775 384 
Q 2178 384 2440 643 
Q 2703 903 2703 1303 
Q 2703 1709 2433 1975 
Q 2163 2241 1756 2241 
Q 1359 2241 1098 1978 
Q 838 1716 838 1322 
z
" transform="scale(0.015625)"/>
       <path id="ArialMT-30" d="M 266 2259 
Q 266 3072 433 3567 
Q 600 4063 929 4331 
Q 1259 4600 1759 4600 
Q 2128 4600 2406 4451 
Q 2684 4303 2865 4023 
Q 3047 3744 3150 3342 
Q 3253 2941 3253 2259 
Q 3253 1453 3087 958 
Q 2922 463 2592 192 
Q 2263 -78 1759 -78 
Q 1097 -78 719 397 
Q 266 969 266 2259 
z
M 844 2259 
Q 844 1131 1108 757 
Q 1372 384 1759 384 
Q 2147 384 2411 759 
Q 2675 1134 2675 2259 
Q 2675 3391 2411 3762 
Q 2147 4134 1753 4134 
Q 1366 4134 1134 3806 
Q 844 3388 844 2259 
z
" transform="scale(0.015625)"/>
       <path id="ArialMT-25" d="M 372 3481 
Q 372 3972 619 4315 
Q 866 4659 1334 4659 
Q 1766 4659 2048 4351 
Q 2331 4044 2331 3447 
Q 2331 2866 2045 2552 
Q 1759 2238 1341 2238 
Q 925 2238 648 2547 
Q 372 2856 372 3481 
z
M 1350 4272 
Q 1141 4272 1002 4090 
Q 863 3909 863 3425 
Q 863 2984 1003 2804 
Q 1144 2625 1350 2625 
Q 1563 2625 1702 2806 
Q 1841 2988 1841 3469 
Q 1841 3913 1700 4092 
Q 1559 4272 1350 4272 
z
M 1353 -169 
L 3859 4659 
L 4316 4659 
L 1819 -169 
L 1353 -169 
z
M 3334 1075 
Q 3334 1569 3581 1911 
Q 3828 2253 4300 2253 
Q 4731 2253 5014 1945 
Q 5297 1638 5297 1041 
Q 5297 459 5011 145 
Q 4725 -169 4303 -169 
Q 3888 -169 3611 142 
Q 3334 453 3334 1075 
z
M 4316 1866 
Q 4103 1866 3964 1684 
Q 3825 1503 3825 1019 
Q 3825 581 3965 400 
Q 4106 219 4313 219 
Q 4528 219 4667 400 
Q 4806 581 4806 1063 
Q 4806 1506 4665 1686 
Q 4525 1866 4316 1866 
z
" transform="scale(0.015625)"/>
       <path id="ArialMT-20" transform="scale(0.015625)"/>
       <path id="ArialMT-52" d="M 503 0 
L 503 4581 
L 2534 4581 
Q 3147 4581 3465 4457 
Q 3784 4334 3975 4021 
Q 4166 3709 4166 3331 
Q 4166 2844 3850 2509 
Q 3534 2175 2875 2084 
Q 3116 1969 3241 1856 
Q 3506 1613 3744 1247 
L 4541 0 
L 3778 0 
L 3172 953 
Q 2906 1366 2734 1584 
Q 2563 1803 2427 1890 
Q 2291 1978 2150 2013 
Q 2047 2034 1813 2034 
L 1109 2034 
L 1109 0 
L 503 0 
z
M 1109 2559 
L 2413 2559 
Q 2828 2559 3062 2645 
Q 3297 2731 3419 2920 
Q 3541 3109 3541 3331 
Q 3541 3656 3305 3865 
Q 3069 4075 2559 4075 
L 1109 4075 
L 1109 2559 
z
" transform="scale(0.015625)"/>
       <path id="ArialMT-65" d="M 2694 1069 
L 3275 997 
Q 3138 488 2766 206 
Q 2394 -75 1816 -75 
Q 1088 -75 661 373 
Q 234 822 234 1631 
Q 234 2469 665 2931 
Q 1097 3394 1784 3394 
Q 2450 3394 2872 2941 
Q 3294 2488 3294 1666 
Q 3294 1616 3291 1516 
L 816 1516 
Q 847 969 1125 678 
Q 1403 388 1819 388 
Q 2128 388 2347 550 
Q 2566 713 2694 1069 
z
M 847 1978 
L 2700 1978 
Q 2663 2397 2488 2606 
Q 2219 2931 1791 2931 
Q 1403 2931 1139 2672 
Q 875 2413 847 1978 
z
" transform="scale(0.015625)"/>
       <path id="ArialMT-63" d="M 2588 1216 
L 3141 1144 
Q 3050 572 2676 248 
Q 2303 -75 1759 -75 
Q 1078 -75 664 370 
Q 250 816 250 1647 
Q 250 2184 428 2587 
Q 606 2991 970 3192 
Q 1334 3394 1763 3394 
Q 2303 3394 2647 3120 
Q 2991 2847 3088 2344 
L 2541 2259 
Q 2463 2594 2264 2762 
Q 2066 2931 1784 2931 
Q 1359 2931 1093 2626 
Q 828 2322 828 1663 
Q 828 994 1084 691 
Q 1341 388 1753 388 
Q 2084 388 2306 591 
Q 2528 794 2588 1216 
z
" transform="scale(0.015625)"/>
       <path id="ArialMT-6f" d="M 213 1659 
Q 213 2581 725 3025 
Q 1153 3394 1769 3394 
Q 2453 3394 2887 2945 
Q 3322 2497 3322 1706 
Q 3322 1066 3130 698 
Q 2938 331 2570 128 
Q 2203 -75 1769 -75 
Q 1072 -75 642 372 
Q 213 819 213 1659 
z
M 791 1659 
Q 791 1022 1069 705 
Q 1347 388 1769 388 
Q 2188 388 2466 706 
Q 2744 1025 2744 1678 
Q 2744 2294 2464 2611 
Q 2184 2928 1769 2928 
Q 1347 2928 1069 2612 
Q 791 2297 791 1659 
z
" transform="scale(0.015625)"/>
       <path id="ArialMT-76" d="M 1344 0 
L 81 3319 
L 675 3319 
L 1388 1331 
Q 1503 1009 1600 663 
Q 1675 925 1809 1294 
L 2547 3319 
L 3125 3319 
L 1869 0 
L 1344 0 
z
" transform="scale(0.015625)"/>
       <path id="ArialMT-72" d="M 416 0 
L 416 3319 
L 922 3319 
L 922 2816 
Q 1116 3169 1280 3281 
Q 1444 3394 1641 3394 
Q 1925 3394 2219 3213 
L 2025 2691 
Q 1819 2813 1613 2813 
Q 1428 2813 1281 2702 
Q 1134 2591 1072 2394 
Q 978 2094 978 1738 
L 978 0 
L 416 0 
z
" transform="scale(0.015625)"/>
       <path id="ArialMT-79" d="M 397 -1278 
L 334 -750 
Q 519 -800 656 -800 
Q 844 -800 956 -737 
Q 1069 -675 1141 -563 
Q 1194 -478 1313 -144 
Q 1328 -97 1363 -6 
L 103 3319 
L 709 3319 
L 1400 1397 
Q 1534 1031 1641 628 
Q 1738 1016 1872 1384 
L 2581 3319 
L 3144 3319 
L 1881 -56 
Q 1678 -603 1566 -809 
Q 1416 -1088 1222 -1217 
Q 1028 -1347 759 -1347 
Q 597 -1347 397 -1278 
z
" transform="scale(0.015625)"/>
      </defs>
      <use xlink:href="#ArialMT-38"/>
      <use xlink:href="#ArialMT-30" x="55.615234"/>
      <use xlink:href="#ArialMT-25" x="111.230469"/>
      <use xlink:href="#ArialMT-20" x="200.146484"/>
      <use xlink:href="#ArialMT-52" x="227.929688"/>
      <use xlink:href="#ArialMT-65" x="300.146484"/>
      <use xlink:href="#ArialMT-63" x="355.761719"/>
      <use xlink:href="#ArialMT-6f" x="405.761719"/>
      <use xlink:href="#ArialMT-76" x="461.376953"/>
      <use xlink:href="#ArialMT-65" x="511.376953"/>
      <use xlink:href="#ArialMT-72" x="566.992188"/>
      <use xlink:href="#ArialMT-79" x="600.292969"/>
     </g>
    </g>
    <g id="LineCollection_5">
     <path d="M 323.681563 222.97325 
L 323.681563 214.97325 
" style="fill: none; stroke: #1f77b4; stroke-width: 1.5"/>
    </g>
    <g id="line2d_27">
     <g>
      <use xlink:href="#m726e5f71c7" x="323.681563" y="222.97325" style="fill: #1f77b4; stroke: #1f77b4"/>
     </g>
    </g>
    <g id="line2d_28">
     <g>
      <use xlink:href="#m726e5f71c7" x="323.681563" y="214.97325" style="fill: #1f77b4; stroke: #1f77b4"/>
     </g>
    </g>
    <g id="line2d_29">
     <path d="M 315.681563 218.97325 
L 331.681563 218.97325 
" style="fill: none; stroke: #1f77b4; stroke-width: 1.5; stroke-linecap: square"/>
    </g>
    <g id="line2d_30">
     <g>
      <use xlink:href="#m9eac3d8cab" x="323.681563" y="218.97325" style="fill: #1f77b4; stroke: #1f77b4"/>
     </g>
    </g>
    <g id="text_16">
     <!-- No noise -->
     <g transform="translate(338.081563 221.77325) scale(0.08 -0.08)">
      <defs>
       <path id="ArialMT-4e" d="M 488 0 
L 488 4581 
L 1109 4581 
L 3516 984 
L 3516 4581 
L 4097 4581 
L 4097 0 
L 3475 0 
L 1069 3600 
L 1069 0 
L 488 0 
z
" transform="scale(0.015625)"/>
       <path id="ArialMT-6e" d="M 422 0 
L 422 3319 
L 928 3319 
L 928 2847 
Q 1294 3394 1984 3394 
Q 2284 3394 2536 3286 
Q 2788 3178 2913 3003 
Q 3038 2828 3088 2588 
Q 3119 2431 3119 2041 
L 3119 0 
L 2556 0 
L 2556 2019 
Q 2556 2363 2490 2533 
Q 2425 2703 2258 2804 
Q 2091 2906 1866 2906 
Q 1506 2906 1245 2678 
Q 984 2450 984 1813 
L 984 0 
L 422 0 
z
" transform="scale(0.015625)"/>
       <path id="ArialMT-69" d="M 425 3934 
L 425 4581 
L 988 4581 
L 988 3934 
L 425 3934 
z
M 425 0 
L 425 3319 
L 988 3319 
L 988 0 
L 425 0 
z
" transform="scale(0.015625)"/>
       <path id="ArialMT-73" d="M 197 991 
L 753 1078 
Q 800 744 1014 566 
Q 1228 388 1613 388 
Q 2000 388 2187 545 
Q 2375 703 2375 916 
Q 2375 1106 2209 1216 
Q 2094 1291 1634 1406 
Q 1016 1563 777 1677 
Q 538 1791 414 1992 
Q 291 2194 291 2438 
Q 291 2659 392 2848 
Q 494 3038 669 3163 
Q 800 3259 1026 3326 
Q 1253 3394 1513 3394 
Q 1903 3394 2198 3281 
Q 2494 3169 2634 2976 
Q 2775 2784 2828 2463 
L 2278 2388 
Q 2241 2644 2061 2787 
Q 1881 2931 1553 2931 
Q 1166 2931 1000 2803 
Q 834 2675 834 2503 
Q 834 2394 903 2306 
Q 972 2216 1119 2156 
Q 1203 2125 1616 2013 
Q 2213 1853 2448 1751 
Q 2684 1650 2818 1456 
Q 2953 1263 2953 975 
Q 2953 694 2789 445 
Q 2625 197 2315 61 
Q 2006 -75 1616 -75 
Q 969 -75 630 194 
Q 291 463 197 991 
z
" transform="scale(0.015625)"/>
      </defs>
      <use xlink:href="#ArialMT-4e"/>
      <use xlink:href="#ArialMT-6f" x="72.216797"/>
      <use xlink:href="#ArialMT-20" x="127.832031"/>
      <use xlink:href="#ArialMT-6e" x="155.615234"/>
      <use xlink:href="#ArialMT-6f" x="211.230469"/>
      <use xlink:href="#ArialMT-69" x="266.845703"/>
      <use xlink:href="#ArialMT-73" x="289.0625"/>
      <use xlink:href="#ArialMT-65" x="339.0625"/>
     </g>
    </g>
    <g id="LineCollection_6">
     <path d="M 323.681563 234.2895 
L 323.681563 226.2895 
" style="fill: none; stroke: #ff7f0e; stroke-width: 1.5"/>
    </g>
    <g id="line2d_31">
     <g>
      <use xlink:href="#m1220964255" x="323.681563" y="234.2895" style="fill: #ff7f0e; stroke: #ff7f0e"/>
     </g>
    </g>
    <g id="line2d_32">
     <g>
      <use xlink:href="#m1220964255" x="323.681563" y="226.2895" style="fill: #ff7f0e; stroke: #ff7f0e"/>
     </g>
    </g>
    <g id="line2d_33">
     <path d="M 315.681563 230.2895 
L 331.681563 230.2895 
" style="fill: none; stroke: #ff7f0e; stroke-width: 1.5; stroke-linecap: square"/>
    </g>
    <g id="line2d_34">
     <g>
      <use xlink:href="#m372bb21398" x="323.681563" y="230.2895" style="fill: #ff7f0e; stroke: #ff7f0e"/>
     </g>
    </g>
    <g id="text_17">
     <!-- 40dB -->
     <g transform="translate(338.081563 233.0895) scale(0.08 -0.08)">
      <defs>
       <path id="ArialMT-34" d="M 2069 0 
L 2069 1097 
L 81 1097 
L 81 1613 
L 2172 4581 
L 2631 4581 
L 2631 1613 
L 3250 1613 
L 3250 1097 
L 2631 1097 
L 2631 0 
L 2069 0 
z
M 2069 1613 
L 2069 3678 
L 634 1613 
L 2069 1613 
z
" transform="scale(0.015625)"/>
       <path id="ArialMT-64" d="M 2575 0 
L 2575 419 
Q 2259 -75 1647 -75 
Q 1250 -75 917 144 
Q 584 363 401 755 
Q 219 1147 219 1656 
Q 219 2153 384 2558 
Q 550 2963 881 3178 
Q 1213 3394 1622 3394 
Q 1922 3394 2156 3267 
Q 2391 3141 2538 2938 
L 2538 4581 
L 3097 4581 
L 3097 0 
L 2575 0 
z
M 797 1656 
Q 797 1019 1065 703 
Q 1334 388 1700 388 
Q 2069 388 2326 689 
Q 2584 991 2584 1609 
Q 2584 2291 2321 2609 
Q 2059 2928 1675 2928 
Q 1300 2928 1048 2622 
Q 797 2316 797 1656 
z
" transform="scale(0.015625)"/>
       <path id="ArialMT-42" d="M 469 0 
L 469 4581 
L 2188 4581 
Q 2713 4581 3030 4442 
Q 3347 4303 3526 4014 
Q 3706 3725 3706 3409 
Q 3706 3116 3547 2856 
Q 3388 2597 3066 2438 
Q 3481 2316 3704 2022 
Q 3928 1728 3928 1328 
Q 3928 1006 3792 729 
Q 3656 453 3456 303 
Q 3256 153 2954 76 
Q 2653 0 2216 0 
L 469 0 
z
M 1075 2656 
L 2066 2656 
Q 2469 2656 2644 2709 
Q 2875 2778 2992 2937 
Q 3109 3097 3109 3338 
Q 3109 3566 3000 3739 
Q 2891 3913 2687 3977 
Q 2484 4041 1991 4041 
L 1075 4041 
L 1075 2656 
z
M 1075 541 
L 2216 541 
Q 2509 541 2628 563 
Q 2838 600 2978 687 
Q 3119 775 3209 942 
Q 3300 1109 3300 1328 
Q 3300 1584 3169 1773 
Q 3038 1963 2805 2039 
Q 2572 2116 2134 2116 
L 1075 2116 
L 1075 541 
z
" transform="scale(0.015625)"/>
      </defs>
      <use xlink:href="#ArialMT-34"/>
      <use xlink:href="#ArialMT-30" x="55.615234"/>
      <use xlink:href="#ArialMT-64" x="111.230469"/>
      <use xlink:href="#ArialMT-42" x="166.845703"/>
     </g>
    </g>
    <g id="LineCollection_7">
     <path d="M 323.681563 245.60575 
L 323.681563 237.60575 
" style="fill: none; stroke: #2ca02c; stroke-width: 1.5"/>
    </g>
    <g id="line2d_35">
     <g>
      <use xlink:href="#m7f814dfa31" x="323.681563" y="245.60575" style="fill: #2ca02c; stroke: #2ca02c"/>
     </g>
    </g>
    <g id="line2d_36">
     <g>
      <use xlink:href="#m7f814dfa31" x="323.681563" y="237.60575" style="fill: #2ca02c; stroke: #2ca02c"/>
     </g>
    </g>
    <g id="line2d_37">
     <path d="M 315.681563 241.60575 
L 331.681563 241.60575 
" style="fill: none; stroke: #2ca02c; stroke-width: 1.5; stroke-linecap: square"/>
    </g>
    <g id="line2d_38">
     <g>
      <use xlink:href="#mfd15289757" x="323.681563" y="241.60575" style="fill: #2ca02c; stroke: #2ca02c"/>
     </g>
    </g>
    <g id="text_18">
     <!-- 30dB -->
     <g transform="translate(338.081563 244.40575) scale(0.08 -0.08)">
      <defs>
       <path id="ArialMT-33" d="M 269 1209 
L 831 1284 
Q 928 806 1161 595 
Q 1394 384 1728 384 
Q 2125 384 2398 659 
Q 2672 934 2672 1341 
Q 2672 1728 2419 1979 
Q 2166 2231 1775 2231 
Q 1616 2231 1378 2169 
L 1441 2663 
Q 1497 2656 1531 2656 
Q 1891 2656 2178 2843 
Q 2466 3031 2466 3422 
Q 2466 3731 2256 3934 
Q 2047 4138 1716 4138 
Q 1388 4138 1169 3931 
Q 950 3725 888 3313 
L 325 3413 
Q 428 3978 793 4289 
Q 1159 4600 1703 4600 
Q 2078 4600 2393 4439 
Q 2709 4278 2876 4000 
Q 3044 3722 3044 3409 
Q 3044 3113 2884 2869 
Q 2725 2625 2413 2481 
Q 2819 2388 3044 2092 
Q 3269 1797 3269 1353 
Q 3269 753 2831 336 
Q 2394 -81 1725 -81 
Q 1122 -81 723 278 
Q 325 638 269 1209 
z
" transform="scale(0.015625)"/>
      </defs>
      <use xlink:href="#ArialMT-33"/>
      <use xlink:href="#ArialMT-30" x="55.615234"/>
      <use xlink:href="#ArialMT-64" x="111.230469"/>
      <use xlink:href="#ArialMT-42" x="166.845703"/>
     </g>
    </g>
    <g id="LineCollection_8">
     <path d="M 323.681563 256.922 
L 323.681563 248.922 
" style="fill: none; stroke: #d62728; stroke-width: 1.5"/>
    </g>
    <g id="line2d_39">
     <g>
      <use xlink:href="#m757cee35f6" x="323.681563" y="256.922" style="fill: #d62728; stroke: #d62728"/>
     </g>
    </g>
    <g id="line2d_40">
     <g>
      <use xlink:href="#m757cee35f6" x="323.681563" y="248.922" style="fill: #d62728; stroke: #d62728"/>
     </g>
    </g>
    <g id="line2d_41">
     <path d="M 315.681563 252.922 
L 331.681563 252.922 
" style="fill: none; stroke: #d62728; stroke-width: 1.5; stroke-linecap: square"/>
    </g>
    <g id="line2d_42">
     <g>
      <use xlink:href="#m1ae64bba06" x="323.681563" y="252.922" style="fill: #d62728; stroke: #d62728"/>
     </g>
    </g>
    <g id="text_19">
     <!-- 20dB -->
     <g transform="translate(338.081563 255.722) scale(0.08 -0.08)">
      <defs>
       <path id="ArialMT-32" d="M 3222 541 
L 3222 0 
L 194 0 
Q 188 203 259 391 
Q 375 700 629 1000 
Q 884 1300 1366 1694 
Q 2113 2306 2375 2664 
Q 2638 3022 2638 3341 
Q 2638 3675 2398 3904 
Q 2159 4134 1775 4134 
Q 1369 4134 1125 3890 
Q 881 3647 878 3216 
L 300 3275 
Q 359 3922 746 4261 
Q 1134 4600 1788 4600 
Q 2447 4600 2831 4234 
Q 3216 3869 3216 3328 
Q 3216 3053 3103 2787 
Q 2991 2522 2730 2228 
Q 2469 1934 1863 1422 
Q 1356 997 1212 845 
Q 1069 694 975 541 
L 3222 541 
z
" transform="scale(0.015625)"/>
      </defs>
      <use xlink:href="#ArialMT-32"/>
      <use xlink:href="#ArialMT-30" x="55.615234"/>
      <use xlink:href="#ArialMT-64" x="111.230469"/>
      <use xlink:href="#ArialMT-42" x="166.845703"/>
     </g>
    </g>
   </g>
  </g>
 </g>
 <defs>
  <clipPath id="p1187b046c2">
   <rect x="48.982813" y="7.2" width="357.12" height="266.112"/>
  </clipPath>
 </defs>
</svg>
