<?xml version="1.0" encoding="utf-8" standalone="no"?>
<!DOCTYPE svg PUBLIC "-//W3C//DTD SVG 1.1//EN"
  "http://www.w3.org/Graphics/SVG/1.1/DTD/svg11.dtd">
<svg xmlns:xlink="http://www.w3.org/1999/xlink" width="435.565625pt" height="324.417625pt" viewBox="0 0 435.565625 324.417625" xmlns="http://www.w3.org/2000/svg" version="1.1">
 <metadata>
  <rdf:RDF xmlns:dc="http://purl.org/dc/elements/1.1/" xmlns:cc="http://creativecommons.org/ns#" xmlns:rdf="http://www.w3.org/1999/02/22-rdf-syntax-ns#">
   <cc:Work>
    <dc:type rdf:resource="http://purl.org/dc/dcmitype/StillImage"/>
    <dc:date>2025-03-04T14:20:21.508170</dc:date>
    <dc:format>image/svg+xml</dc:format>
    <dc:creator>
     <cc:Agent>
      <dc:title>Matplotlib v3.9.2, https://matplotlib.org/</dc:title>
     </cc:Agent>
    </dc:creator>
   </cc:Work>
  </rdf:RDF>
 </metadata>
 <defs>
  <style type="text/css">*{stroke-linejoin: round; stroke-linecap: butt}</style>
 </defs>
 <g id="figure_1">
  <g id="patch_1">
   <path d="M 0 324.417625 
L 435.565625 324.417625 
L 435.565625 0 
L 0 0 
z
" style="fill: #ffffff"/>
  </g>
  <g id="axes_1">
   <g id="patch_2">
    <path d="M 71.245625 273.312 
L 428.365625 273.312 
L 428.365625 7.2 
L 71.245625 7.2 
z
" style="fill: #ffffff"/>
   </g>
   <g id="matplotlib.axis_1">
    <g id="xtick_1">
     <g id="line2d_1">
      <defs>
       <path id="mcf2a61aadd" d="M 0 0 
L 0 3.5 
" style="stroke: #000000; stroke-width: 0.8"/>
      </defs>
      <g>
       <use xlink:href="#mcf2a61aadd" x="87.478352" y="273.312" style="stroke: #000000; stroke-width: 0.8"/>
      </g>
     </g>
     <g id="text_1">
      <!-- 0 -->
      <g transform="translate(82.388352 292.4695) scale(0.16 -0.16)">
       <defs>
        <path id="DejaVuSans-30" d="M 2034 4250 
Q 1547 4250 1301 3770 
Q 1056 3291 1056 2328 
Q 1056 1369 1301 889 
Q 1547 409 2034 409 
Q 2525 409 2770 889 
Q 3016 1369 3016 2328 
Q 3016 3291 2770 3770 
Q 2525 4250 2034 4250 
z
M 2034 4750 
Q 2819 4750 3233 4129 
Q 3647 3509 3647 2328 
Q 3647 1150 3233 529 
Q 2819 -91 2034 -91 
Q 1250 -91 836 529 
Q 422 1150 422 2328 
Q 422 3509 836 4129 
Q 1250 4750 2034 4750 
z
" transform="scale(0.015625)"/>
       </defs>
       <use xlink:href="#DejaVuSans-30"/>
      </g>
     </g>
    </g>
    <g id="xtick_2">
     <g id="line2d_2">
      <g>
       <use xlink:href="#mcf2a61aadd" x="119.943807" y="273.312" style="stroke: #000000; stroke-width: 0.8"/>
      </g>
     </g>
     <g id="text_2">
      <!-- 1 -->
      <g transform="translate(114.853807 292.4695) scale(0.16 -0.16)">
       <defs>
        <path id="DejaVuSans-31" d="M 794 531 
L 1825 531 
L 1825 4091 
L 703 3866 
L 703 4441 
L 1819 4666 
L 2450 4666 
L 2450 531 
L 3481 531 
L 3481 0 
L 794 0 
L 794 531 
z
" transform="scale(0.015625)"/>
       </defs>
       <use xlink:href="#DejaVuSans-31"/>
      </g>
     </g>
    </g>
    <g id="xtick_3">
     <g id="line2d_3">
      <g>
       <use xlink:href="#mcf2a61aadd" x="152.409261" y="273.312" style="stroke: #000000; stroke-width: 0.8"/>
      </g>
     </g>
     <g id="text_3">
      <!-- 2 -->
      <g transform="translate(147.319261 292.4695) scale(0.16 -0.16)">
       <defs>
        <path id="DejaVuSans-32" d="M 1228 531 
L 3431 531 
L 3431 0 
L 469 0 
L 469 531 
Q 828 903 1448 1529 
Q 2069 2156 2228 2338 
Q 2531 2678 2651 2914 
Q 2772 3150 2772 3378 
Q 2772 3750 2511 3984 
Q 2250 4219 1831 4219 
Q 1534 4219 1204 4116 
Q 875 4013 500 3803 
L 500 4441 
Q 881 4594 1212 4672 
Q 1544 4750 1819 4750 
Q 2544 4750 2975 4387 
Q 3406 4025 3406 3419 
Q 3406 3131 3298 2873 
Q 3191 2616 2906 2266 
Q 2828 2175 2409 1742 
Q 1991 1309 1228 531 
z
" transform="scale(0.015625)"/>
       </defs>
       <use xlink:href="#DejaVuSans-32"/>
      </g>
     </g>
    </g>
    <g id="xtick_4">
     <g id="line2d_4">
      <g>
       <use xlink:href="#mcf2a61aadd" x="184.874716" y="273.312" style="stroke: #000000; stroke-width: 0.8"/>
      </g>
     </g>
     <g id="text_4">
      <!-- 3 -->
      <g transform="translate(179.784716 292.4695) scale(0.16 -0.16)">
       <defs>
        <path id="DejaVuSans-33" d="M 2597 2516 
Q 3050 2419 3304 2112 
Q 3559 1806 3559 1356 
Q 3559 666 3084 287 
Q 2609 -91 1734 -91 
Q 1441 -91 1130 -33 
Q 819 25 488 141 
L 488 750 
Q 750 597 1062 519 
Q 1375 441 1716 441 
Q 2309 441 2620 675 
Q 2931 909 2931 1356 
Q 2931 1769 2642 2001 
Q 2353 2234 1838 2234 
L 1294 2234 
L 1294 2753 
L 1863 2753 
Q 2328 2753 2575 2939 
Q 2822 3125 2822 3475 
Q 2822 3834 2567 4026 
Q 2313 4219 1838 4219 
Q 1578 4219 1281 4162 
Q 984 4106 628 3988 
L 628 4550 
Q 988 4650 1302 4700 
Q 1616 4750 1894 4750 
Q 2613 4750 3031 4423 
Q 3450 4097 3450 3541 
Q 3450 3153 3228 2886 
Q 3006 2619 2597 2516 
z
" transform="scale(0.015625)"/>
       </defs>
       <use xlink:href="#DejaVuSans-33"/>
      </g>
     </g>
    </g>
    <g id="xtick_5">
     <g id="line2d_5">
      <g>
       <use xlink:href="#mcf2a61aadd" x="217.34017" y="273.312" style="stroke: #000000; stroke-width: 0.8"/>
      </g>
     </g>
     <g id="text_5">
      <!-- 4 -->
      <g transform="translate(212.25017 292.4695) scale(0.16 -0.16)">
       <defs>
        <path id="DejaVuSans-34" d="M 2419 4116 
L 825 1625 
L 2419 1625 
L 2419 4116 
z
M 2253 4666 
L 3047 4666 
L 3047 1625 
L 3713 1625 
L 3713 1100 
L 3047 1100 
L 3047 0 
L 2419 0 
L 2419 1100 
L 313 1100 
L 313 1709 
L 2253 4666 
z
" transform="scale(0.015625)"/>
       </defs>
       <use xlink:href="#DejaVuSans-34"/>
      </g>
     </g>
    </g>
    <g id="xtick_6">
     <g id="line2d_6">
      <g>
       <use xlink:href="#mcf2a61aadd" x="249.805625" y="273.312" style="stroke: #000000; stroke-width: 0.8"/>
      </g>
     </g>
     <g id="text_6">
      <!-- 5 -->
      <g transform="translate(244.715625 292.4695) scale(0.16 -0.16)">
       <defs>
        <path id="DejaVuSans-35" d="M 691 4666 
L 3169 4666 
L 3169 4134 
L 1269 4134 
L 1269 2991 
Q 1406 3038 1543 3061 
Q 1681 3084 1819 3084 
Q 2600 3084 3056 2656 
Q 3513 2228 3513 1497 
Q 3513 744 3044 326 
Q 2575 -91 1722 -91 
Q 1428 -91 1123 -41 
Q 819 9 494 109 
L 494 744 
Q 775 591 1075 516 
Q 1375 441 1709 441 
Q 2250 441 2565 725 
Q 2881 1009 2881 1497 
Q 2881 1984 2565 2268 
Q 2250 2553 1709 2553 
Q 1456 2553 1204 2497 
Q 953 2441 691 2322 
L 691 4666 
z
" transform="scale(0.015625)"/>
       </defs>
       <use xlink:href="#DejaVuSans-35"/>
      </g>
     </g>
    </g>
    <g id="xtick_7">
     <g id="line2d_7">
      <g>
       <use xlink:href="#mcf2a61aadd" x="282.27108" y="273.312" style="stroke: #000000; stroke-width: 0.8"/>
      </g>
     </g>
     <g id="text_7">
      <!-- 6 -->
      <g transform="translate(277.18108 292.4695) scale(0.16 -0.16)">
       <defs>
        <path id="DejaVuSans-36" d="M 2113 2584 
Q 1688 2584 1439 2293 
Q 1191 2003 1191 1497 
Q 1191 994 1439 701 
Q 1688 409 2113 409 
Q 2538 409 2786 701 
Q 3034 994 3034 1497 
Q 3034 2003 2786 2293 
Q 2538 2584 2113 2584 
z
M 3366 4563 
L 3366 3988 
Q 3128 4100 2886 4159 
Q 2644 4219 2406 4219 
Q 1781 4219 1451 3797 
Q 1122 3375 1075 2522 
Q 1259 2794 1537 2939 
Q 1816 3084 2150 3084 
Q 2853 3084 3261 2657 
Q 3669 2231 3669 1497 
Q 3669 778 3244 343 
Q 2819 -91 2113 -91 
Q 1303 -91 875 529 
Q 447 1150 447 2328 
Q 447 3434 972 4092 
Q 1497 4750 2381 4750 
Q 2619 4750 2861 4703 
Q 3103 4656 3366 4563 
z
" transform="scale(0.015625)"/>
       </defs>
       <use xlink:href="#DejaVuSans-36"/>
      </g>
     </g>
    </g>
    <g id="xtick_8">
     <g id="line2d_8">
      <g>
       <use xlink:href="#mcf2a61aadd" x="314.736534" y="273.312" style="stroke: #000000; stroke-width: 0.8"/>
      </g>
     </g>
     <g id="text_8">
      <!-- 7 -->
      <g transform="translate(309.646534 292.4695) scale(0.16 -0.16)">
       <defs>
        <path id="DejaVuSans-37" d="M 525 4666 
L 3525 4666 
L 3525 4397 
L 1831 0 
L 1172 0 
L 2766 4134 
L 525 4134 
L 525 4666 
z
" transform="scale(0.015625)"/>
       </defs>
       <use xlink:href="#DejaVuSans-37"/>
      </g>
     </g>
    </g>
    <g id="xtick_9">
     <g id="line2d_9">
      <g>
       <use xlink:href="#mcf2a61aadd" x="347.201989" y="273.312" style="stroke: #000000; stroke-width: 0.8"/>
      </g>
     </g>
     <g id="text_9">
      <!-- 8 -->
      <g transform="translate(342.111989 292.4695) scale(0.16 -0.16)">
       <defs>
        <path id="DejaVuSans-38" d="M 2034 2216 
Q 1584 2216 1326 1975 
Q 1069 1734 1069 1313 
Q 1069 891 1326 650 
Q 1584 409 2034 409 
Q 2484 409 2743 651 
Q 3003 894 3003 1313 
Q 3003 1734 2745 1975 
Q 2488 2216 2034 2216 
z
M 1403 2484 
Q 997 2584 770 2862 
Q 544 3141 544 3541 
Q 544 4100 942 4425 
Q 1341 4750 2034 4750 
Q 2731 4750 3128 4425 
Q 3525 4100 3525 3541 
Q 3525 3141 3298 2862 
Q 3072 2584 2669 2484 
Q 3125 2378 3379 2068 
Q 3634 1759 3634 1313 
Q 3634 634 3220 271 
Q 2806 -91 2034 -91 
Q 1263 -91 848 271 
Q 434 634 434 1313 
Q 434 1759 690 2068 
Q 947 2378 1403 2484 
z
M 1172 3481 
Q 1172 3119 1398 2916 
Q 1625 2713 2034 2713 
Q 2441 2713 2670 2916 
Q 2900 3119 2900 3481 
Q 2900 3844 2670 4047 
Q 2441 4250 2034 4250 
Q 1625 4250 1398 4047 
Q 1172 3844 1172 3481 
z
" transform="scale(0.015625)"/>
       </defs>
       <use xlink:href="#DejaVuSans-38"/>
      </g>
     </g>
    </g>
    <g id="xtick_10">
     <g id="line2d_10">
      <g>
       <use xlink:href="#mcf2a61aadd" x="379.667443" y="273.312" style="stroke: #000000; stroke-width: 0.8"/>
      </g>
     </g>
     <g id="text_10">
      <!-- 9 -->
      <g transform="translate(374.577443 292.4695) scale(0.16 -0.16)">
       <defs>
        <path id="DejaVuSans-39" d="M 703 97 
L 703 672 
Q 941 559 1184 500 
Q 1428 441 1663 441 
Q 2288 441 2617 861 
Q 2947 1281 2994 2138 
Q 2813 1869 2534 1725 
Q 2256 1581 1919 1581 
Q 1219 1581 811 2004 
Q 403 2428 403 3163 
Q 403 3881 828 4315 
Q 1253 4750 1959 4750 
Q 2769 4750 3195 4129 
Q 3622 3509 3622 2328 
Q 3622 1225 3098 567 
Q 2575 -91 1691 -91 
Q 1453 -91 1209 -44 
Q 966 3 703 97 
z
M 1959 2075 
Q 2384 2075 2632 2365 
Q 2881 2656 2881 3163 
Q 2881 3666 2632 3958 
Q 2384 4250 1959 4250 
Q 1534 4250 1286 3958 
Q 1038 3666 1038 3163 
Q 1038 2656 1286 2365 
Q 1534 2075 1959 2075 
z
" transform="scale(0.015625)"/>
       </defs>
       <use xlink:href="#DejaVuSans-39"/>
      </g>
     </g>
    </g>
    <g id="xtick_11">
     <g id="line2d_11">
      <g>
       <use xlink:href="#mcf2a61aadd" x="412.132898" y="273.312" style="stroke: #000000; stroke-width: 0.8"/>
      </g>
     </g>
     <g id="text_11">
      <!-- 10 -->
      <g transform="translate(401.952898 292.4695) scale(0.16 -0.16)">
       <use xlink:href="#DejaVuSans-31"/>
       <use xlink:href="#DejaVuSans-30" x="63.623047"/>
      </g>
     </g>
    </g>
    <g id="text_12">
     <!-- time -->
     <g transform="translate(229.472656 313.474187) scale(0.18 -0.18)">
      <defs>
       <path id="DejaVuSans-74" d="M 1172 4494 
L 1172 3500 
L 2356 3500 
L 2356 3053 
L 1172 3053 
L 1172 1153 
Q 1172 725 1289 603 
Q 1406 481 1766 481 
L 2356 481 
L 2356 0 
L 1766 0 
Q 1100 0 847 248 
Q 594 497 594 1153 
L 594 3053 
L 172 3053 
L 172 3500 
L 594 3500 
L 594 4494 
L 1172 4494 
z
" transform="scale(0.015625)"/>
       <path id="DejaVuSans-69" d="M 603 3500 
L 1178 3500 
L 1178 0 
L 603 0 
L 603 3500 
z
M 603 4863 
L 1178 4863 
L 1178 4134 
L 603 4134 
L 603 4863 
z
" transform="scale(0.015625)"/>
       <path id="DejaVuSans-6d" d="M 3328 2828 
Q 3544 3216 3844 3400 
Q 4144 3584 4550 3584 
Q 5097 3584 5394 3201 
Q 5691 2819 5691 2113 
L 5691 0 
L 5113 0 
L 5113 2094 
Q 5113 2597 4934 2840 
Q 4756 3084 4391 3084 
Q 3944 3084 3684 2787 
Q 3425 2491 3425 1978 
L 3425 0 
L 2847 0 
L 2847 2094 
Q 2847 2600 2669 2842 
Q 2491 3084 2119 3084 
Q 1678 3084 1418 2786 
Q 1159 2488 1159 1978 
L 1159 0 
L 581 0 
L 581 3500 
L 1159 3500 
L 1159 2956 
Q 1356 3278 1631 3431 
Q 1906 3584 2284 3584 
Q 2666 3584 2933 3390 
Q 3200 3197 3328 2828 
z
" transform="scale(0.015625)"/>
       <path id="DejaVuSans-65" d="M 3597 1894 
L 3597 1613 
L 953 1613 
Q 991 1019 1311 708 
Q 1631 397 2203 397 
Q 2534 397 2845 478 
Q 3156 559 3463 722 
L 3463 178 
Q 3153 47 2828 -22 
Q 2503 -91 2169 -91 
Q 1331 -91 842 396 
Q 353 884 353 1716 
Q 353 2575 817 3079 
Q 1281 3584 2069 3584 
Q 2775 3584 3186 3129 
Q 3597 2675 3597 1894 
z
M 3022 2063 
Q 3016 2534 2758 2815 
Q 2500 3097 2075 3097 
Q 1594 3097 1305 2825 
Q 1016 2553 972 2059 
L 3022 2063 
z
" transform="scale(0.015625)"/>
      </defs>
      <use xlink:href="#DejaVuSans-74"/>
      <use xlink:href="#DejaVuSans-69" x="39.208984"/>
      <use xlink:href="#DejaVuSans-6d" x="66.992188"/>
      <use xlink:href="#DejaVuSans-65" x="164.404297"/>
     </g>
    </g>
   </g>
   <g id="matplotlib.axis_2">
    <g id="ytick_1">
     <g id="line2d_12">
      <defs>
       <path id="mfbc5df0e4e" d="M 0 0 
L -3.5 0 
" style="stroke: #000000; stroke-width: 0.8"/>
      </defs>
      <g>
       <use xlink:href="#mfbc5df0e4e" x="71.245625" y="256.473579" style="stroke: #000000; stroke-width: 0.8"/>
      </g>
     </g>
     <g id="text_13">
      <!-- 0.0 -->
      <g transform="translate(38.800625 262.552329) scale(0.16 -0.16)">
       <defs>
        <path id="DejaVuSans-2e" d="M 684 794 
L 1344 794 
L 1344 0 
L 684 0 
L 684 794 
z
" transform="scale(0.015625)"/>
       </defs>
       <use xlink:href="#DejaVuSans-30"/>
       <use xlink:href="#DejaVuSans-2e" x="63.623047"/>
       <use xlink:href="#DejaVuSans-30" x="95.410156"/>
      </g>
     </g>
    </g>
    <g id="ytick_2">
     <g id="line2d_13">
      <g>
       <use xlink:href="#mfbc5df0e4e" x="71.245625" y="226.827798" style="stroke: #000000; stroke-width: 0.8"/>
      </g>
     </g>
     <g id="text_14">
      <!-- 2.5 -->
      <g transform="translate(38.800625 232.906548) scale(0.16 -0.16)">
       <use xlink:href="#DejaVuSans-32"/>
       <use xlink:href="#DejaVuSans-2e" x="63.623047"/>
       <use xlink:href="#DejaVuSans-35" x="95.410156"/>
      </g>
     </g>
    </g>
    <g id="ytick_3">
     <g id="line2d_14">
      <g>
       <use xlink:href="#mfbc5df0e4e" x="71.245625" y="197.182017" style="stroke: #000000; stroke-width: 0.8"/>
      </g>
     </g>
     <g id="text_15">
      <!-- 5.0 -->
      <g transform="translate(38.800625 203.260767) scale(0.16 -0.16)">
       <use xlink:href="#DejaVuSans-35"/>
       <use xlink:href="#DejaVuSans-2e" x="63.623047"/>
       <use xlink:href="#DejaVuSans-30" x="95.410156"/>
      </g>
     </g>
    </g>
    <g id="ytick_4">
     <g id="line2d_15">
      <g>
       <use xlink:href="#mfbc5df0e4e" x="71.245625" y="167.536236" style="stroke: #000000; stroke-width: 0.8"/>
      </g>
     </g>
     <g id="text_16">
      <!-- 7.5 -->
      <g transform="translate(38.800625 173.614986) scale(0.16 -0.16)">
       <use xlink:href="#DejaVuSans-37"/>
       <use xlink:href="#DejaVuSans-2e" x="63.623047"/>
       <use xlink:href="#DejaVuSans-35" x="95.410156"/>
      </g>
     </g>
    </g>
    <g id="ytick_5">
     <g id="line2d_16">
      <g>
       <use xlink:href="#mfbc5df0e4e" x="71.245625" y="137.890455" style="stroke: #000000; stroke-width: 0.8"/>
      </g>
     </g>
     <g id="text_17">
      <!-- 10.0 -->
      <g transform="translate(28.620625 143.969205) scale(0.16 -0.16)">
       <use xlink:href="#DejaVuSans-31"/>
       <use xlink:href="#DejaVuSans-30" x="63.623047"/>
       <use xlink:href="#DejaVuSans-2e" x="127.246094"/>
       <use xlink:href="#DejaVuSans-30" x="159.033203"/>
      </g>
     </g>
    </g>
    <g id="ytick_6">
     <g id="line2d_17">
      <g>
       <use xlink:href="#mfbc5df0e4e" x="71.245625" y="108.244673" style="stroke: #000000; stroke-width: 0.8"/>
      </g>
     </g>
     <g id="text_18">
      <!-- 12.5 -->
      <g transform="translate(28.620625 114.323423) scale(0.16 -0.16)">
       <use xlink:href="#DejaVuSans-31"/>
       <use xlink:href="#DejaVuSans-32" x="63.623047"/>
       <use xlink:href="#DejaVuSans-2e" x="127.246094"/>
       <use xlink:href="#DejaVuSans-35" x="159.033203"/>
      </g>
     </g>
    </g>
    <g id="ytick_7">
     <g id="line2d_18">
      <g>
       <use xlink:href="#mfbc5df0e4e" x="71.245625" y="78.598892" style="stroke: #000000; stroke-width: 0.8"/>
      </g>
     </g>
     <g id="text_19">
      <!-- 15.0 -->
      <g transform="translate(28.620625 84.677642) scale(0.16 -0.16)">
       <use xlink:href="#DejaVuSans-31"/>
       <use xlink:href="#DejaVuSans-35" x="63.623047"/>
       <use xlink:href="#DejaVuSans-2e" x="127.246094"/>
       <use xlink:href="#DejaVuSans-30" x="159.033203"/>
      </g>
     </g>
    </g>
    <g id="ytick_8">
     <g id="line2d_19">
      <g>
       <use xlink:href="#mfbc5df0e4e" x="71.245625" y="48.953111" style="stroke: #000000; stroke-width: 0.8"/>
      </g>
     </g>
     <g id="text_20">
      <!-- 17.5 -->
      <g transform="translate(28.620625 55.031861) scale(0.16 -0.16)">
       <use xlink:href="#DejaVuSans-31"/>
       <use xlink:href="#DejaVuSans-37" x="63.623047"/>
       <use xlink:href="#DejaVuSans-2e" x="127.246094"/>
       <use xlink:href="#DejaVuSans-35" x="159.033203"/>
      </g>
     </g>
    </g>
    <g id="ytick_9">
     <g id="line2d_20">
      <g>
       <use xlink:href="#mfbc5df0e4e" x="71.245625" y="19.30733" style="stroke: #000000; stroke-width: 0.8"/>
      </g>
     </g>
     <g id="text_21">
      <!-- 20.0 -->
      <g transform="translate(28.620625 25.38608) scale(0.16 -0.16)">
       <use xlink:href="#DejaVuSans-32"/>
       <use xlink:href="#DejaVuSans-30" x="63.623047"/>
       <use xlink:href="#DejaVuSans-2e" x="127.246094"/>
       <use xlink:href="#DejaVuSans-30" x="159.033203"/>
      </g>
     </g>
    </g>
    <g id="text_22">
     <!-- concentration -->
     <g transform="translate(20.877188 202.588031) rotate(-90) scale(0.18 -0.18)">
      <defs>
       <path id="DejaVuSans-63" d="M 3122 3366 
L 3122 2828 
Q 2878 2963 2633 3030 
Q 2388 3097 2138 3097 
Q 1578 3097 1268 2742 
Q 959 2388 959 1747 
Q 959 1106 1268 751 
Q 1578 397 2138 397 
Q 2388 397 2633 464 
Q 2878 531 3122 666 
L 3122 134 
Q 2881 22 2623 -34 
Q 2366 -91 2075 -91 
Q 1284 -91 818 406 
Q 353 903 353 1747 
Q 353 2603 823 3093 
Q 1294 3584 2113 3584 
Q 2378 3584 2631 3529 
Q 2884 3475 3122 3366 
z
" transform="scale(0.015625)"/>
       <path id="DejaVuSans-6f" d="M 1959 3097 
Q 1497 3097 1228 2736 
Q 959 2375 959 1747 
Q 959 1119 1226 758 
Q 1494 397 1959 397 
Q 2419 397 2687 759 
Q 2956 1122 2956 1747 
Q 2956 2369 2687 2733 
Q 2419 3097 1959 3097 
z
M 1959 3584 
Q 2709 3584 3137 3096 
Q 3566 2609 3566 1747 
Q 3566 888 3137 398 
Q 2709 -91 1959 -91 
Q 1206 -91 779 398 
Q 353 888 353 1747 
Q 353 2609 779 3096 
Q 1206 3584 1959 3584 
z
" transform="scale(0.015625)"/>
       <path id="DejaVuSans-6e" d="M 3513 2113 
L 3513 0 
L 2938 0 
L 2938 2094 
Q 2938 2591 2744 2837 
Q 2550 3084 2163 3084 
Q 1697 3084 1428 2787 
Q 1159 2491 1159 1978 
L 1159 0 
L 581 0 
L 581 3500 
L 1159 3500 
L 1159 2956 
Q 1366 3272 1645 3428 
Q 1925 3584 2291 3584 
Q 2894 3584 3203 3211 
Q 3513 2838 3513 2113 
z
" transform="scale(0.015625)"/>
       <path id="DejaVuSans-72" d="M 2631 2963 
Q 2534 3019 2420 3045 
Q 2306 3072 2169 3072 
Q 1681 3072 1420 2755 
Q 1159 2438 1159 1844 
L 1159 0 
L 581 0 
L 581 3500 
L 1159 3500 
L 1159 2956 
Q 1341 3275 1631 3429 
Q 1922 3584 2338 3584 
Q 2397 3584 2469 3576 
Q 2541 3569 2628 3553 
L 2631 2963 
z
" transform="scale(0.015625)"/>
       <path id="DejaVuSans-61" d="M 2194 1759 
Q 1497 1759 1228 1600 
Q 959 1441 959 1056 
Q 959 750 1161 570 
Q 1363 391 1709 391 
Q 2188 391 2477 730 
Q 2766 1069 2766 1631 
L 2766 1759 
L 2194 1759 
z
M 3341 1997 
L 3341 0 
L 2766 0 
L 2766 531 
Q 2569 213 2275 61 
Q 1981 -91 1556 -91 
Q 1019 -91 701 211 
Q 384 513 384 1019 
Q 384 1609 779 1909 
Q 1175 2209 1959 2209 
L 2766 2209 
L 2766 2266 
Q 2766 2663 2505 2880 
Q 2244 3097 1772 3097 
Q 1472 3097 1187 3025 
Q 903 2953 641 2809 
L 641 3341 
Q 956 3463 1253 3523 
Q 1550 3584 1831 3584 
Q 2591 3584 2966 3190 
Q 3341 2797 3341 1997 
z
" transform="scale(0.015625)"/>
      </defs>
      <use xlink:href="#DejaVuSans-63"/>
      <use xlink:href="#DejaVuSans-6f" x="54.980469"/>
      <use xlink:href="#DejaVuSans-6e" x="116.162109"/>
      <use xlink:href="#DejaVuSans-63" x="179.541016"/>
      <use xlink:href="#DejaVuSans-65" x="234.521484"/>
      <use xlink:href="#DejaVuSans-6e" x="296.044922"/>
      <use xlink:href="#DejaVuSans-74" x="359.423828"/>
      <use xlink:href="#DejaVuSans-72" x="398.632812"/>
      <use xlink:href="#DejaVuSans-61" x="439.746094"/>
      <use xlink:href="#DejaVuSans-74" x="501.025391"/>
      <use xlink:href="#DejaVuSans-69" x="540.234375"/>
      <use xlink:href="#DejaVuSans-6f" x="568.017578"/>
      <use xlink:href="#DejaVuSans-6e" x="629.199219"/>
     </g>
    </g>
   </g>
   <g id="line2d_21">
    <path d="M 87.478352 19.296 
L 90.080794 147.14199 
L 92.032624 234.760174 
L 92.683235 254.494934 
L 93.333845 256.859662 
L 93.984455 256.513556 
L 94.635066 259.077716 
L 95.285676 255.777021 
L 95.936286 256.488602 
L 96.586897 255.242875 
L 97.237507 255.715533 
L 97.888117 255.932172 
L 98.538728 254.173962 
L 99.189338 256.104556 
L 100.490559 256.076098 
L 101.141169 254.141289 
L 101.791779 256.131172 
L 102.442389 258.852779 
L 103.093 256.498276 
L 103.74361 256.520618 
L 104.39422 255.828658 
L 105.695441 257.224134 
L 106.346051 257.493781 
L 106.996662 256.627687 
L 107.647272 256.05642 
L 108.297882 255.07986 
L 108.948493 255.038357 
L 109.599103 256.862407 
L 110.249713 256.916773 
L 110.900323 256.45537 
L 111.550934 258.85324 
L 112.201544 255.35631 
L 112.852154 257.570667 
L 113.502765 256.442978 
L 114.153375 257.673364 
L 114.803985 256.486232 
L 115.454596 256.301132 
L 116.105206 257.238261 
L 116.755816 256.028859 
L 117.406427 256.637339 
L 118.057037 255.782269 
L 118.707647 257.249565 
L 119.358258 256.64377 
L 120.008868 256.303606 
L 120.659478 257.116879 
L 121.310088 258.382565 
L 121.960699 255.973197 
L 122.611309 256.529322 
L 123.261919 256.02321 
L 123.91253 257.468481 
L 124.56314 255.772025 
L 125.21375 255.808623 
L 125.864361 256.468395 
L 126.514971 255.555678 
L 127.165581 258.598326 
L 127.816192 257.420481 
L 129.117412 257.802517 
L 130.418633 256.42975 
L 131.069243 255.047784 
L 131.719853 256.378835 
L 132.370464 255.907907 
L 133.021074 256.744224 
L 133.671684 254.839542 
L 134.322295 257.255315 
L 134.972905 257.481727 
L 135.623515 256.289449 
L 136.274126 254.756455 
L 136.924736 256.805307 
L 137.575346 256.685575 
L 138.225957 255.104003 
L 138.876567 257.535803 
L 139.527177 257.340038 
L 140.828398 258.779001 
L 141.479008 257.609742 
L 142.129618 258.163887 
L 142.780229 257.588567 
L 143.430839 255.183804 
L 144.081449 257.361025 
L 144.73206 257.183876 
L 145.38267 255.363756 
L 146.03328 256.481746 
L 146.683891 255.064075 
L 147.334501 255.726353 
L 147.985111 256.55967 
L 148.635722 254.657538 
L 149.936942 257.089214 
L 150.587552 257.568755 
L 151.238163 254.326461 
L 151.888773 257.001397 
L 152.539383 255.819563 
L 153.189994 256.029169 
L 153.840604 255.696723 
L 154.491214 255.065417 
L 155.141825 258.865158 
L 155.792435 256.891862 
L 156.443045 256.564139 
L 157.093656 255.091669 
L 157.744266 256.967216 
L 158.394876 257.127894 
L 159.045487 255.82994 
L 159.696097 256.999514 
L 160.346707 255.80858 
L 160.997317 255.048263 
L 161.647928 255.100342 
L 162.298538 257.266145 
L 162.949148 258.326384 
L 163.599759 255.994644 
L 164.250369 256.635482 
L 164.900979 254.837515 
L 165.55159 257.966414 
L 166.2022 255.887272 
L 166.85281 257.102846 
L 167.503421 256.247187 
L 168.154031 255.632693 
L 168.804641 256.149491 
L 169.455252 256.272744 
L 170.105862 255.671331 
L 170.756472 256.382058 
L 171.407082 256.568225 
L 172.057693 255.079848 
L 172.708303 258.462916 
L 173.358913 255.784312 
L 174.009524 254.859363 
L 174.660134 256.013024 
L 175.961355 255.226347 
L 176.611965 255.035121 
L 177.262575 257.406252 
L 178.563796 254.243375 
L 179.214406 257.415324 
L 179.865017 256.439734 
L 180.515627 256.948677 
L 181.166237 257.133228 
L 181.816847 256.350075 
L 183.118068 257.537613 
L 183.768678 257.837935 
L 184.419289 255.391246 
L 185.069899 254.608458 
L 185.720509 254.698953 
L 186.37112 257.324137 
L 187.02173 257.766187 
L 188.322951 255.780507 
L 188.973561 256.700821 
L 189.624171 255.074845 
L 190.274781 255.521915 
L 190.925392 256.178093 
L 191.576002 257.30442 
L 192.226612 256.82575 
L 192.877223 254.95356 
L 193.527833 256.909659 
L 194.178443 256.763537 
L 194.829054 257.569336 
L 195.479664 255.488432 
L 196.130274 256.557739 
L 196.780885 256.320535 
L 197.431495 258.05785 
L 198.082105 256.96273 
L 198.732716 257.609064 
L 200.033936 254.948965 
L 200.684546 257.578641 
L 201.335157 258.036002 
L 201.985767 256.394403 
L 202.636377 255.819845 
L 203.286988 256.98525 
L 203.937598 256.866148 
L 204.588208 256.265632 
L 205.238819 256.59907 
L 205.889429 256.172446 
L 206.540039 257.433134 
L 207.19065 257.375139 
L 208.49187 255.670903 
L 209.142481 255.982825 
L 209.793091 256.703441 
L 210.443701 256.143393 
L 211.094311 257.181488 
L 211.744922 256.656074 
L 212.395532 257.922759 
L 213.046142 257.789384 
L 213.696753 259.137241 
L 214.347363 255.122144 
L 214.997973 255.928722 
L 215.648584 255.835455 
L 216.299194 255.921186 
L 217.600415 256.389112 
L 218.251025 256.942025 
L 218.901635 256.015305 
L 219.552246 256.52381 
L 220.202856 256.746347 
L 220.853466 256.83825 
L 221.504076 257.240789 
L 222.154687 256.520256 
L 222.805297 257.69885 
L 223.455907 257.407041 
L 224.757128 255.092132 
L 225.407738 256.406005 
L 226.058349 256.673569 
L 226.708959 255.95754 
L 228.01018 255.137962 
L 228.66079 256.410718 
L 229.3114 255.327697 
L 229.96201 256.893616 
L 230.612621 258.127664 
L 231.263231 255.0239 
L 232.564452 256.646284 
L 233.215062 256.3976 
L 233.865672 255.439702 
L 234.516283 256.19763 
L 235.166893 258.053941 
L 235.817503 255.572711 
L 236.468114 255.08429 
L 237.118724 255.206472 
L 237.769334 255.959337 
L 238.419945 255.766297 
L 239.070555 256.99122 
L 239.721165 255.965867 
L 241.022386 257.537829 
L 242.323606 256.81054 
L 242.974217 256.23299 
L 243.624827 256.344082 
L 244.275437 254.994488 
L 244.926048 257.299622 
L 245.576658 254.766382 
L 247.528489 257.669382 
L 248.179099 255.700169 
L 248.82971 257.679574 
L 249.48032 254.944511 
L 250.13093 257.433174 
L 250.78154 255.618941 
L 251.432151 256.898575 
L 252.082761 254.734649 
L 252.733371 257.676418 
L 253.383982 256.284987 
L 254.034592 257.492787 
L 254.685202 255.582361 
L 255.335813 255.40566 
L 255.986423 255.344956 
L 256.637033 257.312331 
L 257.287644 256.250481 
L 257.938254 256.445235 
L 259.890085 254.995553 
L 260.540695 258.084312 
L 261.191305 256.357319 
L 261.841916 255.044897 
L 262.492526 255.739136 
L 263.143136 255.144213 
L 263.793747 257.297963 
L 264.444357 256.093554 
L 265.094967 257.140965 
L 265.745578 255.907669 
L 266.396188 256.896709 
L 267.046798 255.844782 
L 268.348019 256.384181 
L 268.998629 257.207432 
L 269.64924 256.99186 
L 270.29985 257.029052 
L 271.60107 256.707373 
L 272.251681 256.120253 
L 272.902291 257.028715 
L 273.552901 255.539105 
L 274.203512 256.277731 
L 274.854122 256.439144 
L 275.504732 256.865352 
L 276.805953 255.334168 
L 277.456563 255.732087 
L 278.107174 255.904875 
L 279.408394 257.12586 
L 280.059004 256.657086 
L 280.709615 258.210873 
L 281.360225 256.143712 
L 282.010835 255.103308 
L 282.661446 255.098141 
L 283.312056 257.268383 
L 283.962666 255.567195 
L 284.613277 256.244207 
L 285.263887 256.647466 
L 285.914497 257.646691 
L 286.565108 257.871171 
L 287.215718 255.428209 
L 287.866328 257.128808 
L 288.516939 256.347282 
L 289.167549 256.527558 
L 289.818159 257.330977 
L 290.468769 256.160731 
L 291.11938 256.446897 
L 291.76999 255.329178 
L 292.4206 255.464907 
L 293.071211 256.164431 
L 293.721821 255.249316 
L 294.372431 256.079778 
L 295.023042 255.202668 
L 295.673652 257.754599 
L 296.324262 257.007762 
L 296.974873 257.278552 
L 297.625483 256.248326 
L 298.276093 257.083497 
L 298.926704 255.325164 
L 299.577314 256.030732 
L 300.878534 255.45338 
L 301.529145 257.081094 
L 302.179755 256.938086 
L 302.830365 254.421456 
L 303.480976 254.502135 
L 304.131586 258.032797 
L 304.782196 257.81174 
L 305.432807 256.901368 
L 306.083417 254.910906 
L 306.734027 257.766609 
L 307.384638 257.419199 
L 308.035248 257.781201 
L 308.685858 256.301413 
L 309.336469 255.878887 
L 309.987079 256.20898 
L 310.637689 256.929147 
L 311.288299 255.994706 
L 311.93891 255.650107 
L 312.58952 257.013095 
L 313.24013 257.464145 
L 313.890741 256.421576 
L 314.541351 257.318878 
L 315.191961 254.963536 
L 315.842572 256.671396 
L 316.493182 254.712676 
L 317.143792 257.781398 
L 317.794403 257.105523 
L 318.445013 257.063202 
L 319.095623 256.534317 
L 319.746233 256.719513 
L 320.396844 256.584989 
L 321.047454 255.860354 
L 321.698064 256.283013 
L 322.348675 255.815777 
L 322.999285 256.77568 
L 323.649895 257.421359 
L 324.300506 257.148957 
L 324.951116 256.733019 
L 325.601726 256.142978 
L 326.252337 257.236031 
L 326.902947 257.816569 
L 327.553557 256.400306 
L 328.204168 256.499528 
L 328.854778 256.713419 
L 329.505388 255.462909 
L 330.155998 256.368414 
L 330.806609 256.884075 
L 331.457219 255.902777 
L 332.107829 256.417444 
L 332.75844 256.00855 
L 333.40905 256.112378 
L 334.05966 256.382887 
L 334.710271 255.554635 
L 335.360881 256.040619 
L 336.011491 256.996076 
L 336.662102 255.830514 
L 337.312712 257.021297 
L 338.613933 257.570863 
L 339.264543 256.588653 
L 339.915153 256.906672 
L 340.565763 257.486846 
L 341.216374 255.463131 
L 341.866984 255.180385 
L 342.517594 255.308389 
L 343.168205 257.000223 
L 343.818815 257.837587 
L 344.469425 254.70199 
L 345.120036 255.561891 
L 345.770646 255.520637 
L 346.421256 257.013756 
L 347.071867 256.124096 
L 347.722477 259.111139 
L 348.373087 256.319237 
L 349.023698 256.401523 
L 349.674308 257.724501 
L 350.324918 256.681517 
L 350.975528 254.927081 
L 351.626139 257.298752 
L 352.276749 254.571161 
L 353.57797 257.264151 
L 354.22858 256.463046 
L 354.87919 255.060173 
L 355.529801 255.784602 
L 356.180411 255.947322 
L 356.831021 255.976901 
L 357.481632 256.132219 
L 358.132242 258.668828 
L 358.782852 256.267152 
L 359.433462 256.653309 
L 360.084073 257.256474 
L 360.734683 254.865143 
L 361.385293 256.341276 
L 362.035904 257.069755 
L 362.686514 258.118468 
L 363.337124 256.635355 
L 363.987735 258.211477 
L 364.638345 257.262494 
L 365.288955 257.443121 
L 365.939566 256.164518 
L 366.590176 256.32808 
L 367.240786 256.257089 
L 368.542007 257.64779 
L 369.192617 256.320513 
L 369.843227 255.961746 
L 370.493838 255.424729 
L 371.144448 253.916717 
L 371.795058 256.655296 
L 372.445669 256.287798 
L 373.096279 256.68953 
L 373.746889 255.957158 
L 374.3975 256.253158 
L 375.04811 255.609609 
L 375.69872 258.154792 
L 376.349331 257.249027 
L 378.301162 257.601963 
L 378.951772 256.979751 
L 379.602382 257.375106 
L 380.252992 256.266064 
L 380.903603 255.842975 
L 381.554213 255.828132 
L 382.204823 255.031297 
L 382.855434 256.141497 
L 383.506044 255.662324 
L 384.156654 256.554594 
L 384.807265 256.82897 
L 385.457875 255.613909 
L 386.108485 255.204013 
L 386.759096 257.31265 
L 387.409706 257.115445 
L 388.060316 256.105453 
L 388.710927 256.685257 
L 389.361537 255.270957 
L 390.012147 256.575371 
L 390.662757 256.592808 
L 391.313368 257.884603 
L 391.963978 255.018275 
L 392.614588 257.748558 
L 393.265199 256.427354 
L 393.915809 256.487013 
L 394.566419 258.896322 
L 395.21703 257.569518 
L 395.86764 255.845785 
L 396.51825 256.835407 
L 397.168861 256.955702 
L 397.819471 256.380118 
L 398.470081 257.326531 
L 399.120691 255.072251 
L 399.771302 258.461855 
L 400.421912 257.761288 
L 401.072522 255.579818 
L 401.723133 256.697486 
L 402.373743 256.399174 
L 403.024353 256.764803 
L 403.674964 255.808884 
L 404.325574 257.860597 
L 404.976184 255.968331 
L 405.626795 255.697146 
L 406.277405 255.227411 
L 406.928015 257.750436 
L 407.578626 256.39274 
L 408.229236 255.313231 
L 408.879846 256.951619 
L 409.530456 256.974616 
L 410.181067 256.615281 
L 410.831677 256.526223 
L 411.482287 257.388758 
L 412.132898 255.95124 
L 412.132898 255.95124 
" clip-path="url(#pf751e2426b)" style="fill: none; stroke: #18793d; stroke-width: 0.75; stroke-linecap: square"/>
   </g>
   <g id="line2d_22">
    <path d="M 87.478352 256.702173 
L 88.779573 196.633354 
L 90.080794 145.566195 
L 90.731404 119.90936 
L 91.382014 100.330258 
L 92.032624 74.33151 
L 92.683235 65.842121 
L 93.333845 70.032243 
L 94.635066 87.891303 
L 95.936286 99.04819 
L 97.237507 118.775392 
L 97.888117 122.772109 
L 98.538728 128.32405 
L 99.839948 140.954993 
L 100.490559 147.198501 
L 101.141169 155.886107 
L 101.791779 160.019459 
L 102.442389 164.868198 
L 103.093 168.792445 
L 103.74361 178.340686 
L 104.39422 178.591203 
L 105.044831 184.570316 
L 105.695441 187.266979 
L 106.346051 195.16954 
L 106.996662 199.719997 
L 108.297882 205.73863 
L 108.948493 207.746228 
L 109.599103 207.920884 
L 110.249713 211.477221 
L 110.900323 216.237947 
L 112.201544 223.220347 
L 112.852154 225.651107 
L 113.502765 225.881827 
L 114.153375 229.507994 
L 114.803985 230.730867 
L 115.454596 233.995511 
L 116.105206 233.973544 
L 116.755816 235.059853 
L 117.406427 237.019729 
L 118.057037 238.106157 
L 118.707647 240.878462 
L 119.358258 242.068865 
L 120.008868 241.587213 
L 120.659478 245.193387 
L 121.310088 243.938618 
L 121.960699 245.568054 
L 122.611309 248.366865 
L 123.261919 247.843674 
L 123.91253 248.087742 
L 124.56314 250.207951 
L 125.21375 249.534541 
L 125.864361 249.794271 
L 126.514971 248.396045 
L 127.165581 251.549713 
L 127.816192 250.934454 
L 128.466802 252.74791 
L 129.117412 251.782892 
L 130.418633 251.498663 
L 131.069243 250.628763 
L 131.719853 253.553517 
L 132.370464 252.983264 
L 133.021074 254.430542 
L 133.671684 254.552724 
L 134.322295 253.472144 
L 134.972905 251.610173 
L 135.623515 254.287928 
L 136.274126 254.693004 
L 136.924736 252.873741 
L 137.575346 252.980665 
L 138.225957 255.497733 
L 138.876567 255.360743 
L 139.527177 256.863754 
L 140.177788 255.49813 
L 140.828398 256.152859 
L 141.479008 254.916169 
L 142.129618 257.950776 
L 142.780229 256.424758 
L 143.430839 255.194161 
L 144.081449 254.628367 
L 144.73206 254.50737 
L 145.38267 255.349396 
L 146.03328 256.913576 
L 147.334501 254.675886 
L 147.985111 256.072651 
L 148.635722 256.341052 
L 149.286332 254.182549 
L 149.936942 254.18858 
L 150.587552 255.40042 
L 151.238163 255.380898 
L 151.888773 255.497821 
L 152.539383 255.182782 
L 153.189994 256.818174 
L 153.840604 255.657794 
L 155.141825 255.775765 
L 155.792435 255.613931 
L 156.443045 256.360471 
L 157.093656 256.731755 
L 157.744266 255.936549 
L 158.394876 257.593743 
L 159.045487 255.355416 
L 159.696097 256.454155 
L 160.346707 254.960194 
L 160.997317 253.935373 
L 161.647928 254.233783 
L 162.298538 253.100825 
L 162.949148 256.760055 
L 163.599759 255.938501 
L 164.250369 253.335269 
L 164.900979 254.505206 
L 165.55159 254.538325 
L 166.2022 259.686105 
L 166.85281 256.905409 
L 167.503421 255.000838 
L 168.154031 255.137218 
L 168.804641 252.757988 
L 169.455252 254.983245 
L 170.105862 256.284838 
L 170.756472 255.449247 
L 171.407082 258.412739 
L 172.057693 254.594497 
L 172.708303 254.668296 
L 173.358913 255.822405 
L 174.009524 258.892164 
L 174.660134 258.141828 
L 176.611965 253.819505 
L 177.262575 255.427347 
L 177.913186 254.298528 
L 178.563796 256.433225 
L 179.214406 255.010891 
L 179.865017 255.738324 
L 180.515627 253.554773 
L 181.166237 257.673169 
L 181.816847 254.673874 
L 182.467458 256.430676 
L 183.118068 254.108039 
L 183.768678 255.462497 
L 184.419289 254.441431 
L 185.069899 256.012992 
L 185.720509 255.811515 
L 186.37112 256.740363 
L 187.02173 253.270576 
L 187.67234 252.914361 
L 188.322951 257.6453 
L 188.973561 254.632753 
L 189.624171 256.837337 
L 190.274781 254.332062 
L 191.576002 257.045313 
L 192.226612 255.077112 
L 192.877223 254.297604 
L 193.527833 254.594468 
L 194.178443 255.372545 
L 194.829054 255.724681 
L 195.479664 255.480537 
L 196.130274 258.436167 
L 196.780885 259.31322 
L 197.431495 255.873699 
L 198.082105 254.95349 
L 198.732716 253.704074 
L 199.383326 253.578602 
L 200.033936 256.630698 
L 200.684546 254.337199 
L 201.335157 257.814005 
L 201.985767 255.850603 
L 202.636377 256.854792 
L 203.286988 256.972348 
L 203.937598 258.121554 
L 204.588208 255.002174 
L 205.238819 254.917042 
L 205.889429 258.282726 
L 206.540039 259.263382 
L 207.19065 256.15797 
L 207.84126 253.667256 
L 208.49187 256.233096 
L 209.142481 255.207828 
L 209.793091 256.97125 
L 210.443701 256.899376 
L 211.744922 255.231616 
L 212.395532 256.977657 
L 213.046142 255.240243 
L 213.696753 257.991244 
L 214.347363 256.167667 
L 214.997973 258.68055 
L 215.648584 257.039549 
L 216.299194 258.621457 
L 217.600415 254.009339 
L 218.251025 255.39556 
L 218.901635 251.272165 
L 219.552246 256.192251 
L 220.202856 256.633729 
L 220.853466 255.315896 
L 221.504076 253.330467 
L 222.154687 257.787818 
L 222.805297 255.294895 
L 223.455907 255.92161 
L 224.106518 257.149358 
L 225.407738 258.502518 
L 226.058349 253.439483 
L 226.708959 254.142755 
L 227.359569 253.792578 
L 228.01018 256.407858 
L 228.66079 255.027295 
L 229.3114 256.131162 
L 229.96201 255.351764 
L 230.612621 256.288596 
L 231.913841 254.334854 
L 232.564452 255.1636 
L 233.215062 255.106251 
L 233.865672 254.634007 
L 234.516283 253.736852 
L 235.166893 254.378373 
L 236.468114 258.19339 
L 237.118724 254.884976 
L 237.769334 254.370403 
L 238.419945 255.483343 
L 239.070555 257.476832 
L 239.721165 254.815321 
L 240.371775 255.273023 
L 241.022386 254.870141 
L 241.672996 253.5483 
L 242.323606 253.702293 
L 242.974217 252.815838 
L 243.624827 254.13709 
L 244.275437 255.851891 
L 244.926048 255.232086 
L 245.576658 252.880337 
L 246.227268 256.537182 
L 246.877879 256.191663 
L 247.528489 255.99518 
L 248.179099 258.803877 
L 248.82971 253.727147 
L 249.48032 256.323858 
L 250.13093 257.147541 
L 250.78154 257.005276 
L 251.432151 257.930598 
L 252.082761 253.422242 
L 252.733371 257.130373 
L 253.383982 255.368499 
L 254.034592 256.576502 
L 254.685202 256.948714 
L 255.335813 254.359041 
L 255.986423 254.402054 
L 256.637033 257.177592 
L 257.287644 254.027741 
L 257.938254 256.924882 
L 258.588864 255.397764 
L 259.239475 254.82092 
L 259.890085 255.842544 
L 260.540695 258.7368 
L 261.191305 256.266898 
L 261.841916 254.640327 
L 262.492526 256.413278 
L 263.143136 255.859099 
L 263.793747 255.659819 
L 265.094967 256.598442 
L 265.745578 253.872207 
L 266.396188 255.935749 
L 267.046798 255.592776 
L 268.348019 256.842931 
L 268.998629 257.944484 
L 269.64924 256.764412 
L 270.29985 257.937088 
L 270.95046 256.533334 
L 271.60107 256.014806 
L 272.251681 253.971832 
L 272.902291 257.64064 
L 273.552901 256.990771 
L 274.203512 255.606308 
L 274.854122 256.465508 
L 275.504732 254.697714 
L 276.155343 255.096276 
L 276.805953 253.434549 
L 277.456563 252.906621 
L 278.107174 255.730843 
L 278.757784 254.012787 
L 279.408394 254.008699 
L 280.059004 257.350936 
L 280.709615 255.632641 
L 281.360225 253.034357 
L 282.010835 259.467174 
L 282.661446 256.426563 
L 283.312056 256.383009 
L 283.962666 255.361477 
L 284.613277 257.007951 
L 285.263887 256.873401 
L 285.914497 255.141258 
L 286.565108 256.883849 
L 287.215718 256.111779 
L 287.866328 254.599557 
L 288.516939 252.584776 
L 289.167549 255.061949 
L 289.818159 255.648455 
L 290.468769 256.683642 
L 291.11938 253.08755 
L 291.76999 255.917475 
L 292.4206 255.121395 
L 293.071211 257.628448 
L 293.721821 254.606113 
L 294.372431 252.587085 
L 295.673652 258.03765 
L 296.324262 255.405591 
L 296.974873 254.925107 
L 297.625483 258.014562 
L 298.276093 252.702163 
L 298.926704 253.439182 
L 299.577314 256.288774 
L 300.227924 255.196185 
L 300.878534 256.839058 
L 301.529145 257.496687 
L 302.179755 257.91561 
L 302.830365 257.258285 
L 303.480976 255.966903 
L 304.131586 255.863497 
L 304.782196 253.130776 
L 305.432807 255.788958 
L 306.083417 255.723982 
L 306.734027 256.037578 
L 307.384638 257.879041 
L 308.035248 255.934123 
L 308.685858 255.567237 
L 309.336469 259.316799 
L 309.987079 257.614926 
L 310.637689 253.72716 
L 311.288299 254.224893 
L 311.93891 256.20182 
L 312.58952 255.365067 
L 313.24013 257.284643 
L 313.890741 255.789446 
L 314.541351 256.153266 
L 315.191961 257.942864 
L 315.842572 255.567922 
L 316.493182 254.567233 
L 317.143792 258.188167 
L 317.794403 254.368516 
L 318.445013 253.706995 
L 319.095623 256.629648 
L 319.746233 257.768409 
L 320.396844 253.9867 
L 321.047454 257.844616 
L 321.698064 257.848608 
L 322.348675 254.278824 
L 323.649895 256.397675 
L 324.300506 256.070889 
L 324.951116 254.918476 
L 325.601726 257.054651 
L 326.252337 254.700185 
L 326.902947 256.186451 
L 327.553557 256.148582 
L 328.204168 256.297339 
L 328.854778 256.944509 
L 329.505388 255.017528 
L 330.155998 257.988707 
L 330.806609 254.037084 
L 331.457219 259.560775 
L 332.107829 255.057127 
L 333.40905 255.228421 
L 334.05966 254.86443 
L 334.710271 252.598662 
L 335.360881 255.457952 
L 336.011491 254.010085 
L 336.662102 255.052986 
L 337.312712 254.061007 
L 337.963322 256.653524 
L 338.613933 255.1901 
L 339.264543 256.371027 
L 339.915153 256.093984 
L 340.565763 255.480396 
L 341.216374 254.250546 
L 341.866984 253.983925 
L 342.517594 256.009392 
L 343.168205 252.618642 
L 343.818815 254.378701 
L 344.469425 255.74025 
L 345.120036 256.377693 
L 345.770646 256.627136 
L 346.421256 254.027347 
L 347.071867 255.239887 
L 347.722477 256.735584 
L 348.373087 254.206363 
L 349.023698 257.441068 
L 349.674308 254.441272 
L 350.324918 254.776637 
L 350.975528 254.825722 
L 351.626139 255.592227 
L 352.276749 257.544864 
L 352.927359 255.336464 
L 354.22858 257.084399 
L 354.87919 256.022997 
L 355.529801 257.256466 
L 356.180411 256.369941 
L 356.831021 258.045813 
L 357.481632 256.704306 
L 358.132242 255.70428 
L 358.782852 256.246051 
L 359.433462 254.781034 
L 360.084073 258.67444 
L 360.734683 257.032489 
L 361.385293 257.061856 
L 362.035904 255.410288 
L 362.686514 257.460045 
L 363.337124 256.541199 
L 363.987735 256.833239 
L 364.638345 251.938294 
L 365.288955 257.98829 
L 365.939566 254.912596 
L 366.590176 257.160764 
L 367.240786 257.662767 
L 367.891397 256.774824 
L 368.542007 254.863492 
L 369.192617 258.278693 
L 369.843227 259.162259 
L 370.493838 256.88152 
L 371.144448 252.958224 
L 371.795058 253.885292 
L 372.445669 255.987401 
L 373.096279 256.029591 
L 373.746889 256.99325 
L 374.3975 256.683582 
L 375.04811 255.29808 
L 375.69872 255.041982 
L 376.349331 254.125062 
L 376.999941 256.254429 
L 377.650551 254.588882 
L 378.301162 258.316914 
L 378.951772 261.216 
L 379.602382 257.603934 
L 380.252992 256.747812 
L 380.903603 257.118973 
L 381.554213 257.319536 
L 382.204823 258.023625 
L 383.506044 255.574118 
L 384.156654 255.774617 
L 384.807265 257.284476 
L 385.457875 256.728225 
L 386.108485 254.552884 
L 386.759096 255.893521 
L 387.409706 250.767118 
L 388.060316 256.096016 
L 388.710927 257.459605 
L 389.361537 254.141475 
L 390.662757 255.441685 
L 391.313368 255.142994 
L 391.963978 254.419275 
L 392.614588 255.963954 
L 393.265199 256.179938 
L 393.915809 257.249838 
L 394.566419 254.826896 
L 395.21703 255.72378 
L 395.86764 255.398707 
L 396.51825 254.827114 
L 397.168861 253.418406 
L 397.819471 258.289757 
L 398.470081 255.361143 
L 399.120691 257.677988 
L 399.771302 255.972001 
L 400.421912 255.332234 
L 401.072522 257.458836 
L 401.723133 254.765199 
L 402.373743 255.835664 
L 403.024353 255.988856 
L 403.674964 256.521888 
L 404.325574 254.081985 
L 404.976184 256.823602 
L 405.626795 255.457208 
L 406.277405 256.364769 
L 406.928015 257.675176 
L 407.578626 255.278677 
L 408.229236 257.262061 
L 408.879846 253.732187 
L 409.530456 258.701298 
L 410.181067 254.279748 
L 410.831677 257.011552 
L 411.482287 256.934031 
L 412.132898 255.487308 
L 412.132898 255.487308 
" clip-path="url(#pf751e2426b)" style="fill: none; stroke: #18793d; stroke-width: 0.75; stroke-linecap: square"/>
   </g>
   <g id="line2d_23">
    <path d="M 87.478352 256.45626 
L 88.128963 255.705455 
L 88.779573 253.934295 
L 89.430183 254.176577 
L 90.080794 250.388378 
L 90.731404 247.92212 
L 91.382014 243.418774 
L 92.032624 242.999562 
L 92.683235 238.551396 
L 93.333845 233.19032 
L 93.984455 229.565581 
L 94.635066 227.166978 
L 95.936286 221.114072 
L 96.586897 219.061054 
L 97.888117 212.536873 
L 98.538728 211.61774 
L 99.189338 206.568202 
L 99.839948 204.429645 
L 100.490559 200.975175 
L 101.141169 199.408202 
L 102.442389 194.669835 
L 103.093 194.268827 
L 103.74361 190.770317 
L 104.39422 189.493323 
L 105.044831 184.999039 
L 106.346051 183.308686 
L 107.647272 178.843339 
L 108.297882 179.686391 
L 109.599103 176.123096 
L 110.249713 173.70724 
L 110.900323 173.982268 
L 111.550934 172.334382 
L 112.201544 172.076515 
L 112.852154 169.629605 
L 113.502765 168.785291 
L 114.153375 169.016076 
L 114.803985 166.683298 
L 115.454596 167.891462 
L 116.105206 167.785451 
L 116.755816 166.872567 
L 118.057037 165.356362 
L 118.707647 163.472487 
L 119.358258 163.715411 
L 120.008868 162.799221 
L 120.659478 163.510679 
L 121.310088 162.340242 
L 121.960699 161.43938 
L 122.611309 162.717407 
L 123.261919 161.26768 
L 123.91253 163.334502 
L 124.56314 159.711959 
L 125.21375 161.120744 
L 125.864361 160.251826 
L 126.514971 160.78391 
L 127.165581 160.769569 
L 127.816192 158.888213 
L 128.466802 160.128498 
L 129.768023 160.16123 
L 130.418633 159.700725 
L 131.069243 159.751424 
L 131.719853 160.280315 
L 132.370464 157.775915 
L 133.021074 159.554571 
L 134.322295 158.700867 
L 134.972905 160.20257 
L 135.623515 159.113639 
L 136.924736 159.213867 
L 137.575346 159.246756 
L 138.225957 157.435468 
L 138.876567 159.545112 
L 139.527177 157.66781 
L 140.177788 157.693229 
L 140.828398 160.058079 
L 141.479008 157.740881 
L 142.129618 159.38337 
L 142.780229 158.575163 
L 143.430839 159.648154 
L 144.081449 159.05923 
L 144.73206 159.059591 
L 145.38267 160.246148 
L 146.03328 158.967834 
L 146.683891 158.491117 
L 147.334501 159.830878 
L 147.985111 159.222428 
L 148.635722 159.434775 
L 149.286332 160.951335 
L 149.936942 158.763998 
L 150.587552 159.78468 
L 151.238163 159.10389 
L 151.888773 160.668265 
L 152.539383 159.681384 
L 153.189994 159.598015 
L 153.840604 160.65337 
L 154.491214 159.416355 
L 155.141825 159.760014 
L 155.792435 159.834651 
L 156.443045 160.566801 
L 157.093656 159.506277 
L 157.744266 158.835028 
L 158.394876 159.963134 
L 159.045487 159.927154 
L 159.696097 160.229588 
L 160.346707 160.285112 
L 160.997317 160.772079 
L 162.298538 158.367798 
L 162.949148 159.422009 
L 163.599759 159.767948 
L 164.250369 160.792009 
L 164.900979 159.546991 
L 165.55159 160.400094 
L 166.2022 159.457998 
L 166.85281 160.188093 
L 167.503421 160.210977 
L 168.154031 160.551313 
L 168.804641 160.22219 
L 169.455252 160.976279 
L 170.105862 160.780745 
L 170.756472 161.173951 
L 171.407082 160.672568 
L 172.057693 161.055057 
L 172.708303 161.79419 
L 173.358913 161.009132 
L 174.009524 159.626684 
L 174.660134 160.791278 
L 175.310744 161.034631 
L 175.961355 161.574716 
L 176.611965 161.234821 
L 177.262575 161.351363 
L 177.913186 160.200396 
L 178.563796 161.550767 
L 179.214406 161.438908 
L 179.865017 160.057591 
L 180.515627 160.118747 
L 181.166237 161.159228 
L 181.816847 161.630388 
L 182.467458 160.27546 
L 183.118068 161.1528 
L 183.768678 162.612664 
L 184.419289 161.625269 
L 185.069899 160.948207 
L 185.720509 161.004891 
L 187.02173 162.376254 
L 187.67234 162.253687 
L 188.322951 160.490078 
L 188.973561 161.85585 
L 189.624171 162.860507 
L 190.274781 161.963512 
L 190.925392 160.344687 
L 191.576002 162.410916 
L 192.226612 160.93894 
L 192.877223 161.457296 
L 193.527833 161.460676 
L 194.178443 162.422859 
L 194.829054 161.315631 
L 195.479664 162.627038 
L 196.130274 161.821545 
L 196.780885 161.66006 
L 197.431495 161.723697 
L 198.082105 161.970458 
L 198.732716 161.207028 
L 199.383326 161.17273 
L 200.033936 163.343989 
L 200.684546 162.168565 
L 201.985767 161.510636 
L 202.636377 161.776164 
L 203.286988 162.213562 
L 203.937598 162.24059 
L 204.588208 162.663211 
L 205.238819 162.656605 
L 205.889429 161.600172 
L 206.540039 162.317902 
L 207.19065 162.272919 
L 207.84126 163.209018 
L 208.49187 162.138915 
L 209.142481 161.692889 
L 209.793091 160.857947 
L 210.443701 161.677885 
L 211.094311 161.672107 
L 211.744922 161.503247 
L 212.395532 163.263589 
L 213.046142 163.356473 
L 213.696753 161.638456 
L 214.347363 162.2699 
L 214.997973 162.506395 
L 215.648584 162.317421 
L 216.299194 162.921527 
L 216.949804 162.303273 
L 218.251025 163.087975 
L 218.901635 163.309635 
L 219.552246 162.454269 
L 220.202856 163.512264 
L 220.853466 162.804435 
L 221.504076 162.856644 
L 222.154687 162.192705 
L 222.805297 163.129401 
L 223.455907 162.755299 
L 224.106518 162.874196 
L 224.757128 163.147033 
L 225.407738 163.288567 
L 226.058349 163.969135 
L 226.708959 164.001409 
L 227.359569 164.640955 
L 228.01018 163.22884 
L 228.66079 162.817489 
L 229.3114 163.684316 
L 230.612621 164.203077 
L 231.263231 164.074503 
L 231.913841 163.144824 
L 232.564452 163.773391 
L 233.215062 164.193805 
L 233.865672 164.982639 
L 234.516283 163.51465 
L 235.166893 164.241642 
L 235.817503 164.289868 
L 236.468114 163.495172 
L 237.118724 162.962418 
L 237.769334 162.975003 
L 238.419945 163.860488 
L 239.070555 163.596028 
L 239.721165 164.625195 
L 240.371775 163.703986 
L 241.022386 165.526195 
L 241.672996 166.115173 
L 242.974217 163.072069 
L 243.624827 163.52079 
L 244.275437 165.216735 
L 244.926048 165.226182 
L 246.227268 163.653759 
L 246.877879 164.32484 
L 247.528489 163.571109 
L 248.179099 166.345894 
L 248.82971 165.10775 
L 249.48032 164.47878 
L 250.13093 164.119311 
L 250.78154 164.41814 
L 251.432151 164.014642 
L 252.082761 164.420772 
L 252.733371 164.107703 
L 253.383982 163.643699 
L 254.034592 163.945481 
L 254.685202 165.857651 
L 255.335813 165.467153 
L 255.986423 164.3922 
L 256.637033 163.972596 
L 257.287644 165.00377 
L 257.938254 165.042137 
L 259.239475 164.373683 
L 259.890085 164.633091 
L 260.540695 165.191947 
L 261.191305 165.217436 
L 261.841916 165.087117 
L 262.492526 165.389768 
L 263.143136 165.073715 
L 263.793747 165.127206 
L 264.444357 164.209235 
L 265.094967 165.035233 
L 265.745578 165.62273 
L 266.396188 165.1256 
L 267.046798 164.826749 
L 267.697409 166.2324 
L 268.348019 167.095977 
L 268.998629 166.143811 
L 269.64924 164.461556 
L 270.29985 164.755234 
L 270.95046 165.568172 
L 272.251681 165.124625 
L 272.902291 167.75242 
L 273.552901 164.628275 
L 274.203512 166.253613 
L 274.854122 165.821753 
L 275.504732 166.960282 
L 276.155343 165.029468 
L 276.805953 166.020941 
L 278.107174 165.306639 
L 278.757784 165.029885 
L 279.408394 165.952519 
L 280.059004 164.819776 
L 280.709615 167.38013 
L 281.360225 166.394655 
L 282.010835 167.205352 
L 282.661446 166.774299 
L 283.312056 165.675309 
L 283.962666 167.41327 
L 284.613277 167.442606 
L 285.263887 166.576006 
L 285.914497 166.689322 
L 286.565108 165.74673 
L 287.215718 165.478036 
L 287.866328 167.132683 
L 288.516939 166.065029 
L 289.167549 166.900053 
L 290.468769 166.628884 
L 291.11938 165.984516 
L 291.76999 166.224968 
L 292.4206 167.041979 
L 293.071211 166.873702 
L 293.721821 166.502658 
L 294.372431 168.127172 
L 295.023042 167.038775 
L 295.673652 166.728424 
L 296.324262 166.561882 
L 296.974873 166.670636 
L 297.625483 166.519885 
L 298.276093 168.350787 
L 298.926704 167.608471 
L 299.577314 165.056909 
L 300.227924 166.867224 
L 300.878534 167.885212 
L 301.529145 165.911313 
L 302.179755 167.756263 
L 302.830365 166.759819 
L 303.480976 167.387278 
L 304.782196 168.2335 
L 305.432807 167.500175 
L 306.083417 167.563117 
L 306.734027 167.757033 
L 307.384638 168.401329 
L 308.035248 168.015238 
L 308.685858 166.392916 
L 309.336469 167.44005 
L 309.987079 167.324382 
L 310.637689 168.726567 
L 311.288299 166.220306 
L 311.93891 167.344331 
L 312.58952 167.553519 
L 313.24013 167.246017 
L 314.541351 167.980937 
L 315.191961 168.72921 
L 315.842572 168.25607 
L 316.493182 168.668928 
L 317.143792 166.928336 
L 317.794403 168.354655 
L 318.445013 168.951259 
L 319.095623 167.500065 
L 319.746233 167.398296 
L 320.396844 167.987576 
L 321.047454 168.228689 
L 321.698064 167.932072 
L 322.348675 168.338207 
L 322.999285 167.943606 
L 323.649895 169.414769 
L 324.300506 168.038229 
L 324.951116 168.51615 
L 326.252337 168.684966 
L 326.902947 168.909836 
L 327.553557 168.849189 
L 328.204168 169.98061 
L 328.854778 167.61702 
L 329.505388 167.956862 
L 330.155998 167.444419 
L 330.806609 169.218647 
L 331.457219 170.56332 
L 332.107829 168.414303 
L 332.75844 169.039886 
L 333.40905 167.940779 
L 334.05966 167.436022 
L 334.710271 168.07818 
L 335.360881 169.051718 
L 336.011491 168.897648 
L 336.662102 169.00386 
L 337.312712 168.848472 
L 337.963322 169.582525 
L 338.613933 170.626157 
L 339.264543 169.640924 
L 339.915153 169.38463 
L 341.216374 169.262137 
L 342.517594 170.258123 
L 343.168205 169.332853 
L 343.818815 169.457628 
L 344.469425 168.534295 
L 345.120036 169.36639 
L 345.770646 168.113572 
L 346.421256 168.392263 
L 347.071867 169.994374 
L 347.722477 169.298888 
L 348.373087 167.809077 
L 349.023698 169.835091 
L 349.674308 169.25413 
L 350.324918 167.799115 
L 350.975528 169.437574 
L 351.626139 168.900761 
L 352.276749 169.194401 
L 352.927359 167.280804 
L 353.57797 169.730528 
L 354.22858 169.041628 
L 354.87919 170.341148 
L 355.529801 168.76743 
L 356.180411 170.320721 
L 356.831021 169.89923 
L 357.481632 169.639176 
L 358.132242 170.795348 
L 358.782852 169.488814 
L 359.433462 169.15137 
L 360.084073 170.82002 
L 361.385293 169.81801 
L 362.035904 170.661257 
L 362.686514 169.550494 
L 363.337124 170.89049 
L 363.987735 169.500295 
L 364.638345 170.191288 
L 365.288955 169.659202 
L 365.939566 170.1189 
L 366.590176 170.390336 
L 367.240786 172.133293 
L 367.891397 168.516506 
L 368.542007 169.949972 
L 369.192617 170.53625 
L 369.843227 170.952993 
L 370.493838 170.396515 
L 371.144448 169.51509 
L 371.795058 170.149035 
L 372.445669 170.477383 
L 373.096279 170.931616 
L 373.746889 171.038487 
L 374.3975 170.712843 
L 375.04811 169.65854 
L 375.69872 170.90636 
L 376.349331 169.045207 
L 376.999941 170.9844 
L 377.650551 169.280547 
L 378.301162 171.778671 
L 379.602382 171.055941 
L 380.252992 172.377424 
L 380.903603 170.728144 
L 381.554213 172.377403 
L 382.204823 172.944253 
L 382.855434 172.005133 
L 383.506044 171.301218 
L 384.156654 172.73851 
L 384.807265 170.732299 
L 385.457875 171.060575 
L 386.108485 171.945301 
L 386.759096 172.049873 
L 387.409706 171.312927 
L 388.060316 170.393527 
L 388.710927 172.390614 
L 389.361537 170.731568 
L 390.012147 170.498463 
L 390.662757 172.927328 
L 391.313368 172.434055 
L 391.963978 170.995253 
L 392.614588 171.71528 
L 393.265199 171.096281 
L 393.915809 172.529249 
L 394.566419 171.578792 
L 395.21703 170.077126 
L 395.86764 171.125611 
L 396.51825 171.389132 
L 397.168861 173.216427 
L 397.819471 171.682914 
L 398.470081 172.449656 
L 399.120691 171.818057 
L 399.771302 171.796875 
L 400.421912 171.986096 
L 401.072522 171.512322 
L 401.723133 173.723118 
L 402.373743 172.109034 
L 403.024353 171.52905 
L 403.674964 173.094124 
L 404.325574 172.852665 
L 404.976184 173.220174 
L 405.626795 172.023247 
L 406.277405 171.998217 
L 406.928015 173.122514 
L 407.578626 171.884876 
L 408.229236 171.98837 
L 408.879846 171.245107 
L 409.530456 171.968748 
L 410.181067 172.953782 
L 410.831677 172.752966 
L 411.482287 172.107076 
L 412.132898 172.964721 
L 412.132898 172.964721 
" clip-path="url(#pf751e2426b)" style="fill: none; stroke: #18793d; stroke-width: 0.75; stroke-linecap: square"/>
   </g>
   <g id="line2d_24">
    <path d="M 87.478352 257.849283 
L 88.128963 255.926892 
L 88.779573 255.525632 
L 89.430183 249.695804 
L 90.080794 248.267676 
L 90.731404 241.810549 
L 91.382014 239.892498 
L 92.683235 232.084407 
L 93.333845 227.388608 
L 93.984455 221.813217 
L 95.285676 214.952183 
L 95.936286 208.593796 
L 96.586897 207.06714 
L 97.888117 201.220044 
L 98.538728 196.023072 
L 99.189338 192.679832 
L 99.839948 190.814338 
L 100.490559 187.425063 
L 101.141169 186.098358 
L 101.791779 183.306139 
L 102.442389 179.107952 
L 103.093 176.766634 
L 103.74361 173.201554 
L 104.39422 174.898748 
L 105.044831 168.839038 
L 105.695441 168.698589 
L 106.346051 164.799706 
L 106.996662 162.599814 
L 107.647272 163.982862 
L 108.297882 158.844224 
L 108.948493 158.644933 
L 109.599103 159.005833 
L 110.249713 157.184274 
L 110.900323 158.545248 
L 111.550934 157.820685 
L 112.201544 156.446873 
L 112.852154 157.831624 
L 113.502765 155.002299 
L 114.153375 153.198466 
L 114.803985 154.104299 
L 115.454596 151.272397 
L 116.105206 152.809394 
L 116.755816 151.415967 
L 117.406427 150.880984 
L 118.057037 153.395612 
L 118.707647 154.013902 
L 119.358258 153.591718 
L 120.008868 148.395267 
L 120.659478 153.735861 
L 121.310088 153.06992 
L 121.960699 152.178543 
L 122.611309 155.28008 
L 123.261919 153.378542 
L 123.91253 153.254098 
L 124.56314 152.592416 
L 125.21375 155.645529 
L 127.165581 152.117859 
L 127.816192 154.668287 
L 128.466802 155.475857 
L 129.117412 154.850848 
L 129.768023 154.889072 
L 130.418633 160.981376 
L 131.069243 156.735634 
L 131.719853 157.905177 
L 132.370464 158.638791 
L 133.671684 161.208015 
L 134.322295 159.473629 
L 134.972905 160.448846 
L 135.623515 163.066299 
L 136.274126 160.632235 
L 136.924736 162.66669 
L 137.575346 166.486945 
L 138.225957 162.584414 
L 138.876567 161.858277 
L 139.527177 167.817378 
L 140.177788 165.416225 
L 140.828398 166.927786 
L 141.479008 162.710556 
L 142.129618 167.45756 
L 142.780229 170.089153 
L 143.430839 168.742209 
L 144.081449 168.827408 
L 144.73206 172.19292 
L 145.38267 170.184178 
L 146.03328 172.187927 
L 146.683891 171.246213 
L 147.334501 172.711364 
L 147.985111 169.976529 
L 148.635722 172.655111 
L 149.286332 174.707708 
L 149.936942 173.189421 
L 150.587552 174.861568 
L 151.238163 173.678486 
L 151.888773 178.660424 
L 152.539383 173.570499 
L 153.189994 178.123798 
L 153.840604 178.878749 
L 155.141825 178.299097 
L 155.792435 181.06298 
L 156.443045 180.908273 
L 157.093656 180.519861 
L 157.744266 179.187246 
L 158.394876 182.027935 
L 159.045487 180.459143 
L 160.997317 184.58191 
L 161.647928 184.096664 
L 162.298538 184.37629 
L 162.949148 183.035745 
L 163.599759 185.978411 
L 164.250369 186.558293 
L 164.900979 185.264716 
L 165.55159 188.956284 
L 166.2022 186.510523 
L 166.85281 188.39222 
L 167.503421 187.698371 
L 169.455252 189.042782 
L 170.105862 191.271742 
L 170.756472 190.030819 
L 171.407082 190.702889 
L 172.057693 190.799844 
L 172.708303 191.735522 
L 173.358913 190.665367 
L 174.009524 194.06024 
L 174.660134 195.249767 
L 175.310744 192.307914 
L 175.961355 192.432111 
L 177.262575 197.396893 
L 177.913186 196.462169 
L 178.563796 196.041776 
L 179.214406 198.959957 
L 179.865017 199.292303 
L 180.515627 198.568605 
L 181.816847 198.188782 
L 182.467458 197.692112 
L 183.118068 200.040044 
L 183.768678 200.124877 
L 184.419289 199.24534 
L 185.069899 200.000731 
L 185.720509 200.956751 
L 186.37112 205.376905 
L 187.02173 199.260607 
L 187.67234 204.798661 
L 188.322951 204.629007 
L 188.973561 200.589132 
L 189.624171 205.351543 
L 190.925392 203.490562 
L 191.576002 204.241473 
L 192.226612 206.265165 
L 192.877223 203.459228 
L 193.527833 206.922441 
L 194.178443 206.025724 
L 194.829054 206.562416 
L 195.479664 208.773458 
L 196.780885 204.860137 
L 197.431495 206.076044 
L 198.082105 209.421668 
L 198.732716 208.03439 
L 199.383326 210.020685 
L 200.033936 207.21013 
L 200.684546 208.102539 
L 201.335157 213.028579 
L 201.985767 214.075585 
L 202.636377 210.469575 
L 203.286988 212.200611 
L 203.937598 212.171636 
L 204.588208 212.314699 
L 205.238819 212.647217 
L 205.889429 211.662274 
L 206.540039 209.346316 
L 207.19065 214.680236 
L 207.84126 213.324658 
L 208.49187 214.913214 
L 209.142481 215.555271 
L 209.793091 214.018156 
L 210.443701 217.866937 
L 211.094311 213.158065 
L 211.744922 215.509264 
L 212.395532 215.392044 
L 213.046142 217.349491 
L 213.696753 218.639452 
L 214.347363 215.127959 
L 214.997973 216.979174 
L 215.648584 216.800778 
L 216.299194 216.104174 
L 216.949804 218.1059 
L 217.600415 218.416927 
L 218.251025 218.89648 
L 218.901635 221.778083 
L 219.552246 218.165207 
L 220.202856 218.177732 
L 220.853466 220.918217 
L 221.504076 221.174789 
L 222.154687 220.719037 
L 222.805297 220.692172 
L 223.455907 223.943892 
L 224.106518 221.65213 
L 224.757128 221.067951 
L 225.407738 222.521113 
L 226.058349 224.274485 
L 226.708959 222.982035 
L 227.359569 222.454923 
L 228.66079 227.296105 
L 229.3114 222.674325 
L 229.96201 223.883217 
L 230.612621 223.990358 
L 231.263231 224.66116 
L 231.913841 224.247833 
L 232.564452 225.124831 
L 233.215062 220.970013 
L 233.865672 225.033881 
L 234.516283 224.529731 
L 235.166893 226.553227 
L 235.817503 227.236355 
L 236.468114 228.146368 
L 237.118724 225.115105 
L 237.769334 226.803906 
L 238.419945 228.945477 
L 239.070555 226.766219 
L 239.721165 226.637537 
L 240.371775 227.960323 
L 241.022386 225.076744 
L 241.672996 226.75005 
L 242.323606 227.514525 
L 242.974217 231.278524 
L 243.624827 228.246962 
L 244.275437 228.651612 
L 244.926048 230.202044 
L 245.576658 230.497503 
L 246.227268 229.702 
L 246.877879 227.282075 
L 247.528489 229.177968 
L 248.179099 232.416491 
L 248.82971 231.697378 
L 249.48032 229.395833 
L 250.13093 231.675611 
L 250.78154 229.659725 
L 251.432151 230.375902 
L 252.082761 232.935002 
L 252.733371 234.280892 
L 253.383982 231.241321 
L 254.034592 233.685638 
L 254.685202 232.277926 
L 255.335813 230.133523 
L 256.637033 234.87938 
L 257.287644 231.380414 
L 257.938254 235.038718 
L 258.588864 232.420557 
L 259.239475 232.840418 
L 259.890085 233.779934 
L 260.540695 236.016734 
L 261.191305 233.79221 
L 261.841916 234.034424 
L 262.492526 234.709898 
L 263.143136 230.406816 
L 263.793747 234.944364 
L 264.444357 235.993182 
L 265.094967 235.475096 
L 265.745578 235.997584 
L 267.046798 236.268544 
L 267.697409 237.387648 
L 268.348019 237.262961 
L 268.998629 234.844549 
L 269.64924 235.102012 
L 270.29985 234.826143 
L 270.95046 235.528836 
L 271.60107 236.462076 
L 272.251681 236.576002 
L 272.902291 237.274271 
L 273.552901 240.332848 
L 274.203512 237.655806 
L 274.854122 238.633559 
L 275.504732 236.269707 
L 276.155343 236.645764 
L 276.805953 238.41728 
L 277.456563 237.235928 
L 278.107174 237.846077 
L 278.757784 235.847156 
L 279.408394 240.459941 
L 280.059004 240.360971 
L 280.709615 239.70513 
L 281.360225 237.983477 
L 282.010835 237.204571 
L 282.661446 240.278402 
L 283.312056 240.577559 
L 283.962666 239.121184 
L 284.613277 239.229734 
L 285.263887 240.183149 
L 285.914497 239.252074 
L 286.565108 240.581295 
L 287.215718 241.086602 
L 287.866328 237.983923 
L 288.516939 240.817346 
L 289.167549 239.432436 
L 289.818159 239.864549 
L 290.468769 242.077566 
L 291.11938 239.853075 
L 291.76999 239.9406 
L 292.4206 240.310008 
L 293.071211 241.943579 
L 293.721821 238.788682 
L 294.372431 240.82351 
L 295.023042 238.796765 
L 295.673652 242.11687 
L 296.324262 244.040257 
L 297.625483 240.116874 
L 298.276093 241.25246 
L 298.926704 239.969422 
L 299.577314 240.862665 
L 300.227924 243.11736 
L 300.878534 240.921406 
L 301.529145 242.739373 
L 302.179755 242.048356 
L 302.830365 239.670457 
L 303.480976 241.048999 
L 304.131586 241.606784 
L 304.782196 244.475489 
L 305.432807 242.924591 
L 306.083417 243.744852 
L 306.734027 246.479763 
L 307.384638 241.370927 
L 308.035248 244.76459 
L 308.685858 239.470555 
L 309.336469 247.032299 
L 309.987079 242.879086 
L 310.637689 244.00812 
L 311.288299 243.885157 
L 311.93891 243.060392 
L 312.58952 244.624053 
L 313.24013 243.351431 
L 313.890741 244.374856 
L 314.541351 244.293732 
L 315.191961 243.412494 
L 315.842572 241.951064 
L 316.493182 241.924673 
L 317.143792 245.33914 
L 317.794403 244.189234 
L 318.445013 243.577427 
L 319.746233 244.03576 
L 320.396844 246.418326 
L 321.047454 245.449848 
L 321.698064 245.684554 
L 322.348675 244.889239 
L 322.999285 244.377781 
L 323.649895 247.113238 
L 324.300506 243.428304 
L 324.951116 244.883642 
L 325.601726 247.127548 
L 326.902947 246.540989 
L 327.553557 244.459003 
L 328.204168 246.605529 
L 328.854778 246.747221 
L 329.505388 246.366148 
L 330.155998 246.532871 
L 330.806609 244.85973 
L 331.457219 245.587441 
L 332.107829 247.249453 
L 332.75844 245.904354 
L 333.40905 250.532122 
L 334.05966 246.714089 
L 334.710271 247.030361 
L 335.360881 249.108796 
L 336.011491 249.667839 
L 336.662102 246.217795 
L 337.312712 247.647269 
L 337.963322 245.978799 
L 338.613933 246.757344 
L 339.264543 245.881593 
L 339.915153 246.622821 
L 340.565763 248.502137 
L 341.216374 247.728212 
L 341.866984 242.57708 
L 342.517594 248.453464 
L 343.168205 246.398379 
L 343.818815 248.113784 
L 344.469425 246.431042 
L 345.120036 247.102511 
L 345.770646 248.090933 
L 346.421256 245.305157 
L 347.071867 247.513659 
L 347.722477 250.773327 
L 348.373087 246.231628 
L 349.023698 247.085246 
L 349.674308 246.105573 
L 350.324918 248.980823 
L 350.975528 249.307343 
L 351.626139 250.687829 
L 352.276749 246.365505 
L 352.927359 245.89714 
L 353.57797 247.472923 
L 354.22858 244.860455 
L 354.87919 248.269523 
L 355.529801 248.473155 
L 356.180411 249.495514 
L 356.831021 245.401166 
L 358.132242 249.330845 
L 358.782852 247.248005 
L 359.433462 250.889011 
L 360.084073 247.363956 
L 360.734683 250.630178 
L 361.385293 248.295434 
L 362.035904 248.524022 
L 362.686514 251.610105 
L 363.987735 248.138262 
L 364.638345 252.788072 
L 365.288955 249.867732 
L 365.939566 248.28933 
L 366.590176 246.105505 
L 367.240786 248.748979 
L 367.891397 247.950475 
L 368.542007 245.420469 
L 369.192617 248.483682 
L 369.843227 249.338577 
L 370.493838 249.976154 
L 371.144448 249.577669 
L 371.795058 248.924414 
L 372.445669 247.746848 
L 373.096279 248.823279 
L 373.746889 248.83843 
L 374.3975 250.888074 
L 375.04811 249.371074 
L 375.69872 248.580108 
L 376.349331 250.145005 
L 376.999941 250.003096 
L 377.650551 249.322855 
L 378.301162 251.643342 
L 378.951772 249.955162 
L 379.602382 247.475893 
L 380.252992 250.170779 
L 380.903603 250.641733 
L 381.554213 250.438042 
L 382.204823 249.217555 
L 382.855434 248.787428 
L 383.506044 248.188286 
L 384.156654 250.061785 
L 384.807265 248.378866 
L 385.457875 251.109704 
L 386.108485 248.6236 
L 386.759096 248.303542 
L 387.409706 250.862986 
L 388.060316 248.908609 
L 388.710927 248.315942 
L 389.361537 249.074545 
L 390.012147 249.585496 
L 390.662757 249.11594 
L 391.313368 251.64246 
L 391.963978 250.258543 
L 392.614588 251.725712 
L 393.265199 250.57146 
L 393.915809 251.187659 
L 394.566419 249.230889 
L 395.21703 248.541627 
L 395.86764 248.342222 
L 396.51825 249.393286 
L 397.168861 250.215379 
L 397.819471 248.43952 
L 398.470081 250.576013 
L 399.120691 251.140435 
L 401.072522 250.72929 
L 401.723133 247.234388 
L 402.373743 250.752762 
L 403.024353 252.429711 
L 403.674964 248.812132 
L 404.976184 252.418282 
L 405.626795 251.539907 
L 406.277405 250.047388 
L 406.928015 251.181892 
L 407.578626 253.255468 
L 408.229236 251.20213 
L 408.879846 250.741665 
L 409.530456 252.261457 
L 410.181067 248.914379 
L 410.831677 250.737746 
L 411.482287 250.526693 
L 412.132898 248.283483 
L 412.132898 248.283483 
" clip-path="url(#pf751e2426b)" style="fill: none; stroke: #18793d; stroke-width: 0.75; stroke-linecap: square"/>
   </g>
   <g id="line2d_25">
    <path d="M 87.478352 255.820675 
L 88.128963 254.91739 
L 88.779573 256.757277 
L 89.430183 256.969988 
L 90.080794 254.209825 
L 91.382014 258.447864 
L 92.032624 255.404415 
L 92.683235 259.014761 
L 93.333845 256.386096 
L 93.984455 254.942068 
L 94.635066 256.683139 
L 95.285676 257.776897 
L 95.936286 254.06497 
L 96.586897 257.476361 
L 97.237507 254.779966 
L 97.888117 252.794656 
L 98.538728 253.42677 
L 99.189338 250.559997 
L 99.839948 250.792334 
L 100.490559 248.260337 
L 101.141169 251.520993 
L 101.791779 250.416003 
L 102.442389 246.235987 
L 103.093 247.206934 
L 103.74361 250.900457 
L 104.39422 248.35167 
L 105.044831 248.157818 
L 105.695441 245.230199 
L 106.346051 246.387345 
L 106.996662 246.077466 
L 107.647272 243.122431 
L 108.297882 241.639728 
L 108.948493 246.68953 
L 110.249713 238.327277 
L 110.900323 240.246864 
L 111.550934 241.227876 
L 112.201544 237.4773 
L 112.852154 241.241417 
L 114.153375 235.694885 
L 114.803985 231.506877 
L 115.454596 232.013349 
L 116.105206 230.695472 
L 116.755816 236.088774 
L 117.406427 236.362679 
L 118.057037 231.344374 
L 118.707647 234.935917 
L 119.358258 233.09542 
L 120.008868 230.532686 
L 120.659478 229.825092 
L 121.310088 226.936407 
L 121.960699 232.862871 
L 123.261919 224.350646 
L 123.91253 228.313414 
L 124.56314 224.3537 
L 125.21375 227.119118 
L 125.864361 222.141902 
L 126.514971 222.051996 
L 127.165581 220.652943 
L 127.816192 222.472739 
L 128.466802 220.677367 
L 129.117412 223.384262 
L 129.768023 220.59542 
L 130.418633 215.961176 
L 131.069243 215.813268 
L 132.370464 212.356764 
L 133.021074 216.618616 
L 133.671684 215.837232 
L 134.322295 218.015647 
L 134.972905 215.898419 
L 135.623515 211.891724 
L 136.274126 215.808852 
L 136.924736 211.765857 
L 137.575346 214.897717 
L 138.225957 208.749661 
L 138.876567 211.981626 
L 139.527177 211.670639 
L 140.177788 207.979002 
L 140.828398 207.254932 
L 141.479008 207.452127 
L 142.129618 204.750323 
L 142.780229 206.75395 
L 143.430839 203.255978 
L 144.081449 202.413136 
L 144.73206 206.859232 
L 145.38267 201.991205 
L 146.03328 202.062245 
L 146.683891 200.95795 
L 147.334501 201.414037 
L 147.985111 201.659145 
L 148.635722 203.651942 
L 149.286332 199.862494 
L 149.936942 201.241684 
L 150.587552 201.233569 
L 151.238163 197.142924 
L 151.888773 198.346822 
L 152.539383 196.569831 
L 153.189994 196.625158 
L 153.840604 194.798344 
L 154.491214 194.607415 
L 155.792435 196.209892 
L 156.443045 190.479622 
L 157.093656 196.565844 
L 157.744266 193.870797 
L 158.394876 188.195868 
L 159.045487 191.034681 
L 159.696097 194.974151 
L 160.346707 193.133276 
L 160.997317 186.103943 
L 161.647928 187.188165 
L 162.298538 190.293298 
L 162.949148 188.256026 
L 163.599759 186.743454 
L 164.250369 188.324249 
L 164.900979 185.705984 
L 165.55159 184.365447 
L 166.2022 186.393397 
L 166.85281 185.797907 
L 167.503421 185.381611 
L 168.154031 183.112217 
L 168.804641 186.04725 
L 169.455252 180.688606 
L 170.105862 180.776379 
L 170.756472 180.006229 
L 172.057693 182.967986 
L 172.708303 177.345368 
L 173.358913 182.250908 
L 174.009524 178.980959 
L 174.660134 177.7324 
L 175.310744 179.291959 
L 175.961355 182.313821 
L 177.262575 174.509313 
L 177.913186 175.030459 
L 178.563796 179.681895 
L 179.214406 174.519046 
L 179.865017 174.204543 
L 180.515627 174.24218 
L 181.166237 172.450262 
L 181.816847 174.556904 
L 182.467458 174.493823 
L 183.118068 169.719086 
L 183.768678 171.588047 
L 184.419289 172.01794 
L 185.069899 173.318468 
L 185.720509 173.557221 
L 186.37112 170.640397 
L 187.02173 172.788783 
L 187.67234 167.314255 
L 188.322951 166.186886 
L 188.973561 166.795648 
L 189.624171 167.611502 
L 190.274781 167.049936 
L 190.925392 165.43046 
L 191.576002 169.880751 
L 192.226612 164.401469 
L 192.877223 161.824326 
L 193.527833 169.186509 
L 194.178443 161.375415 
L 194.829054 164.590222 
L 195.479664 164.645121 
L 196.130274 163.644277 
L 196.780885 164.936068 
L 197.431495 165.844047 
L 198.082105 162.657776 
L 198.732716 157.690804 
L 199.383326 162.656037 
L 200.033936 164.048681 
L 200.684546 157.447367 
L 201.335157 156.912048 
L 201.985767 161.211804 
L 202.636377 161.467468 
L 203.286988 155.445836 
L 203.937598 159.891714 
L 204.588208 157.16016 
L 205.238819 157.720122 
L 205.889429 161.028737 
L 206.540039 158.223339 
L 207.19065 162.55146 
L 207.84126 160.264864 
L 208.49187 151.40101 
L 209.142481 158.096196 
L 209.793091 158.32677 
L 210.443701 155.312544 
L 211.094311 153.184868 
L 211.744922 151.472161 
L 212.395532 154.072193 
L 213.046142 151.687978 
L 213.696753 149.755374 
L 214.347363 152.944854 
L 215.648584 151.976463 
L 216.299194 150.15875 
L 216.949804 153.953302 
L 217.600415 152.81645 
L 218.251025 156.377137 
L 218.901635 148.836779 
L 219.552246 149.201536 
L 220.202856 147.48979 
L 220.853466 145.252287 
L 222.154687 153.211117 
L 222.805297 145.807199 
L 223.455907 144.634847 
L 224.106518 148.896341 
L 224.757128 144.670452 
L 225.407738 152.039376 
L 226.058349 145.371169 
L 226.708959 145.400985 
L 227.359569 148.889437 
L 228.01018 143.230776 
L 228.66079 148.079793 
L 229.96201 146.513999 
L 230.612621 146.014081 
L 231.263231 145.103048 
L 231.913841 142.174685 
L 232.564452 144.660606 
L 233.215062 145.642514 
L 233.865672 144.97413 
L 234.516283 145.288457 
L 235.166893 141.144901 
L 235.817503 143.008944 
L 236.468114 143.737426 
L 237.118724 140.654428 
L 237.769334 138.356418 
L 238.419945 142.572926 
L 239.070555 138.718143 
L 239.721165 142.589764 
L 240.371775 139.748375 
L 241.022386 140.507759 
L 241.672996 139.031481 
L 242.323606 142.967164 
L 242.974217 143.794351 
L 243.624827 141.432275 
L 244.275437 141.363293 
L 244.926048 137.861582 
L 245.576658 136.408161 
L 246.227268 142.696443 
L 246.877879 142.848848 
L 247.528489 139.491291 
L 248.179099 138.348393 
L 248.82971 137.922484 
L 249.48032 135.704276 
L 250.13093 138.652159 
L 250.78154 135.727905 
L 251.432151 136.726771 
L 252.082761 134.599511 
L 253.383982 139.893642 
L 254.034592 136.971713 
L 254.685202 137.554693 
L 255.335813 133.479542 
L 255.986423 135.805909 
L 256.637033 133.917424 
L 257.287644 137.526176 
L 257.938254 137.419521 
L 258.588864 138.017289 
L 259.239475 135.448239 
L 259.890085 136.00036 
L 260.540695 139.744895 
L 261.191305 136.105116 
L 261.841916 133.682824 
L 262.492526 136.549736 
L 263.143136 133.306865 
L 263.793747 138.890458 
L 265.094967 130.461369 
L 265.745578 133.473114 
L 266.396188 132.791167 
L 267.046798 127.984367 
L 267.697409 133.558992 
L 268.348019 133.809714 
L 268.998629 131.126349 
L 269.64924 135.736439 
L 270.29985 130.447723 
L 270.95046 131.695301 
L 271.60107 128.454247 
L 272.902291 130.625761 
L 273.552901 130.298636 
L 274.203512 129.22952 
L 274.854122 135.105639 
L 275.504732 130.828127 
L 276.155343 129.142985 
L 276.805953 127.117612 
L 277.456563 130.642557 
L 278.107174 125.508584 
L 278.757784 125.997409 
L 279.408394 129.074519 
L 280.059004 130.775093 
L 280.709615 128.162209 
L 281.360225 127.382928 
L 282.010835 131.407079 
L 282.661446 127.558244 
L 283.312056 127.095567 
L 283.962666 128.000264 
L 284.613277 122.597251 
L 285.263887 127.818638 
L 285.914497 127.113237 
L 286.565108 125.341699 
L 287.215718 129.154136 
L 287.866328 123.595263 
L 288.516939 126.902403 
L 289.167549 127.328647 
L 289.818159 130.41094 
L 290.468769 125.216635 
L 291.11938 127.059146 
L 291.76999 126.813996 
L 292.4206 122.066318 
L 293.071211 129.209849 
L 293.721821 124.174142 
L 294.372431 125.719384 
L 295.023042 128.586129 
L 295.673652 125.607621 
L 296.324262 125.277318 
L 296.974873 120.588959 
L 297.625483 125.853965 
L 298.276093 123.898151 
L 298.926704 125.550922 
L 299.577314 122.525807 
L 300.227924 122.140305 
L 301.529145 125.307773 
L 302.179755 125.757607 
L 302.830365 123.720387 
L 303.480976 129.917331 
L 304.131586 122.876221 
L 304.782196 120.648402 
L 305.432807 124.848084 
L 306.083417 120.732184 
L 306.734027 120.638325 
L 307.384638 123.79296 
L 308.035248 124.514821 
L 308.685858 119.78663 
L 309.336469 121.402147 
L 309.987079 122.588346 
L 310.637689 121.642597 
L 311.288299 124.250984 
L 311.93891 120.509619 
L 312.58952 123.198981 
L 313.24013 119.491788 
L 313.890741 124.395801 
L 314.541351 122.56046 
L 315.191961 120.051724 
L 315.842572 120.726221 
L 316.493182 116.505373 
L 317.143792 119.017324 
L 317.794403 118.946809 
L 318.445013 119.973635 
L 319.095623 120.268448 
L 319.746233 121.409748 
L 320.396844 120.895563 
L 321.047454 120.967995 
L 321.698064 120.093653 
L 322.348675 124.664889 
L 323.649895 118.234604 
L 324.300506 117.895019 
L 324.951116 119.504211 
L 325.601726 119.830086 
L 326.252337 119.538786 
L 326.902947 118.896677 
L 327.553557 116.548374 
L 328.204168 119.233178 
L 328.854778 114.119615 
L 329.505388 121.034615 
L 330.155998 115.376348 
L 330.806609 118.459006 
L 331.457219 117.637457 
L 332.107829 119.138759 
L 332.75844 117.306194 
L 333.40905 118.024444 
L 334.05966 116.995893 
L 334.710271 116.346042 
L 335.360881 119.005758 
L 336.011491 119.176327 
L 337.312712 118.953636 
L 337.963322 121.764996 
L 338.613933 113.161807 
L 339.264543 115.621374 
L 339.915153 115.116383 
L 340.565763 117.435462 
L 341.216374 113.85536 
L 341.866984 116.005728 
L 342.517594 115.858164 
L 343.168205 117.744506 
L 343.818815 119.259936 
L 344.469425 116.072563 
L 345.120036 116.898228 
L 345.770646 113.615829 
L 346.421256 118.088318 
L 347.071867 115.686157 
L 347.722477 115.957266 
L 348.373087 116.413577 
L 349.023698 111.548238 
L 349.674308 117.718637 
L 350.324918 114.411924 
L 350.975528 114.048955 
L 351.626139 116.338048 
L 352.276749 115.664945 
L 352.927359 113.344634 
L 353.57797 114.711256 
L 354.22858 113.96527 
L 354.87919 113.523834 
L 355.529801 113.819644 
L 356.180411 114.980692 
L 356.831021 115.018168 
L 357.481632 114.447625 
L 358.132242 113.726992 
L 358.782852 114.853998 
L 359.433462 111.070596 
L 360.084073 112.391725 
L 360.734683 114.912846 
L 361.385293 116.847716 
L 362.035904 112.961966 
L 363.337124 117.39042 
L 363.987735 114.303878 
L 364.638345 112.904959 
L 365.288955 113.225781 
L 365.939566 118.565581 
L 366.590176 111.718898 
L 367.240786 114.600642 
L 367.891397 114.428369 
L 368.542007 112.020452 
L 369.192617 114.539536 
L 369.843227 112.289838 
L 370.493838 113.849892 
L 371.144448 112.351464 
L 371.795058 114.9854 
L 372.445669 116.319844 
L 373.096279 116.249054 
L 373.746889 108.48898 
L 374.3975 113.04822 
L 375.04811 113.701784 
L 375.69872 114.814929 
L 376.349331 111.386779 
L 376.999941 114.941052 
L 377.650551 113.198963 
L 378.301162 113.595397 
L 378.951772 112.686606 
L 379.602382 117.156337 
L 380.252992 111.751303 
L 380.903603 112.099531 
L 381.554213 114.558651 
L 382.855434 109.480561 
L 383.506044 112.170889 
L 384.156654 113.339406 
L 384.807265 111.269239 
L 385.457875 111.043523 
L 386.108485 113.806559 
L 386.759096 112.10683 
L 387.409706 113.94951 
L 388.060316 111.869889 
L 388.710927 111.499069 
L 389.361537 112.952433 
L 390.012147 110.952239 
L 390.662757 110.731413 
L 391.313368 114.863271 
L 391.963978 109.123623 
L 392.614588 107.681833 
L 393.265199 115.639218 
L 393.915809 108.75867 
L 394.566419 110.65855 
L 395.21703 113.424549 
L 395.86764 112.327642 
L 396.51825 112.031557 
L 397.168861 111.921842 
L 397.819471 107.015664 
L 398.470081 108.03514 
L 399.120691 105.180324 
L 399.771302 111.031101 
L 400.421912 110.042995 
L 401.072522 111.864241 
L 401.723133 111.901094 
L 402.373743 111.19121 
L 403.024353 108.827055 
L 403.674964 105.111174 
L 404.325574 110.020492 
L 404.976184 107.06183 
L 406.277405 112.674719 
L 406.928015 110.735799 
L 407.578626 111.648728 
L 408.229236 109.323959 
L 408.879846 108.74877 
L 409.530456 111.65782 
L 410.181067 107.953897 
L 410.831677 107.568097 
L 411.482287 108.020686 
L 412.132898 107.782806 
L 412.132898 107.782806 
" clip-path="url(#pf751e2426b)" style="fill: none; stroke: #18793d; stroke-width: 0.75; stroke-linecap: square"/>
   </g>
   <g id="line2d_26">
    <path d="M 87.478352 256.378558 
L 90.731404 256.031795 
L 91.382014 255.87414 
L 92.032624 255.269582 
L 92.683235 252.385685 
L 93.333845 251.041174 
L 95.936286 250.96573 
L 99.189338 250.994096 
L 101.141169 250.945654 
L 101.791779 251.018421 
L 103.093 250.995878 
L 106.346051 251.023038 
L 116.105206 250.995329 
L 118.057037 251.017489 
L 129.768023 250.965703 
L 131.069243 251.003199 
L 145.38267 250.937572 
L 146.03328 251.022099 
L 147.334501 250.975151 
L 148.635722 250.994059 
L 157.093656 250.95725 
L 160.346707 251.016869 
L 160.997317 250.92981 
L 161.647928 251.042903 
L 164.900979 250.942691 
L 166.2022 251.026903 
L 169.455252 250.955274 
L 171.407082 251.025246 
L 173.358913 250.985706 
L 179.865017 251.026044 
L 180.515627 250.944675 
L 181.166237 251.039268 
L 182.467458 250.996022 
L 211.744922 251.010702 
L 212.395532 250.930268 
L 214.347363 250.989833 
L 218.251025 251.04159 
L 221.504076 250.957101 
L 224.757128 251.006862 
L 227.359569 250.971667 
L 228.66079 251.034812 
L 230.612621 251.009358 
L 261.841916 251.001357 
L 265.094967 251.043674 
L 268.998629 250.981365 
L 288.516939 250.969501 
L 290.468769 251.047385 
L 293.071211 250.965566 
L 295.023042 250.956974 
L 299.577314 250.950843 
L 301.529145 251.006178 
L 305.432807 251.026735 
L 307.384638 250.98397 
L 311.288299 250.969941 
L 317.794403 251.003938 
L 319.095623 251.047675 
L 323.649895 250.967624 
L 324.951116 250.985372 
L 325.601726 250.944901 
L 326.252337 251.055107 
L 328.204168 250.977536 
L 336.011491 251.058957 
L 336.662102 250.950825 
L 342.517594 250.984189 
L 343.168205 250.931182 
L 345.120036 251.069235 
L 346.421256 250.989117 
L 347.071867 251.036182 
L 347.722477 250.966767 
L 348.373087 251.037477 
L 349.023698 250.972767 
L 349.674308 251.024597 
L 350.324918 250.964376 
L 350.975528 251.034732 
L 352.276749 251.007744 
L 354.87919 251.018395 
L 356.180411 251.007095 
L 358.132242 251.003354 
L 362.686514 251.010973 
L 363.337124 250.969791 
L 363.987735 251.04374 
L 366.590176 250.989228 
L 367.891397 251.009132 
L 368.542007 251.042778 
L 369.843227 250.941103 
L 371.144448 251.038736 
L 375.04811 250.96181 
L 376.349331 251.029458 
L 376.999941 250.955375 
L 377.650551 251.043445 
L 378.301162 250.944158 
L 383.506044 250.994678 
L 384.807265 250.944539 
L 385.457875 251.04934 
L 386.108485 250.973025 
L 386.759096 251.029204 
L 387.409706 250.925543 
L 388.710927 251.034215 
L 390.012147 250.981333 
L 390.662757 251.080303 
L 391.963978 250.995552 
L 393.915809 251.027174 
L 398.470081 250.978248 
L 401.723133 251.000454 
L 403.024353 251.002012 
L 403.674964 251.053385 
L 404.325574 250.968627 
L 405.626795 251.029042 
L 407.578626 250.95663 
L 408.879846 251.009866 
L 410.181067 250.971398 
L 412.132898 251.085721 
L 412.132898 251.085721 
" clip-path="url(#pf751e2426b)" style="fill: none; stroke: #18793d; stroke-width: 0.75; stroke-linecap: square"/>
   </g>
   <g id="line2d_27">
    <path d="M 87.478352 251.058066 
L 88.779573 251.206518 
L 89.430183 251.188269 
L 90.731404 251.40681 
L 91.382014 251.633702 
L 92.032624 252.20894 
L 92.683235 255.073809 
L 93.333845 256.479371 
L 93.984455 256.398068 
L 94.635066 256.493804 
L 96.586897 256.499099 
L 114.153375 256.480912 
L 115.454596 256.504138 
L 116.755816 256.465233 
L 117.406427 256.384662 
L 118.057037 256.485212 
L 118.707647 256.433068 
L 120.659478 256.523563 
L 122.611309 256.406478 
L 123.261919 256.489652 
L 124.56314 256.419925 
L 125.864361 256.498197 
L 129.768023 256.452717 
L 130.418633 256.524509 
L 132.370464 256.405839 
L 133.021074 256.582695 
L 133.671684 256.460866 
L 136.924736 256.461946 
L 138.876567 256.462147 
L 139.527177 256.512431 
L 140.828398 256.464461 
L 155.141825 256.493405 
L 155.792435 256.44398 
L 157.093656 256.488565 
L 157.744266 256.529113 
L 158.394876 256.435955 
L 159.045487 256.562446 
L 160.997317 256.499867 
L 162.949148 256.515212 
L 164.250369 256.527634 
L 164.900979 256.442643 
L 165.55159 256.505453 
L 166.2022 256.435913 
L 168.154031 256.494208 
L 170.105862 256.479511 
L 394.566419 256.474839 
L 395.21703 256.564815 
L 396.51825 256.462157 
L 397.819471 256.453781 
L 398.470081 256.54314 
L 399.120691 256.472176 
L 399.771302 256.523137 
L 401.072522 256.450269 
L 403.674964 256.533453 
L 404.976184 256.465795 
L 410.831677 256.505633 
L 411.482287 256.388037 
L 412.132898 256.504759 
L 412.132898 256.504759 
" clip-path="url(#pf751e2426b)" style="fill: none; stroke: #18793d; stroke-width: 0.75; stroke-linecap: square"/>
   </g>
   <g id="line2d_28">
    <path d="M 87.478352 250.311112 
L 88.779573 251.897866 
L 90.080794 252.70647 
L 91.382014 253.254186 
L 92.032624 253.437783 
L 93.333845 253.467206 
L 93.984455 253.36582 
L 94.635066 253.40013 
L 96.586897 253.158942 
L 112.852154 251.56022 
L 124.56314 251.035201 
L 127.816192 250.962744 
L 130.418633 250.867177 
L 131.719853 250.884381 
L 133.671684 250.869177 
L 136.924736 250.880157 
L 138.225957 250.860085 
L 140.828398 250.814992 
L 159.045487 250.840589 
L 160.346707 250.853799 
L 160.997317 250.764511 
L 161.647928 250.8431 
L 162.949148 250.800612 
L 164.900979 250.831954 
L 192.226612 250.759642 
L 192.877223 250.860942 
L 194.178443 250.78004 
L 200.033936 250.819828 
L 201.335157 250.796752 
L 203.286988 250.835099 
L 204.588208 250.799608 
L 209.793091 250.842504 
L 211.094311 250.789474 
L 214.347363 250.838225 
L 216.949804 250.78837 
L 220.202856 250.79762 
L 220.853466 250.734704 
L 221.504076 250.827563 
L 223.455907 250.799162 
L 231.913841 250.796106 
L 236.468114 250.861522 
L 237.769334 250.776668 
L 248.82971 250.790838 
L 250.13093 250.818059 
L 252.733371 250.781929 
L 257.938254 250.799588 
L 259.239475 250.781266 
L 261.841916 250.771559 
L 265.745578 250.841797 
L 267.697409 250.758257 
L 270.29985 250.807527 
L 276.805953 250.760234 
L 278.107174 250.785653 
L 344.469425 250.787729 
L 345.770646 250.772521 
L 347.722477 250.812142 
L 348.373087 250.744332 
L 350.324918 250.770705 
L 353.57797 250.766185 
L 387.409706 250.769566 
L 388.060316 250.678378 
L 389.361537 250.771853 
L 390.012147 250.815406 
L 391.313368 250.71764 
L 393.265199 250.759299 
L 395.86764 250.774746 
L 399.771302 250.726821 
L 401.072522 250.737383 
L 412.132898 250.726956 
L 412.132898 250.726956 
" clip-path="url(#pf751e2426b)" style="fill: none; stroke: #18793d; stroke-width: 0.75; stroke-linecap: square"/>
   </g>
   <g id="line2d_29">
    <path d="M 87.478352 256.464717 
L 88.128963 255.490778 
L 89.430183 254.460225 
L 90.080794 254.050939 
L 91.382014 253.612904 
L 92.032624 253.398768 
L 92.683235 253.30553 
L 97.888117 253.905814 
L 99.839948 254.053143 
L 102.442389 254.43556 
L 112.201544 255.524716 
L 114.153375 255.693443 
L 118.057037 255.906561 
L 132.370464 256.391058 
L 133.671684 256.36615 
L 136.924736 256.361178 
L 138.225957 256.405755 
L 217.600415 256.456609 
L 218.901635 256.410093 
L 221.504076 256.521291 
L 222.154687 256.421868 
L 224.757128 256.488448 
L 226.058349 256.422171 
L 227.359569 256.432689 
L 236.468114 256.417945 
L 237.118724 256.498134 
L 238.419945 256.457748 
L 255.335813 256.438046 
L 255.986423 256.338629 
L 256.637033 256.461401 
L 261.191305 256.426894 
L 262.492526 256.443075 
L 267.046798 256.431928 
L 267.697409 256.5115 
L 269.64924 256.470903 
L 271.60107 256.484026 
L 272.902291 256.466408 
L 277.456563 256.459366 
L 281.360225 256.445343 
L 282.010835 256.521412 
L 285.263887 256.41976 
L 285.914497 256.396199 
L 286.565108 256.511278 
L 289.818159 256.41422 
L 302.830365 256.453637 
L 303.480976 256.380252 
L 304.131586 256.487905 
L 307.384638 256.437761 
L 308.035248 256.502016 
L 308.685858 256.425468 
L 309.336469 256.495601 
L 309.987079 256.442205 
L 311.288299 256.459639 
L 319.746233 256.449255 
L 321.047454 256.43397 
L 335.360881 256.453203 
L 337.963322 256.457129 
L 340.565763 256.455154 
L 345.770646 256.483496 
L 346.421256 256.415146 
L 347.722477 256.502594 
L 349.674308 256.425853 
L 353.57797 256.476215 
L 354.87919 256.471655 
L 362.686514 256.42318 
L 364.638345 256.467351 
L 366.590176 256.41846 
L 368.542007 256.45161 
L 372.445669 256.449085 
L 373.096279 256.506326 
L 374.3975 256.420657 
L 375.04811 256.461256 
L 375.69872 256.38959 
L 376.999941 256.456554 
L 382.204823 256.477847 
L 387.409706 256.425884 
L 390.012147 256.509524 
L 390.662757 256.426309 
L 391.313368 256.476583 
L 391.963978 256.389775 
L 393.265199 256.471686 
L 395.21703 256.414485 
L 395.86764 256.483896 
L 397.819471 256.456335 
L 403.024353 256.467379 
L 405.626795 256.473331 
L 412.132898 256.476168 
L 412.132898 256.476168 
" clip-path="url(#pf751e2426b)" style="fill: none; stroke: #18793d; stroke-width: 0.75; stroke-linecap: square"/>
   </g>
   <g id="line2d_30">
    <path d="M 87.478352 256.474134 
L 101.791779 256.295252 
L 117.406427 256.064212 
L 128.466802 256.011225 
L 135.623515 255.99185 
L 172.708303 255.992445 
L 190.925392 256.001357 
L 210.443701 255.998374 
L 221.504076 256.005126 
L 307.384638 256.020253 
L 323.649895 256.027715 
L 332.107829 256.028177 
L 352.927359 256.041635 
L 360.734683 256.028669 
L 368.542007 256.040503 
L 391.313368 256.038406 
L 412.132898 256.042725 
L 412.132898 256.042725 
" clip-path="url(#pf751e2426b)" style="fill: none; stroke: #18793d; stroke-width: 0.75; stroke-linecap: square"/>
   </g>
   <g id="line2d_31">
    <path d="M 87.478352 248.168135 
L 88.128963 249.497972 
L 89.430183 250.899421 
L 90.080794 251.469489 
L 92.032624 252.349957 
L 92.683235 252.469169 
L 95.936286 252.054423 
L 96.586897 251.875016 
L 97.237507 251.973402 
L 98.538728 251.671784 
L 101.141169 251.266039 
L 108.297882 250.07296 
L 108.948493 250.065124 
L 109.599103 249.842745 
L 121.310088 248.768251 
L 123.261919 248.658441 
L 131.069243 248.34513 
L 132.370464 248.361993 
L 135.623515 248.422305 
L 136.274126 248.348673 
L 137.575346 248.410453 
L 138.876567 248.317463 
L 139.527177 248.280501 
L 140.177788 248.402025 
L 141.479008 248.365515 
L 142.780229 248.275074 
L 143.430839 248.205333 
L 144.73206 248.256004 
L 155.141825 248.291156 
L 155.792435 248.243072 
L 156.443045 248.322424 
L 157.093656 248.254754 
L 157.744266 248.345249 
L 159.045487 248.296932 
L 160.997317 248.325212 
L 164.250369 248.279985 
L 169.455252 248.312886 
L 170.756472 248.27012 
L 172.057693 248.266636 
L 174.009524 248.278519 
L 175.310744 248.284937 
L 187.67234 248.291642 
L 188.973561 248.278448 
L 191.576002 248.24147 
L 195.479664 248.300579 
L 196.780885 248.315546 
L 198.082105 248.26663 
L 198.732716 248.321713 
L 199.383326 248.259661 
L 200.033936 248.33369 
L 201.335157 248.277983 
L 201.985767 248.341277 
L 202.636377 248.246079 
L 205.889429 248.363774 
L 207.19065 248.224975 
L 208.49187 248.363867 
L 209.142481 248.213708 
L 209.793091 248.303482 
L 211.744922 248.210071 
L 213.046142 248.369836 
L 214.347363 248.290277 
L 215.648584 248.267334 
L 218.251025 248.347356 
L 219.552246 248.175367 
L 220.202856 248.346634 
L 222.154687 248.190799 
L 224.106518 248.336537 
L 228.01018 248.216261 
L 228.66079 248.298808 
L 229.96201 248.222501 
L 231.263231 248.320015 
L 231.913841 248.233267 
L 233.865672 248.267093 
L 250.13093 248.273224 
L 250.78154 248.336472 
L 252.733371 248.219169 
L 253.383982 248.302469 
L 254.685202 248.259322 
L 263.793747 248.178715 
L 264.444357 248.302932 
L 271.60107 248.291322 
L 272.251681 248.209302 
L 274.203512 248.281768 
L 276.805953 248.266311 
L 278.107174 248.276412 
L 279.408394 248.27628 
L 282.661446 248.275131 
L 283.962666 248.296556 
L 285.263887 248.296641 
L 285.914497 248.367764 
L 287.215718 248.25622 
L 289.818159 248.31553 
L 290.468769 248.222234 
L 291.11938 248.326956 
L 291.76999 248.224672 
L 292.4206 248.302381 
L 293.071211 248.266602 
L 293.721821 248.357399 
L 294.372431 248.166733 
L 295.673652 248.243657 
L 299.577314 248.310424 
L 300.227924 248.24534 
L 301.529145 248.255202 
L 308.685858 248.321754 
L 309.336469 248.200174 
L 310.637689 248.301422 
L 311.93891 248.249209 
L 313.24013 248.252951 
L 324.951116 248.277491 
L 326.252337 248.324272 
L 326.902947 248.227905 
L 328.854778 248.260861 
L 330.155998 248.250053 
L 331.457219 248.262769 
L 334.710271 248.219702 
L 341.216374 248.283528 
L 342.517594 248.216598 
L 343.168205 248.355195 
L 344.469425 248.236792 
L 345.120036 248.339323 
L 346.421256 248.225477 
L 347.722477 248.298523 
L 349.023698 248.321646 
L 355.529801 248.220826 
L 356.831021 248.303773 
L 379.602382 248.222903 
L 380.252992 248.33082 
L 381.554213 248.251787 
L 382.855434 248.282883 
L 384.156654 248.253093 
L 384.807265 248.303892 
L 386.108485 248.234373 
L 389.361537 248.371952 
L 390.012147 248.244719 
L 394.566419 248.249987 
L 395.21703 248.327511 
L 396.51825 248.207763 
L 399.120691 248.303515 
L 401.723133 248.260886 
L 402.373743 248.202398 
L 404.325574 248.312635 
L 405.626795 248.294951 
L 406.277405 248.242948 
L 407.578626 248.296543 
L 410.181067 248.30243 
L 410.831677 248.221702 
L 412.132898 248.381135 
L 412.132898 248.381135 
" clip-path="url(#pf751e2426b)" style="fill: none; stroke: #18793d; stroke-width: 0.75; stroke-linecap: square"/>
   </g>
   <g id="line2d_32">
    <path d="M 87.478352 256.523741 
L 88.128963 255.262975 
L 89.430183 253.764376 
L 90.080794 253.261805 
L 92.032624 252.289339 
L 93.333845 252.250184 
L 97.237507 252.83895 
L 98.538728 253.132077 
L 99.839948 253.265911 
L 100.490559 253.33254 
L 101.791779 253.587824 
L 102.442389 253.72101 
L 103.093 253.729533 
L 103.74361 253.942726 
L 105.044831 254.031516 
L 106.996662 254.451501 
L 107.647272 254.434202 
L 108.297882 254.639375 
L 112.852154 255.185745 
L 114.153375 255.396777 
L 117.406427 255.706799 
L 118.057037 255.694937 
L 120.008868 255.925879 
L 132.370464 256.27243 
L 135.623515 256.362506 
L 138.225957 256.404572 
L 138.876567 256.53148 
L 140.177788 256.394735 
L 231.913841 256.430693 
L 232.564452 256.349834 
L 233.865672 256.454692 
L 244.926048 256.473383 
L 246.227268 256.445211 
L 248.179099 256.35896 
L 249.48032 256.450664 
L 254.034592 256.431222 
L 255.986423 256.453067 
L 257.938254 256.376436 
L 258.588864 256.47311 
L 259.890085 256.414351 
L 260.540695 256.466795 
L 261.841916 256.406372 
L 264.444357 256.442687 
L 265.094967 256.361378 
L 266.396188 256.439697 
L 269.64924 256.414724 
L 270.95046 256.480492 
L 271.60107 256.396361 
L 273.552901 256.43009 
L 295.023042 256.470983 
L 296.324262 256.363572 
L 297.625483 256.498209 
L 298.926704 256.457137 
L 300.227924 256.519305 
L 303.480976 256.433136 
L 304.131586 256.506545 
L 306.734027 256.330375 
L 307.384638 256.452036 
L 311.93891 256.490879 
L 313.890741 256.568676 
L 314.541351 256.442304 
L 322.348675 256.427252 
L 322.999285 256.502652 
L 325.601726 256.452654 
L 326.902947 256.469348 
L 327.553557 256.50043 
L 328.204168 256.393829 
L 328.854778 256.509253 
L 329.505388 256.380017 
L 331.457219 256.420687 
L 335.360881 256.485205 
L 336.011491 256.50504 
L 336.662102 256.408325 
L 339.264543 256.508494 
L 339.915153 256.40027 
L 341.216374 256.485605 
L 341.866984 256.364401 
L 343.168205 256.492886 
L 348.373087 256.46992 
L 350.975528 256.429285 
L 354.87919 256.395046 
L 360.084073 256.486632 
L 362.035904 256.409129 
L 369.192617 256.39858 
L 369.843227 256.368731 
L 370.493838 256.47172 
L 371.795058 256.394122 
L 373.096279 256.421068 
L 379.602382 256.456591 
L 380.252992 256.552505 
L 381.554213 256.408579 
L 384.807265 256.519396 
L 385.457875 256.39572 
L 391.963978 256.444711 
L 392.614588 256.374473 
L 395.21703 256.443726 
L 397.819471 256.397362 
L 398.470081 256.460888 
L 399.771302 256.398535 
L 401.723133 256.444289 
L 409.530456 256.456178 
L 410.831677 256.445445 
L 412.132898 256.448347 
L 412.132898 256.448347 
" clip-path="url(#pf751e2426b)" style="fill: none; stroke: #18793d; stroke-width: 0.75; stroke-linecap: square"/>
   </g>
   <g id="line2d_33">
    <path d="M 87.478352 255.285429 
L 112.852154 255.643634 
L 233.215062 255.424971 
L 237.769334 255.420386 
L 242.323606 255.422374 
L 248.179099 255.405192 
L 268.998629 255.389418 
L 272.251681 255.381459 
L 311.288299 255.349323 
L 316.493182 255.345388 
L 343.818815 255.331006 
L 351.626139 255.333649 
L 360.734683 255.318703 
L 374.3975 255.317471 
L 384.807265 255.32043 
L 406.277405 255.317147 
L 411.482287 255.319957 
L 412.132898 255.309318 
L 412.132898 255.309318 
" clip-path="url(#pf751e2426b)" style="fill: none; stroke: #18793d; stroke-width: 0.75; stroke-linecap: square"/>
   </g>
   <g id="line2d_34">
    <path d="M 87.478352 256.478025 
L 101.791779 256.19499 
L 112.852154 256.11456 
L 170.105862 256.218202 
L 181.816847 256.235565 
L 185.720509 256.233155 
L 194.829054 256.274941 
L 206.540039 256.27695 
L 215.648584 256.314456 
L 222.154687 256.312186 
L 235.166893 256.337141 
L 268.348019 256.372693 
L 276.805953 256.384476 
L 412.132898 256.453737 
L 412.132898 256.453737 
" clip-path="url(#pf751e2426b)" style="fill: none; stroke: #18793d; stroke-width: 0.75; stroke-linecap: square"/>
   </g>
   <g id="patch_3">
    <path d="M 71.245625 273.312 
L 71.245625 7.2 
" style="fill: none; stroke: #000000; stroke-width: 0.8; stroke-linejoin: miter; stroke-linecap: square"/>
   </g>
   <g id="patch_4">
    <path d="M 71.245625 273.312 
L 428.365625 273.312 
" style="fill: none; stroke: #000000; stroke-width: 0.8; stroke-linejoin: miter; stroke-linecap: square"/>
   </g>
  </g>
 </g>
 <defs>
  <clipPath id="pf751e2426b">
   <rect x="71.245625" y="7.2" width="357.12" height="266.112"/>
  </clipPath>
 </defs>
</svg>
