<?xml version="1.0" encoding="utf-8" standalone="no"?>
<!DOCTYPE svg PUBLIC "-//W3C//DTD SVG 1.1//EN"
  "http://www.w3.org/Graphics/SVG/1.1/DTD/svg11.dtd">
<svg xmlns:xlink="http://www.w3.org/1999/xlink" width="420.300625pt" height="324.417625pt" viewBox="0 0 420.300625 324.417625" xmlns="http://www.w3.org/2000/svg" version="1.1">
 <metadata>
  <rdf:RDF xmlns:dc="http://purl.org/dc/elements/1.1/" xmlns:cc="http://creativecommons.org/ns#" xmlns:rdf="http://www.w3.org/1999/02/22-rdf-syntax-ns#">
   <cc:Work>
    <dc:type rdf:resource="http://purl.org/dc/dcmitype/StillImage"/>
    <dc:date>2025-03-04T14:20:21.369377</dc:date>
    <dc:format>image/svg+xml</dc:format>
    <dc:creator>
     <cc:Agent>
      <dc:title>Matplotlib v3.9.2, https://matplotlib.org/</dc:title>
     </cc:Agent>
    </dc:creator>
   </cc:Work>
  </rdf:RDF>
 </metadata>
 <defs>
  <style type="text/css">*{stroke-linejoin: round; stroke-linecap: butt}</style>
 </defs>
 <g id="figure_1">
  <g id="patch_1">
   <path d="M 0 324.417625 
L 420.300625 324.417625 
L 420.300625 0 
L 0 0 
z
" style="fill: #ffffff"/>
  </g>
  <g id="axes_1">
   <g id="patch_2">
    <path d="M 55.980625 273.312 
L 413.100625 273.312 
L 413.100625 7.2 
L 55.980625 7.2 
z
" style="fill: #ffffff"/>
   </g>
   <g id="matplotlib.axis_1">
    <g id="xtick_1">
     <g id="line2d_1">
      <defs>
       <path id="m0d7600e1ed" d="M 0 0 
L 0 3.5 
" style="stroke: #000000; stroke-width: 0.8"/>
      </defs>
      <g>
       <use xlink:href="#m0d7600e1ed" x="72.213352" y="273.312" style="stroke: #000000; stroke-width: 0.8"/>
      </g>
     </g>
     <g id="text_1">
      <!-- 0 -->
      <g transform="translate(67.123352 292.4695) scale(0.16 -0.16)">
       <defs>
        <path id="DejaVuSans-30" d="M 2034 4250 
Q 1547 4250 1301 3770 
Q 1056 3291 1056 2328 
Q 1056 1369 1301 889 
Q 1547 409 2034 409 
Q 2525 409 2770 889 
Q 3016 1369 3016 2328 
Q 3016 3291 2770 3770 
Q 2525 4250 2034 4250 
z
M 2034 4750 
Q 2819 4750 3233 4129 
Q 3647 3509 3647 2328 
Q 3647 1150 3233 529 
Q 2819 -91 2034 -91 
Q 1250 -91 836 529 
Q 422 1150 422 2328 
Q 422 3509 836 4129 
Q 1250 4750 2034 4750 
z
" transform="scale(0.015625)"/>
       </defs>
       <use xlink:href="#DejaVuSans-30"/>
      </g>
     </g>
    </g>
    <g id="xtick_2">
     <g id="line2d_2">
      <g>
       <use xlink:href="#m0d7600e1ed" x="153.376989" y="273.312" style="stroke: #000000; stroke-width: 0.8"/>
      </g>
     </g>
     <g id="text_2">
      <!-- 1 -->
      <g transform="translate(148.286989 292.4695) scale(0.16 -0.16)">
       <defs>
        <path id="DejaVuSans-31" d="M 794 531 
L 1825 531 
L 1825 4091 
L 703 3866 
L 703 4441 
L 1819 4666 
L 2450 4666 
L 2450 531 
L 3481 531 
L 3481 0 
L 794 0 
L 794 531 
z
" transform="scale(0.015625)"/>
       </defs>
       <use xlink:href="#DejaVuSans-31"/>
      </g>
     </g>
    </g>
    <g id="xtick_3">
     <g id="line2d_3">
      <g>
       <use xlink:href="#m0d7600e1ed" x="234.540625" y="273.312" style="stroke: #000000; stroke-width: 0.8"/>
      </g>
     </g>
     <g id="text_3">
      <!-- 2 -->
      <g transform="translate(229.450625 292.4695) scale(0.16 -0.16)">
       <defs>
        <path id="DejaVuSans-32" d="M 1228 531 
L 3431 531 
L 3431 0 
L 469 0 
L 469 531 
Q 828 903 1448 1529 
Q 2069 2156 2228 2338 
Q 2531 2678 2651 2914 
Q 2772 3150 2772 3378 
Q 2772 3750 2511 3984 
Q 2250 4219 1831 4219 
Q 1534 4219 1204 4116 
Q 875 4013 500 3803 
L 500 4441 
Q 881 4594 1212 4672 
Q 1544 4750 1819 4750 
Q 2544 4750 2975 4387 
Q 3406 4025 3406 3419 
Q 3406 3131 3298 2873 
Q 3191 2616 2906 2266 
Q 2828 2175 2409 1742 
Q 1991 1309 1228 531 
z
" transform="scale(0.015625)"/>
       </defs>
       <use xlink:href="#DejaVuSans-32"/>
      </g>
     </g>
    </g>
    <g id="xtick_4">
     <g id="line2d_4">
      <g>
       <use xlink:href="#m0d7600e1ed" x="315.704261" y="273.312" style="stroke: #000000; stroke-width: 0.8"/>
      </g>
     </g>
     <g id="text_4">
      <!-- 3 -->
      <g transform="translate(310.614261 292.4695) scale(0.16 -0.16)">
       <defs>
        <path id="DejaVuSans-33" d="M 2597 2516 
Q 3050 2419 3304 2112 
Q 3559 1806 3559 1356 
Q 3559 666 3084 287 
Q 2609 -91 1734 -91 
Q 1441 -91 1130 -33 
Q 819 25 488 141 
L 488 750 
Q 750 597 1062 519 
Q 1375 441 1716 441 
Q 2309 441 2620 675 
Q 2931 909 2931 1356 
Q 2931 1769 2642 2001 
Q 2353 2234 1838 2234 
L 1294 2234 
L 1294 2753 
L 1863 2753 
Q 2328 2753 2575 2939 
Q 2822 3125 2822 3475 
Q 2822 3834 2567 4026 
Q 2313 4219 1838 4219 
Q 1578 4219 1281 4162 
Q 984 4106 628 3988 
L 628 4550 
Q 988 4650 1302 4700 
Q 1616 4750 1894 4750 
Q 2613 4750 3031 4423 
Q 3450 4097 3450 3541 
Q 3450 3153 3228 2886 
Q 3006 2619 2597 2516 
z
" transform="scale(0.015625)"/>
       </defs>
       <use xlink:href="#DejaVuSans-33"/>
      </g>
     </g>
    </g>
    <g id="xtick_5">
     <g id="line2d_5">
      <g>
       <use xlink:href="#m0d7600e1ed" x="396.867898" y="273.312" style="stroke: #000000; stroke-width: 0.8"/>
      </g>
     </g>
     <g id="text_5">
      <!-- 4 -->
      <g transform="translate(391.777898 292.4695) scale(0.16 -0.16)">
       <defs>
        <path id="DejaVuSans-34" d="M 2419 4116 
L 825 1625 
L 2419 1625 
L 2419 4116 
z
M 2253 4666 
L 3047 4666 
L 3047 1625 
L 3713 1625 
L 3713 1100 
L 3047 1100 
L 3047 0 
L 2419 0 
L 2419 1100 
L 313 1100 
L 313 1709 
L 2253 4666 
z
" transform="scale(0.015625)"/>
       </defs>
       <use xlink:href="#DejaVuSans-34"/>
      </g>
     </g>
    </g>
    <g id="text_6">
     <!-- time -->
     <g transform="translate(214.207656 313.474187) scale(0.18 -0.18)">
      <defs>
       <path id="DejaVuSans-74" d="M 1172 4494 
L 1172 3500 
L 2356 3500 
L 2356 3053 
L 1172 3053 
L 1172 1153 
Q 1172 725 1289 603 
Q 1406 481 1766 481 
L 2356 481 
L 2356 0 
L 1766 0 
Q 1100 0 847 248 
Q 594 497 594 1153 
L 594 3053 
L 172 3053 
L 172 3500 
L 594 3500 
L 594 4494 
L 1172 4494 
z
" transform="scale(0.015625)"/>
       <path id="DejaVuSans-69" d="M 603 3500 
L 1178 3500 
L 1178 0 
L 603 0 
L 603 3500 
z
M 603 4863 
L 1178 4863 
L 1178 4134 
L 603 4134 
L 603 4863 
z
" transform="scale(0.015625)"/>
       <path id="DejaVuSans-6d" d="M 3328 2828 
Q 3544 3216 3844 3400 
Q 4144 3584 4550 3584 
Q 5097 3584 5394 3201 
Q 5691 2819 5691 2113 
L 5691 0 
L 5113 0 
L 5113 2094 
Q 5113 2597 4934 2840 
Q 4756 3084 4391 3084 
Q 3944 3084 3684 2787 
Q 3425 2491 3425 1978 
L 3425 0 
L 2847 0 
L 2847 2094 
Q 2847 2600 2669 2842 
Q 2491 3084 2119 3084 
Q 1678 3084 1418 2786 
Q 1159 2488 1159 1978 
L 1159 0 
L 581 0 
L 581 3500 
L 1159 3500 
L 1159 2956 
Q 1356 3278 1631 3431 
Q 1906 3584 2284 3584 
Q 2666 3584 2933 3390 
Q 3200 3197 3328 2828 
z
" transform="scale(0.015625)"/>
       <path id="DejaVuSans-65" d="M 3597 1894 
L 3597 1613 
L 953 1613 
Q 991 1019 1311 708 
Q 1631 397 2203 397 
Q 2534 397 2845 478 
Q 3156 559 3463 722 
L 3463 178 
Q 3153 47 2828 -22 
Q 2503 -91 2169 -91 
Q 1331 -91 842 396 
Q 353 884 353 1716 
Q 353 2575 817 3079 
Q 1281 3584 2069 3584 
Q 2775 3584 3186 3129 
Q 3597 2675 3597 1894 
z
M 3022 2063 
Q 3016 2534 2758 2815 
Q 2500 3097 2075 3097 
Q 1594 3097 1305 2825 
Q 1016 2553 972 2059 
L 3022 2063 
z
" transform="scale(0.015625)"/>
      </defs>
      <use xlink:href="#DejaVuSans-74"/>
      <use xlink:href="#DejaVuSans-69" x="39.208984"/>
      <use xlink:href="#DejaVuSans-6d" x="66.992188"/>
      <use xlink:href="#DejaVuSans-65" x="164.404297"/>
     </g>
    </g>
   </g>
   <g id="matplotlib.axis_2">
    <g id="ytick_1">
     <g id="line2d_6">
      <defs>
       <path id="m246a3c25a3" d="M 0 0 
L -3.5 0 
" style="stroke: #000000; stroke-width: 0.8"/>
      </defs>
      <g>
       <use xlink:href="#m246a3c25a3" x="55.980625" y="253.990951" style="stroke: #000000; stroke-width: 0.8"/>
      </g>
     </g>
     <g id="text_7">
      <!-- 0 -->
      <g transform="translate(38.800625 260.069701) scale(0.16 -0.16)">
       <use xlink:href="#DejaVuSans-30"/>
      </g>
     </g>
    </g>
    <g id="ytick_2">
     <g id="line2d_7">
      <g>
       <use xlink:href="#m246a3c25a3" x="55.980625" y="208.95814" style="stroke: #000000; stroke-width: 0.8"/>
      </g>
     </g>
     <g id="text_8">
      <!-- 2 -->
      <g transform="translate(38.800625 215.03689) scale(0.16 -0.16)">
       <use xlink:href="#DejaVuSans-32"/>
      </g>
     </g>
    </g>
    <g id="ytick_3">
     <g id="line2d_8">
      <g>
       <use xlink:href="#m246a3c25a3" x="55.980625" y="163.925329" style="stroke: #000000; stroke-width: 0.8"/>
      </g>
     </g>
     <g id="text_9">
      <!-- 4 -->
      <g transform="translate(38.800625 170.004079) scale(0.16 -0.16)">
       <use xlink:href="#DejaVuSans-34"/>
      </g>
     </g>
    </g>
    <g id="ytick_4">
     <g id="line2d_9">
      <g>
       <use xlink:href="#m246a3c25a3" x="55.980625" y="118.892518" style="stroke: #000000; stroke-width: 0.8"/>
      </g>
     </g>
     <g id="text_10">
      <!-- 6 -->
      <g transform="translate(38.800625 124.971268) scale(0.16 -0.16)">
       <defs>
        <path id="DejaVuSans-36" d="M 2113 2584 
Q 1688 2584 1439 2293 
Q 1191 2003 1191 1497 
Q 1191 994 1439 701 
Q 1688 409 2113 409 
Q 2538 409 2786 701 
Q 3034 994 3034 1497 
Q 3034 2003 2786 2293 
Q 2538 2584 2113 2584 
z
M 3366 4563 
L 3366 3988 
Q 3128 4100 2886 4159 
Q 2644 4219 2406 4219 
Q 1781 4219 1451 3797 
Q 1122 3375 1075 2522 
Q 1259 2794 1537 2939 
Q 1816 3084 2150 3084 
Q 2853 3084 3261 2657 
Q 3669 2231 3669 1497 
Q 3669 778 3244 343 
Q 2819 -91 2113 -91 
Q 1303 -91 875 529 
Q 447 1150 447 2328 
Q 447 3434 972 4092 
Q 1497 4750 2381 4750 
Q 2619 4750 2861 4703 
Q 3103 4656 3366 4563 
z
" transform="scale(0.015625)"/>
       </defs>
       <use xlink:href="#DejaVuSans-36"/>
      </g>
     </g>
    </g>
    <g id="ytick_5">
     <g id="line2d_10">
      <g>
       <use xlink:href="#m246a3c25a3" x="55.980625" y="73.859707" style="stroke: #000000; stroke-width: 0.8"/>
      </g>
     </g>
     <g id="text_11">
      <!-- 8 -->
      <g transform="translate(38.800625 79.938457) scale(0.16 -0.16)">
       <defs>
        <path id="DejaVuSans-38" d="M 2034 2216 
Q 1584 2216 1326 1975 
Q 1069 1734 1069 1313 
Q 1069 891 1326 650 
Q 1584 409 2034 409 
Q 2484 409 2743 651 
Q 3003 894 3003 1313 
Q 3003 1734 2745 1975 
Q 2488 2216 2034 2216 
z
M 1403 2484 
Q 997 2584 770 2862 
Q 544 3141 544 3541 
Q 544 4100 942 4425 
Q 1341 4750 2034 4750 
Q 2731 4750 3128 4425 
Q 3525 4100 3525 3541 
Q 3525 3141 3298 2862 
Q 3072 2584 2669 2484 
Q 3125 2378 3379 2068 
Q 3634 1759 3634 1313 
Q 3634 634 3220 271 
Q 2806 -91 2034 -91 
Q 1263 -91 848 271 
Q 434 634 434 1313 
Q 434 1759 690 2068 
Q 947 2378 1403 2484 
z
M 1172 3481 
Q 1172 3119 1398 2916 
Q 1625 2713 2034 2713 
Q 2441 2713 2670 2916 
Q 2900 3119 2900 3481 
Q 2900 3844 2670 4047 
Q 2441 4250 2034 4250 
Q 1625 4250 1398 4047 
Q 1172 3844 1172 3481 
z
" transform="scale(0.015625)"/>
       </defs>
       <use xlink:href="#DejaVuSans-38"/>
      </g>
     </g>
    </g>
    <g id="ytick_6">
     <g id="line2d_11">
      <g>
       <use xlink:href="#m246a3c25a3" x="55.980625" y="28.826896" style="stroke: #000000; stroke-width: 0.8"/>
      </g>
     </g>
     <g id="text_12">
      <!-- 10 -->
      <g transform="translate(28.620625 34.905646) scale(0.16 -0.16)">
       <use xlink:href="#DejaVuSans-31"/>
       <use xlink:href="#DejaVuSans-30" x="63.623047"/>
      </g>
     </g>
    </g>
    <g id="text_13">
     <!-- concentration -->
     <g transform="translate(20.877188 202.588031) rotate(-90) scale(0.18 -0.18)">
      <defs>
       <path id="DejaVuSans-63" d="M 3122 3366 
L 3122 2828 
Q 2878 2963 2633 3030 
Q 2388 3097 2138 3097 
Q 1578 3097 1268 2742 
Q 959 2388 959 1747 
Q 959 1106 1268 751 
Q 1578 397 2138 397 
Q 2388 397 2633 464 
Q 2878 531 3122 666 
L 3122 134 
Q 2881 22 2623 -34 
Q 2366 -91 2075 -91 
Q 1284 -91 818 406 
Q 353 903 353 1747 
Q 353 2603 823 3093 
Q 1294 3584 2113 3584 
Q 2378 3584 2631 3529 
Q 2884 3475 3122 3366 
z
" transform="scale(0.015625)"/>
       <path id="DejaVuSans-6f" d="M 1959 3097 
Q 1497 3097 1228 2736 
Q 959 2375 959 1747 
Q 959 1119 1226 758 
Q 1494 397 1959 397 
Q 2419 397 2687 759 
Q 2956 1122 2956 1747 
Q 2956 2369 2687 2733 
Q 2419 3097 1959 3097 
z
M 1959 3584 
Q 2709 3584 3137 3096 
Q 3566 2609 3566 1747 
Q 3566 888 3137 398 
Q 2709 -91 1959 -91 
Q 1206 -91 779 398 
Q 353 888 353 1747 
Q 353 2609 779 3096 
Q 1206 3584 1959 3584 
z
" transform="scale(0.015625)"/>
       <path id="DejaVuSans-6e" d="M 3513 2113 
L 3513 0 
L 2938 0 
L 2938 2094 
Q 2938 2591 2744 2837 
Q 2550 3084 2163 3084 
Q 1697 3084 1428 2787 
Q 1159 2491 1159 1978 
L 1159 0 
L 581 0 
L 581 3500 
L 1159 3500 
L 1159 2956 
Q 1366 3272 1645 3428 
Q 1925 3584 2291 3584 
Q 2894 3584 3203 3211 
Q 3513 2838 3513 2113 
z
" transform="scale(0.015625)"/>
       <path id="DejaVuSans-72" d="M 2631 2963 
Q 2534 3019 2420 3045 
Q 2306 3072 2169 3072 
Q 1681 3072 1420 2755 
Q 1159 2438 1159 1844 
L 1159 0 
L 581 0 
L 581 3500 
L 1159 3500 
L 1159 2956 
Q 1341 3275 1631 3429 
Q 1922 3584 2338 3584 
Q 2397 3584 2469 3576 
Q 2541 3569 2628 3553 
L 2631 2963 
z
" transform="scale(0.015625)"/>
       <path id="DejaVuSans-61" d="M 2194 1759 
Q 1497 1759 1228 1600 
Q 959 1441 959 1056 
Q 959 750 1161 570 
Q 1363 391 1709 391 
Q 2188 391 2477 730 
Q 2766 1069 2766 1631 
L 2766 1759 
L 2194 1759 
z
M 3341 1997 
L 3341 0 
L 2766 0 
L 2766 531 
Q 2569 213 2275 61 
Q 1981 -91 1556 -91 
Q 1019 -91 701 211 
Q 384 513 384 1019 
Q 384 1609 779 1909 
Q 1175 2209 1959 2209 
L 2766 2209 
L 2766 2266 
Q 2766 2663 2505 2880 
Q 2244 3097 1772 3097 
Q 1472 3097 1187 3025 
Q 903 2953 641 2809 
L 641 3341 
Q 956 3463 1253 3523 
Q 1550 3584 1831 3584 
Q 2591 3584 2966 3190 
Q 3341 2797 3341 1997 
z
" transform="scale(0.015625)"/>
      </defs>
      <use xlink:href="#DejaVuSans-63"/>
      <use xlink:href="#DejaVuSans-6f" x="54.980469"/>
      <use xlink:href="#DejaVuSans-6e" x="116.162109"/>
      <use xlink:href="#DejaVuSans-63" x="179.541016"/>
      <use xlink:href="#DejaVuSans-65" x="234.521484"/>
      <use xlink:href="#DejaVuSans-6e" x="296.044922"/>
      <use xlink:href="#DejaVuSans-74" x="359.423828"/>
      <use xlink:href="#DejaVuSans-72" x="398.632812"/>
      <use xlink:href="#DejaVuSans-61" x="439.746094"/>
      <use xlink:href="#DejaVuSans-74" x="501.025391"/>
      <use xlink:href="#DejaVuSans-69" x="540.234375"/>
      <use xlink:href="#DejaVuSans-6f" x="568.017578"/>
      <use xlink:href="#DejaVuSans-6e" x="629.199219"/>
     </g>
    </g>
   </g>
   <g id="line2d_12">
    <path d="M 72.213352 28.786512 
L 72.863963 32.474026 
L 73.514573 34.450455 
L 74.165183 29.127332 
L 74.815794 35.773156 
L 75.466404 34.82572 
L 76.117014 30.645345 
L 77.418235 38.139378 
L 78.068845 40.633935 
L 78.719455 40.505614 
L 79.370066 50.78689 
L 80.020676 40.160724 
L 80.671286 43.834093 
L 81.321897 40.528346 
L 81.972507 43.345511 
L 82.623117 45.247797 
L 83.273728 40.108405 
L 83.924338 48.115472 
L 85.225559 50.257926 
L 85.876169 44.479705 
L 86.526779 52.688736 
L 87.177389 63.50375 
L 87.828 56.222663 
L 88.47861 57.411582 
L 89.12922 56.05207 
L 90.430441 63.233264 
L 91.081051 65.294413 
L 91.731662 63.304832 
L 92.382272 62.363781 
L 93.032882 59.975656 
L 93.683493 60.918131 
L 94.334103 68.507947 
L 94.984713 69.787254 
L 95.635323 69.225627 
L 96.285934 78.853418 
L 96.936544 67.466632 
L 97.587154 76.435258 
L 98.237765 73.48859 
L 98.888375 78.944752 
L 99.538985 75.781073 
L 100.189596 76.186556 
L 100.840206 80.589631 
L 101.490816 77.338756 
L 102.141427 80.5651 
L 102.792037 78.571955 
L 103.442647 84.854234 
L 104.093258 83.74428 
L 104.743868 83.578465 
L 105.394478 87.521372 
L 106.045088 93.074182 
L 106.695699 85.524477 
L 107.346309 88.542538 
L 107.996919 87.771466 
L 108.64753 93.953328 
L 109.29814 88.933664 
L 109.94875 90.088668 
L 110.599361 93.462143 
L 111.249971 91.227614 
L 111.900581 103.089158 
L 112.551192 99.903831 
L 113.201802 101.426028 
L 113.852412 103.283127 
L 114.503023 101.63799 
L 115.153633 100.395718 
L 115.804243 96.468184 
L 116.454853 102.20826 
L 117.105464 101.522185 
L 117.756074 105.492803 
L 118.406684 99.690095 
L 119.057295 109.284676 
L 119.707905 111.072222 
L 120.358515 107.799786 
L 121.009126 103.309808 
L 121.659736 111.584281 
L 122.310346 112.12573 
L 122.960957 107.453335 
L 123.611567 117.083535 
L 124.262177 117.344631 
L 125.563398 124.382207 
L 126.214008 121.163824 
L 126.864618 124.085361 
L 127.515229 122.97772 
L 128.165839 115.345815 
L 128.816449 124.043227 
L 129.46706 124.345245 
L 130.11767 118.787641 
L 130.76828 123.699715 
L 131.418891 119.570143 
L 132.069501 122.851301 
L 132.720111 126.738853 
L 133.370722 120.872577 
L 134.671942 131.358178 
L 135.322552 133.971461 
L 135.973163 123.31489 
L 136.623773 133.747002 
L 137.274383 130.428263 
L 137.924994 132.065957 
L 138.575604 131.768126 
L 139.226214 130.401618 
L 139.876825 144.826219 
L 140.527435 138.66937 
L 141.178045 138.374764 
L 141.828656 133.99627 
L 142.479266 141.548374 
L 143.129876 142.984365 
L 143.780487 139.217592 
L 144.431097 144.242882 
L 145.081707 140.850639 
L 145.732317 138.98985 
L 146.382928 140.02136 
L 147.033538 148.583759 
L 147.684148 153.201848 
L 148.334759 145.725678 
L 148.985369 148.841757 
L 149.635979 143.261156 
L 150.28659 155.238864 
L 150.9372 148.648909 
L 151.58781 153.799435 
L 152.238421 151.563455 
L 152.889031 150.183532 
L 153.539641 152.832521 
L 154.190252 154.075115 
L 154.840862 152.731029 
L 155.491472 156.060464 
L 156.142082 157.516477 
L 156.792693 152.999934 
L 157.443303 165.844068 
L 158.093913 157.077674 
L 158.744524 154.558545 
L 159.395134 159.444988 
L 160.045744 158.658699 
L 160.696355 158.178275 
L 161.346965 158.259839 
L 161.997575 167.471263 
L 163.298796 157.705078 
L 163.949406 169.759927 
L 164.600017 167.027124 
L 165.250627 169.582231 
L 165.901237 170.977318 
L 166.551847 168.919283 
L 167.853068 174.608102 
L 168.503678 176.400894 
L 169.154289 168.398187 
L 169.804899 166.322715 
L 170.455509 167.356298 
L 171.10612 177.42104 
L 171.75673 179.700198 
L 173.057951 174.017813 
L 173.708561 177.990393 
L 174.359171 172.882901 
L 175.009781 175.161003 
L 175.660392 178.180662 
L 176.311002 182.872366 
L 176.961612 181.839227 
L 177.612223 175.835053 
L 178.262833 183.473026 
L 178.913443 183.613789 
L 179.564054 187.14385 
L 180.214664 180.380397 
L 180.865274 184.84206 
L 181.515885 184.642808 
L 182.166495 191.477902 
L 182.817105 188.212905 
L 183.467716 191.151481 
L 184.768936 182.927385 
L 185.419546 192.924021 
L 186.070157 195.173552 
L 186.720767 189.93745 
L 187.371377 188.500956 
L 188.021988 193.2627 
L 188.672598 193.441927 
L 189.323208 191.901268 
L 189.973819 193.685814 
L 190.624429 192.757226 
L 191.275039 197.839192 
L 191.92565 198.216807 
L 193.22687 193.299042 
L 193.877481 194.983548 
L 194.528091 198.120949 
L 195.178701 196.689513 
L 195.829311 200.950769 
L 196.479922 199.634994 
L 197.130532 204.7033 
L 197.781142 204.777201 
L 198.431753 210.127101 
L 199.082363 196.356832 
L 199.732973 199.769609 
L 200.383584 199.971021 
L 201.034194 200.806617 
L 201.684804 202.371762 
L 202.335415 203.523018 
L 202.986025 206.012352 
L 203.636635 203.22369 
L 204.287246 205.547068 
L 204.937856 206.847288 
L 205.588466 207.678043 
L 206.239076 209.612251 
L 206.889687 207.539452 
L 207.540297 212.232315 
L 208.190907 211.680121 
L 209.492128 204.393185 
L 210.142738 209.553131 
L 210.793349 210.97974 
L 211.443959 208.89657 
L 212.094569 208.066268 
L 212.74518 206.902201 
L 213.39579 211.896875 
L 214.0464 208.490646 
L 214.69701 214.522879 
L 215.347621 219.368463 
L 215.998231 208.748191 
L 217.299452 215.406431 
L 217.950062 214.952127 
L 218.600672 211.966186 
L 219.251283 215.092695 
L 219.901893 222.13078 
L 220.552503 213.704055 
L 221.203114 212.377129 
L 221.853724 213.22312 
L 222.504334 216.313622 
L 223.154945 216.028883 
L 223.805555 220.794945 
L 224.456165 217.536355 
L 225.757386 223.921687 
L 226.407996 223.117159 
L 227.058606 222.097388 
L 227.709217 220.417583 
L 228.359827 221.189013 
L 229.010437 216.750392 
L 229.661048 225.335681 
L 230.311658 216.671151 
L 232.263489 228.094423 
L 232.914099 221.426971 
L 233.56471 228.831092 
L 234.21532 219.427158 
L 234.86593 228.639962 
L 235.51654 222.511791 
L 236.167151 227.408494 
L 236.817761 220.027364 
L 237.468371 230.842321 
L 238.118982 226.208355 
L 238.769592 230.836191 
L 239.420202 224.345918 
L 240.070813 224.032386 
L 240.721423 224.129198 
L 241.372033 231.452008 
L 242.022644 227.974027 
L 242.673254 228.972147 
L 244.625085 224.698243 
L 245.275695 235.999965 
L 245.926305 230.132905 
L 246.576916 225.740629 
L 247.227526 228.498165 
L 247.878136 226.657546 
L 248.528747 234.611694 
L 249.179357 230.592757 
L 249.829967 234.597588 
L 250.480578 230.469967 
L 251.131188 234.261054 
L 251.781798 230.774283 
L 252.432409 232.175477 
L 253.083019 233.214281 
L 253.733629 236.403282 
L 254.38424 235.886656 
L 255.03485 236.268295 
L 255.68546 235.869576 
L 256.33607 235.61175 
L 256.986681 233.760007 
L 257.637291 237.236654 
L 258.287901 232.162735 
L 258.938512 235.028798 
L 259.589122 235.83481 
L 260.239732 237.582138 
L 261.540953 232.572873 
L 262.191563 234.211849 
L 262.842174 235.045881 
L 264.143394 239.827048 
L 264.794004 238.366971 
L 265.444615 244.11396 
L 266.095225 236.951701 
L 266.745835 233.447011 
L 267.396446 233.630128 
L 268.047056 241.565226 
L 268.697666 235.698309 
L 269.348277 238.306263 
L 269.998887 239.936189 
L 270.649497 243.688232 
L 271.300108 244.676495 
L 271.950718 236.154456 
L 272.601328 242.400027 
L 273.251939 239.795899 
L 273.902549 240.617998 
L 274.553159 243.659196 
L 275.203769 239.663158 
L 275.85438 240.85645 
L 276.50499 237.043529 
L 277.1556 237.696501 
L 277.806211 240.357111 
L 278.456821 237.260332 
L 279.107431 240.383696 
L 279.758042 237.418444 
L 280.408652 246.6741 
L 281.059262 244.169338 
L 281.709873 245.290008 
L 282.360483 241.771305 
L 283.011093 244.899955 
L 283.661704 238.782179 
L 284.312314 241.445166 
L 284.962924 240.70272 
L 285.613534 239.677712 
L 286.264145 245.622288 
L 286.914755 245.253343 
L 287.565365 236.42185 
L 288.215976 236.846755 
L 288.866586 249.567443 
L 289.517196 248.913396 
L 290.167807 245.800598 
L 290.818417 238.836146 
L 291.469027 249.14425 
L 292.119638 248.033199 
L 292.770248 249.449244 
L 293.420858 244.298616 
L 294.071469 242.915032 
L 294.722079 244.212606 
L 295.372689 246.899061 
L 296.023299 243.686127 
L 296.67391 242.574178 
L 297.32452 247.547451 
L 297.97513 249.268641 
L 298.625741 245.664351 
L 299.276351 248.973312 
L 299.926961 240.686769 
L 300.577572 246.882145 
L 301.228182 240.00657 
L 301.878792 251.049992 
L 302.529403 248.744405 
L 303.180013 248.69579 
L 303.830623 246.911494 
L 304.481233 247.671242 
L 305.131844 247.290057 
L 305.782454 244.804144 
L 306.433064 246.406519 
L 307.083675 244.835617 
L 307.734285 248.350548 
L 308.384895 250.744221 
L 309.035506 249.864194 
L 309.686116 248.471368 
L 310.336726 246.456793 
L 310.987337 250.440485 
L 311.637947 252.596195 
L 312.288557 247.633183 
L 312.939168 248.071032 
L 313.589778 248.916536 
L 314.240388 244.541097 
L 314.890998 247.849729 
L 315.541609 249.767707 
L 316.192219 246.348719 
L 316.842829 248.261078 
L 317.49344 246.880377 
L 318.14405 247.326269 
L 318.79466 248.365296 
L 319.445271 245.486794 
L 320.095881 247.291917 
L 320.746491 250.769515 
L 321.397102 246.685762 
L 322.047712 251.000274 
L 322.698322 252.219623 
L 323.348933 253.096324 
L 323.999543 249.662403 
L 324.650153 250.862258 
L 325.300763 252.995667 
L 325.951374 245.846607 
L 326.601984 244.90237 
L 327.252594 245.421391 
L 327.903205 251.513842 
L 328.553815 254.559681 
L 329.204425 243.443029 
L 329.855036 246.56754 
L 330.505646 246.479059 
L 331.156256 251.859061 
L 331.806867 248.744827 
L 332.457477 259.448354 
L 333.108087 249.551993 
L 333.758698 249.899942 
L 334.409308 254.669589 
L 335.059918 251.004994 
L 335.710528 244.80368 
L 336.361139 253.309188 
L 337.011749 243.637609 
L 338.31297 253.336563 
L 338.96358 250.529859 
L 339.61419 245.577461 
L 340.264801 248.207181 
L 340.915411 248.834022 
L 341.566021 248.985622 
L 342.216632 249.584779 
L 342.867242 258.671429 
L 343.517852 250.15489 
L 344.168462 251.574991 
L 344.819073 253.76801 
L 345.469683 245.286516 
L 346.120293 250.590046 
L 346.770904 253.227972 
L 347.421514 257.0068 
L 348.072124 251.760345 
L 348.722735 257.418009 
L 349.373345 254.074364 
L 350.023955 254.756683 
L 350.674566 250.237035 
L 351.325176 250.857472 
L 351.975786 250.641334 
L 353.277007 255.670811 
L 353.927617 250.975138 
L 354.578227 249.731247 
L 355.228838 247.851516 
L 355.879448 242.510198 
L 356.530058 252.305437 
L 357.180669 251.028593 
L 357.831279 252.493235 
L 358.481889 249.914919 
L 359.1325 251.001797 
L 359.78311 248.739209 
L 360.43372 257.842456 
L 361.084331 254.644335 
L 361.734941 255.098227 
L 362.385551 255.910916 
L 363.036162 255.99133 
L 363.686772 253.802279 
L 364.337382 255.239954 
L 364.987992 251.314792 
L 365.638603 249.834324 
L 366.289213 249.808663 
L 366.939823 246.995204 
L 367.590434 250.979011 
L 368.241044 249.297109 
L 368.891654 252.50336 
L 369.542265 253.506756 
L 370.192875 249.200682 
L 370.843485 247.764269 
L 371.494096 255.304847 
L 372.144706 254.625877 
L 372.795316 251.049382 
L 373.445927 253.139397 
L 374.096537 248.121071 
L 374.747147 252.793305 
L 375.397757 252.87777 
L 376.048368 257.504379 
L 376.698978 247.309007 
L 377.349588 257.062496 
L 378.000199 252.374112 
L 378.650809 252.60753 
L 379.301419 261.216 
L 379.95203 256.506765 
L 380.60264 250.382385 
L 381.25325 253.929501 
L 381.903861 254.377612 
L 382.554471 252.344977 
L 383.205081 255.737243 
L 383.855691 247.720341 
L 384.506302 259.820851 
L 385.156912 257.341648 
L 385.807522 249.583495 
L 386.458133 253.584898 
L 387.108743 252.538778 
L 387.759353 253.859037 
L 388.409964 250.468385 
L 389.060574 257.79823 
L 389.711184 251.069486 
L 390.361795 250.118874 
L 391.012405 248.4603 
L 391.663015 257.469227 
L 392.313626 252.645067 
L 392.964236 248.812291 
L 393.614846 254.66727 
L 394.265456 254.763969 
L 394.916067 253.497632 
L 395.566677 253.194503 
L 396.217287 256.283135 
L 396.867898 251.173011 
L 396.867898 251.173011 
" clip-path="url(#p33009bfc58)" style="fill: none; stroke: #343084; stroke-width: 0.75; stroke-linecap: square"/>
   </g>
   <g id="line2d_13">
    <path d="M 72.213352 254.49213 
L 72.863963 252.376474 
L 73.514573 251.043159 
L 74.165183 248.801344 
L 74.815794 252.711326 
L 75.466404 248.935547 
L 76.117014 255.054376 
L 76.767624 241.156795 
L 77.418235 245.274239 
L 78.068845 239.859404 
L 78.719455 241.985663 
L 79.370066 242.278698 
L 80.671286 231.620645 
L 81.321897 237.959949 
L 81.972507 241.448008 
L 82.623117 234.148804 
L 83.273728 230.706902 
L 83.924338 230.685946 
L 84.574948 228.520938 
L 85.225559 227.948685 
L 85.876169 233.189716 
L 86.526779 228.90229 
L 87.177389 226.64151 
L 87.828 222.808559 
L 88.47861 231.752756 
L 89.12922 220.780789 
L 89.779831 222.827866 
L 90.430441 218.128545 
L 91.081051 225.283877 
L 91.731662 225.521694 
L 92.382272 222.593627 
L 93.032882 220.49817 
L 93.683493 216.401076 
L 94.334103 208.680341 
L 94.984713 208.759544 
L 95.635323 211.855889 
L 96.285934 212.516374 
L 96.936544 213.568055 
L 97.587154 212.609184 
L 98.237765 207.148493 
L 98.888375 209.440528 
L 99.538985 206.758588 
L 100.189596 208.834977 
L 100.840206 203.974234 
L 101.490816 201.798649 
L 102.141427 201.780372 
L 102.792037 200.075895 
L 103.442647 202.283138 
L 104.093258 201.2244 
L 104.743868 196.689034 
L 105.394478 201.29326 
L 106.045088 195.406485 
L 106.695699 196.000068 
L 107.346309 199.304861 
L 107.996919 195.464291 
L 108.64753 193.434371 
L 109.29814 195.6374 
L 109.94875 191.826629 
L 110.599361 190.16422 
L 111.249971 184.963093 
L 111.900581 189.831773 
L 112.551192 186.521063 
L 113.201802 188.612725 
L 113.852412 184.684534 
L 115.153633 180.630127 
L 115.804243 177.095006 
L 116.454853 181.932868 
L 117.105464 179.157719 
L 117.756074 180.851703 
L 118.406684 179.683282 
L 119.057295 175.917099 
L 119.707905 170.473057 
L 120.358515 175.015467 
L 121.009126 174.606536 
L 121.659736 169.350286 
L 122.310346 168.344572 
L 122.960957 172.648484 
L 123.611567 171.157069 
L 124.262177 173.282871 
L 124.912788 169.139865 
L 125.563398 169.44504 
L 126.214008 165.620579 
L 126.864618 171.177047 
L 128.165839 162.985379 
L 128.816449 160.69199 
L 129.46706 159.386676 
L 130.11767 160.204758 
L 130.76828 162.617278 
L 132.069501 155.708764 
L 132.720111 157.784003 
L 133.370722 157.394285 
L 134.021332 151.692268 
L 134.671942 150.744068 
L 135.322552 152.44737 
L 135.973163 151.458434 
L 136.623773 150.775743 
L 137.274383 149.15273 
L 137.924994 151.812521 
L 138.575604 148.348882 
L 139.226214 147.683011 
L 139.876825 146.785875 
L 140.527435 145.52871 
L 141.178045 146.26858 
L 141.828656 146.19106 
L 142.479266 143.561282 
L 143.129876 146.313336 
L 143.780487 140.52961 
L 144.431097 142.067032 
L 145.081707 137.924774 
L 145.732317 134.815679 
L 146.382928 134.612254 
L 147.033538 131.274983 
L 147.684148 138.448649 
L 148.334759 135.802715 
L 148.985369 129.254794 
L 149.635979 130.983555 
L 150.28659 130.224081 
L 150.9372 140.68237 
L 151.58781 133.762001 
L 152.238421 128.76656 
L 152.889031 128.249828 
L 153.539641 122.221753 
L 154.190252 126.292732 
L 154.840862 128.342554 
L 155.491472 125.710643 
L 156.142082 131.411937 
L 156.792693 122.248489 
L 157.443303 121.62198 
L 158.093913 123.367835 
L 158.744524 129.317493 
L 159.395134 126.895631 
L 161.346965 115.111795 
L 161.997575 117.875436 
L 162.648186 114.642912 
L 163.298796 118.569292 
L 163.949406 114.700887 
L 164.600017 115.549542 
L 165.250627 110.019826 
L 165.901237 118.310598 
L 166.551847 111.000011 
L 167.202458 114.120707 
L 167.853068 108.301244 
L 168.503678 110.547446 
L 169.154289 107.58923 
L 169.804899 110.319003 
L 170.455509 109.165286 
L 171.10612 110.493548 
L 171.75673 102.181842 
L 172.40734 100.700292 
L 173.057951 110.375871 
L 173.708561 103.078086 
L 174.359171 107.222404 
L 175.009781 101.044433 
L 176.311002 105.634005 
L 176.961612 100.645037 
L 177.612223 98.266054 
L 178.262833 98.2508 
L 178.913443 99.294424 
L 179.564054 99.408043 
L 180.214664 98.218198 
L 180.865274 104.047541 
L 181.515885 105.323569 
L 182.166495 97.139594 
L 182.817105 94.482936 
L 183.467716 91.10837 
L 184.118326 90.201857 
L 184.768936 96.265856 
L 185.419546 90.613791 
L 186.070157 97.616682 
L 186.720767 92.696085 
L 187.371377 94.285651 
L 188.021988 93.935199 
L 188.672598 95.850467 
L 189.323208 88.410967 
L 189.973819 87.627783 
L 190.624429 94.414216 
L 191.275039 95.975494 
L 191.92565 88.582175 
L 192.57626 82.540443 
L 193.22687 87.588835 
L 193.877481 84.767811 
L 194.528091 88.06474 
L 195.178701 87.341782 
L 196.479922 82.566251 
L 197.130532 85.840647 
L 197.781142 81.481628 
L 198.431753 86.967093 
L 199.082363 82.426905 
L 199.732973 87.39804 
L 200.383584 83.265864 
L 201.034194 86.2036 
L 202.335415 75.042299 
L 202.986025 77.56254 
L 203.636635 68.007079 
L 204.287246 78.282799 
L 204.937856 78.743234 
L 205.588466 75.350291 
L 206.239076 70.497491 
L 206.889687 79.773953 
L 207.540297 73.816104 
L 208.190907 74.701687 
L 208.841518 76.908787 
L 210.142738 78.917497 
L 210.793349 67.343695 
L 211.443959 68.415967 
L 212.094569 67.18235 
L 212.74518 72.454074 
L 213.39579 68.968848 
L 214.0464 70.934319 
L 214.69701 68.774535 
L 215.347621 70.381189 
L 216.648841 65.214156 
L 217.299452 66.594858 
L 217.950062 66.036497 
L 218.600672 64.572142 
L 219.251283 62.17982 
L 219.901893 63.16458 
L 221.203114 70.696125 
L 221.853724 63.031639 
L 222.504334 61.496067 
L 223.154945 63.532284 
L 223.805555 67.502599 
L 224.456165 61.270597 
L 225.106775 61.880817 
L 225.757386 60.60775 
L 226.407996 57.323394 
L 227.058606 57.278196 
L 227.709217 54.955322 
L 228.359827 57.476166 
L 229.010437 60.863268 
L 229.661048 59.135273 
L 230.311658 53.613473 
L 230.962268 61.268569 
L 231.612879 60.152053 
L 232.263489 59.365634 
L 232.914099 65.171239 
L 233.56471 53.691777 
L 234.21532 59.039218 
L 234.86593 60.502672 
L 235.51654 59.851595 
L 236.167151 61.544393 
L 236.817761 51.327368 
L 237.468371 59.127766 
L 238.118982 54.938665 
L 238.769592 57.264039 
L 239.420202 57.760146 
L 240.070813 51.765623 
L 240.721423 51.546248 
L 241.372033 57.320898 
L 242.022644 50.107538 
L 242.673254 56.15496 
L 243.323864 52.505487 
L 243.974475 50.942473 
L 244.625085 52.887036 
L 245.275695 58.940247 
L 245.926305 53.235807 
L 246.576916 49.383288 
L 247.227526 52.986989 
L 247.878136 51.491508 
L 248.528747 50.777029 
L 249.179357 51.406744 
L 249.829967 52.288425 
L 250.480578 46.042342 
L 251.131188 50.300423 
L 251.781798 49.285157 
L 253.083019 51.507785 
L 253.733629 53.667884 
L 254.38424 50.828373 
L 255.03485 53.149852 
L 255.68546 49.825337 
L 256.33607 48.444304 
L 256.986681 43.723656 
L 257.637291 51.528418 
L 258.287901 49.867321 
L 258.938512 46.598255 
L 259.589122 48.250871 
L 260.239732 44.146489 
L 260.890343 44.794255 
L 261.540953 40.927451 
L 262.191563 39.548926 
L 262.842174 45.522273 
L 263.492784 41.539358 
L 264.143394 41.316648 
L 264.794004 48.432973 
L 265.444615 44.456724 
L 266.095225 38.553487 
L 266.745835 52.452779 
L 267.396446 45.584387 
L 268.047056 45.289168 
L 268.697666 42.852049 
L 269.348277 46.266639 
L 269.998887 45.77866 
L 270.649497 41.790256 
L 271.300108 45.422213 
L 271.950718 43.543087 
L 272.601328 40.043376 
L 273.251939 35.443969 
L 273.902549 40.695055 
L 274.553159 41.803058 
L 275.203769 43.896856 
L 275.85438 35.838888 
L 276.50499 41.871674 
L 277.1556 39.956668 
L 277.806211 45.28562 
L 278.456821 38.493679 
L 279.107431 33.903415 
L 280.408652 45.532049 
L 281.059262 39.603578 
L 281.709873 38.394227 
L 282.360483 45.013669 
L 283.011093 33.214365 
L 283.661704 34.679946 
L 284.312314 40.779067 
L 284.962924 38.236985 
L 285.613534 41.694062 
L 286.264145 42.992829 
L 286.914755 43.770013 
L 287.565365 42.18933 
L 288.215976 39.220242 
L 288.866586 38.857446 
L 289.517196 32.731712 
L 290.167807 38.42693 
L 290.818417 38.153429 
L 291.469027 38.711574 
L 292.119638 42.621114 
L 292.770248 38.230826 
L 293.420858 37.301885 
L 294.071469 45.399613 
L 294.722079 41.546919 
L 295.372689 32.903311 
L 296.023299 33.876205 
L 296.67391 38.093658 
L 297.32452 36.14376 
L 297.97513 40.23844 
L 298.625741 36.84787 
L 299.276351 37.534534 
L 299.926961 41.348563 
L 300.577572 36.033464 
L 301.228182 33.732731 
L 301.878792 41.566034 
L 302.529403 33.087605 
L 303.180013 31.534545 
L 303.830623 37.840916 
L 304.481233 40.237504 
L 305.131844 31.84751 
L 305.782454 40.208259 
L 306.433064 40.120737 
L 307.083675 32.199138 
L 308.384895 36.658176 
L 309.035506 35.85029 
L 309.686116 33.233429 
L 310.336726 37.827776 
L 310.987337 32.57777 
L 311.637947 35.749484 
L 312.288557 35.580718 
L 312.939168 35.822218 
L 313.589778 37.157547 
L 314.240388 32.85026 
L 314.890998 39.282991 
L 315.541609 30.538901 
L 316.192219 42.569974 
L 316.842829 32.617671 
L 317.49344 32.638636 
L 318.14405 32.839688 
L 318.79466 31.966392 
L 319.445271 26.92454 
L 320.095881 33.120085 
L 320.746491 29.873385 
L 321.397102 32.088518 
L 322.047712 29.843234 
L 322.698322 35.457701 
L 323.348933 32.18066 
L 323.999543 34.702136 
L 324.650153 34.027997 
L 325.300763 32.616895 
L 325.951374 29.855557 
L 326.601984 29.206923 
L 327.252594 33.584438 
L 327.903205 26.08804 
L 328.553815 29.885363 
L 329.204425 32.809808 
L 329.855036 34.147517 
L 330.505646 34.635371 
L 331.156256 28.877243 
L 331.806867 31.47824 
L 332.457477 34.700831 
L 333.108087 29.099778 
L 333.758698 36.136596 
L 334.409308 29.505359 
L 335.059918 30.187032 
L 335.710528 30.241793 
L 336.361139 31.870187 
L 337.011749 36.099831 
L 337.662359 31.207334 
L 338.31297 33.266715 
L 338.96358 34.940288 
L 339.61419 32.564598 
L 340.264801 35.220965 
L 340.915411 33.230021 
L 341.566021 36.857653 
L 342.216632 33.870484 
L 342.867242 31.632631 
L 343.517852 32.775715 
L 344.168462 29.519641 
L 344.819073 38.012236 
L 345.469683 34.369452 
L 346.120293 34.391539 
L 346.770904 30.728845 
L 347.421514 35.181685 
L 348.072124 33.126586 
L 348.722735 33.726846 
L 349.373345 22.955466 
L 350.023955 36.180826 
L 350.674566 29.399127 
L 351.325176 34.290233 
L 351.975786 35.353479 
L 352.626397 33.369848 
L 353.277007 29.142986 
L 353.927617 36.594755 
L 354.578227 38.496527 
L 355.228838 33.4612 
L 355.879448 24.825117 
L 356.530058 26.823653 
L 357.180669 31.398853 
L 357.831279 31.458226 
L 358.481889 33.53831 
L 359.1325 32.827135 
L 359.78311 29.757687 
L 360.43372 29.16483 
L 361.084331 27.123585 
L 361.734941 31.761585 
L 362.385551 28.079854 
L 363.036162 36.223674 
L 363.686772 42.550478 
L 364.337382 34.602331 
L 364.987992 32.696841 
L 365.638603 33.482497 
L 366.289213 33.894515 
L 366.939823 35.41087 
L 367.590434 32.927714 
L 368.241044 29.986941 
L 368.891654 30.400321 
L 369.542265 33.684767 
L 370.192875 32.439738 
L 370.843485 27.645295 
L 371.494096 30.559795 
L 372.144706 19.296 
L 372.795316 30.955239 
L 373.445927 33.921085 
L 374.096537 26.622842 
L 374.747147 28.201445 
L 375.397757 29.427627 
L 376.048368 28.750314 
L 376.698978 27.141463 
L 377.349588 30.506265 
L 378.000199 30.958281 
L 378.650809 33.282763 
L 379.301419 27.949671 
L 379.95203 29.895416 
L 380.60264 29.162375 
L 381.25325 27.889136 
L 381.903861 24.780846 
L 382.554471 35.441531 
L 383.205081 29.001478 
L 383.855691 34.062083 
L 384.506302 30.303109 
L 385.156912 28.882025 
L 385.807522 33.526317 
L 386.458133 27.602743 
L 387.108743 29.932012 
L 387.759353 30.250454 
L 388.409964 31.401916 
L 389.060574 26.035612 
L 389.711184 32.029752 
L 390.361795 29.017524 
L 391.012405 30.991052 
L 391.663015 33.848017 
L 392.313626 28.578008 
L 392.964236 32.910879 
L 393.614846 25.156433 
L 394.265456 36.03577 
L 394.916067 26.326787 
L 395.566677 32.301354 
L 396.217287 32.116826 
L 396.867898 28.930586 
L 396.867898 28.930586 
" clip-path="url(#p33009bfc58)" style="fill: none; stroke: #343084; stroke-width: 0.75; stroke-linecap: square"/>
   </g>
   <g id="line2d_14">
    <path d="M 72.213352 238.000062 
L 72.863963 237.803326 
L 73.514573 237.483971 
L 74.165183 238.90127 
L 74.815794 237.944033 
L 75.466404 238.101626 
L 76.117014 237.095707 
L 76.767624 238.952495 
L 77.418235 238.234769 
L 78.068845 236.915282 
L 78.719455 236.698039 
L 79.370066 237.240702 
L 80.020676 237.148937 
L 80.671286 237.324575 
L 81.321897 237.927724 
L 81.972507 237.707035 
L 82.623117 237.354041 
L 83.273728 238.534348 
L 83.924338 236.911016 
L 84.574948 237.161146 
L 85.225559 236.476939 
L 85.876169 236.986141 
L 87.177389 236.757327 
L 87.828 237.859959 
L 88.47861 236.846176 
L 89.12922 237.246606 
L 89.779831 235.449846 
L 91.081051 236.52897 
L 91.731662 236.159206 
L 92.382272 235.539926 
L 93.032882 237.007354 
L 94.334103 236.299645 
L 94.984713 235.44928 
L 95.635323 236.337895 
L 96.285934 235.901873 
L 96.936544 236.344318 
L 97.587154 235.289948 
L 98.237765 235.259069 
L 98.888375 235.903014 
L 99.538985 234.806544 
L 100.189596 236.026272 
L 100.840206 236.338931 
L 102.792037 235.68709 
L 103.442647 234.699516 
L 104.093258 235.099146 
L 104.743868 234.705006 
L 105.394478 235.369708 
L 106.045088 234.763451 
L 106.695699 234.31654 
L 107.346309 235.298435 
L 107.996919 234.451124 
L 108.64753 235.923561 
L 109.29814 233.601887 
L 109.94875 234.608359 
L 110.599361 234.089068 
L 111.249971 234.488367 
L 111.900581 234.513473 
L 112.551192 233.287979 
L 113.201802 234.126365 
L 114.503023 234.151068 
L 115.153633 233.83497 
L 115.804243 233.851344 
L 116.454853 234.178743 
L 117.105464 232.485155 
L 117.756074 233.630912 
L 119.057295 232.977044 
L 119.707905 233.924396 
L 120.358515 233.146843 
L 122.310346 233.050502 
L 122.960957 231.779243 
L 123.611567 233.109591 
L 124.262177 231.789021 
L 124.912788 231.729855 
L 125.563398 233.222411 
L 126.214008 231.602886 
L 126.864618 232.611624 
L 127.515229 231.990667 
L 128.165839 232.617565 
L 128.816449 232.138933 
L 129.46706 232.050229 
L 130.11767 232.74806 
L 130.76828 231.80733 
L 131.418891 231.397829 
L 132.069501 232.193816 
L 132.720111 231.694672 
L 133.370722 231.739744 
L 134.021332 232.650189 
L 134.671942 231.099439 
L 135.322552 231.678752 
L 135.973163 231.127069 
L 136.623773 232.065972 
L 137.274383 231.30951 
L 137.924994 231.152517 
L 138.575604 231.751287 
L 139.226214 230.82677 
L 139.876825 230.951639 
L 140.527435 230.897258 
L 141.178045 231.279095 
L 141.828656 230.469642 
L 142.479266 229.918269 
L 143.129876 230.561635 
L 143.780487 230.431306 
L 144.431097 230.525331 
L 145.081707 230.454932 
L 145.732317 230.670712 
L 147.033538 228.85715 
L 147.684148 229.448597 
L 148.334759 229.569225 
L 148.985369 230.13995 
L 149.635979 229.203111 
L 150.28659 229.65961 
L 150.9372 228.923335 
L 151.58781 229.297492 
L 152.238421 229.20158 
L 152.889031 229.316238 
L 153.539641 228.98592 
L 154.190252 229.374839 
L 154.840862 229.132701 
L 155.491472 229.28136 
L 156.142082 228.835528 
L 156.792693 228.97655 
L 157.443303 229.354222 
L 158.093913 228.719212 
L 158.744524 227.687149 
L 159.395134 228.34671 
L 160.045744 228.394108 
L 160.696355 228.638383 
L 161.346965 228.297912 
L 161.997575 228.260409 
L 162.648186 227.380754 
L 163.298796 228.162394 
L 163.949406 227.972549 
L 164.600017 226.939274 
L 165.250627 226.863959 
L 165.901237 227.438968 
L 166.551847 227.635624 
L 167.202458 226.61913 
L 167.853068 227.085236 
L 168.503678 227.938107 
L 169.154289 227.165232 
L 169.804899 226.598334 
L 170.455509 226.518669 
L 171.75673 227.194507 
L 172.40734 226.995335 
L 173.057951 225.705972 
L 173.708561 226.495153 
L 174.359171 227.044338 
L 175.009781 226.330237 
L 175.660392 225.136545 
L 176.311002 226.390521 
L 176.961612 225.294154 
L 177.612223 225.519753 
L 178.262833 225.403186 
L 178.913443 225.923407 
L 179.564054 225.068945 
L 180.214664 225.820971 
L 180.865274 225.166781 
L 181.515885 224.940301 
L 182.166495 224.863294 
L 182.817105 224.907869 
L 183.467716 224.281377 
L 184.118326 224.139163 
L 184.768936 225.46194 
L 185.419546 224.561666 
L 186.720767 223.885554 
L 187.371377 223.942362 
L 188.021988 224.113325 
L 188.672598 224.011699 
L 189.323208 224.172849 
L 189.973819 224.048897 
L 190.624429 223.22762 
L 191.275039 223.584848 
L 191.92565 223.435476 
L 192.57626 223.937823 
L 193.22687 223.107603 
L 193.877481 222.691975 
L 194.528091 222.01807 
L 195.178701 222.443477 
L 196.479922 222.089232 
L 197.130532 223.139531 
L 197.781142 223.082317 
L 198.431753 221.822316 
L 199.082363 222.123035 
L 199.732973 222.16152 
L 200.383584 221.917504 
L 201.034194 222.20041 
L 201.684804 221.671496 
L 202.986025 221.956661 
L 203.636635 221.98608 
L 204.287246 221.300246 
L 204.937856 221.885514 
L 205.588466 221.298009 
L 206.239076 221.21553 
L 206.889687 220.657535 
L 207.540297 221.162941 
L 208.190907 220.797851 
L 209.492128 220.825476 
L 210.142738 220.803516 
L 210.793349 221.139828 
L 211.443959 221.045739 
L 212.094569 221.355261 
L 212.74518 220.302216 
L 213.39579 219.91417 
L 214.0464 220.375399 
L 215.347621 220.491653 
L 215.998231 220.292487 
L 216.648841 219.561466 
L 217.299452 219.865786 
L 217.950062 220.032131 
L 218.600672 220.443492 
L 219.251283 219.356069 
L 219.901893 219.72696 
L 220.552503 219.647295 
L 221.203114 219.008041 
L 221.853724 218.543105 
L 222.504334 218.440738 
L 223.154945 218.918525 
L 223.805555 218.632807 
L 224.456165 219.206721 
L 225.106775 218.485456 
L 225.757386 219.586851 
L 226.407996 219.86944 
L 227.709217 217.6319 
L 228.359827 217.822436 
L 229.010437 218.841816 
L 229.661048 218.741333 
L 230.962268 217.484515 
L 231.612879 217.824702 
L 232.263489 217.218869 
L 232.914099 218.957244 
L 233.56471 218.030462 
L 234.21532 217.508737 
L 234.86593 217.166449 
L 235.51654 217.261856 
L 236.167151 216.891176 
L 236.817761 217.05872 
L 238.118982 216.339415 
L 238.769592 216.438969 
L 239.420202 217.608663 
L 240.070813 217.249272 
L 240.721423 216.435689 
L 241.372033 216.057877 
L 242.022644 216.644199 
L 242.673254 216.571519 
L 243.974475 215.932575 
L 244.625085 216.008131 
L 245.275695 216.283069 
L 247.227526 216.128516 
L 247.878136 215.82423 
L 248.528747 215.765899 
L 249.179357 215.06277 
L 249.829967 215.518555 
L 250.480578 215.816412 
L 251.781798 215.104402 
L 252.432409 215.947206 
L 253.083019 216.430439 
L 253.733629 215.708075 
L 254.38424 214.501255 
L 255.03485 214.607443 
L 255.68546 215.059052 
L 256.986681 214.589183 
L 257.637291 216.247821 
L 258.287901 214.086266 
L 258.938512 215.080041 
L 259.589122 214.707839 
L 260.239732 215.379269 
L 260.890343 214.012409 
L 261.540953 214.587172 
L 263.492784 213.680455 
L 264.143394 214.211519 
L 264.794004 213.377812 
L 265.444615 214.99773 
L 266.095225 214.262847 
L 266.745835 214.721562 
L 267.396446 214.355949 
L 268.047056 213.547159 
L 268.697666 214.623298 
L 269.348277 214.564989 
L 269.998887 213.912056 
L 270.649497 213.910524 
L 271.300108 213.208105 
L 271.950718 212.953816 
L 272.601328 213.977591 
L 273.251939 213.193583 
L 273.902549 213.673914 
L 275.203769 213.346606 
L 275.85438 212.84573 
L 276.50499 212.933079 
L 277.1556 213.403893 
L 277.806211 213.22072 
L 278.456821 212.903344 
L 279.107431 213.911992 
L 279.758042 213.119083 
L 281.059262 212.663854 
L 281.709873 212.667582 
L 282.360483 212.49941 
L 283.011093 213.648015 
L 283.661704 213.087843 
L 284.312314 211.326357 
L 284.962924 212.462695 
L 285.613534 213.073199 
L 286.264145 211.696819 
L 286.914755 212.857552 
L 287.565365 212.131361 
L 288.215976 212.484296 
L 289.517196 212.920051 
L 290.167807 212.370446 
L 291.469027 212.417404 
L 292.119638 212.784209 
L 292.770248 212.467021 
L 293.420858 211.329108 
L 294.071469 211.964803 
L 294.722079 211.82854 
L 295.372689 212.700932 
L 296.023299 210.97758 
L 296.67391 211.666049 
L 297.32452 211.74726 
L 297.97513 211.485677 
L 299.276351 211.860421 
L 299.926961 212.301356 
L 300.577572 211.931373 
L 301.228182 212.150309 
L 301.878792 210.93922 
L 302.529403 211.832128 
L 303.180013 212.17429 
L 303.830623 211.156595 
L 304.481233 211.035629 
L 305.131844 211.374066 
L 305.782454 211.481609 
L 306.433064 211.232335 
L 307.083675 211.450227 
L 307.734285 211.136595 
L 308.384895 212.062646 
L 309.035506 211.097478 
L 309.686116 211.364477 
L 310.987337 211.376729 
L 311.637947 211.476666 
L 312.288557 211.387284 
L 312.939168 212.09006 
L 313.589778 210.471622 
L 314.240388 210.649254 
L 314.890998 210.261086 
L 315.541609 211.392151 
L 316.192219 212.238208 
L 316.842829 210.763916 
L 317.49344 211.132955 
L 318.14405 210.356691 
L 318.79466 209.975533 
L 319.445271 210.356517 
L 320.095881 210.957926 
L 320.746491 210.81063 
L 321.397102 210.836528 
L 322.047712 210.688958 
L 322.698322 211.132492 
L 323.348933 211.781957 
L 323.999543 211.084049 
L 324.650153 210.870626 
L 325.951374 210.703755 
L 327.252594 211.280956 
L 327.903205 210.624577 
L 328.553815 210.66596 
L 329.204425 210.011413 
L 329.855036 210.52317 
L 330.505646 209.650298 
L 331.156256 209.794989 
L 331.806867 210.819017 
L 332.457477 210.317134 
L 333.108087 209.287881 
L 333.758698 210.594252 
L 334.409308 210.169202 
L 335.059918 209.163813 
L 335.710528 210.213495 
L 336.361139 209.818506 
L 337.011749 209.975381 
L 337.662359 208.666346 
L 338.31297 210.255862 
L 338.96358 209.760794 
L 339.61419 210.586753 
L 340.264801 209.504404 
L 340.915411 210.499381 
L 342.216632 209.973748 
L 342.867242 210.705595 
L 343.517852 209.801814 
L 344.168462 209.541958 
L 344.819073 210.614848 
L 346.120293 209.878874 
L 346.770904 210.404102 
L 347.421514 209.631583 
L 348.072124 210.487166 
L 348.722735 209.529423 
L 349.373345 209.954289 
L 350.023955 209.566916 
L 350.674566 209.838516 
L 351.325176 209.985244 
L 351.975786 211.109602 
L 352.626397 208.673949 
L 353.277007 209.593078 
L 354.578227 210.19375 
L 355.228838 209.791571 
L 355.879448 209.17371 
L 356.530058 209.562586 
L 358.481889 210.057679 
L 359.1325 209.809776 
L 359.78311 209.078019 
L 360.43372 209.87559 
L 361.084331 208.608192 
L 361.734941 209.865308 
L 362.385551 208.702694 
L 363.036162 210.331373 
L 364.337382 209.79036 
L 364.987992 210.637893 
L 365.638603 209.512251 
L 366.289213 210.577787 
L 366.939823 210.924477 
L 368.241044 209.77383 
L 368.891654 210.699111 
L 369.542265 209.337193 
L 370.192875 209.526078 
L 370.843485 210.084711 
L 371.494096 210.125258 
L 372.795316 208.967585 
L 373.445927 210.2656 
L 374.096537 209.135167 
L 374.747147 208.952028 
L 375.397757 210.53721 
L 376.048368 210.181492 
L 376.698978 209.197827 
L 377.349588 209.648268 
L 378.000199 209.20938 
L 378.650809 210.133614 
L 379.301419 209.474779 
L 379.95203 208.449914 
L 380.60264 209.119083 
L 381.25325 209.266949 
L 381.903861 210.45365 
L 382.554471 209.408052 
L 383.205081 209.89049 
L 383.855691 209.444187 
L 384.506302 209.403451 
L 385.156912 209.502571 
L 385.807522 209.161396 
L 386.458133 210.603531 
L 387.108743 209.505099 
L 387.759353 209.093657 
L 388.409964 210.107152 
L 389.060574 209.920755 
L 389.711184 210.138951 
L 390.361795 209.318066 
L 391.012405 209.275693 
L 391.663015 209.996842 
L 392.313626 209.149169 
L 392.964236 209.19242 
L 393.614846 208.673298 
L 394.265456 209.12864 
L 394.916067 209.757691 
L 395.566677 209.599124 
L 396.217287 209.144995 
L 396.867898 209.689658 
L 396.867898 209.689658 
" clip-path="url(#p33009bfc58)" style="fill: none; stroke: #343084; stroke-width: 0.75; stroke-linecap: square"/>
   </g>
   <g id="line2d_15">
    <path d="M 72.213352 225.358353 
L 72.863963 225.04153 
L 73.514573 225.528329 
L 74.165183 224.594914 
L 74.815794 225.187653 
L 75.466404 224.380189 
L 76.117014 225.06981 
L 77.418235 225.455451 
L 78.068845 225.427689 
L 78.719455 225.091845 
L 80.020676 225.610741 
L 80.671286 224.913631 
L 81.321897 225.653861 
L 82.623117 226.157701 
L 83.273728 225.652709 
L 83.924338 225.673812 
L 84.574948 226.106141 
L 85.225559 226.03167 
L 85.876169 226.547613 
L 86.526779 226.574872 
L 87.177389 226.131812 
L 87.828 226.21705 
L 88.47861 225.889009 
L 89.12922 227.130472 
L 89.779831 225.959756 
L 90.430441 226.561297 
L 91.081051 225.975573 
L 91.731662 225.872901 
L 92.382272 226.830474 
L 93.032882 225.75817 
L 93.683493 226.162814 
L 94.334103 226.705711 
L 94.984713 226.548772 
L 95.635323 227.33404 
L 96.285934 227.450775 
L 96.936544 227.339955 
L 97.587154 228.045408 
L 98.237765 227.435358 
L 98.888375 227.113754 
L 99.538985 227.596944 
L 100.189596 226.913825 
L 100.840206 227.54538 
L 101.490816 227.259902 
L 102.141427 227.217568 
L 102.792037 228.089816 
L 103.442647 228.364838 
L 104.093258 228.305603 
L 104.743868 226.771075 
L 105.394478 228.446032 
L 106.695699 228.014422 
L 107.346309 228.968337 
L 107.996919 228.381415 
L 108.64753 228.328534 
L 109.29814 228.10251 
L 109.94875 229.004782 
L 111.900581 227.788884 
L 112.551192 228.511355 
L 113.201802 228.69553 
L 113.852412 228.436823 
L 114.503023 228.376818 
L 115.153633 230.16504 
L 115.804243 228.787457 
L 116.454853 229.063352 
L 117.105464 229.203165 
L 118.406684 229.81295 
L 119.057295 229.191428 
L 119.707905 229.397285 
L 120.358515 230.104183 
L 121.009126 229.264668 
L 121.659736 229.791094 
L 122.310346 230.862985 
L 122.960957 229.571831 
L 123.611567 229.251864 
L 124.262177 230.976612 
L 124.912788 230.143743 
L 125.563398 230.507727 
L 126.214008 229.119347 
L 126.864618 230.473282 
L 127.515229 231.180338 
L 128.165839 230.670656 
L 128.816449 230.599441 
L 129.46706 231.532123 
L 130.11767 230.821339 
L 130.76828 231.338574 
L 131.418891 230.955419 
L 132.069501 231.309242 
L 132.720111 230.379041 
L 133.370722 231.105591 
L 134.021332 231.641465 
L 134.671942 231.085847 
L 135.322552 231.507059 
L 135.973163 231.055758 
L 136.623773 232.491274 
L 137.274383 230.846765 
L 137.924994 232.153096 
L 138.575604 232.29852 
L 139.876825 231.953277 
L 140.527435 232.716357 
L 141.828656 232.388614 
L 142.479266 231.901775 
L 143.129876 232.692637 
L 143.780487 232.13573 
L 145.732317 233.17249 
L 146.382928 232.951481 
L 147.033538 232.965576 
L 147.684148 232.48519 
L 148.334759 233.316168 
L 148.985369 233.425497 
L 149.635979 232.962862 
L 150.28659 234.02631 
L 150.9372 233.213471 
L 151.58781 233.725529 
L 152.238421 233.450848 
L 154.190252 233.681537 
L 154.840862 234.305427 
L 155.491472 233.86899 
L 156.142082 234.018848 
L 156.792693 233.99389 
L 157.443303 234.226605 
L 158.093913 233.846837 
L 158.744524 234.83402 
L 159.395134 235.147679 
L 160.045744 234.198633 
L 160.696355 234.188575 
L 161.997575 235.614429 
L 162.648186 235.28366 
L 163.298796 235.111285 
L 163.949406 235.961237 
L 164.600017 236.021229 
L 165.250627 235.75922 
L 166.551847 235.564881 
L 167.202458 235.375415 
L 167.853068 236.057134 
L 168.503678 236.047576 
L 169.154289 235.744025 
L 170.455509 236.201539 
L 171.10612 237.522145 
L 171.75673 235.620623 
L 172.40734 237.285144 
L 173.057951 237.204636 
L 173.708561 235.94118 
L 174.359171 237.371296 
L 175.660392 236.751413 
L 176.311002 236.957201 
L 176.961612 237.553248 
L 177.612223 236.672816 
L 178.262833 237.711018 
L 178.913443 237.416406 
L 179.564054 237.561155 
L 180.214664 238.218961 
L 181.515885 236.987353 
L 182.166495 237.343312 
L 182.817105 238.351592 
L 183.467716 237.912903 
L 184.118326 238.507011 
L 184.768936 237.634572 
L 185.419546 237.895672 
L 186.070157 239.391455 
L 186.720767 239.701418 
L 187.371377 238.588794 
L 188.021988 239.109538 
L 189.323208 239.12913 
L 189.973819 239.224298 
L 190.624429 238.917179 
L 191.275039 238.203615 
L 191.92565 239.830856 
L 192.57626 239.412469 
L 193.22687 239.895377 
L 193.877481 240.089422 
L 194.528091 239.617519 
L 195.178701 240.793816 
L 195.829311 239.352962 
L 196.479922 240.07242 
L 197.130532 240.037411 
L 197.781142 240.637657 
L 198.431753 241.034323 
L 199.082363 239.962815 
L 199.732973 240.532346 
L 200.383584 240.481591 
L 201.034194 240.27288 
L 201.684804 240.890142 
L 202.986025 241.143468 
L 203.636635 242.031484 
L 204.287246 240.933349 
L 204.937856 240.944729 
L 205.588466 241.791085 
L 206.239076 241.878094 
L 206.889687 241.747674 
L 207.540297 241.748914 
L 208.190907 242.753527 
L 208.841518 242.062828 
L 209.492128 241.894912 
L 210.793349 242.898617 
L 211.443959 242.515277 
L 212.094569 242.366446 
L 213.39579 243.87333 
L 214.0464 242.473056 
L 214.69701 242.85674 
L 215.347621 242.903742 
L 215.998231 243.123501 
L 216.648841 243.011948 
L 217.299452 243.29546 
L 217.950062 242.040217 
L 218.600672 243.29935 
L 219.251283 243.161393 
L 219.901893 243.796903 
L 221.203114 244.318032 
L 221.853724 243.408014 
L 223.154945 244.61489 
L 223.805555 243.966152 
L 224.456165 243.944886 
L 225.106775 244.367818 
L 225.757386 243.504205 
L 226.407996 244.034722 
L 227.058606 244.287396 
L 227.709217 245.457786 
L 228.359827 244.549564 
L 229.010437 244.692627 
L 229.661048 245.186324 
L 230.311658 245.296254 
L 230.962268 245.072582 
L 231.612879 244.352114 
L 232.263489 244.951966 
L 232.914099 245.96263 
L 233.56471 245.762745 
L 234.21532 245.078881 
L 234.86593 245.796526 
L 235.51654 245.200197 
L 236.167151 245.439675 
L 236.817761 246.242963 
L 237.468371 246.675183 
L 238.118982 245.765934 
L 238.769592 246.534248 
L 239.420202 246.124258 
L 240.070813 245.488941 
L 241.372033 246.982071 
L 242.022644 245.932436 
L 242.673254 247.072217 
L 243.323864 246.29202 
L 243.974475 246.441147 
L 244.625085 246.749222 
L 245.275695 247.454116 
L 245.926305 246.794263 
L 246.576916 246.888956 
L 247.227526 247.116147 
L 247.878136 245.820354 
L 248.528747 247.228868 
L 249.179357 247.570126 
L 249.829967 247.432011 
L 251.131188 247.689074 
L 251.781798 247.735449 
L 252.432409 248.097882 
L 253.083019 248.07976 
L 253.733629 247.359904 
L 254.38424 247.458513 
L 255.03485 247.393885 
L 257.637291 248.220835 
L 258.287901 249.17571 
L 258.938512 248.375946 
L 259.589122 248.694071 
L 260.239732 247.989881 
L 260.890343 248.123711 
L 261.540953 248.68429 
L 262.191563 248.34146 
L 262.842174 248.546524 
L 263.492784 247.953343 
L 264.143394 249.382554 
L 264.794004 249.370303 
L 265.444615 249.187571 
L 266.095225 248.678673 
L 266.745835 248.458025 
L 267.396446 249.415793 
L 268.047056 249.524645 
L 268.697666 249.096336 
L 269.348277 249.146592 
L 269.998887 249.455144 
L 270.649497 249.187079 
L 271.300108 249.610286 
L 271.950718 249.781302 
L 272.601328 248.848477 
L 273.251939 249.731348 
L 273.902549 249.323668 
L 274.553159 249.471653 
L 275.203769 250.164253 
L 275.85438 249.49925 
L 277.1556 249.66946 
L 277.806211 250.184131 
L 278.456821 249.233834 
L 279.107431 249.870902 
L 279.758042 249.265357 
L 280.408652 250.29524 
L 281.059262 250.897688 
L 282.360483 249.725151 
L 283.011093 250.086069 
L 283.661704 249.706948 
L 284.312314 249.993369 
L 284.962924 250.696075 
L 285.613534 250.03714 
L 286.264145 250.605881 
L 286.914755 250.406937 
L 287.565365 249.691787 
L 288.215976 250.125549 
L 288.866586 250.308194 
L 289.517196 251.197652 
L 290.167807 250.734955 
L 290.818417 250.997402 
L 291.469027 251.845347 
L 292.119638 250.293694 
L 292.770248 251.342768 
L 293.420858 249.734081 
L 294.071469 252.057796 
L 294.722079 250.797712 
L 295.372689 251.153285 
L 296.023299 251.125688 
L 296.67391 250.883227 
L 297.32452 251.371208 
L 297.97513 250.991389 
L 298.625741 251.313755 
L 299.276351 251.298065 
L 299.926961 251.037447 
L 300.577572 250.599176 
L 301.228182 250.599716 
L 301.878792 251.65265 
L 302.529403 251.309175 
L 303.180013 251.130142 
L 304.481233 251.286106 
L 305.131844 252.022579 
L 305.782454 251.733813 
L 306.433064 251.81295 
L 307.734285 251.427444 
L 308.384895 252.271124 
L 309.035506 251.150661 
L 309.686116 251.602471 
L 310.336726 252.295369 
L 311.637947 252.128514 
L 312.288557 251.497725 
L 312.939168 252.160312 
L 313.589778 252.209492 
L 314.240388 252.098632 
L 314.890998 252.155217 
L 315.541609 251.648862 
L 316.192219 251.876806 
L 316.842829 252.390429 
L 317.49344 251.984054 
L 318.14405 253.404662 
L 318.79466 252.241575 
L 319.445271 252.343055 
L 320.095881 252.983465 
L 320.746491 253.158975 
L 321.397102 252.107988 
L 322.047712 252.549533 
L 322.698322 252.043303 
L 323.348933 252.285504 
L 323.999543 252.021543 
L 324.650153 252.252108 
L 325.300763 252.830705 
L 325.951374 252.597567 
L 326.601984 251.025333 
L 327.252594 252.826316 
L 327.903205 252.200955 
L 328.553815 252.728886 
L 329.204425 252.21722 
L 330.505646 252.730853 
L 331.156256 251.881471 
L 331.806867 252.559745 
L 332.457477 253.559475 
L 333.108087 252.172668 
L 333.758698 252.4362 
L 334.409308 252.138834 
L 335.059918 253.020601 
L 335.710528 253.122621 
L 336.361139 253.546961 
L 337.011749 252.226723 
L 337.662359 252.085327 
L 338.31297 252.569153 
L 338.96358 251.771708 
L 339.61419 252.816173 
L 340.264801 252.880012 
L 340.915411 253.194222 
L 341.566021 251.943151 
L 342.867242 253.147798 
L 343.517852 252.511823 
L 344.168462 253.626703 
L 344.819073 252.549411 
L 345.469683 253.549503 
L 346.120293 252.836188 
L 346.770904 252.906931 
L 347.421514 253.851718 
L 348.722735 252.79099 
L 349.373345 254.213931 
L 350.023955 253.321098 
L 350.674566 252.838705 
L 351.325176 252.171055 
L 351.975786 252.980022 
L 352.626397 252.736029 
L 353.277007 251.962316 
L 353.927617 252.899517 
L 355.228838 253.356237 
L 356.530058 253.034485 
L 357.180669 252.674183 
L 357.831279 253.003335 
L 358.481889 253.007795 
L 359.1325 253.634556 
L 359.78311 253.170229 
L 360.43372 252.927958 
L 361.084331 253.4063 
L 361.734941 253.362485 
L 362.385551 253.153949 
L 363.036162 253.863295 
L 363.686772 253.346345 
L 364.337382 252.587359 
L 364.987992 253.41111 
L 365.638603 253.554518 
L 366.289213 253.491513 
L 366.939823 253.117432 
L 368.241044 252.801 
L 368.891654 253.373261 
L 369.542265 252.857578 
L 370.192875 253.69203 
L 370.843485 252.930584 
L 371.494096 252.831701 
L 372.144706 253.613626 
L 372.795316 253.01474 
L 373.445927 252.832372 
L 374.747147 253.2185 
L 375.397757 253.073706 
L 376.048368 253.845385 
L 376.698978 253.420833 
L 377.349588 253.868404 
L 378.000199 253.514055 
L 378.650809 253.701265 
L 379.301419 253.101378 
L 379.95203 252.889199 
L 380.60264 252.826845 
L 381.903861 253.397069 
L 382.554471 252.852414 
L 383.205081 253.50453 
L 383.855691 253.67573 
L 385.807522 253.545479 
L 386.458133 252.474859 
L 387.108743 253.549588 
L 387.759353 254.061008 
L 388.409964 252.952815 
L 389.711184 254.052748 
L 390.361795 253.782437 
L 391.012405 253.324247 
L 391.663015 253.669652 
L 392.313626 254.302308 
L 392.964236 253.672528 
L 393.614846 253.529999 
L 394.265456 253.993221 
L 394.916067 252.967655 
L 395.566677 253.523722 
L 396.217287 253.45745 
L 396.867898 252.769532 
L 396.867898 252.769532 
" clip-path="url(#p33009bfc58)" style="fill: none; stroke: #343084; stroke-width: 0.75; stroke-linecap: square"/>
   </g>
   <g id="patch_3">
    <path d="M 55.980625 273.312 
L 55.980625 7.2 
" style="fill: none; stroke: #000000; stroke-width: 0.8; stroke-linejoin: miter; stroke-linecap: square"/>
   </g>
   <g id="patch_4">
    <path d="M 55.980625 273.312 
L 413.100625 273.312 
" style="fill: none; stroke: #000000; stroke-width: 0.8; stroke-linejoin: miter; stroke-linecap: square"/>
   </g>
  </g>
 </g>
 <defs>
  <clipPath id="p33009bfc58">
   <rect x="55.980625" y="7.2" width="357.12" height="266.112"/>
  </clipPath>
 </defs>
</svg>
