<?xml version="1.0" encoding="utf-8" standalone="no"?>
<!DOCTYPE svg PUBLIC "-//W3C//DTD SVG 1.1//EN"
  "http://www.w3.org/Graphics/SVG/1.1/DTD/svg11.dtd">
<svg xmlns:xlink="http://www.w3.org/1999/xlink" width="576pt" height="432pt" viewBox="0 0 576 432" xmlns="http://www.w3.org/2000/svg" version="1.1">
 <metadata>
  <rdf:RDF xmlns:dc="http://purl.org/dc/elements/1.1/" xmlns:cc="http://creativecommons.org/ns#" xmlns:rdf="http://www.w3.org/1999/02/22-rdf-syntax-ns#">
   <cc:Work>
    <dc:type rdf:resource="http://purl.org/dc/dcmitype/StillImage"/>
    <dc:date>2025-02-17T23:05:46.756151</dc:date>
    <dc:format>image/svg+xml</dc:format>
    <dc:creator>
     <cc:Agent>
      <dc:title>Matplotlib v3.8.4, https://matplotlib.org/</dc:title>
     </cc:Agent>
    </dc:creator>
   </cc:Work>
  </rdf:RDF>
 </metadata>
 <defs>
  <style type="text/css">*{stroke-linejoin: round; stroke-linecap: butt}</style>
 </defs>
 <g id="figure_1">
  <g id="patch_1">
   <path d="M 0 432 
L 576 432 
L 576 0 
L 0 0 
z
" style="fill: #ffffff"/>
  </g>
  <g id="axes_1">
   <g id="patch_2">
    <path d="M 72 384.48 
L 518.4 384.48 
L 518.4 51.84 
L 72 51.84 
z
" style="fill: #ffffff"/>
   </g>
   <g id="matplotlib.axis_1">
    <g id="xtick_1">
     <g id="line2d_1">
      <path d="M 72 384.48 
L 72 51.84 
" clip-path="url(#pea950c962f)" style="fill: none; stroke: #b0b0b0; stroke-width: 0.8; stroke-linecap: square"/>
     </g>
     <g id="line2d_2">
      <defs>
       <path id="m88a51c2ba5" d="M 0 0 
L 0 3.5 
" style="stroke: #000000; stroke-width: 0.8"/>
      </defs>
      <g>
       <use xlink:href="#m88a51c2ba5" x="72" y="384.48" style="stroke: #000000; stroke-width: 0.8"/>
      </g>
     </g>
     <g id="text_1">
      <!-- 0 -->
      <g transform="translate(68.81875 399.078438) scale(0.1 -0.1)">
       <defs>
        <path id="DejaVuSans-30" d="M 2034 4250 
Q 1547 4250 1301 3770 
Q 1056 3291 1056 2328 
Q 1056 1369 1301 889 
Q 1547 409 2034 409 
Q 2525 409 2770 889 
Q 3016 1369 3016 2328 
Q 3016 3291 2770 3770 
Q 2525 4250 2034 4250 
z
M 2034 4750 
Q 2819 4750 3233 4129 
Q 3647 3509 3647 2328 
Q 3647 1150 3233 529 
Q 2819 -91 2034 -91 
Q 1250 -91 836 529 
Q 422 1150 422 2328 
Q 422 3509 836 4129 
Q 1250 4750 2034 4750 
z
" transform="scale(0.015625)"/>
       </defs>
       <use xlink:href="#DejaVuSans-30"/>
      </g>
     </g>
    </g>
    <g id="xtick_2">
     <g id="line2d_3">
      <path d="M 161.28 384.48 
L 161.28 51.84 
" clip-path="url(#pea950c962f)" style="fill: none; stroke: #b0b0b0; stroke-width: 0.8; stroke-linecap: square"/>
     </g>
     <g id="line2d_4">
      <g>
       <use xlink:href="#m88a51c2ba5" x="161.28" y="384.48" style="stroke: #000000; stroke-width: 0.8"/>
      </g>
     </g>
     <g id="text_2">
      <!-- 2 -->
      <g transform="translate(158.09875 399.078438) scale(0.1 -0.1)">
       <defs>
        <path id="DejaVuSans-32" d="M 1228 531 
L 3431 531 
L 3431 0 
L 469 0 
L 469 531 
Q 828 903 1448 1529 
Q 2069 2156 2228 2338 
Q 2531 2678 2651 2914 
Q 2772 3150 2772 3378 
Q 2772 3750 2511 3984 
Q 2250 4219 1831 4219 
Q 1534 4219 1204 4116 
Q 875 4013 500 3803 
L 500 4441 
Q 881 4594 1212 4672 
Q 1544 4750 1819 4750 
Q 2544 4750 2975 4387 
Q 3406 4025 3406 3419 
Q 3406 3131 3298 2873 
Q 3191 2616 2906 2266 
Q 2828 2175 2409 1742 
Q 1991 1309 1228 531 
z
" transform="scale(0.015625)"/>
       </defs>
       <use xlink:href="#DejaVuSans-32"/>
      </g>
     </g>
    </g>
    <g id="xtick_3">
     <g id="line2d_5">
      <path d="M 250.56 384.48 
L 250.56 51.84 
" clip-path="url(#pea950c962f)" style="fill: none; stroke: #b0b0b0; stroke-width: 0.8; stroke-linecap: square"/>
     </g>
     <g id="line2d_6">
      <g>
       <use xlink:href="#m88a51c2ba5" x="250.56" y="384.48" style="stroke: #000000; stroke-width: 0.8"/>
      </g>
     </g>
     <g id="text_3">
      <!-- 4 -->
      <g transform="translate(247.37875 399.078438) scale(0.1 -0.1)">
       <defs>
        <path id="DejaVuSans-34" d="M 2419 4116 
L 825 1625 
L 2419 1625 
L 2419 4116 
z
M 2253 4666 
L 3047 4666 
L 3047 1625 
L 3713 1625 
L 3713 1100 
L 3047 1100 
L 3047 0 
L 2419 0 
L 2419 1100 
L 313 1100 
L 313 1709 
L 2253 4666 
z
" transform="scale(0.015625)"/>
       </defs>
       <use xlink:href="#DejaVuSans-34"/>
      </g>
     </g>
    </g>
    <g id="xtick_4">
     <g id="line2d_7">
      <path d="M 339.84 384.48 
L 339.84 51.84 
" clip-path="url(#pea950c962f)" style="fill: none; stroke: #b0b0b0; stroke-width: 0.8; stroke-linecap: square"/>
     </g>
     <g id="line2d_8">
      <g>
       <use xlink:href="#m88a51c2ba5" x="339.84" y="384.48" style="stroke: #000000; stroke-width: 0.8"/>
      </g>
     </g>
     <g id="text_4">
      <!-- 6 -->
      <g transform="translate(336.65875 399.078438) scale(0.1 -0.1)">
       <defs>
        <path id="DejaVuSans-36" d="M 2113 2584 
Q 1688 2584 1439 2293 
Q 1191 2003 1191 1497 
Q 1191 994 1439 701 
Q 1688 409 2113 409 
Q 2538 409 2786 701 
Q 3034 994 3034 1497 
Q 3034 2003 2786 2293 
Q 2538 2584 2113 2584 
z
M 3366 4563 
L 3366 3988 
Q 3128 4100 2886 4159 
Q 2644 4219 2406 4219 
Q 1781 4219 1451 3797 
Q 1122 3375 1075 2522 
Q 1259 2794 1537 2939 
Q 1816 3084 2150 3084 
Q 2853 3084 3261 2657 
Q 3669 2231 3669 1497 
Q 3669 778 3244 343 
Q 2819 -91 2113 -91 
Q 1303 -91 875 529 
Q 447 1150 447 2328 
Q 447 3434 972 4092 
Q 1497 4750 2381 4750 
Q 2619 4750 2861 4703 
Q 3103 4656 3366 4563 
z
" transform="scale(0.015625)"/>
       </defs>
       <use xlink:href="#DejaVuSans-36"/>
      </g>
     </g>
    </g>
    <g id="xtick_5">
     <g id="line2d_9">
      <path d="M 429.12 384.48 
L 429.12 51.84 
" clip-path="url(#pea950c962f)" style="fill: none; stroke: #b0b0b0; stroke-width: 0.8; stroke-linecap: square"/>
     </g>
     <g id="line2d_10">
      <g>
       <use xlink:href="#m88a51c2ba5" x="429.12" y="384.48" style="stroke: #000000; stroke-width: 0.8"/>
      </g>
     </g>
     <g id="text_5">
      <!-- 8 -->
      <g transform="translate(425.93875 399.078438) scale(0.1 -0.1)">
       <defs>
        <path id="DejaVuSans-38" d="M 2034 2216 
Q 1584 2216 1326 1975 
Q 1069 1734 1069 1313 
Q 1069 891 1326 650 
Q 1584 409 2034 409 
Q 2484 409 2743 651 
Q 3003 894 3003 1313 
Q 3003 1734 2745 1975 
Q 2488 2216 2034 2216 
z
M 1403 2484 
Q 997 2584 770 2862 
Q 544 3141 544 3541 
Q 544 4100 942 4425 
Q 1341 4750 2034 4750 
Q 2731 4750 3128 4425 
Q 3525 4100 3525 3541 
Q 3525 3141 3298 2862 
Q 3072 2584 2669 2484 
Q 3125 2378 3379 2068 
Q 3634 1759 3634 1313 
Q 3634 634 3220 271 
Q 2806 -91 2034 -91 
Q 1263 -91 848 271 
Q 434 634 434 1313 
Q 434 1759 690 2068 
Q 947 2378 1403 2484 
z
M 1172 3481 
Q 1172 3119 1398 2916 
Q 1625 2713 2034 2713 
Q 2441 2713 2670 2916 
Q 2900 3119 2900 3481 
Q 2900 3844 2670 4047 
Q 2441 4250 2034 4250 
Q 1625 4250 1398 4047 
Q 1172 3844 1172 3481 
z
" transform="scale(0.015625)"/>
       </defs>
       <use xlink:href="#DejaVuSans-38"/>
      </g>
     </g>
    </g>
    <g id="xtick_6">
     <g id="line2d_11">
      <path d="M 518.4 384.48 
L 518.4 51.84 
" clip-path="url(#pea950c962f)" style="fill: none; stroke: #b0b0b0; stroke-width: 0.8; stroke-linecap: square"/>
     </g>
     <g id="line2d_12">
      <g>
       <use xlink:href="#m88a51c2ba5" x="518.4" y="384.48" style="stroke: #000000; stroke-width: 0.8"/>
      </g>
     </g>
     <g id="text_6">
      <!-- 10 -->
      <g transform="translate(512.0375 399.078438) scale(0.1 -0.1)">
       <defs>
        <path id="DejaVuSans-31" d="M 794 531 
L 1825 531 
L 1825 4091 
L 703 3866 
L 703 4441 
L 1819 4666 
L 2450 4666 
L 2450 531 
L 3481 531 
L 3481 0 
L 794 0 
L 794 531 
z
" transform="scale(0.015625)"/>
       </defs>
       <use xlink:href="#DejaVuSans-31"/>
       <use xlink:href="#DejaVuSans-30" x="63.623047"/>
      </g>
     </g>
    </g>
    <g id="text_7">
     <!-- Noise % -->
     <g transform="translate(274.989844 412.756563) scale(0.1 -0.1)">
      <defs>
       <path id="DejaVuSans-4e" d="M 628 4666 
L 1478 4666 
L 3547 763 
L 3547 4666 
L 4159 4666 
L 4159 0 
L 3309 0 
L 1241 3903 
L 1241 0 
L 628 0 
L 628 4666 
z
" transform="scale(0.015625)"/>
       <path id="DejaVuSans-6f" d="M 1959 3097 
Q 1497 3097 1228 2736 
Q 959 2375 959 1747 
Q 959 1119 1226 758 
Q 1494 397 1959 397 
Q 2419 397 2687 759 
Q 2956 1122 2956 1747 
Q 2956 2369 2687 2733 
Q 2419 3097 1959 3097 
z
M 1959 3584 
Q 2709 3584 3137 3096 
Q 3566 2609 3566 1747 
Q 3566 888 3137 398 
Q 2709 -91 1959 -91 
Q 1206 -91 779 398 
Q 353 888 353 1747 
Q 353 2609 779 3096 
Q 1206 3584 1959 3584 
z
" transform="scale(0.015625)"/>
       <path id="DejaVuSans-69" d="M 603 3500 
L 1178 3500 
L 1178 0 
L 603 0 
L 603 3500 
z
M 603 4863 
L 1178 4863 
L 1178 4134 
L 603 4134 
L 603 4863 
z
" transform="scale(0.015625)"/>
       <path id="DejaVuSans-73" d="M 2834 3397 
L 2834 2853 
Q 2591 2978 2328 3040 
Q 2066 3103 1784 3103 
Q 1356 3103 1142 2972 
Q 928 2841 928 2578 
Q 928 2378 1081 2264 
Q 1234 2150 1697 2047 
L 1894 2003 
Q 2506 1872 2764 1633 
Q 3022 1394 3022 966 
Q 3022 478 2636 193 
Q 2250 -91 1575 -91 
Q 1294 -91 989 -36 
Q 684 19 347 128 
L 347 722 
Q 666 556 975 473 
Q 1284 391 1588 391 
Q 1994 391 2212 530 
Q 2431 669 2431 922 
Q 2431 1156 2273 1281 
Q 2116 1406 1581 1522 
L 1381 1569 
Q 847 1681 609 1914 
Q 372 2147 372 2553 
Q 372 3047 722 3315 
Q 1072 3584 1716 3584 
Q 2034 3584 2315 3537 
Q 2597 3491 2834 3397 
z
" transform="scale(0.015625)"/>
       <path id="DejaVuSans-65" d="M 3597 1894 
L 3597 1613 
L 953 1613 
Q 991 1019 1311 708 
Q 1631 397 2203 397 
Q 2534 397 2845 478 
Q 3156 559 3463 722 
L 3463 178 
Q 3153 47 2828 -22 
Q 2503 -91 2169 -91 
Q 1331 -91 842 396 
Q 353 884 353 1716 
Q 353 2575 817 3079 
Q 1281 3584 2069 3584 
Q 2775 3584 3186 3129 
Q 3597 2675 3597 1894 
z
M 3022 2063 
Q 3016 2534 2758 2815 
Q 2500 3097 2075 3097 
Q 1594 3097 1305 2825 
Q 1016 2553 972 2059 
L 3022 2063 
z
" transform="scale(0.015625)"/>
       <path id="DejaVuSans-20" transform="scale(0.015625)"/>
       <path id="DejaVuSans-25" d="M 4653 2053 
Q 4381 2053 4226 1822 
Q 4072 1591 4072 1178 
Q 4072 772 4226 539 
Q 4381 306 4653 306 
Q 4919 306 5073 539 
Q 5228 772 5228 1178 
Q 5228 1588 5073 1820 
Q 4919 2053 4653 2053 
z
M 4653 2450 
Q 5147 2450 5437 2106 
Q 5728 1763 5728 1178 
Q 5728 594 5436 251 
Q 5144 -91 4653 -91 
Q 4153 -91 3862 251 
Q 3572 594 3572 1178 
Q 3572 1766 3864 2108 
Q 4156 2450 4653 2450 
z
M 1428 4353 
Q 1159 4353 1004 4120 
Q 850 3888 850 3481 
Q 850 3069 1003 2837 
Q 1156 2606 1428 2606 
Q 1700 2606 1854 2837 
Q 2009 3069 2009 3481 
Q 2009 3884 1853 4118 
Q 1697 4353 1428 4353 
z
M 4250 4750 
L 4750 4750 
L 1831 -91 
L 1331 -91 
L 4250 4750 
z
M 1428 4750 
Q 1922 4750 2215 4408 
Q 2509 4066 2509 3481 
Q 2509 2891 2217 2550 
Q 1925 2209 1428 2209 
Q 931 2209 642 2551 
Q 353 2894 353 3481 
Q 353 4063 643 4406 
Q 934 4750 1428 4750 
z
" transform="scale(0.015625)"/>
      </defs>
      <use xlink:href="#DejaVuSans-4e"/>
      <use xlink:href="#DejaVuSans-6f" x="74.804688"/>
      <use xlink:href="#DejaVuSans-69" x="135.986328"/>
      <use xlink:href="#DejaVuSans-73" x="163.769531"/>
      <use xlink:href="#DejaVuSans-65" x="215.869141"/>
      <use xlink:href="#DejaVuSans-20" x="277.392578"/>
      <use xlink:href="#DejaVuSans-25" x="309.179688"/>
     </g>
    </g>
   </g>
   <g id="matplotlib.axis_2">
    <g id="ytick_1">
     <g id="line2d_13">
      <path d="M 72 369.274548 
L 518.4 369.274548 
" clip-path="url(#pea950c962f)" style="fill: none; stroke: #b0b0b0; stroke-width: 0.8; stroke-linecap: square"/>
     </g>
     <g id="line2d_14">
      <defs>
       <path id="m837130e0a4" d="M 0 0 
L -3.5 0 
" style="stroke: #000000; stroke-width: 0.8"/>
      </defs>
      <g>
       <use xlink:href="#m837130e0a4" x="72" y="369.274548" style="stroke: #000000; stroke-width: 0.8"/>
      </g>
     </g>
     <g id="text_8">
      <!-- −6 -->
      <g transform="translate(50.257812 373.073766) scale(0.1 -0.1)">
       <defs>
        <path id="DejaVuSans-2212" d="M 678 2272 
L 4684 2272 
L 4684 1741 
L 678 1741 
L 678 2272 
z
" transform="scale(0.015625)"/>
       </defs>
       <use xlink:href="#DejaVuSans-2212"/>
       <use xlink:href="#DejaVuSans-36" x="83.789062"/>
      </g>
     </g>
    </g>
    <g id="ytick_2">
     <g id="line2d_15">
      <path d="M 72 319.715185 
L 518.4 319.715185 
" clip-path="url(#pea950c962f)" style="fill: none; stroke: #b0b0b0; stroke-width: 0.8; stroke-linecap: square"/>
     </g>
     <g id="line2d_16">
      <g>
       <use xlink:href="#m837130e0a4" x="72" y="319.715185" style="stroke: #000000; stroke-width: 0.8"/>
      </g>
     </g>
     <g id="text_9">
      <!-- −4 -->
      <g transform="translate(50.257812 323.514404) scale(0.1 -0.1)">
       <use xlink:href="#DejaVuSans-2212"/>
       <use xlink:href="#DejaVuSans-34" x="83.789062"/>
      </g>
     </g>
    </g>
    <g id="ytick_3">
     <g id="line2d_17">
      <path d="M 72 270.155823 
L 518.4 270.155823 
" clip-path="url(#pea950c962f)" style="fill: none; stroke: #b0b0b0; stroke-width: 0.8; stroke-linecap: square"/>
     </g>
     <g id="line2d_18">
      <g>
       <use xlink:href="#m837130e0a4" x="72" y="270.155823" style="stroke: #000000; stroke-width: 0.8"/>
      </g>
     </g>
     <g id="text_10">
      <!-- −2 -->
      <g transform="translate(50.257812 273.955042) scale(0.1 -0.1)">
       <use xlink:href="#DejaVuSans-2212"/>
       <use xlink:href="#DejaVuSans-32" x="83.789062"/>
      </g>
     </g>
    </g>
    <g id="ytick_4">
     <g id="line2d_19">
      <path d="M 72 220.596461 
L 518.4 220.596461 
" clip-path="url(#pea950c962f)" style="fill: none; stroke: #b0b0b0; stroke-width: 0.8; stroke-linecap: square"/>
     </g>
     <g id="line2d_20">
      <g>
       <use xlink:href="#m837130e0a4" x="72" y="220.596461" style="stroke: #000000; stroke-width: 0.8"/>
      </g>
     </g>
     <g id="text_11">
      <!-- 0 -->
      <g transform="translate(58.6375 224.39568) scale(0.1 -0.1)">
       <use xlink:href="#DejaVuSans-30"/>
      </g>
     </g>
    </g>
    <g id="ytick_5">
     <g id="line2d_21">
      <path d="M 72 171.037099 
L 518.4 171.037099 
" clip-path="url(#pea950c962f)" style="fill: none; stroke: #b0b0b0; stroke-width: 0.8; stroke-linecap: square"/>
     </g>
     <g id="line2d_22">
      <g>
       <use xlink:href="#m837130e0a4" x="72" y="171.037099" style="stroke: #000000; stroke-width: 0.8"/>
      </g>
     </g>
     <g id="text_12">
      <!-- 2 -->
      <g transform="translate(58.6375 174.836317) scale(0.1 -0.1)">
       <use xlink:href="#DejaVuSans-32"/>
      </g>
     </g>
    </g>
    <g id="ytick_6">
     <g id="line2d_23">
      <path d="M 72 121.477736 
L 518.4 121.477736 
" clip-path="url(#pea950c962f)" style="fill: none; stroke: #b0b0b0; stroke-width: 0.8; stroke-linecap: square"/>
     </g>
     <g id="line2d_24">
      <g>
       <use xlink:href="#m837130e0a4" x="72" y="121.477736" style="stroke: #000000; stroke-width: 0.8"/>
      </g>
     </g>
     <g id="text_13">
      <!-- 4 -->
      <g transform="translate(58.6375 125.276955) scale(0.1 -0.1)">
       <use xlink:href="#DejaVuSans-34"/>
      </g>
     </g>
    </g>
    <g id="ytick_7">
     <g id="line2d_25">
      <path d="M 72 71.918374 
L 518.4 71.918374 
" clip-path="url(#pea950c962f)" style="fill: none; stroke: #b0b0b0; stroke-width: 0.8; stroke-linecap: square"/>
     </g>
     <g id="line2d_26">
      <g>
       <use xlink:href="#m837130e0a4" x="72" y="71.918374" style="stroke: #000000; stroke-width: 0.8"/>
      </g>
     </g>
     <g id="text_14">
      <!-- 6 -->
      <g transform="translate(58.6375 75.717593) scale(0.1 -0.1)">
       <use xlink:href="#DejaVuSans-36"/>
      </g>
     </g>
    </g>
    <g id="text_15">
     <!-- Number of points per IC -->
     <g transform="translate(44.178125 278.050625) rotate(-90) scale(0.1 -0.1)">
      <defs>
       <path id="DejaVuSans-75" d="M 544 1381 
L 544 3500 
L 1119 3500 
L 1119 1403 
Q 1119 906 1312 657 
Q 1506 409 1894 409 
Q 2359 409 2629 706 
Q 2900 1003 2900 1516 
L 2900 3500 
L 3475 3500 
L 3475 0 
L 2900 0 
L 2900 538 
Q 2691 219 2414 64 
Q 2138 -91 1772 -91 
Q 1169 -91 856 284 
Q 544 659 544 1381 
z
M 1991 3584 
L 1991 3584 
z
" transform="scale(0.015625)"/>
       <path id="DejaVuSans-6d" d="M 3328 2828 
Q 3544 3216 3844 3400 
Q 4144 3584 4550 3584 
Q 5097 3584 5394 3201 
Q 5691 2819 5691 2113 
L 5691 0 
L 5113 0 
L 5113 2094 
Q 5113 2597 4934 2840 
Q 4756 3084 4391 3084 
Q 3944 3084 3684 2787 
Q 3425 2491 3425 1978 
L 3425 0 
L 2847 0 
L 2847 2094 
Q 2847 2600 2669 2842 
Q 2491 3084 2119 3084 
Q 1678 3084 1418 2786 
Q 1159 2488 1159 1978 
L 1159 0 
L 581 0 
L 581 3500 
L 1159 3500 
L 1159 2956 
Q 1356 3278 1631 3431 
Q 1906 3584 2284 3584 
Q 2666 3584 2933 3390 
Q 3200 3197 3328 2828 
z
" transform="scale(0.015625)"/>
       <path id="DejaVuSans-62" d="M 3116 1747 
Q 3116 2381 2855 2742 
Q 2594 3103 2138 3103 
Q 1681 3103 1420 2742 
Q 1159 2381 1159 1747 
Q 1159 1113 1420 752 
Q 1681 391 2138 391 
Q 2594 391 2855 752 
Q 3116 1113 3116 1747 
z
M 1159 2969 
Q 1341 3281 1617 3432 
Q 1894 3584 2278 3584 
Q 2916 3584 3314 3078 
Q 3713 2572 3713 1747 
Q 3713 922 3314 415 
Q 2916 -91 2278 -91 
Q 1894 -91 1617 61 
Q 1341 213 1159 525 
L 1159 0 
L 581 0 
L 581 4863 
L 1159 4863 
L 1159 2969 
z
" transform="scale(0.015625)"/>
       <path id="DejaVuSans-72" d="M 2631 2963 
Q 2534 3019 2420 3045 
Q 2306 3072 2169 3072 
Q 1681 3072 1420 2755 
Q 1159 2438 1159 1844 
L 1159 0 
L 581 0 
L 581 3500 
L 1159 3500 
L 1159 2956 
Q 1341 3275 1631 3429 
Q 1922 3584 2338 3584 
Q 2397 3584 2469 3576 
Q 2541 3569 2628 3553 
L 2631 2963 
z
" transform="scale(0.015625)"/>
       <path id="DejaVuSans-66" d="M 2375 4863 
L 2375 4384 
L 1825 4384 
Q 1516 4384 1395 4259 
Q 1275 4134 1275 3809 
L 1275 3500 
L 2222 3500 
L 2222 3053 
L 1275 3053 
L 1275 0 
L 697 0 
L 697 3053 
L 147 3053 
L 147 3500 
L 697 3500 
L 697 3744 
Q 697 4328 969 4595 
Q 1241 4863 1831 4863 
L 2375 4863 
z
" transform="scale(0.015625)"/>
       <path id="DejaVuSans-70" d="M 1159 525 
L 1159 -1331 
L 581 -1331 
L 581 3500 
L 1159 3500 
L 1159 2969 
Q 1341 3281 1617 3432 
Q 1894 3584 2278 3584 
Q 2916 3584 3314 3078 
Q 3713 2572 3713 1747 
Q 3713 922 3314 415 
Q 2916 -91 2278 -91 
Q 1894 -91 1617 61 
Q 1341 213 1159 525 
z
M 3116 1747 
Q 3116 2381 2855 2742 
Q 2594 3103 2138 3103 
Q 1681 3103 1420 2742 
Q 1159 2381 1159 1747 
Q 1159 1113 1420 752 
Q 1681 391 2138 391 
Q 2594 391 2855 752 
Q 3116 1113 3116 1747 
z
" transform="scale(0.015625)"/>
       <path id="DejaVuSans-6e" d="M 3513 2113 
L 3513 0 
L 2938 0 
L 2938 2094 
Q 2938 2591 2744 2837 
Q 2550 3084 2163 3084 
Q 1697 3084 1428 2787 
Q 1159 2491 1159 1978 
L 1159 0 
L 581 0 
L 581 3500 
L 1159 3500 
L 1159 2956 
Q 1366 3272 1645 3428 
Q 1925 3584 2291 3584 
Q 2894 3584 3203 3211 
Q 3513 2838 3513 2113 
z
" transform="scale(0.015625)"/>
       <path id="DejaVuSans-74" d="M 1172 4494 
L 1172 3500 
L 2356 3500 
L 2356 3053 
L 1172 3053 
L 1172 1153 
Q 1172 725 1289 603 
Q 1406 481 1766 481 
L 2356 481 
L 2356 0 
L 1766 0 
Q 1100 0 847 248 
Q 594 497 594 1153 
L 594 3053 
L 172 3053 
L 172 3500 
L 594 3500 
L 594 4494 
L 1172 4494 
z
" transform="scale(0.015625)"/>
       <path id="DejaVuSans-49" d="M 628 4666 
L 1259 4666 
L 1259 0 
L 628 0 
L 628 4666 
z
" transform="scale(0.015625)"/>
       <path id="DejaVuSans-43" d="M 4122 4306 
L 4122 3641 
Q 3803 3938 3442 4084 
Q 3081 4231 2675 4231 
Q 1875 4231 1450 3742 
Q 1025 3253 1025 2328 
Q 1025 1406 1450 917 
Q 1875 428 2675 428 
Q 3081 428 3442 575 
Q 3803 722 4122 1019 
L 4122 359 
Q 3791 134 3420 21 
Q 3050 -91 2638 -91 
Q 1578 -91 968 557 
Q 359 1206 359 2328 
Q 359 3453 968 4101 
Q 1578 4750 2638 4750 
Q 3056 4750 3426 4639 
Q 3797 4528 4122 4306 
z
" transform="scale(0.015625)"/>
      </defs>
      <use xlink:href="#DejaVuSans-4e"/>
      <use xlink:href="#DejaVuSans-75" x="74.804688"/>
      <use xlink:href="#DejaVuSans-6d" x="138.183594"/>
      <use xlink:href="#DejaVuSans-62" x="235.595703"/>
      <use xlink:href="#DejaVuSans-65" x="299.072266"/>
      <use xlink:href="#DejaVuSans-72" x="360.595703"/>
      <use xlink:href="#DejaVuSans-20" x="401.708984"/>
      <use xlink:href="#DejaVuSans-6f" x="433.496094"/>
      <use xlink:href="#DejaVuSans-66" x="494.677734"/>
      <use xlink:href="#DejaVuSans-20" x="529.882812"/>
      <use xlink:href="#DejaVuSans-70" x="561.669922"/>
      <use xlink:href="#DejaVuSans-6f" x="625.146484"/>
      <use xlink:href="#DejaVuSans-69" x="686.328125"/>
      <use xlink:href="#DejaVuSans-6e" x="714.111328"/>
      <use xlink:href="#DejaVuSans-74" x="777.490234"/>
      <use xlink:href="#DejaVuSans-73" x="816.699219"/>
      <use xlink:href="#DejaVuSans-20" x="868.798828"/>
      <use xlink:href="#DejaVuSans-70" x="900.585938"/>
      <use xlink:href="#DejaVuSans-65" x="964.0625"/>
      <use xlink:href="#DejaVuSans-72" x="1025.585938"/>
      <use xlink:href="#DejaVuSans-20" x="1066.699219"/>
      <use xlink:href="#DejaVuSans-49" x="1098.486328"/>
      <use xlink:href="#DejaVuSans-43" x="1127.978516"/>
     </g>
    </g>
   </g>
   <g id="line2d_27">
    <path d="M 72 122.010914 
L 76.509091 127.164772 
L 81.018182 161.935247 
L 85.527273 158.073134 
L 90.036364 126.923668 
L 94.545455 170.540874 
L 99.054545 174.629335 
L 103.563636 132.738927 
L 108.072727 150.896445 
L 112.581818 150.054722 
L 117.090909 173.119417 
L 121.6 145.347414 
L 126.109091 141.120867 
L 130.618182 155.717598 
L 135.127273 118.740837 
L 139.636364 132.901644 
L 144.145455 112.755197 
L 148.654545 126.185761 
L 153.163636 85.343435 
L 157.672727 101.658439 
L 162.181818 126.986737 
L 166.690909 82.577623 
L 171.2 110.3151 
L 175.709091 135.524688 
L 180.218182 163.532041 
L 184.727273 181.361616 
L 189.236364 186.333533 
L 193.745455 241.326068 
L 198.254545 244.18652 
L 202.763636 301.159982 
L 207.272727 299.534293 
L 211.781818 324.52142 
L 216.290909 357.063368 
L 220.8 369.36 
L 225.309091 333.898827 
L 229.818182 344.03054 
L 234.327273 310.355565 
L 238.836364 339.225549 
L 243.345455 337.669332 
L 247.854545 303.219348 
L 252.363636 295.520695 
L 256.872727 289.52458 
L 261.381818 283.555424 
L 265.890909 302.46305 
L 270.4 295.565827 
L 274.909091 300.933438 
L 279.418182 279.542724 
L 283.927273 278.368126 
L 288.436364 284.650604 
L 292.945455 283.957156 
L 297.454545 298.960239 
L 301.963636 301.989939 
L 306.472727 297.40411 
L 310.981818 318.966991 
L 315.490909 288.286077 
L 320 302.362967 
L 324.509091 328.861897 
L 329.018182 320.01647 
L 333.527273 360.997493 
L 338.036364 315.705783 
L 342.545455 347.339496 
L 347.054545 315.583404 
L 351.563636 342.651177 
L 356.072727 308.032408 
L 360.581818 283.762598 
L 365.090909 256.994826 
L 369.6 239.28118 
L 374.109091 199.580334 
L 378.618182 165.297421 
L 383.127273 112.663335 
L 387.636364 128.727683 
L 392.145455 69.917431 
L 396.654545 91.221996 
L 401.163636 105.299791 
L 405.672727 89.418355 
L 410.181818 110.010798 
L 414.690909 120.29055 
L 419.2 124.200965 
L 423.709091 116.571501 
L 428.218182 144.025217 
L 432.727273 123.608621 
L 437.236364 141.184435 
L 441.745455 146.443091 
L 446.254545 143.171178 
L 450.763636 159.74807 
L 455.272727 163.557047 
L 459.781818 166.929818 
L 464.290909 172.475615 
L 468.8 155.815023 
L 473.309091 152.939295 
L 477.818182 148.083146 
L 482.327273 150.21883 
L 486.836364 151.456129 
L 491.345455 136.303266 
L 495.854545 125.220243 
L 500.363636 106.485694 
L 504.872727 66.96 
L 509.381818 103.231181 
L 513.890909 108.036796 
L 518.4 99.467493 
" clip-path="url(#pea950c962f)" style="fill: none; stroke: #117733; stroke-width: 1.5; stroke-linecap: square"/>
    <defs>
     <path id="m84b8a750c5" d="M 0 3 
C 0.795609 3 1.55874 2.683901 2.12132 2.12132 
C 2.683901 1.55874 3 0.795609 3 0 
C 3 -0.795609 2.683901 -1.55874 2.12132 -2.12132 
C 1.55874 -2.683901 0.795609 -3 0 -3 
C -0.795609 -3 -1.55874 -2.683901 -2.12132 -2.12132 
C -2.683901 -1.55874 -3 -0.795609 -3 0 
C -3 0.795609 -2.683901 1.55874 -2.12132 2.12132 
C -1.55874 2.683901 -0.795609 3 0 3 
z
" style="stroke: #117733"/>
    </defs>
    <g clip-path="url(#pea950c962f)">
     <use xlink:href="#m84b8a750c5" x="72" y="122.010914" style="fill: #117733; stroke: #117733"/>
     <use xlink:href="#m84b8a750c5" x="76.509091" y="127.164772" style="fill: #117733; stroke: #117733"/>
     <use xlink:href="#m84b8a750c5" x="81.018182" y="161.935247" style="fill: #117733; stroke: #117733"/>
     <use xlink:href="#m84b8a750c5" x="85.527273" y="158.073134" style="fill: #117733; stroke: #117733"/>
     <use xlink:href="#m84b8a750c5" x="90.036364" y="126.923668" style="fill: #117733; stroke: #117733"/>
     <use xlink:href="#m84b8a750c5" x="94.545455" y="170.540874" style="fill: #117733; stroke: #117733"/>
     <use xlink:href="#m84b8a750c5" x="99.054545" y="174.629335" style="fill: #117733; stroke: #117733"/>
     <use xlink:href="#m84b8a750c5" x="103.563636" y="132.738927" style="fill: #117733; stroke: #117733"/>
     <use xlink:href="#m84b8a750c5" x="108.072727" y="150.896445" style="fill: #117733; stroke: #117733"/>
     <use xlink:href="#m84b8a750c5" x="112.581818" y="150.054722" style="fill: #117733; stroke: #117733"/>
     <use xlink:href="#m84b8a750c5" x="117.090909" y="173.119417" style="fill: #117733; stroke: #117733"/>
     <use xlink:href="#m84b8a750c5" x="121.6" y="145.347414" style="fill: #117733; stroke: #117733"/>
     <use xlink:href="#m84b8a750c5" x="126.109091" y="141.120867" style="fill: #117733; stroke: #117733"/>
     <use xlink:href="#m84b8a750c5" x="130.618182" y="155.717598" style="fill: #117733; stroke: #117733"/>
     <use xlink:href="#m84b8a750c5" x="135.127273" y="118.740837" style="fill: #117733; stroke: #117733"/>
     <use xlink:href="#m84b8a750c5" x="139.636364" y="132.901644" style="fill: #117733; stroke: #117733"/>
     <use xlink:href="#m84b8a750c5" x="144.145455" y="112.755197" style="fill: #117733; stroke: #117733"/>
     <use xlink:href="#m84b8a750c5" x="148.654545" y="126.185761" style="fill: #117733; stroke: #117733"/>
     <use xlink:href="#m84b8a750c5" x="153.163636" y="85.343435" style="fill: #117733; stroke: #117733"/>
     <use xlink:href="#m84b8a750c5" x="157.672727" y="101.658439" style="fill: #117733; stroke: #117733"/>
     <use xlink:href="#m84b8a750c5" x="162.181818" y="126.986737" style="fill: #117733; stroke: #117733"/>
     <use xlink:href="#m84b8a750c5" x="166.690909" y="82.577623" style="fill: #117733; stroke: #117733"/>
     <use xlink:href="#m84b8a750c5" x="171.2" y="110.3151" style="fill: #117733; stroke: #117733"/>
     <use xlink:href="#m84b8a750c5" x="175.709091" y="135.524688" style="fill: #117733; stroke: #117733"/>
     <use xlink:href="#m84b8a750c5" x="180.218182" y="163.532041" style="fill: #117733; stroke: #117733"/>
     <use xlink:href="#m84b8a750c5" x="184.727273" y="181.361616" style="fill: #117733; stroke: #117733"/>
     <use xlink:href="#m84b8a750c5" x="189.236364" y="186.333533" style="fill: #117733; stroke: #117733"/>
     <use xlink:href="#m84b8a750c5" x="193.745455" y="241.326068" style="fill: #117733; stroke: #117733"/>
     <use xlink:href="#m84b8a750c5" x="198.254545" y="244.18652" style="fill: #117733; stroke: #117733"/>
     <use xlink:href="#m84b8a750c5" x="202.763636" y="301.159982" style="fill: #117733; stroke: #117733"/>
     <use xlink:href="#m84b8a750c5" x="207.272727" y="299.534293" style="fill: #117733; stroke: #117733"/>
     <use xlink:href="#m84b8a750c5" x="211.781818" y="324.52142" style="fill: #117733; stroke: #117733"/>
     <use xlink:href="#m84b8a750c5" x="216.290909" y="357.063368" style="fill: #117733; stroke: #117733"/>
     <use xlink:href="#m84b8a750c5" x="220.8" y="369.36" style="fill: #117733; stroke: #117733"/>
     <use xlink:href="#m84b8a750c5" x="225.309091" y="333.898827" style="fill: #117733; stroke: #117733"/>
     <use xlink:href="#m84b8a750c5" x="229.818182" y="344.03054" style="fill: #117733; stroke: #117733"/>
     <use xlink:href="#m84b8a750c5" x="234.327273" y="310.355565" style="fill: #117733; stroke: #117733"/>
     <use xlink:href="#m84b8a750c5" x="238.836364" y="339.225549" style="fill: #117733; stroke: #117733"/>
     <use xlink:href="#m84b8a750c5" x="243.345455" y="337.669332" style="fill: #117733; stroke: #117733"/>
     <use xlink:href="#m84b8a750c5" x="247.854545" y="303.219348" style="fill: #117733; stroke: #117733"/>
     <use xlink:href="#m84b8a750c5" x="252.363636" y="295.520695" style="fill: #117733; stroke: #117733"/>
     <use xlink:href="#m84b8a750c5" x="256.872727" y="289.52458" style="fill: #117733; stroke: #117733"/>
     <use xlink:href="#m84b8a750c5" x="261.381818" y="283.555424" style="fill: #117733; stroke: #117733"/>
     <use xlink:href="#m84b8a750c5" x="265.890909" y="302.46305" style="fill: #117733; stroke: #117733"/>
     <use xlink:href="#m84b8a750c5" x="270.4" y="295.565827" style="fill: #117733; stroke: #117733"/>
     <use xlink:href="#m84b8a750c5" x="274.909091" y="300.933438" style="fill: #117733; stroke: #117733"/>
     <use xlink:href="#m84b8a750c5" x="279.418182" y="279.542724" style="fill: #117733; stroke: #117733"/>
     <use xlink:href="#m84b8a750c5" x="283.927273" y="278.368126" style="fill: #117733; stroke: #117733"/>
     <use xlink:href="#m84b8a750c5" x="288.436364" y="284.650604" style="fill: #117733; stroke: #117733"/>
     <use xlink:href="#m84b8a750c5" x="292.945455" y="283.957156" style="fill: #117733; stroke: #117733"/>
     <use xlink:href="#m84b8a750c5" x="297.454545" y="298.960239" style="fill: #117733; stroke: #117733"/>
     <use xlink:href="#m84b8a750c5" x="301.963636" y="301.989939" style="fill: #117733; stroke: #117733"/>
     <use xlink:href="#m84b8a750c5" x="306.472727" y="297.40411" style="fill: #117733; stroke: #117733"/>
     <use xlink:href="#m84b8a750c5" x="310.981818" y="318.966991" style="fill: #117733; stroke: #117733"/>
     <use xlink:href="#m84b8a750c5" x="315.490909" y="288.286077" style="fill: #117733; stroke: #117733"/>
     <use xlink:href="#m84b8a750c5" x="320" y="302.362967" style="fill: #117733; stroke: #117733"/>
     <use xlink:href="#m84b8a750c5" x="324.509091" y="328.861897" style="fill: #117733; stroke: #117733"/>
     <use xlink:href="#m84b8a750c5" x="329.018182" y="320.01647" style="fill: #117733; stroke: #117733"/>
     <use xlink:href="#m84b8a750c5" x="333.527273" y="360.997493" style="fill: #117733; stroke: #117733"/>
     <use xlink:href="#m84b8a750c5" x="338.036364" y="315.705783" style="fill: #117733; stroke: #117733"/>
     <use xlink:href="#m84b8a750c5" x="342.545455" y="347.339496" style="fill: #117733; stroke: #117733"/>
     <use xlink:href="#m84b8a750c5" x="347.054545" y="315.583404" style="fill: #117733; stroke: #117733"/>
     <use xlink:href="#m84b8a750c5" x="351.563636" y="342.651177" style="fill: #117733; stroke: #117733"/>
     <use xlink:href="#m84b8a750c5" x="356.072727" y="308.032408" style="fill: #117733; stroke: #117733"/>
     <use xlink:href="#m84b8a750c5" x="360.581818" y="283.762598" style="fill: #117733; stroke: #117733"/>
     <use xlink:href="#m84b8a750c5" x="365.090909" y="256.994826" style="fill: #117733; stroke: #117733"/>
     <use xlink:href="#m84b8a750c5" x="369.6" y="239.28118" style="fill: #117733; stroke: #117733"/>
     <use xlink:href="#m84b8a750c5" x="374.109091" y="199.580334" style="fill: #117733; stroke: #117733"/>
     <use xlink:href="#m84b8a750c5" x="378.618182" y="165.297421" style="fill: #117733; stroke: #117733"/>
     <use xlink:href="#m84b8a750c5" x="383.127273" y="112.663335" style="fill: #117733; stroke: #117733"/>
     <use xlink:href="#m84b8a750c5" x="387.636364" y="128.727683" style="fill: #117733; stroke: #117733"/>
     <use xlink:href="#m84b8a750c5" x="392.145455" y="69.917431" style="fill: #117733; stroke: #117733"/>
     <use xlink:href="#m84b8a750c5" x="396.654545" y="91.221996" style="fill: #117733; stroke: #117733"/>
     <use xlink:href="#m84b8a750c5" x="401.163636" y="105.299791" style="fill: #117733; stroke: #117733"/>
     <use xlink:href="#m84b8a750c5" x="405.672727" y="89.418355" style="fill: #117733; stroke: #117733"/>
     <use xlink:href="#m84b8a750c5" x="410.181818" y="110.010798" style="fill: #117733; stroke: #117733"/>
     <use xlink:href="#m84b8a750c5" x="414.690909" y="120.29055" style="fill: #117733; stroke: #117733"/>
     <use xlink:href="#m84b8a750c5" x="419.2" y="124.200965" style="fill: #117733; stroke: #117733"/>
     <use xlink:href="#m84b8a750c5" x="423.709091" y="116.571501" style="fill: #117733; stroke: #117733"/>
     <use xlink:href="#m84b8a750c5" x="428.218182" y="144.025217" style="fill: #117733; stroke: #117733"/>
     <use xlink:href="#m84b8a750c5" x="432.727273" y="123.608621" style="fill: #117733; stroke: #117733"/>
     <use xlink:href="#m84b8a750c5" x="437.236364" y="141.184435" style="fill: #117733; stroke: #117733"/>
     <use xlink:href="#m84b8a750c5" x="441.745455" y="146.443091" style="fill: #117733; stroke: #117733"/>
     <use xlink:href="#m84b8a750c5" x="446.254545" y="143.171178" style="fill: #117733; stroke: #117733"/>
     <use xlink:href="#m84b8a750c5" x="450.763636" y="159.74807" style="fill: #117733; stroke: #117733"/>
     <use xlink:href="#m84b8a750c5" x="455.272727" y="163.557047" style="fill: #117733; stroke: #117733"/>
     <use xlink:href="#m84b8a750c5" x="459.781818" y="166.929818" style="fill: #117733; stroke: #117733"/>
     <use xlink:href="#m84b8a750c5" x="464.290909" y="172.475615" style="fill: #117733; stroke: #117733"/>
     <use xlink:href="#m84b8a750c5" x="468.8" y="155.815023" style="fill: #117733; stroke: #117733"/>
     <use xlink:href="#m84b8a750c5" x="473.309091" y="152.939295" style="fill: #117733; stroke: #117733"/>
     <use xlink:href="#m84b8a750c5" x="477.818182" y="148.083146" style="fill: #117733; stroke: #117733"/>
     <use xlink:href="#m84b8a750c5" x="482.327273" y="150.21883" style="fill: #117733; stroke: #117733"/>
     <use xlink:href="#m84b8a750c5" x="486.836364" y="151.456129" style="fill: #117733; stroke: #117733"/>
     <use xlink:href="#m84b8a750c5" x="491.345455" y="136.303266" style="fill: #117733; stroke: #117733"/>
     <use xlink:href="#m84b8a750c5" x="495.854545" y="125.220243" style="fill: #117733; stroke: #117733"/>
     <use xlink:href="#m84b8a750c5" x="500.363636" y="106.485694" style="fill: #117733; stroke: #117733"/>
     <use xlink:href="#m84b8a750c5" x="504.872727" y="66.96" style="fill: #117733; stroke: #117733"/>
     <use xlink:href="#m84b8a750c5" x="509.381818" y="103.231181" style="fill: #117733; stroke: #117733"/>
     <use xlink:href="#m84b8a750c5" x="513.890909" y="108.036796" style="fill: #117733; stroke: #117733"/>
     <use xlink:href="#m84b8a750c5" x="518.4" y="99.467493" style="fill: #117733; stroke: #117733"/>
    </g>
   </g>
   <g id="line2d_28">
    <path d="M 72 127.350031 
L 76.509091 119.472577 
L 81.018182 99.466092 
L 85.527273 97.963549 
L 90.036364 112.172542 
L 94.545455 104.426343 
L 99.054545 112.287667 
L 103.563636 109.330089 
L 108.072727 118.651933 
L 112.581818 106.676356 
L 117.090909 129.834715 
L 121.6 120.458909 
L 126.109091 125.076551 
L 130.618182 129.583239 
L 135.127273 134.308482 
L 139.636364 132.503561 
L 144.145455 138.190769 
L 148.654545 148.165062 
L 153.163636 182.512078 
L 157.672727 190.282435 
L 162.181818 222.510317 
L 166.690909 241.498429 
L 171.2 256.332918 
L 175.709091 280.266698 
L 180.218182 308.831469 
L 184.727273 321.0819 
L 189.236364 355.52446 
L 193.745455 336.680735 
L 198.254545 358.687775 
L 202.763636 313.758777 
L 207.272727 295.949192 
L 211.781818 281.387662 
L 216.290909 256.366911 
L 220.8 230.300333 
L 225.309091 196.934066 
L 229.818182 193.590741 
L 234.327273 186.933484 
L 238.836364 144.233689 
L 243.345455 149.481233 
L 247.854545 124.952447 
L 252.363636 134.529948 
L 256.872727 126.368029 
L 261.381818 122.522166 
L 265.890909 120.259181 
L 270.4 137.568002 
L 274.909091 109.771503 
L 279.418182 103.786507 
L 283.927273 124.034049 
L 288.436364 99.561374 
L 292.945455 134.326702 
L 297.454545 117.165134 
L 301.963636 124.043581 
L 306.472727 143.892269 
L 310.981818 129.217627 
L 315.490909 138.14601 
L 320 139.355419 
L 324.509091 186.854949 
L 329.018182 181.155265 
L 333.527273 179.346278 
L 338.036364 208.581218 
L 342.545455 238.194912 
L 347.054545 250.947282 
L 351.563636 283.576692 
L 356.072727 308.284318 
L 360.581818 324.226894 
L 365.090909 335.883464 
L 369.6 326.94478 
L 374.109091 337.738911 
L 378.618182 336.683116 
L 383.127273 316.503508 
L 387.636364 296.905347 
L 392.145455 247.115702 
L 396.654545 234.936991 
L 401.163636 221.010359 
L 405.672727 192.769041 
L 410.181818 169.289249 
L 414.690909 148.806623 
L 419.2 156.636529 
L 423.709091 149.530785 
L 428.218182 107.219836 
L 432.727273 133.527879 
L 437.236364 127.042072 
L 441.745455 112.055476 
L 446.254545 129.257684 
L 450.763636 143.362269 
L 455.272727 130.353434 
L 459.781818 106.319441 
L 464.290909 83.898336 
L 468.8 121.990977 
L 473.309091 100.253234 
L 477.818182 110.689927 
L 482.327273 116.664258 
L 486.836364 125.875861 
L 491.345455 111.449559 
L 495.854545 136.363368 
L 500.363636 129.5655 
L 504.872727 164.296144 
L 509.381818 190.584914 
L 513.890909 203.795998 
L 518.4 217.972529 
" clip-path="url(#pea950c962f)" style="fill: none; stroke: #882255; stroke-width: 1.5; stroke-linecap: square"/>
    <defs>
     <path id="m4abe21c964" d="M 0 3 
C 0.795609 3 1.55874 2.683901 2.12132 2.12132 
C 2.683901 1.55874 3 0.795609 3 0 
C 3 -0.795609 2.683901 -1.55874 2.12132 -2.12132 
C 1.55874 -2.683901 0.795609 -3 0 -3 
C -0.795609 -3 -1.55874 -2.683901 -2.12132 -2.12132 
C -2.683901 -1.55874 -3 -0.795609 -3 0 
C -3 0.795609 -2.683901 1.55874 -2.12132 2.12132 
C -1.55874 2.683901 -0.795609 3 0 3 
z
" style="stroke: #882255"/>
    </defs>
    <g clip-path="url(#pea950c962f)">
     <use xlink:href="#m4abe21c964" x="72" y="127.350031" style="fill: #882255; stroke: #882255"/>
     <use xlink:href="#m4abe21c964" x="76.509091" y="119.472577" style="fill: #882255; stroke: #882255"/>
     <use xlink:href="#m4abe21c964" x="81.018182" y="99.466092" style="fill: #882255; stroke: #882255"/>
     <use xlink:href="#m4abe21c964" x="85.527273" y="97.963549" style="fill: #882255; stroke: #882255"/>
     <use xlink:href="#m4abe21c964" x="90.036364" y="112.172542" style="fill: #882255; stroke: #882255"/>
     <use xlink:href="#m4abe21c964" x="94.545455" y="104.426343" style="fill: #882255; stroke: #882255"/>
     <use xlink:href="#m4abe21c964" x="99.054545" y="112.287667" style="fill: #882255; stroke: #882255"/>
     <use xlink:href="#m4abe21c964" x="103.563636" y="109.330089" style="fill: #882255; stroke: #882255"/>
     <use xlink:href="#m4abe21c964" x="108.072727" y="118.651933" style="fill: #882255; stroke: #882255"/>
     <use xlink:href="#m4abe21c964" x="112.581818" y="106.676356" style="fill: #882255; stroke: #882255"/>
     <use xlink:href="#m4abe21c964" x="117.090909" y="129.834715" style="fill: #882255; stroke: #882255"/>
     <use xlink:href="#m4abe21c964" x="121.6" y="120.458909" style="fill: #882255; stroke: #882255"/>
     <use xlink:href="#m4abe21c964" x="126.109091" y="125.076551" style="fill: #882255; stroke: #882255"/>
     <use xlink:href="#m4abe21c964" x="130.618182" y="129.583239" style="fill: #882255; stroke: #882255"/>
     <use xlink:href="#m4abe21c964" x="135.127273" y="134.308482" style="fill: #882255; stroke: #882255"/>
     <use xlink:href="#m4abe21c964" x="139.636364" y="132.503561" style="fill: #882255; stroke: #882255"/>
     <use xlink:href="#m4abe21c964" x="144.145455" y="138.190769" style="fill: #882255; stroke: #882255"/>
     <use xlink:href="#m4abe21c964" x="148.654545" y="148.165062" style="fill: #882255; stroke: #882255"/>
     <use xlink:href="#m4abe21c964" x="153.163636" y="182.512078" style="fill: #882255; stroke: #882255"/>
     <use xlink:href="#m4abe21c964" x="157.672727" y="190.282435" style="fill: #882255; stroke: #882255"/>
     <use xlink:href="#m4abe21c964" x="162.181818" y="222.510317" style="fill: #882255; stroke: #882255"/>
     <use xlink:href="#m4abe21c964" x="166.690909" y="241.498429" style="fill: #882255; stroke: #882255"/>
     <use xlink:href="#m4abe21c964" x="171.2" y="256.332918" style="fill: #882255; stroke: #882255"/>
     <use xlink:href="#m4abe21c964" x="175.709091" y="280.266698" style="fill: #882255; stroke: #882255"/>
     <use xlink:href="#m4abe21c964" x="180.218182" y="308.831469" style="fill: #882255; stroke: #882255"/>
     <use xlink:href="#m4abe21c964" x="184.727273" y="321.0819" style="fill: #882255; stroke: #882255"/>
     <use xlink:href="#m4abe21c964" x="189.236364" y="355.52446" style="fill: #882255; stroke: #882255"/>
     <use xlink:href="#m4abe21c964" x="193.745455" y="336.680735" style="fill: #882255; stroke: #882255"/>
     <use xlink:href="#m4abe21c964" x="198.254545" y="358.687775" style="fill: #882255; stroke: #882255"/>
     <use xlink:href="#m4abe21c964" x="202.763636" y="313.758777" style="fill: #882255; stroke: #882255"/>
     <use xlink:href="#m4abe21c964" x="207.272727" y="295.949192" style="fill: #882255; stroke: #882255"/>
     <use xlink:href="#m4abe21c964" x="211.781818" y="281.387662" style="fill: #882255; stroke: #882255"/>
     <use xlink:href="#m4abe21c964" x="216.290909" y="256.366911" style="fill: #882255; stroke: #882255"/>
     <use xlink:href="#m4abe21c964" x="220.8" y="230.300333" style="fill: #882255; stroke: #882255"/>
     <use xlink:href="#m4abe21c964" x="225.309091" y="196.934066" style="fill: #882255; stroke: #882255"/>
     <use xlink:href="#m4abe21c964" x="229.818182" y="193.590741" style="fill: #882255; stroke: #882255"/>
     <use xlink:href="#m4abe21c964" x="234.327273" y="186.933484" style="fill: #882255; stroke: #882255"/>
     <use xlink:href="#m4abe21c964" x="238.836364" y="144.233689" style="fill: #882255; stroke: #882255"/>
     <use xlink:href="#m4abe21c964" x="243.345455" y="149.481233" style="fill: #882255; stroke: #882255"/>
     <use xlink:href="#m4abe21c964" x="247.854545" y="124.952447" style="fill: #882255; stroke: #882255"/>
     <use xlink:href="#m4abe21c964" x="252.363636" y="134.529948" style="fill: #882255; stroke: #882255"/>
     <use xlink:href="#m4abe21c964" x="256.872727" y="126.368029" style="fill: #882255; stroke: #882255"/>
     <use xlink:href="#m4abe21c964" x="261.381818" y="122.522166" style="fill: #882255; stroke: #882255"/>
     <use xlink:href="#m4abe21c964" x="265.890909" y="120.259181" style="fill: #882255; stroke: #882255"/>
     <use xlink:href="#m4abe21c964" x="270.4" y="137.568002" style="fill: #882255; stroke: #882255"/>
     <use xlink:href="#m4abe21c964" x="274.909091" y="109.771503" style="fill: #882255; stroke: #882255"/>
     <use xlink:href="#m4abe21c964" x="279.418182" y="103.786507" style="fill: #882255; stroke: #882255"/>
     <use xlink:href="#m4abe21c964" x="283.927273" y="124.034049" style="fill: #882255; stroke: #882255"/>
     <use xlink:href="#m4abe21c964" x="288.436364" y="99.561374" style="fill: #882255; stroke: #882255"/>
     <use xlink:href="#m4abe21c964" x="292.945455" y="134.326702" style="fill: #882255; stroke: #882255"/>
     <use xlink:href="#m4abe21c964" x="297.454545" y="117.165134" style="fill: #882255; stroke: #882255"/>
     <use xlink:href="#m4abe21c964" x="301.963636" y="124.043581" style="fill: #882255; stroke: #882255"/>
     <use xlink:href="#m4abe21c964" x="306.472727" y="143.892269" style="fill: #882255; stroke: #882255"/>
     <use xlink:href="#m4abe21c964" x="310.981818" y="129.217627" style="fill: #882255; stroke: #882255"/>
     <use xlink:href="#m4abe21c964" x="315.490909" y="138.14601" style="fill: #882255; stroke: #882255"/>
     <use xlink:href="#m4abe21c964" x="320" y="139.355419" style="fill: #882255; stroke: #882255"/>
     <use xlink:href="#m4abe21c964" x="324.509091" y="186.854949" style="fill: #882255; stroke: #882255"/>
     <use xlink:href="#m4abe21c964" x="329.018182" y="181.155265" style="fill: #882255; stroke: #882255"/>
     <use xlink:href="#m4abe21c964" x="333.527273" y="179.346278" style="fill: #882255; stroke: #882255"/>
     <use xlink:href="#m4abe21c964" x="338.036364" y="208.581218" style="fill: #882255; stroke: #882255"/>
     <use xlink:href="#m4abe21c964" x="342.545455" y="238.194912" style="fill: #882255; stroke: #882255"/>
     <use xlink:href="#m4abe21c964" x="347.054545" y="250.947282" style="fill: #882255; stroke: #882255"/>
     <use xlink:href="#m4abe21c964" x="351.563636" y="283.576692" style="fill: #882255; stroke: #882255"/>
     <use xlink:href="#m4abe21c964" x="356.072727" y="308.284318" style="fill: #882255; stroke: #882255"/>
     <use xlink:href="#m4abe21c964" x="360.581818" y="324.226894" style="fill: #882255; stroke: #882255"/>
     <use xlink:href="#m4abe21c964" x="365.090909" y="335.883464" style="fill: #882255; stroke: #882255"/>
     <use xlink:href="#m4abe21c964" x="369.6" y="326.94478" style="fill: #882255; stroke: #882255"/>
     <use xlink:href="#m4abe21c964" x="374.109091" y="337.738911" style="fill: #882255; stroke: #882255"/>
     <use xlink:href="#m4abe21c964" x="378.618182" y="336.683116" style="fill: #882255; stroke: #882255"/>
     <use xlink:href="#m4abe21c964" x="383.127273" y="316.503508" style="fill: #882255; stroke: #882255"/>
     <use xlink:href="#m4abe21c964" x="387.636364" y="296.905347" style="fill: #882255; stroke: #882255"/>
     <use xlink:href="#m4abe21c964" x="392.145455" y="247.115702" style="fill: #882255; stroke: #882255"/>
     <use xlink:href="#m4abe21c964" x="396.654545" y="234.936991" style="fill: #882255; stroke: #882255"/>
     <use xlink:href="#m4abe21c964" x="401.163636" y="221.010359" style="fill: #882255; stroke: #882255"/>
     <use xlink:href="#m4abe21c964" x="405.672727" y="192.769041" style="fill: #882255; stroke: #882255"/>
     <use xlink:href="#m4abe21c964" x="410.181818" y="169.289249" style="fill: #882255; stroke: #882255"/>
     <use xlink:href="#m4abe21c964" x="414.690909" y="148.806623" style="fill: #882255; stroke: #882255"/>
     <use xlink:href="#m4abe21c964" x="419.2" y="156.636529" style="fill: #882255; stroke: #882255"/>
     <use xlink:href="#m4abe21c964" x="423.709091" y="149.530785" style="fill: #882255; stroke: #882255"/>
     <use xlink:href="#m4abe21c964" x="428.218182" y="107.219836" style="fill: #882255; stroke: #882255"/>
     <use xlink:href="#m4abe21c964" x="432.727273" y="133.527879" style="fill: #882255; stroke: #882255"/>
     <use xlink:href="#m4abe21c964" x="437.236364" y="127.042072" style="fill: #882255; stroke: #882255"/>
     <use xlink:href="#m4abe21c964" x="441.745455" y="112.055476" style="fill: #882255; stroke: #882255"/>
     <use xlink:href="#m4abe21c964" x="446.254545" y="129.257684" style="fill: #882255; stroke: #882255"/>
     <use xlink:href="#m4abe21c964" x="450.763636" y="143.362269" style="fill: #882255; stroke: #882255"/>
     <use xlink:href="#m4abe21c964" x="455.272727" y="130.353434" style="fill: #882255; stroke: #882255"/>
     <use xlink:href="#m4abe21c964" x="459.781818" y="106.319441" style="fill: #882255; stroke: #882255"/>
     <use xlink:href="#m4abe21c964" x="464.290909" y="83.898336" style="fill: #882255; stroke: #882255"/>
     <use xlink:href="#m4abe21c964" x="468.8" y="121.990977" style="fill: #882255; stroke: #882255"/>
     <use xlink:href="#m4abe21c964" x="473.309091" y="100.253234" style="fill: #882255; stroke: #882255"/>
     <use xlink:href="#m4abe21c964" x="477.818182" y="110.689927" style="fill: #882255; stroke: #882255"/>
     <use xlink:href="#m4abe21c964" x="482.327273" y="116.664258" style="fill: #882255; stroke: #882255"/>
     <use xlink:href="#m4abe21c964" x="486.836364" y="125.875861" style="fill: #882255; stroke: #882255"/>
     <use xlink:href="#m4abe21c964" x="491.345455" y="111.449559" style="fill: #882255; stroke: #882255"/>
     <use xlink:href="#m4abe21c964" x="495.854545" y="136.363368" style="fill: #882255; stroke: #882255"/>
     <use xlink:href="#m4abe21c964" x="500.363636" y="129.5655" style="fill: #882255; stroke: #882255"/>
     <use xlink:href="#m4abe21c964" x="504.872727" y="164.296144" style="fill: #882255; stroke: #882255"/>
     <use xlink:href="#m4abe21c964" x="509.381818" y="190.584914" style="fill: #882255; stroke: #882255"/>
     <use xlink:href="#m4abe21c964" x="513.890909" y="203.795998" style="fill: #882255; stroke: #882255"/>
     <use xlink:href="#m4abe21c964" x="518.4" y="217.972529" style="fill: #882255; stroke: #882255"/>
    </g>
   </g>
   <g id="patch_3">
    <path d="M 72 384.48 
L 72 51.84 
" style="fill: none; stroke: #000000; stroke-width: 0.8; stroke-linejoin: miter; stroke-linecap: square"/>
   </g>
   <g id="patch_4">
    <path d="M 518.4 384.48 
L 518.4 51.84 
" style="fill: none; stroke: #000000; stroke-width: 0.8; stroke-linejoin: miter; stroke-linecap: square"/>
   </g>
   <g id="patch_5">
    <path d="M 72 384.48 
L 518.4 384.48 
" style="fill: none; stroke: #000000; stroke-width: 0.8; stroke-linejoin: miter; stroke-linecap: square"/>
   </g>
   <g id="patch_6">
    <path d="M 72 51.84 
L 518.4 51.84 
" style="fill: none; stroke: #000000; stroke-width: 0.8; stroke-linejoin: miter; stroke-linecap: square"/>
   </g>
   <g id="text_16">
    <!-- Data Requirement for Example 2 -->
    <g transform="translate(196.56375 45.84) scale(0.12 -0.12)">
     <defs>
      <path id="DejaVuSans-44" d="M 1259 4147 
L 1259 519 
L 2022 519 
Q 2988 519 3436 956 
Q 3884 1394 3884 2338 
Q 3884 3275 3436 3711 
Q 2988 4147 2022 4147 
L 1259 4147 
z
M 628 4666 
L 1925 4666 
Q 3281 4666 3915 4102 
Q 4550 3538 4550 2338 
Q 4550 1131 3912 565 
Q 3275 0 1925 0 
L 628 0 
L 628 4666 
z
" transform="scale(0.015625)"/>
      <path id="DejaVuSans-61" d="M 2194 1759 
Q 1497 1759 1228 1600 
Q 959 1441 959 1056 
Q 959 750 1161 570 
Q 1363 391 1709 391 
Q 2188 391 2477 730 
Q 2766 1069 2766 1631 
L 2766 1759 
L 2194 1759 
z
M 3341 1997 
L 3341 0 
L 2766 0 
L 2766 531 
Q 2569 213 2275 61 
Q 1981 -91 1556 -91 
Q 1019 -91 701 211 
Q 384 513 384 1019 
Q 384 1609 779 1909 
Q 1175 2209 1959 2209 
L 2766 2209 
L 2766 2266 
Q 2766 2663 2505 2880 
Q 2244 3097 1772 3097 
Q 1472 3097 1187 3025 
Q 903 2953 641 2809 
L 641 3341 
Q 956 3463 1253 3523 
Q 1550 3584 1831 3584 
Q 2591 3584 2966 3190 
Q 3341 2797 3341 1997 
z
" transform="scale(0.015625)"/>
      <path id="DejaVuSans-52" d="M 2841 2188 
Q 3044 2119 3236 1894 
Q 3428 1669 3622 1275 
L 4263 0 
L 3584 0 
L 2988 1197 
Q 2756 1666 2539 1819 
Q 2322 1972 1947 1972 
L 1259 1972 
L 1259 0 
L 628 0 
L 628 4666 
L 2053 4666 
Q 2853 4666 3247 4331 
Q 3641 3997 3641 3322 
Q 3641 2881 3436 2590 
Q 3231 2300 2841 2188 
z
M 1259 4147 
L 1259 2491 
L 2053 2491 
Q 2509 2491 2742 2702 
Q 2975 2913 2975 3322 
Q 2975 3731 2742 3939 
Q 2509 4147 2053 4147 
L 1259 4147 
z
" transform="scale(0.015625)"/>
      <path id="DejaVuSans-71" d="M 947 1747 
Q 947 1113 1208 752 
Q 1469 391 1925 391 
Q 2381 391 2643 752 
Q 2906 1113 2906 1747 
Q 2906 2381 2643 2742 
Q 2381 3103 1925 3103 
Q 1469 3103 1208 2742 
Q 947 2381 947 1747 
z
M 2906 525 
Q 2725 213 2448 61 
Q 2172 -91 1784 -91 
Q 1150 -91 751 415 
Q 353 922 353 1747 
Q 353 2572 751 3078 
Q 1150 3584 1784 3584 
Q 2172 3584 2448 3432 
Q 2725 3281 2906 2969 
L 2906 3500 
L 3481 3500 
L 3481 -1331 
L 2906 -1331 
L 2906 525 
z
" transform="scale(0.015625)"/>
      <path id="DejaVuSans-45" d="M 628 4666 
L 3578 4666 
L 3578 4134 
L 1259 4134 
L 1259 2753 
L 3481 2753 
L 3481 2222 
L 1259 2222 
L 1259 531 
L 3634 531 
L 3634 0 
L 628 0 
L 628 4666 
z
" transform="scale(0.015625)"/>
      <path id="DejaVuSans-78" d="M 3513 3500 
L 2247 1797 
L 3578 0 
L 2900 0 
L 1881 1375 
L 863 0 
L 184 0 
L 1544 1831 
L 300 3500 
L 978 3500 
L 1906 2253 
L 2834 3500 
L 3513 3500 
z
" transform="scale(0.015625)"/>
      <path id="DejaVuSans-6c" d="M 603 4863 
L 1178 4863 
L 1178 0 
L 603 0 
L 603 4863 
z
" transform="scale(0.015625)"/>
     </defs>
     <use xlink:href="#DejaVuSans-44"/>
     <use xlink:href="#DejaVuSans-61" x="77.001953"/>
     <use xlink:href="#DejaVuSans-74" x="138.28125"/>
     <use xlink:href="#DejaVuSans-61" x="177.490234"/>
     <use xlink:href="#DejaVuSans-20" x="238.769531"/>
     <use xlink:href="#DejaVuSans-52" x="270.556641"/>
     <use xlink:href="#DejaVuSans-65" x="335.539062"/>
     <use xlink:href="#DejaVuSans-71" x="397.0625"/>
     <use xlink:href="#DejaVuSans-75" x="460.539062"/>
     <use xlink:href="#DejaVuSans-69" x="523.917969"/>
     <use xlink:href="#DejaVuSans-72" x="551.701172"/>
     <use xlink:href="#DejaVuSans-65" x="590.564453"/>
     <use xlink:href="#DejaVuSans-6d" x="652.087891"/>
     <use xlink:href="#DejaVuSans-65" x="749.5"/>
     <use xlink:href="#DejaVuSans-6e" x="811.023438"/>
     <use xlink:href="#DejaVuSans-74" x="874.402344"/>
     <use xlink:href="#DejaVuSans-20" x="913.611328"/>
     <use xlink:href="#DejaVuSans-66" x="945.398438"/>
     <use xlink:href="#DejaVuSans-6f" x="980.603516"/>
     <use xlink:href="#DejaVuSans-72" x="1041.785156"/>
     <use xlink:href="#DejaVuSans-20" x="1082.898438"/>
     <use xlink:href="#DejaVuSans-45" x="1114.685547"/>
     <use xlink:href="#DejaVuSans-78" x="1177.869141"/>
     <use xlink:href="#DejaVuSans-61" x="1237.048828"/>
     <use xlink:href="#DejaVuSans-6d" x="1298.328125"/>
     <use xlink:href="#DejaVuSans-70" x="1395.740234"/>
     <use xlink:href="#DejaVuSans-6c" x="1459.216797"/>
     <use xlink:href="#DejaVuSans-65" x="1487"/>
     <use xlink:href="#DejaVuSans-20" x="1548.523438"/>
     <use xlink:href="#DejaVuSans-32" x="1580.310547"/>
    </g>
   </g>
   <g id="legend_1">
    <g id="patch_7">
     <path d="M 79 89.19625 
L 116.91875 89.19625 
Q 118.91875 89.19625 118.91875 87.19625 
L 118.91875 58.84 
Q 118.91875 56.84 116.91875 56.84 
L 79 56.84 
Q 77 56.84 77 58.84 
L 77 87.19625 
Q 77 89.19625 79 89.19625 
z
" style="fill: #ffffff; opacity: 0.8; stroke: #cccccc; stroke-linejoin: miter"/>
    </g>
    <g id="line2d_29">
     <path d="M 81 64.938437 
L 91 64.938437 
L 101 64.938437 
" style="fill: none; stroke: #117733; stroke-width: 1.5; stroke-linecap: square"/>
     <g>
      <use xlink:href="#m84b8a750c5" x="91" y="64.938437" style="fill: #117733; stroke: #117733"/>
     </g>
    </g>
    <g id="text_17">
     <!-- x -->
     <g transform="translate(109 68.438437) scale(0.1 -0.1)">
      <use xlink:href="#DejaVuSans-78"/>
     </g>
    </g>
    <g id="line2d_30">
     <path d="M 81 79.616562 
L 91 79.616562 
L 101 79.616562 
" style="fill: none; stroke: #882255; stroke-width: 1.5; stroke-linecap: square"/>
     <g>
      <use xlink:href="#m4abe21c964" x="91" y="79.616562" style="fill: #882255; stroke: #882255"/>
     </g>
    </g>
    <g id="text_18">
     <!-- y -->
     <g transform="translate(109 83.116562) scale(0.1 -0.1)">
      <defs>
       <path id="DejaVuSans-79" d="M 2059 -325 
Q 1816 -950 1584 -1140 
Q 1353 -1331 966 -1331 
L 506 -1331 
L 506 -850 
L 844 -850 
Q 1081 -850 1212 -737 
Q 1344 -625 1503 -206 
L 1606 56 
L 191 3500 
L 800 3500 
L 1894 763 
L 2988 3500 
L 3597 3500 
L 2059 -325 
z
" transform="scale(0.015625)"/>
      </defs>
      <use xlink:href="#DejaVuSans-79"/>
     </g>
    </g>
   </g>
  </g>
 </g>
 <defs>
  <clipPath id="pea950c962f">
   <rect x="72" y="51.84" width="446.4" height="332.64"/>
  </clipPath>
 </defs>
</svg>
