<?xml version="1.0" encoding="utf-8" standalone="no"?>
<!DOCTYPE svg PUBLIC "-//W3C//DTD SVG 1.1//EN"
  "http://www.w3.org/Graphics/SVG/1.1/DTD/svg11.dtd">
<svg xmlns:xlink="http://www.w3.org/1999/xlink" width="504pt" height="360pt" viewBox="0 0 504 360" xmlns="http://www.w3.org/2000/svg" version="1.1">
 <metadata>
  <rdf:RDF xmlns:dc="http://purl.org/dc/elements/1.1/" xmlns:cc="http://creativecommons.org/ns#" xmlns:rdf="http://www.w3.org/1999/02/22-rdf-syntax-ns#">
   <cc:Work>
    <dc:type rdf:resource="http://purl.org/dc/dcmitype/StillImage"/>
    <dc:date>2025-03-07T14:11:54.479445</dc:date>
    <dc:format>image/svg+xml</dc:format>
    <dc:creator>
     <cc:Agent>
      <dc:title>Matplotlib v3.9.2, https://matplotlib.org/</dc:title>
     </cc:Agent>
    </dc:creator>
   </cc:Work>
  </rdf:RDF>
 </metadata>
 <defs>
  <style type="text/css">*{stroke-linejoin: round; stroke-linecap: butt}</style>
 </defs>
 <g id="figure_1">
  <g id="patch_1">
   <path d="M 0 360 
L 504 360 
L 504 0 
L 0 0 
z
" style="fill: #ffffff"/>
  </g>
  <g id="axes_1">
   <g id="patch_2">
    <path d="M 63 320.4 
L 453.6 320.4 
L 453.6 43.2 
L 63 43.2 
z
" style="fill: #ffffff"/>
   </g>
   <g id="matplotlib.axis_1">
    <g id="xtick_1">
     <g id="line2d_1">
      <defs>
       <path id="m04c825dbdd" d="M 0 0 
L 0 3.5 
" style="stroke: #000000; stroke-width: 0.8"/>
      </defs>
      <g>
       <use xlink:href="#m04c825dbdd" x="80.754545" y="320.4" style="stroke: #000000; stroke-width: 0.8"/>
      </g>
     </g>
     <g id="text_1">
      <!-- 0.0 -->
      <g transform="translate(69.622358 338.037813) scale(0.14 -0.14)">
       <defs>
        <path id="DejaVuSans-30" d="M 2034 4250 
Q 1547 4250 1301 3770 
Q 1056 3291 1056 2328 
Q 1056 1369 1301 889 
Q 1547 409 2034 409 
Q 2525 409 2770 889 
Q 3016 1369 3016 2328 
Q 3016 3291 2770 3770 
Q 2525 4250 2034 4250 
z
M 2034 4750 
Q 2819 4750 3233 4129 
Q 3647 3509 3647 2328 
Q 3647 1150 3233 529 
Q 2819 -91 2034 -91 
Q 1250 -91 836 529 
Q 422 1150 422 2328 
Q 422 3509 836 4129 
Q 1250 4750 2034 4750 
z
" transform="scale(0.015625)"/>
        <path id="DejaVuSans-2e" d="M 684 794 
L 1344 794 
L 1344 0 
L 684 0 
L 684 794 
z
" transform="scale(0.015625)"/>
       </defs>
       <use xlink:href="#DejaVuSans-30"/>
       <use xlink:href="#DejaVuSans-2e" x="63.623047"/>
       <use xlink:href="#DejaVuSans-30" x="95.410156"/>
      </g>
     </g>
    </g>
    <g id="xtick_2">
     <g id="line2d_2">
      <g>
       <use xlink:href="#m04c825dbdd" x="125.140909" y="320.4" style="stroke: #000000; stroke-width: 0.8"/>
      </g>
     </g>
     <g id="text_2">
      <!-- 0.5 -->
      <g transform="translate(114.008722 338.037813) scale(0.14 -0.14)">
       <defs>
        <path id="DejaVuSans-35" d="M 691 4666 
L 3169 4666 
L 3169 4134 
L 1269 4134 
L 1269 2991 
Q 1406 3038 1543 3061 
Q 1681 3084 1819 3084 
Q 2600 3084 3056 2656 
Q 3513 2228 3513 1497 
Q 3513 744 3044 326 
Q 2575 -91 1722 -91 
Q 1428 -91 1123 -41 
Q 819 9 494 109 
L 494 744 
Q 775 591 1075 516 
Q 1375 441 1709 441 
Q 2250 441 2565 725 
Q 2881 1009 2881 1497 
Q 2881 1984 2565 2268 
Q 2250 2553 1709 2553 
Q 1456 2553 1204 2497 
Q 953 2441 691 2322 
L 691 4666 
z
" transform="scale(0.015625)"/>
       </defs>
       <use xlink:href="#DejaVuSans-30"/>
       <use xlink:href="#DejaVuSans-2e" x="63.623047"/>
       <use xlink:href="#DejaVuSans-35" x="95.410156"/>
      </g>
     </g>
    </g>
    <g id="xtick_3">
     <g id="line2d_3">
      <g>
       <use xlink:href="#m04c825dbdd" x="169.527273" y="320.4" style="stroke: #000000; stroke-width: 0.8"/>
      </g>
     </g>
     <g id="text_3">
      <!-- 1.0 -->
      <g transform="translate(158.395085 338.037813) scale(0.14 -0.14)">
       <defs>
        <path id="DejaVuSans-31" d="M 794 531 
L 1825 531 
L 1825 4091 
L 703 3866 
L 703 4441 
L 1819 4666 
L 2450 4666 
L 2450 531 
L 3481 531 
L 3481 0 
L 794 0 
L 794 531 
z
" transform="scale(0.015625)"/>
       </defs>
       <use xlink:href="#DejaVuSans-31"/>
       <use xlink:href="#DejaVuSans-2e" x="63.623047"/>
       <use xlink:href="#DejaVuSans-30" x="95.410156"/>
      </g>
     </g>
    </g>
    <g id="xtick_4">
     <g id="line2d_4">
      <g>
       <use xlink:href="#m04c825dbdd" x="213.913636" y="320.4" style="stroke: #000000; stroke-width: 0.8"/>
      </g>
     </g>
     <g id="text_4">
      <!-- 1.5 -->
      <g transform="translate(202.781449 338.037813) scale(0.14 -0.14)">
       <use xlink:href="#DejaVuSans-31"/>
       <use xlink:href="#DejaVuSans-2e" x="63.623047"/>
       <use xlink:href="#DejaVuSans-35" x="95.410156"/>
      </g>
     </g>
    </g>
    <g id="xtick_5">
     <g id="line2d_5">
      <g>
       <use xlink:href="#m04c825dbdd" x="258.3" y="320.4" style="stroke: #000000; stroke-width: 0.8"/>
      </g>
     </g>
     <g id="text_5">
      <!-- 2.0 -->
      <g transform="translate(247.167813 338.037813) scale(0.14 -0.14)">
       <defs>
        <path id="DejaVuSans-32" d="M 1228 531 
L 3431 531 
L 3431 0 
L 469 0 
L 469 531 
Q 828 903 1448 1529 
Q 2069 2156 2228 2338 
Q 2531 2678 2651 2914 
Q 2772 3150 2772 3378 
Q 2772 3750 2511 3984 
Q 2250 4219 1831 4219 
Q 1534 4219 1204 4116 
Q 875 4013 500 3803 
L 500 4441 
Q 881 4594 1212 4672 
Q 1544 4750 1819 4750 
Q 2544 4750 2975 4387 
Q 3406 4025 3406 3419 
Q 3406 3131 3298 2873 
Q 3191 2616 2906 2266 
Q 2828 2175 2409 1742 
Q 1991 1309 1228 531 
z
" transform="scale(0.015625)"/>
       </defs>
       <use xlink:href="#DejaVuSans-32"/>
       <use xlink:href="#DejaVuSans-2e" x="63.623047"/>
       <use xlink:href="#DejaVuSans-30" x="95.410156"/>
      </g>
     </g>
    </g>
    <g id="xtick_6">
     <g id="line2d_6">
      <g>
       <use xlink:href="#m04c825dbdd" x="302.686364" y="320.4" style="stroke: #000000; stroke-width: 0.8"/>
      </g>
     </g>
     <g id="text_6">
      <!-- 2.5 -->
      <g transform="translate(291.554176 338.037813) scale(0.14 -0.14)">
       <use xlink:href="#DejaVuSans-32"/>
       <use xlink:href="#DejaVuSans-2e" x="63.623047"/>
       <use xlink:href="#DejaVuSans-35" x="95.410156"/>
      </g>
     </g>
    </g>
    <g id="xtick_7">
     <g id="line2d_7">
      <g>
       <use xlink:href="#m04c825dbdd" x="347.072727" y="320.4" style="stroke: #000000; stroke-width: 0.8"/>
      </g>
     </g>
     <g id="text_7">
      <!-- 3.0 -->
      <g transform="translate(335.94054 338.037813) scale(0.14 -0.14)">
       <defs>
        <path id="DejaVuSans-33" d="M 2597 2516 
Q 3050 2419 3304 2112 
Q 3559 1806 3559 1356 
Q 3559 666 3084 287 
Q 2609 -91 1734 -91 
Q 1441 -91 1130 -33 
Q 819 25 488 141 
L 488 750 
Q 750 597 1062 519 
Q 1375 441 1716 441 
Q 2309 441 2620 675 
Q 2931 909 2931 1356 
Q 2931 1769 2642 2001 
Q 2353 2234 1838 2234 
L 1294 2234 
L 1294 2753 
L 1863 2753 
Q 2328 2753 2575 2939 
Q 2822 3125 2822 3475 
Q 2822 3834 2567 4026 
Q 2313 4219 1838 4219 
Q 1578 4219 1281 4162 
Q 984 4106 628 3988 
L 628 4550 
Q 988 4650 1302 4700 
Q 1616 4750 1894 4750 
Q 2613 4750 3031 4423 
Q 3450 4097 3450 3541 
Q 3450 3153 3228 2886 
Q 3006 2619 2597 2516 
z
" transform="scale(0.015625)"/>
       </defs>
       <use xlink:href="#DejaVuSans-33"/>
       <use xlink:href="#DejaVuSans-2e" x="63.623047"/>
       <use xlink:href="#DejaVuSans-30" x="95.410156"/>
      </g>
     </g>
    </g>
    <g id="xtick_8">
     <g id="line2d_8">
      <g>
       <use xlink:href="#m04c825dbdd" x="391.459091" y="320.4" style="stroke: #000000; stroke-width: 0.8"/>
      </g>
     </g>
     <g id="text_8">
      <!-- 3.5 -->
      <g transform="translate(380.326903 338.037813) scale(0.14 -0.14)">
       <use xlink:href="#DejaVuSans-33"/>
       <use xlink:href="#DejaVuSans-2e" x="63.623047"/>
       <use xlink:href="#DejaVuSans-35" x="95.410156"/>
      </g>
     </g>
    </g>
    <g id="xtick_9">
     <g id="line2d_9">
      <g>
       <use xlink:href="#m04c825dbdd" x="435.845455" y="320.4" style="stroke: #000000; stroke-width: 0.8"/>
      </g>
     </g>
     <g id="text_9">
      <!-- 4.0 -->
      <g transform="translate(424.713267 338.037813) scale(0.14 -0.14)">
       <defs>
        <path id="DejaVuSans-34" d="M 2419 4116 
L 825 1625 
L 2419 1625 
L 2419 4116 
z
M 2253 4666 
L 3047 4666 
L 3047 1625 
L 3713 1625 
L 3713 1100 
L 3047 1100 
L 3047 0 
L 2419 0 
L 2419 1100 
L 313 1100 
L 313 1709 
L 2253 4666 
z
" transform="scale(0.015625)"/>
       </defs>
       <use xlink:href="#DejaVuSans-34"/>
       <use xlink:href="#DejaVuSans-2e" x="63.623047"/>
       <use xlink:href="#DejaVuSans-30" x="95.410156"/>
      </g>
     </g>
    </g>
    <g id="text_10">
     <!-- time -->
     <g transform="translate(240.22625 357.106875) scale(0.16 -0.16)">
      <defs>
       <path id="DejaVuSans-74" d="M 1172 4494 
L 1172 3500 
L 2356 3500 
L 2356 3053 
L 1172 3053 
L 1172 1153 
Q 1172 725 1289 603 
Q 1406 481 1766 481 
L 2356 481 
L 2356 0 
L 1766 0 
Q 1100 0 847 248 
Q 594 497 594 1153 
L 594 3053 
L 172 3053 
L 172 3500 
L 594 3500 
L 594 4494 
L 1172 4494 
z
" transform="scale(0.015625)"/>
       <path id="DejaVuSans-69" d="M 603 3500 
L 1178 3500 
L 1178 0 
L 603 0 
L 603 3500 
z
M 603 4863 
L 1178 4863 
L 1178 4134 
L 603 4134 
L 603 4863 
z
" transform="scale(0.015625)"/>
       <path id="DejaVuSans-6d" d="M 3328 2828 
Q 3544 3216 3844 3400 
Q 4144 3584 4550 3584 
Q 5097 3584 5394 3201 
Q 5691 2819 5691 2113 
L 5691 0 
L 5113 0 
L 5113 2094 
Q 5113 2597 4934 2840 
Q 4756 3084 4391 3084 
Q 3944 3084 3684 2787 
Q 3425 2491 3425 1978 
L 3425 0 
L 2847 0 
L 2847 2094 
Q 2847 2600 2669 2842 
Q 2491 3084 2119 3084 
Q 1678 3084 1418 2786 
Q 1159 2488 1159 1978 
L 1159 0 
L 581 0 
L 581 3500 
L 1159 3500 
L 1159 2956 
Q 1356 3278 1631 3431 
Q 1906 3584 2284 3584 
Q 2666 3584 2933 3390 
Q 3200 3197 3328 2828 
z
" transform="scale(0.015625)"/>
       <path id="DejaVuSans-65" d="M 3597 1894 
L 3597 1613 
L 953 1613 
Q 991 1019 1311 708 
Q 1631 397 2203 397 
Q 2534 397 2845 478 
Q 3156 559 3463 722 
L 3463 178 
Q 3153 47 2828 -22 
Q 2503 -91 2169 -91 
Q 1331 -91 842 396 
Q 353 884 353 1716 
Q 353 2575 817 3079 
Q 1281 3584 2069 3584 
Q 2775 3584 3186 3129 
Q 3597 2675 3597 1894 
z
M 3022 2063 
Q 3016 2534 2758 2815 
Q 2500 3097 2075 3097 
Q 1594 3097 1305 2825 
Q 1016 2553 972 2059 
L 3022 2063 
z
" transform="scale(0.015625)"/>
      </defs>
      <use xlink:href="#DejaVuSans-74"/>
      <use xlink:href="#DejaVuSans-69" x="39.208984"/>
      <use xlink:href="#DejaVuSans-6d" x="66.992188"/>
      <use xlink:href="#DejaVuSans-65" x="164.404297"/>
     </g>
    </g>
   </g>
   <g id="matplotlib.axis_2">
    <g id="ytick_1">
     <g id="line2d_10">
      <defs>
       <path id="m845e5b2761" d="M 0 0 
L -3.5 0 
" style="stroke: #000000; stroke-width: 0.8"/>
      </defs>
      <g>
       <use xlink:href="#m845e5b2761" x="63" y="301.142828" style="stroke: #000000; stroke-width: 0.8"/>
      </g>
     </g>
     <g id="text_11">
      <!-- 0 -->
      <g transform="translate(47.0925 306.461734) scale(0.14 -0.14)">
       <use xlink:href="#DejaVuSans-30"/>
      </g>
     </g>
    </g>
    <g id="ytick_2">
     <g id="line2d_11">
      <g>
       <use xlink:href="#m845e5b2761" x="63" y="240.75546" style="stroke: #000000; stroke-width: 0.8"/>
      </g>
     </g>
     <g id="text_12">
      <!-- 1 -->
      <g transform="translate(47.0925 246.074366) scale(0.14 -0.14)">
       <use xlink:href="#DejaVuSans-31"/>
      </g>
     </g>
    </g>
    <g id="ytick_3">
     <g id="line2d_12">
      <g>
       <use xlink:href="#m845e5b2761" x="63" y="180.368092" style="stroke: #000000; stroke-width: 0.8"/>
      </g>
     </g>
     <g id="text_13">
      <!-- 2 -->
      <g transform="translate(47.0925 185.686998) scale(0.14 -0.14)">
       <use xlink:href="#DejaVuSans-32"/>
      </g>
     </g>
    </g>
    <g id="ytick_4">
     <g id="line2d_13">
      <g>
       <use xlink:href="#m845e5b2761" x="63" y="119.980724" style="stroke: #000000; stroke-width: 0.8"/>
      </g>
     </g>
     <g id="text_14">
      <!-- 3 -->
      <g transform="translate(47.0925 125.29963) scale(0.14 -0.14)">
       <use xlink:href="#DejaVuSans-33"/>
      </g>
     </g>
    </g>
    <g id="ytick_5">
     <g id="line2d_14">
      <g>
       <use xlink:href="#m845e5b2761" x="63" y="59.593356" style="stroke: #000000; stroke-width: 0.8"/>
      </g>
     </g>
     <g id="text_15">
      <!-- 4 -->
      <g transform="translate(47.0925 64.912262) scale(0.14 -0.14)">
       <use xlink:href="#DejaVuSans-34"/>
      </g>
     </g>
    </g>
    <g id="text_16">
     <!-- concentration -->
     <g transform="translate(39.765 237.20625) rotate(-90) scale(0.16 -0.16)">
      <defs>
       <path id="DejaVuSans-63" d="M 3122 3366 
L 3122 2828 
Q 2878 2963 2633 3030 
Q 2388 3097 2138 3097 
Q 1578 3097 1268 2742 
Q 959 2388 959 1747 
Q 959 1106 1268 751 
Q 1578 397 2138 397 
Q 2388 397 2633 464 
Q 2878 531 3122 666 
L 3122 134 
Q 2881 22 2623 -34 
Q 2366 -91 2075 -91 
Q 1284 -91 818 406 
Q 353 903 353 1747 
Q 353 2603 823 3093 
Q 1294 3584 2113 3584 
Q 2378 3584 2631 3529 
Q 2884 3475 3122 3366 
z
" transform="scale(0.015625)"/>
       <path id="DejaVuSans-6f" d="M 1959 3097 
Q 1497 3097 1228 2736 
Q 959 2375 959 1747 
Q 959 1119 1226 758 
Q 1494 397 1959 397 
Q 2419 397 2687 759 
Q 2956 1122 2956 1747 
Q 2956 2369 2687 2733 
Q 2419 3097 1959 3097 
z
M 1959 3584 
Q 2709 3584 3137 3096 
Q 3566 2609 3566 1747 
Q 3566 888 3137 398 
Q 2709 -91 1959 -91 
Q 1206 -91 779 398 
Q 353 888 353 1747 
Q 353 2609 779 3096 
Q 1206 3584 1959 3584 
z
" transform="scale(0.015625)"/>
       <path id="DejaVuSans-6e" d="M 3513 2113 
L 3513 0 
L 2938 0 
L 2938 2094 
Q 2938 2591 2744 2837 
Q 2550 3084 2163 3084 
Q 1697 3084 1428 2787 
Q 1159 2491 1159 1978 
L 1159 0 
L 581 0 
L 581 3500 
L 1159 3500 
L 1159 2956 
Q 1366 3272 1645 3428 
Q 1925 3584 2291 3584 
Q 2894 3584 3203 3211 
Q 3513 2838 3513 2113 
z
" transform="scale(0.015625)"/>
       <path id="DejaVuSans-72" d="M 2631 2963 
Q 2534 3019 2420 3045 
Q 2306 3072 2169 3072 
Q 1681 3072 1420 2755 
Q 1159 2438 1159 1844 
L 1159 0 
L 581 0 
L 581 3500 
L 1159 3500 
L 1159 2956 
Q 1341 3275 1631 3429 
Q 1922 3584 2338 3584 
Q 2397 3584 2469 3576 
Q 2541 3569 2628 3553 
L 2631 2963 
z
" transform="scale(0.015625)"/>
       <path id="DejaVuSans-61" d="M 2194 1759 
Q 1497 1759 1228 1600 
Q 959 1441 959 1056 
Q 959 750 1161 570 
Q 1363 391 1709 391 
Q 2188 391 2477 730 
Q 2766 1069 2766 1631 
L 2766 1759 
L 2194 1759 
z
M 3341 1997 
L 3341 0 
L 2766 0 
L 2766 531 
Q 2569 213 2275 61 
Q 1981 -91 1556 -91 
Q 1019 -91 701 211 
Q 384 513 384 1019 
Q 384 1609 779 1909 
Q 1175 2209 1959 2209 
L 2766 2209 
L 2766 2266 
Q 2766 2663 2505 2880 
Q 2244 3097 1772 3097 
Q 1472 3097 1187 3025 
Q 903 2953 641 2809 
L 641 3341 
Q 956 3463 1253 3523 
Q 1550 3584 1831 3584 
Q 2591 3584 2966 3190 
Q 3341 2797 3341 1997 
z
" transform="scale(0.015625)"/>
      </defs>
      <use xlink:href="#DejaVuSans-63"/>
      <use xlink:href="#DejaVuSans-6f" x="54.980469"/>
      <use xlink:href="#DejaVuSans-6e" x="116.162109"/>
      <use xlink:href="#DejaVuSans-63" x="179.541016"/>
      <use xlink:href="#DejaVuSans-65" x="234.521484"/>
      <use xlink:href="#DejaVuSans-6e" x="296.044922"/>
      <use xlink:href="#DejaVuSans-74" x="359.423828"/>
      <use xlink:href="#DejaVuSans-72" x="398.632812"/>
      <use xlink:href="#DejaVuSans-61" x="439.746094"/>
      <use xlink:href="#DejaVuSans-74" x="501.025391"/>
      <use xlink:href="#DejaVuSans-69" x="540.234375"/>
      <use xlink:href="#DejaVuSans-6f" x="568.017578"/>
      <use xlink:href="#DejaVuSans-6e" x="629.199219"/>
     </g>
    </g>
   </g>
   <g id="line2d_15">
    <defs>
     <path id="mc3831c14b4" d="M 0 3 
C 0.795609 3 1.55874 2.683901 2.12132 2.12132 
C 2.683901 1.55874 3 0.795609 3 0 
C 3 -0.795609 2.683901 -1.55874 2.12132 -2.12132 
C 1.55874 -2.683901 0.795609 -3 0 -3 
C -0.795609 -3 -1.55874 -2.683901 -2.12132 -2.12132 
C -2.683901 -1.55874 -3 -0.795609 -3 0 
C -3 0.795609 -2.683901 1.55874 -2.12132 2.12132 
C -1.55874 2.683901 -0.795609 3 0 3 
z
" style="stroke: #332288"/>
    </defs>
    <g clip-path="url(#p0f1048ae7e)">
     <use xlink:href="#mc3831c14b4" x="80.754545" y="66.597507" style="fill: #332288; stroke: #332288"/>
     <use xlink:href="#mc3831c14b4" x="88.001299" y="77.461565" style="fill: #332288; stroke: #332288"/>
     <use xlink:href="#mc3831c14b4" x="95.248052" y="81.38929" style="fill: #332288; stroke: #332288"/>
     <use xlink:href="#mc3831c14b4" x="102.494805" y="97.858085" style="fill: #332288; stroke: #332288"/>
     <use xlink:href="#mc3831c14b4" x="109.741558" y="97.755092" style="fill: #332288; stroke: #332288"/>
     <use xlink:href="#mc3831c14b4" x="116.988312" y="111.583966" style="fill: #332288; stroke: #332288"/>
     <use xlink:href="#mc3831c14b4" x="124.235065" y="127.6822" style="fill: #332288; stroke: #332288"/>
     <use xlink:href="#mc3831c14b4" x="131.481818" y="141.063734" style="fill: #332288; stroke: #332288"/>
     <use xlink:href="#mc3831c14b4" x="138.728571" y="143.740972" style="fill: #332288; stroke: #332288"/>
     <use xlink:href="#mc3831c14b4" x="145.975325" y="150.254807" style="fill: #332288; stroke: #332288"/>
     <use xlink:href="#mc3831c14b4" x="153.222078" y="164.125357" style="fill: #332288; stroke: #332288"/>
     <use xlink:href="#mc3831c14b4" x="160.468831" y="166.860866" style="fill: #332288; stroke: #332288"/>
     <use xlink:href="#mc3831c14b4" x="167.715584" y="181.04527" style="fill: #332288; stroke: #332288"/>
     <use xlink:href="#mc3831c14b4" x="174.962338" y="188.938918" style="fill: #332288; stroke: #332288"/>
     <use xlink:href="#mc3831c14b4" x="182.209091" y="201.674723" style="fill: #332288; stroke: #332288"/>
     <use xlink:href="#mc3831c14b4" x="189.455844" y="207.407443" style="fill: #332288; stroke: #332288"/>
     <use xlink:href="#mc3831c14b4" x="196.702597" y="217.645897" style="fill: #332288; stroke: #332288"/>
     <use xlink:href="#mc3831c14b4" x="203.949351" y="231.49388" style="fill: #332288; stroke: #332288"/>
     <use xlink:href="#mc3831c14b4" x="211.196104" y="222.439709" style="fill: #332288; stroke: #332288"/>
     <use xlink:href="#mc3831c14b4" x="218.442857" y="239.145341" style="fill: #332288; stroke: #332288"/>
     <use xlink:href="#mc3831c14b4" x="225.68961" y="244.662808" style="fill: #332288; stroke: #332288"/>
     <use xlink:href="#mc3831c14b4" x="232.936364" y="246.207467" style="fill: #332288; stroke: #332288"/>
     <use xlink:href="#mc3831c14b4" x="240.183117" y="256.459475" style="fill: #332288; stroke: #332288"/>
     <use xlink:href="#mc3831c14b4" x="247.42987" y="261.316824" style="fill: #332288; stroke: #332288"/>
     <use xlink:href="#mc3831c14b4" x="254.676623" y="265.341824" style="fill: #332288; stroke: #332288"/>
     <use xlink:href="#mc3831c14b4" x="261.923377" y="275.659245" style="fill: #332288; stroke: #332288"/>
     <use xlink:href="#mc3831c14b4" x="269.17013" y="269.611372" style="fill: #332288; stroke: #332288"/>
     <use xlink:href="#mc3831c14b4" x="276.416883" y="277.539259" style="fill: #332288; stroke: #332288"/>
     <use xlink:href="#mc3831c14b4" x="283.663636" y="284.352129" style="fill: #332288; stroke: #332288"/>
     <use xlink:href="#mc3831c14b4" x="290.91039" y="281.380808" style="fill: #332288; stroke: #332288"/>
     <use xlink:href="#mc3831c14b4" x="298.157143" y="285.983725" style="fill: #332288; stroke: #332288"/>
     <use xlink:href="#mc3831c14b4" x="305.403896" y="293.020005" style="fill: #332288; stroke: #332288"/>
     <use xlink:href="#mc3831c14b4" x="312.650649" y="290.72862" style="fill: #332288; stroke: #332288"/>
     <use xlink:href="#mc3831c14b4" x="319.897403" y="292.878001" style="fill: #332288; stroke: #332288"/>
     <use xlink:href="#mc3831c14b4" x="327.144156" y="292.974052" style="fill: #332288; stroke: #332288"/>
     <use xlink:href="#mc3831c14b4" x="334.390909" y="293.967763" style="fill: #332288; stroke: #332288"/>
     <use xlink:href="#mc3831c14b4" x="341.637662" y="293.662899" style="fill: #332288; stroke: #332288"/>
     <use xlink:href="#mc3831c14b4" x="348.884416" y="301.648791" style="fill: #332288; stroke: #332288"/>
     <use xlink:href="#mc3831c14b4" x="356.131169" y="297.82784" style="fill: #332288; stroke: #332288"/>
     <use xlink:href="#mc3831c14b4" x="363.377922" y="301.853661" style="fill: #332288; stroke: #332288"/>
     <use xlink:href="#mc3831c14b4" x="370.624675" y="297.015657" style="fill: #332288; stroke: #332288"/>
     <use xlink:href="#mc3831c14b4" x="377.871429" y="304.255362" style="fill: #332288; stroke: #332288"/>
     <use xlink:href="#mc3831c14b4" x="385.118182" y="307.8" style="fill: #332288; stroke: #332288"/>
     <use xlink:href="#mc3831c14b4" x="392.364935" y="301.499433" style="fill: #332288; stroke: #332288"/>
     <use xlink:href="#mc3831c14b4" x="399.611688" y="290.556518" style="fill: #332288; stroke: #332288"/>
     <use xlink:href="#mc3831c14b4" x="406.858442" y="295.966821" style="fill: #332288; stroke: #332288"/>
     <use xlink:href="#mc3831c14b4" x="414.105195" y="300.110912" style="fill: #332288; stroke: #332288"/>
     <use xlink:href="#mc3831c14b4" x="421.351948" y="291.240149" style="fill: #332288; stroke: #332288"/>
     <use xlink:href="#mc3831c14b4" x="428.598701" y="301.38571" style="fill: #332288; stroke: #332288"/>
     <use xlink:href="#mc3831c14b4" x="435.845455" y="301.441067" style="fill: #332288; stroke: #332288"/>
    </g>
   </g>
   <g id="line2d_16">
    <defs>
     <path id="mc747f191b7" d="M 0 3 
C 0.795609 3 1.55874 2.683901 2.12132 2.12132 
C 2.683901 1.55874 3 0.795609 3 0 
C 3 -0.795609 2.683901 -1.55874 2.12132 -2.12132 
C 1.55874 -2.683901 0.795609 -3 0 -3 
C -0.795609 -3 -1.55874 -2.683901 -2.12132 -2.12132 
C -2.683901 -1.55874 -3 -0.795609 -3 0 
C -3 0.795609 -2.683901 1.55874 -2.12132 2.12132 
C -1.55874 2.683901 -0.795609 3 0 3 
z
" style="stroke: #cc6677"/>
    </defs>
    <g clip-path="url(#p0f1048ae7e)">
     <use xlink:href="#mc747f191b7" x="80.754545" y="297.944312" style="fill: #cc6677; stroke: #cc6677"/>
     <use xlink:href="#mc747f191b7" x="88.001299" y="288.787644" style="fill: #cc6677; stroke: #cc6677"/>
     <use xlink:href="#mc747f191b7" x="95.248052" y="279.138917" style="fill: #cc6677; stroke: #cc6677"/>
     <use xlink:href="#mc747f191b7" x="102.494805" y="269.6952" style="fill: #cc6677; stroke: #cc6677"/>
     <use xlink:href="#mc747f191b7" x="109.741558" y="257.405159" style="fill: #cc6677; stroke: #cc6677"/>
     <use xlink:href="#mc747f191b7" x="116.988312" y="242.598414" style="fill: #cc6677; stroke: #cc6677"/>
     <use xlink:href="#mc747f191b7" x="124.235065" y="240.99947" style="fill: #cc6677; stroke: #cc6677"/>
     <use xlink:href="#mc747f191b7" x="131.481818" y="228.332972" style="fill: #cc6677; stroke: #cc6677"/>
     <use xlink:href="#mc747f191b7" x="138.728571" y="210.731883" style="fill: #cc6677; stroke: #cc6677"/>
     <use xlink:href="#mc747f191b7" x="145.975325" y="196.410466" style="fill: #cc6677; stroke: #cc6677"/>
     <use xlink:href="#mc747f191b7" x="153.222078" y="203.145154" style="fill: #cc6677; stroke: #cc6677"/>
     <use xlink:href="#mc747f191b7" x="160.468831" y="185.327627" style="fill: #cc6677; stroke: #cc6677"/>
     <use xlink:href="#mc747f191b7" x="167.715584" y="171.576911" style="fill: #cc6677; stroke: #cc6677"/>
     <use xlink:href="#mc747f191b7" x="174.962338" y="169.641027" style="fill: #cc6677; stroke: #cc6677"/>
     <use xlink:href="#mc747f191b7" x="182.209091" y="162.372396" style="fill: #cc6677; stroke: #cc6677"/>
     <use xlink:href="#mc747f191b7" x="189.455844" y="147.259763" style="fill: #cc6677; stroke: #cc6677"/>
     <use xlink:href="#mc747f191b7" x="196.702597" y="146.011928" style="fill: #cc6677; stroke: #cc6677"/>
     <use xlink:href="#mc747f191b7" x="203.949351" y="139.013334" style="fill: #cc6677; stroke: #cc6677"/>
     <use xlink:href="#mc747f191b7" x="211.196104" y="131.175594" style="fill: #cc6677; stroke: #cc6677"/>
     <use xlink:href="#mc747f191b7" x="218.442857" y="127.347823" style="fill: #cc6677; stroke: #cc6677"/>
     <use xlink:href="#mc747f191b7" x="225.68961" y="124.612479" style="fill: #cc6677; stroke: #cc6677"/>
     <use xlink:href="#mc747f191b7" x="232.936364" y="105.222135" style="fill: #cc6677; stroke: #cc6677"/>
     <use xlink:href="#mc747f191b7" x="240.183117" y="97.542677" style="fill: #cc6677; stroke: #cc6677"/>
     <use xlink:href="#mc747f191b7" x="247.42987" y="97.773902" style="fill: #cc6677; stroke: #cc6677"/>
     <use xlink:href="#mc747f191b7" x="254.676623" y="94.54233" style="fill: #cc6677; stroke: #cc6677"/>
     <use xlink:href="#mc747f191b7" x="261.923377" y="87.517869" style="fill: #cc6677; stroke: #cc6677"/>
     <use xlink:href="#mc747f191b7" x="269.17013" y="86.092463" style="fill: #cc6677; stroke: #cc6677"/>
     <use xlink:href="#mc747f191b7" x="276.416883" y="88.401079" style="fill: #cc6677; stroke: #cc6677"/>
     <use xlink:href="#mc747f191b7" x="283.663636" y="83.206569" style="fill: #cc6677; stroke: #cc6677"/>
     <use xlink:href="#mc747f191b7" x="290.91039" y="74.281552" style="fill: #cc6677; stroke: #cc6677"/>
     <use xlink:href="#mc747f191b7" x="298.157143" y="74.873411" style="fill: #cc6677; stroke: #cc6677"/>
     <use xlink:href="#mc747f191b7" x="305.403896" y="77.113598" style="fill: #cc6677; stroke: #cc6677"/>
     <use xlink:href="#mc747f191b7" x="312.650649" y="74.829639" style="fill: #cc6677; stroke: #cc6677"/>
     <use xlink:href="#mc747f191b7" x="319.897403" y="64.301184" style="fill: #cc6677; stroke: #cc6677"/>
     <use xlink:href="#mc747f191b7" x="327.144156" y="72.225449" style="fill: #cc6677; stroke: #cc6677"/>
     <use xlink:href="#mc747f191b7" x="334.390909" y="61.105803" style="fill: #cc6677; stroke: #cc6677"/>
     <use xlink:href="#mc747f191b7" x="341.637662" y="62.584373" style="fill: #cc6677; stroke: #cc6677"/>
     <use xlink:href="#mc747f191b7" x="348.884416" y="67.338382" style="fill: #cc6677; stroke: #cc6677"/>
     <use xlink:href="#mc747f191b7" x="356.131169" y="64.096083" style="fill: #cc6677; stroke: #cc6677"/>
     <use xlink:href="#mc747f191b7" x="363.377922" y="61.741924" style="fill: #cc6677; stroke: #cc6677"/>
     <use xlink:href="#mc747f191b7" x="370.624675" y="60.50993" style="fill: #cc6677; stroke: #cc6677"/>
     <use xlink:href="#mc747f191b7" x="377.871429" y="60.512231" style="fill: #cc6677; stroke: #cc6677"/>
     <use xlink:href="#mc747f191b7" x="385.118182" y="55.8" style="fill: #cc6677; stroke: #cc6677"/>
     <use xlink:href="#mc747f191b7" x="392.364935" y="57.396827" style="fill: #cc6677; stroke: #cc6677"/>
     <use xlink:href="#mc747f191b7" x="399.611688" y="62.558469" style="fill: #cc6677; stroke: #cc6677"/>
     <use xlink:href="#mc747f191b7" x="406.858442" y="61.103912" style="fill: #cc6677; stroke: #cc6677"/>
     <use xlink:href="#mc747f191b7" x="414.105195" y="63.719231" style="fill: #cc6677; stroke: #cc6677"/>
     <use xlink:href="#mc747f191b7" x="421.351948" y="62.141387" style="fill: #cc6677; stroke: #cc6677"/>
     <use xlink:href="#mc747f191b7" x="428.598701" y="59.801355" style="fill: #cc6677; stroke: #cc6677"/>
     <use xlink:href="#mc747f191b7" x="435.845455" y="68.783562" style="fill: #cc6677; stroke: #cc6677"/>
    </g>
   </g>
   <g id="line2d_17">
    <defs>
     <path id="m14150918fd" d="M 0 3 
C 0.795609 3 1.55874 2.683901 2.12132 2.12132 
C 2.683901 1.55874 3 0.795609 3 0 
C 3 -0.795609 2.683901 -1.55874 2.12132 -2.12132 
C 1.55874 -2.683901 0.795609 -3 0 -3 
C -0.795609 -3 -1.55874 -2.683901 -2.12132 -2.12132 
C -2.683901 -1.55874 -3 -0.795609 -3 0 
C -3 0.795609 -2.683901 1.55874 -2.12132 2.12132 
C -1.55874 2.683901 -0.795609 3 0 3 
z
" style="stroke: #88cceb"/>
    </defs>
    <g clip-path="url(#p0f1048ae7e)">
     <use xlink:href="#m14150918fd" x="80.754545" y="272.220786" style="fill: #88cceb; stroke: #88cceb"/>
     <use xlink:href="#m14150918fd" x="88.001299" y="271.410754" style="fill: #88cceb; stroke: #88cceb"/>
     <use xlink:href="#m14150918fd" x="95.248052" y="270.626399" style="fill: #88cceb; stroke: #88cceb"/>
     <use xlink:href="#m14150918fd" x="102.494805" y="271.197351" style="fill: #88cceb; stroke: #88cceb"/>
     <use xlink:href="#m14150918fd" x="109.741558" y="268.714939" style="fill: #88cceb; stroke: #88cceb"/>
     <use xlink:href="#m14150918fd" x="116.988312" y="267.677439" style="fill: #88cceb; stroke: #88cceb"/>
     <use xlink:href="#m14150918fd" x="124.235065" y="265.064873" style="fill: #88cceb; stroke: #88cceb"/>
     <use xlink:href="#m14150918fd" x="131.481818" y="267.482421" style="fill: #88cceb; stroke: #88cceb"/>
     <use xlink:href="#m14150918fd" x="138.728571" y="262.338737" style="fill: #88cceb; stroke: #88cceb"/>
     <use xlink:href="#m14150918fd" x="145.975325" y="259.249757" style="fill: #88cceb; stroke: #88cceb"/>
     <use xlink:href="#m14150918fd" x="153.222078" y="259.64321" style="fill: #88cceb; stroke: #88cceb"/>
     <use xlink:href="#m14150918fd" x="160.468831" y="257.74752" style="fill: #88cceb; stroke: #88cceb"/>
     <use xlink:href="#m14150918fd" x="167.715584" y="252.825091" style="fill: #88cceb; stroke: #88cceb"/>
     <use xlink:href="#m14150918fd" x="174.962338" y="247.380782" style="fill: #88cceb; stroke: #88cceb"/>
     <use xlink:href="#m14150918fd" x="182.209091" y="248.354083" style="fill: #88cceb; stroke: #88cceb"/>
     <use xlink:href="#m14150918fd" x="189.455844" y="245.718464" style="fill: #88cceb; stroke: #88cceb"/>
     <use xlink:href="#m14150918fd" x="196.702597" y="244.02669" style="fill: #88cceb; stroke: #88cceb"/>
     <use xlink:href="#m14150918fd" x="203.949351" y="239.95987" style="fill: #88cceb; stroke: #88cceb"/>
     <use xlink:href="#m14150918fd" x="211.196104" y="237.249605" style="fill: #88cceb; stroke: #88cceb"/>
     <use xlink:href="#m14150918fd" x="218.442857" y="236.65073" style="fill: #88cceb; stroke: #88cceb"/>
     <use xlink:href="#m14150918fd" x="225.68961" y="231.206149" style="fill: #88cceb; stroke: #88cceb"/>
     <use xlink:href="#m14150918fd" x="232.936364" y="226.931421" style="fill: #88cceb; stroke: #88cceb"/>
     <use xlink:href="#m14150918fd" x="240.183117" y="226.206725" style="fill: #88cceb; stroke: #88cceb"/>
     <use xlink:href="#m14150918fd" x="247.42987" y="220.900274" style="fill: #88cceb; stroke: #88cceb"/>
     <use xlink:href="#m14150918fd" x="254.676623" y="215.92723" style="fill: #88cceb; stroke: #88cceb"/>
     <use xlink:href="#m14150918fd" x="261.923377" y="212.923467" style="fill: #88cceb; stroke: #88cceb"/>
     <use xlink:href="#m14150918fd" x="269.17013" y="211.187515" style="fill: #88cceb; stroke: #88cceb"/>
     <use xlink:href="#m14150918fd" x="276.416883" y="204.424998" style="fill: #88cceb; stroke: #88cceb"/>
     <use xlink:href="#m14150918fd" x="283.663636" y="203.016671" style="fill: #88cceb; stroke: #88cceb"/>
     <use xlink:href="#m14150918fd" x="290.91039" y="202.207377" style="fill: #88cceb; stroke: #88cceb"/>
     <use xlink:href="#m14150918fd" x="298.157143" y="202.342333" style="fill: #88cceb; stroke: #88cceb"/>
     <use xlink:href="#m14150918fd" x="305.403896" y="197.108017" style="fill: #88cceb; stroke: #88cceb"/>
     <use xlink:href="#m14150918fd" x="312.650649" y="194.07969" style="fill: #88cceb; stroke: #88cceb"/>
     <use xlink:href="#m14150918fd" x="319.897403" y="192.918702" style="fill: #88cceb; stroke: #88cceb"/>
     <use xlink:href="#m14150918fd" x="327.144156" y="190.46063" style="fill: #88cceb; stroke: #88cceb"/>
     <use xlink:href="#m14150918fd" x="334.390909" y="186.217324" style="fill: #88cceb; stroke: #88cceb"/>
     <use xlink:href="#m14150918fd" x="341.637662" y="186.232044" style="fill: #88cceb; stroke: #88cceb"/>
     <use xlink:href="#m14150918fd" x="348.884416" y="184.191839" style="fill: #88cceb; stroke: #88cceb"/>
     <use xlink:href="#m14150918fd" x="356.131169" y="187.73137" style="fill: #88cceb; stroke: #88cceb"/>
     <use xlink:href="#m14150918fd" x="363.377922" y="184.583827" style="fill: #88cceb; stroke: #88cceb"/>
     <use xlink:href="#m14150918fd" x="370.624675" y="181.673699" style="fill: #88cceb; stroke: #88cceb"/>
     <use xlink:href="#m14150918fd" x="377.871429" y="184.67515" style="fill: #88cceb; stroke: #88cceb"/>
     <use xlink:href="#m14150918fd" x="385.118182" y="179.572847" style="fill: #88cceb; stroke: #88cceb"/>
     <use xlink:href="#m14150918fd" x="392.364935" y="184.500797" style="fill: #88cceb; stroke: #88cceb"/>
     <use xlink:href="#m14150918fd" x="399.611688" y="183.123265" style="fill: #88cceb; stroke: #88cceb"/>
     <use xlink:href="#m14150918fd" x="406.858442" y="179.22024" style="fill: #88cceb; stroke: #88cceb"/>
     <use xlink:href="#m14150918fd" x="414.105195" y="185.140678" style="fill: #88cceb; stroke: #88cceb"/>
     <use xlink:href="#m14150918fd" x="421.351948" y="179.972959" style="fill: #88cceb; stroke: #88cceb"/>
     <use xlink:href="#m14150918fd" x="428.598701" y="183.262547" style="fill: #88cceb; stroke: #88cceb"/>
     <use xlink:href="#m14150918fd" x="435.845455" y="182.957456" style="fill: #88cceb; stroke: #88cceb"/>
    </g>
   </g>
   <g id="line2d_18">
    <defs>
     <path id="mb0d0c46f81" d="M 0 3 
C 0.795609 3 1.55874 2.683901 2.12132 2.12132 
C 2.683901 1.55874 3 0.795609 3 0 
C 3 -0.795609 2.683901 -1.55874 2.12132 -2.12132 
C 1.55874 -2.683901 0.795609 -3 0 -3 
C -0.795609 -3 -1.55874 -2.683901 -2.12132 -2.12132 
C -2.683901 -1.55874 -3 -0.795609 -3 0 
C -3 0.795609 -2.683901 1.55874 -2.12132 2.12132 
C -1.55874 2.683901 -0.795609 3 0 3 
z
" style="stroke: #18793d"/>
    </defs>
    <g clip-path="url(#p0f1048ae7e)">
     <use xlink:href="#mb0d0c46f81" x="80.754545" y="209.074749" style="fill: #18793d; stroke: #18793d"/>
     <use xlink:href="#mb0d0c46f81" x="88.001299" y="210.300762" style="fill: #18793d; stroke: #18793d"/>
     <use xlink:href="#mb0d0c46f81" x="95.248052" y="210.392798" style="fill: #18793d; stroke: #18793d"/>
     <use xlink:href="#mb0d0c46f81" x="102.494805" y="212.769316" style="fill: #18793d; stroke: #18793d"/>
     <use xlink:href="#mb0d0c46f81" x="109.741558" y="214.289429" style="fill: #18793d; stroke: #18793d"/>
     <use xlink:href="#mb0d0c46f81" x="116.988312" y="217.096738" style="fill: #18793d; stroke: #18793d"/>
     <use xlink:href="#mb0d0c46f81" x="124.235065" y="216.111716" style="fill: #18793d; stroke: #18793d"/>
     <use xlink:href="#mb0d0c46f81" x="131.481818" y="222.261759" style="fill: #18793d; stroke: #18793d"/>
     <use xlink:href="#mb0d0c46f81" x="138.728571" y="218.687169" style="fill: #18793d; stroke: #18793d"/>
     <use xlink:href="#mb0d0c46f81" x="145.975325" y="221.15366" style="fill: #18793d; stroke: #18793d"/>
     <use xlink:href="#mb0d0c46f81" x="153.222078" y="221.087441" style="fill: #18793d; stroke: #18793d"/>
     <use xlink:href="#mb0d0c46f81" x="160.468831" y="223.018004" style="fill: #18793d; stroke: #18793d"/>
     <use xlink:href="#mb0d0c46f81" x="167.715584" y="229.869086" style="fill: #18793d; stroke: #18793d"/>
     <use xlink:href="#mb0d0c46f81" x="174.962338" y="228.769769" style="fill: #18793d; stroke: #18793d"/>
     <use xlink:href="#mb0d0c46f81" x="182.209091" y="233.495539" style="fill: #18793d; stroke: #18793d"/>
     <use xlink:href="#mb0d0c46f81" x="189.455844" y="235.566287" style="fill: #18793d; stroke: #18793d"/>
     <use xlink:href="#mb0d0c46f81" x="196.702597" y="236.142536" style="fill: #18793d; stroke: #18793d"/>
     <use xlink:href="#mb0d0c46f81" x="203.949351" y="239.530875" style="fill: #18793d; stroke: #18793d"/>
     <use xlink:href="#mb0d0c46f81" x="211.196104" y="242.543947" style="fill: #18793d; stroke: #18793d"/>
     <use xlink:href="#mb0d0c46f81" x="218.442857" y="246.566303" style="fill: #18793d; stroke: #18793d"/>
     <use xlink:href="#mb0d0c46f81" x="225.68961" y="249.384485" style="fill: #18793d; stroke: #18793d"/>
     <use xlink:href="#mb0d0c46f81" x="232.936364" y="254.936554" style="fill: #18793d; stroke: #18793d"/>
     <use xlink:href="#mb0d0c46f81" x="240.183117" y="257.581048" style="fill: #18793d; stroke: #18793d"/>
     <use xlink:href="#mb0d0c46f81" x="247.42987" y="259.001092" style="fill: #18793d; stroke: #18793d"/>
     <use xlink:href="#mb0d0c46f81" x="254.676623" y="265.471447" style="fill: #18793d; stroke: #18793d"/>
     <use xlink:href="#mb0d0c46f81" x="261.923377" y="268.042494" style="fill: #18793d; stroke: #18793d"/>
     <use xlink:href="#mb0d0c46f81" x="269.17013" y="269.135053" style="fill: #18793d; stroke: #18793d"/>
     <use xlink:href="#mb0d0c46f81" x="276.416883" y="273.737706" style="fill: #18793d; stroke: #18793d"/>
     <use xlink:href="#mb0d0c46f81" x="283.663636" y="278.173323" style="fill: #18793d; stroke: #18793d"/>
     <use xlink:href="#mb0d0c46f81" x="290.91039" y="279.247866" style="fill: #18793d; stroke: #18793d"/>
     <use xlink:href="#mb0d0c46f81" x="298.157143" y="280.299127" style="fill: #18793d; stroke: #18793d"/>
     <use xlink:href="#mb0d0c46f81" x="305.403896" y="286.606174" style="fill: #18793d; stroke: #18793d"/>
     <use xlink:href="#mb0d0c46f81" x="312.650649" y="289.763785" style="fill: #18793d; stroke: #18793d"/>
     <use xlink:href="#mb0d0c46f81" x="319.897403" y="289.051776" style="fill: #18793d; stroke: #18793d"/>
     <use xlink:href="#mb0d0c46f81" x="327.144156" y="292.482412" style="fill: #18793d; stroke: #18793d"/>
     <use xlink:href="#mb0d0c46f81" x="334.390909" y="293.177163" style="fill: #18793d; stroke: #18793d"/>
     <use xlink:href="#mb0d0c46f81" x="341.637662" y="294.877342" style="fill: #18793d; stroke: #18793d"/>
     <use xlink:href="#mb0d0c46f81" x="348.884416" y="296.588728" style="fill: #18793d; stroke: #18793d"/>
     <use xlink:href="#mb0d0c46f81" x="356.131169" y="296.174132" style="fill: #18793d; stroke: #18793d"/>
     <use xlink:href="#mb0d0c46f81" x="363.377922" y="296.63122" style="fill: #18793d; stroke: #18793d"/>
     <use xlink:href="#mb0d0c46f81" x="370.624675" y="299.487978" style="fill: #18793d; stroke: #18793d"/>
     <use xlink:href="#mb0d0c46f81" x="377.871429" y="296.615282" style="fill: #18793d; stroke: #18793d"/>
     <use xlink:href="#mb0d0c46f81" x="385.118182" y="296.564216" style="fill: #18793d; stroke: #18793d"/>
     <use xlink:href="#mb0d0c46f81" x="392.364935" y="299.536067" style="fill: #18793d; stroke: #18793d"/>
     <use xlink:href="#mb0d0c46f81" x="399.611688" y="299.267821" style="fill: #18793d; stroke: #18793d"/>
     <use xlink:href="#mb0d0c46f81" x="406.858442" y="297.356569" style="fill: #18793d; stroke: #18793d"/>
     <use xlink:href="#mb0d0c46f81" x="414.105195" y="302.27428" style="fill: #18793d; stroke: #18793d"/>
     <use xlink:href="#mb0d0c46f81" x="421.351948" y="302.101758" style="fill: #18793d; stroke: #18793d"/>
     <use xlink:href="#mb0d0c46f81" x="428.598701" y="301.118136" style="fill: #18793d; stroke: #18793d"/>
     <use xlink:href="#mb0d0c46f81" x="435.845455" y="300.69782" style="fill: #18793d; stroke: #18793d"/>
    </g>
   </g>
   <g id="patch_3">
    <path d="M 63 320.4 
L 63 43.2 
" style="fill: none; stroke: #000000; stroke-width: 0.8; stroke-linejoin: miter; stroke-linecap: square"/>
   </g>
   <g id="patch_4">
    <path d="M 63 320.4 
L 453.6 320.4 
" style="fill: none; stroke: #000000; stroke-width: 0.8; stroke-linejoin: miter; stroke-linecap: square"/>
   </g>
   <g id="legend_1">
    <g id="patch_5">
     <path d="M 370.341563 280.43875 
L 443.8 280.43875 
Q 446.6 280.43875 446.6 277.63875 
L 446.6 196.84125 
Q 446.6 194.04125 443.8 194.04125 
L 370.341563 194.04125 
Q 367.541563 194.04125 367.541563 196.84125 
L 367.541563 277.63875 
Q 367.541563 280.43875 370.341563 280.43875 
z
" style="fill: #ffffff; opacity: 0.8; stroke: #cccccc; stroke-linejoin: miter"/>
    </g>
    <g id="line2d_19">
     <g>
      <use xlink:href="#mc3831c14b4" x="387.141563" y="205.379063" style="fill: #332288; stroke: #332288"/>
     </g>
    </g>
    <g id="text_17">
     <!-- [S] -->
     <g transform="translate(412.341563 210.279063) scale(0.14 -0.14)">
      <defs>
       <path id="DejaVuSans-5b" d="M 550 4863 
L 1875 4863 
L 1875 4416 
L 1125 4416 
L 1125 -397 
L 1875 -397 
L 1875 -844 
L 550 -844 
L 550 4863 
z
" transform="scale(0.015625)"/>
       <path id="DejaVuSans-53" d="M 3425 4513 
L 3425 3897 
Q 3066 4069 2747 4153 
Q 2428 4238 2131 4238 
Q 1616 4238 1336 4038 
Q 1056 3838 1056 3469 
Q 1056 3159 1242 3001 
Q 1428 2844 1947 2747 
L 2328 2669 
Q 3034 2534 3370 2195 
Q 3706 1856 3706 1288 
Q 3706 609 3251 259 
Q 2797 -91 1919 -91 
Q 1588 -91 1214 -16 
Q 841 59 441 206 
L 441 856 
Q 825 641 1194 531 
Q 1563 422 1919 422 
Q 2459 422 2753 634 
Q 3047 847 3047 1241 
Q 3047 1584 2836 1778 
Q 2625 1972 2144 2069 
L 1759 2144 
Q 1053 2284 737 2584 
Q 422 2884 422 3419 
Q 422 4038 858 4394 
Q 1294 4750 2059 4750 
Q 2388 4750 2728 4690 
Q 3069 4631 3425 4513 
z
" transform="scale(0.015625)"/>
       <path id="DejaVuSans-5d" d="M 1947 4863 
L 1947 -844 
L 622 -844 
L 622 -397 
L 1369 -397 
L 1369 4416 
L 622 4416 
L 622 4863 
L 1947 4863 
z
" transform="scale(0.015625)"/>
      </defs>
      <use xlink:href="#DejaVuSans-5b"/>
      <use xlink:href="#DejaVuSans-53" x="39.013672"/>
      <use xlink:href="#DejaVuSans-5d" x="102.490234"/>
     </g>
    </g>
    <g id="line2d_20">
     <g>
      <use xlink:href="#m14150918fd" x="387.141563" y="225.928438" style="fill: #88cceb; stroke: #88cceb"/>
     </g>
    </g>
    <g id="text_18">
     <!-- [E] -->
     <g transform="translate(412.341563 230.828438) scale(0.14 -0.14)">
      <defs>
       <path id="DejaVuSans-45" d="M 628 4666 
L 3578 4666 
L 3578 4134 
L 1259 4134 
L 1259 2753 
L 3481 2753 
L 3481 2222 
L 1259 2222 
L 1259 531 
L 3634 531 
L 3634 0 
L 628 0 
L 628 4666 
z
" transform="scale(0.015625)"/>
      </defs>
      <use xlink:href="#DejaVuSans-5b"/>
      <use xlink:href="#DejaVuSans-45" x="39.013672"/>
      <use xlink:href="#DejaVuSans-5d" x="102.197266"/>
     </g>
    </g>
    <g id="line2d_21">
     <g>
      <use xlink:href="#mb0d0c46f81" x="387.141563" y="246.477812" style="fill: #18793d; stroke: #18793d"/>
     </g>
    </g>
    <g id="text_19">
     <!-- [ES] -->
     <g transform="translate(412.341563 251.377813) scale(0.14 -0.14)">
      <use xlink:href="#DejaVuSans-5b"/>
      <use xlink:href="#DejaVuSans-45" x="39.013672"/>
      <use xlink:href="#DejaVuSans-53" x="102.197266"/>
      <use xlink:href="#DejaVuSans-5d" x="165.673828"/>
     </g>
    </g>
    <g id="line2d_22">
     <g>
      <use xlink:href="#mc747f191b7" x="387.141563" y="267.027188" style="fill: #cc6677; stroke: #cc6677"/>
     </g>
    </g>
    <g id="text_20">
     <!-- [P] -->
     <g transform="translate(412.341563 271.927188) scale(0.14 -0.14)">
      <defs>
       <path id="DejaVuSans-50" d="M 1259 4147 
L 1259 2394 
L 2053 2394 
Q 2494 2394 2734 2622 
Q 2975 2850 2975 3272 
Q 2975 3691 2734 3919 
Q 2494 4147 2053 4147 
L 1259 4147 
z
M 628 4666 
L 2053 4666 
Q 2838 4666 3239 4311 
Q 3641 3956 3641 3272 
Q 3641 2581 3239 2228 
Q 2838 1875 2053 1875 
L 1259 1875 
L 1259 0 
L 628 0 
L 628 4666 
z
" transform="scale(0.015625)"/>
      </defs>
      <use xlink:href="#DejaVuSans-5b"/>
      <use xlink:href="#DejaVuSans-50" x="39.013672"/>
      <use xlink:href="#DejaVuSans-5d" x="99.316406"/>
     </g>
    </g>
   </g>
  </g>
 </g>
 <defs>
  <clipPath id="p0f1048ae7e">
   <rect x="63" y="43.2" width="390.6" height="277.2"/>
  </clipPath>
 </defs>
</svg>
